<svg width="40" height="28" viewBox="0 0 40 28" fill="none" xmlns="http://www.w3.org/2000/svg">
<path d="M0 4C0 1.79086 1.79086 0 4 0H36C38.2091 0 40 1.79086 40 4V23.4286C40 25.6377 38.2091 27.4286 36 27.4286H4C1.79086 27.4286 0 25.6377 0 23.4286V4Z" fill="white"/>
<path fill-rule="evenodd" clip-rule="evenodd" d="M9.53908 10.2091C10.0763 10.2544 10.6135 9.93721 10.9492 9.53504C11.2794 9.12154 11.4976 8.56643 11.4416 8C10.966 8.02266 10.3784 8.3172 10.0427 8.7307C9.73493 9.08755 9.47193 9.66532 9.53908 10.2091ZM15.9294 17.5048V8.67405H19.2029C20.8928 8.67405 22.0735 9.85224 22.0735 11.5742C22.0735 13.2962 20.8704 14.4857 19.1581 14.4857H17.2836V17.5048H15.9294ZM11.436 10.3167C10.9627 10.2891 10.5309 10.4608 10.1821 10.5994C9.95766 10.6886 9.76758 10.7642 9.62297 10.7642C9.4607 10.7642 9.26277 10.6846 9.04055 10.5952C8.74937 10.4781 8.41647 10.3443 8.06736 10.3507C7.26717 10.362 6.52294 10.8208 6.11445 11.5515C5.2751 13.0129 5.89622 15.1767 6.7076 16.3662C7.1049 16.9553 7.58053 17.6011 8.20726 17.5784C8.48297 17.5679 8.68131 17.4827 8.88657 17.3945C9.12288 17.293 9.36837 17.1876 9.75168 17.1876C10.1217 17.1876 10.3564 17.2903 10.5818 17.3888C10.7961 17.4826 11.0018 17.5726 11.3073 17.5671C11.9564 17.5557 12.3649 16.978 12.7622 16.3889C13.1909 15.7566 13.3793 15.1396 13.4079 15.0459L13.4113 15.0351C13.4106 15.0344 13.4053 15.032 13.396 15.0276C13.2526 14.9612 12.1572 14.4536 12.1466 13.0922C12.1361 11.9496 13.0156 11.3707 13.154 11.2796L13.154 11.2795L13.154 11.2795C13.1624 11.274 13.1681 11.2703 13.1707 11.2683C12.6111 10.43 11.7382 10.3394 11.436 10.3167ZM24.5469 17.5727C25.3974 17.5727 26.1864 17.1366 26.5446 16.4455H26.5725V17.5048H27.826V13.1092C27.826 11.8348 26.8187 11.0134 25.2687 11.0134C23.8306 11.0134 22.7674 11.8461 22.7283 12.9903H23.9481C24.0489 12.4465 24.5469 12.0897 25.2296 12.0897C26.0577 12.0897 26.5222 12.4805 26.5222 13.1999V13.687L24.8323 13.789C23.2599 13.8852 22.4093 14.5366 22.4093 15.6695C22.4093 16.8137 23.2878 17.5727 24.5469 17.5727ZM24.9105 16.5248C24.1887 16.5248 23.7298 16.1736 23.7298 15.6355C23.7298 15.0804 24.1719 14.7576 25.0168 14.7066L26.5221 14.6103V15.1088C26.5221 15.9357 25.8282 16.5248 24.9105 16.5248ZM31.9835 17.8503C31.4408 19.3967 30.8196 19.9064 29.499 19.9064C29.3983 19.9064 29.0626 19.8951 28.9842 19.8725V18.8132C29.0682 18.8246 29.2752 18.8359 29.3815 18.8359C29.9803 18.8359 30.316 18.581 30.5231 17.9183L30.6462 17.5274L28.3519 11.0984H29.7676L31.3624 16.3153H31.3904L32.9852 11.0984H34.3617L31.9835 17.8503ZM17.2835 9.82958H18.8447C20.0198 9.82958 20.6912 10.464 20.6912 11.5799C20.6912 12.6957 20.0198 13.3358 18.8391 13.3358H17.2835V9.82958Z" fill="black"/>
</svg>
