<svg width="40" height="28" viewBox="0 0 40 28" fill="none" xmlns="http://www.w3.org/2000/svg">
<path d="M0 4C0 1.79086 1.79086 0 4 0H36C38.2091 0 40 1.79086 40 4V23.4286C40 25.6377 38.2091 27.4286 36 27.4286H4C1.79086 27.4286 0 25.6377 0 23.4286V4Z" fill="white"/>
<path fill-rule="evenodd" clip-rule="evenodd" d="M18.893 18.0113V14.5588H20.6749C21.4051 14.5588 22.0214 14.3142 22.5238 13.8316L22.6444 13.7093C23.5621 12.7102 23.5018 11.1539 22.5238 10.2296C22.0348 9.74024 21.3649 9.47519 20.6749 9.48878H17.8145V18.0113H18.893ZM18.8931 13.5122V10.5354H20.7021C21.0907 10.5354 21.4592 10.6849 21.7339 10.9568C22.3168 11.5277 22.3302 12.4791 21.7674 13.0704C21.4927 13.3627 21.1041 13.5258 20.7021 13.5122H18.8931ZM27.6753 12.6355C27.2131 12.2073 26.5834 11.9898 25.7862 11.9898C24.7613 11.9898 23.9909 12.3704 23.4818 13.1248L24.433 13.7297C24.7814 13.2132 25.257 12.9549 25.8599 12.9549C26.2417 12.9549 26.6102 13.0976 26.8982 13.3559C27.1796 13.6005 27.3403 13.954 27.3403 14.3278V14.5792C26.925 14.3481 26.4025 14.2258 25.7594 14.2258C25.0091 14.2258 24.4062 14.4025 23.9574 14.7627C23.5086 15.1229 23.2808 15.5987 23.2808 16.2035C23.2674 16.754 23.5019 17.2773 23.9172 17.6308C24.3392 18.0113 24.8751 18.2016 25.5048 18.2016C26.2484 18.2016 26.8379 17.8686 27.2868 17.2026H27.3336V18.0113H28.3653V14.4161C28.3653 13.6617 28.1375 13.0636 27.6753 12.6355ZM24.7481 16.9375C24.527 16.7744 24.393 16.5094 24.393 16.2239C24.393 15.9045 24.5404 15.6394 24.8285 15.4287C25.1233 15.2181 25.4918 15.1093 25.9272 15.1093C26.5302 15.1025 26.9992 15.2385 27.3342 15.5103C27.3342 15.9725 27.1533 16.3734 26.7982 16.7132C26.4766 17.0395 26.0412 17.223 25.5856 17.223C25.2841 17.2298 24.9893 17.1278 24.7481 16.9375ZM30.6831 20.5736L34.2872 12.1801H33.1148L31.4468 16.3666H31.4267L29.7185 12.1801H28.5462L30.9109 17.6375L29.5711 20.5736H30.6831Z" fill="#3C4043"/>
<path d="M15.168 13.8126C15.168 13.4796 15.1412 13.1465 15.0876 12.8203H10.5391V14.7029H13.1449C13.0378 15.3078 12.6894 15.8515 12.1803 16.1913V17.4146H13.7344C14.6455 16.5651 15.168 15.3078 15.168 13.8126Z" fill="#4285F4"/>
<path d="M10.5398 18.5961C11.8394 18.5961 12.938 18.1611 13.7352 17.4135L12.1811 16.1902C11.7456 16.4892 11.1896 16.6591 10.5398 16.6591C9.28043 16.6591 8.2153 15.796 7.83346 14.6406H6.23242V15.9047C7.04969 17.5562 8.71772 18.5961 10.5398 18.5961Z" fill="#34A853"/>
<path d="M7.83372 14.6409C7.63272 14.036 7.63272 13.3768 7.83372 12.7651V11.5078H6.23242C5.54232 12.8875 5.54232 14.5186 6.23242 15.8982L7.83372 14.6409Z" fill="#FBBC04"/>
<path d="M10.5398 10.7458C11.2298 10.7322 11.893 10.9973 12.3887 11.4798L13.7687 10.0798C12.8912 9.25065 11.7389 8.7953 10.5398 8.80889C8.71772 8.80889 7.04969 9.85552 6.23242 11.507L7.83346 12.7711C8.2153 11.609 9.28043 10.7458 10.5398 10.7458Z" fill="#EA4335"/>
</svg>
