<svg width="40" height="28" viewBox="0 0 40 28" fill="none" xmlns="http://www.w3.org/2000/svg">
<path d="M0 4C0 1.79086 1.79086 0 4 0H36C38.2091 0 40 1.79086 40 4V23.4286C40 25.6377 38.2091 27.4286 36 27.4286H4C1.79086 27.4286 0 25.6377 0 23.4286V4Z" fill="white"/>
<path fill-rule="evenodd" clip-rule="evenodd" d="M20.2849 19.6085C18.9231 20.7837 17.1566 21.4931 15.2263 21.4931C10.9193 21.4931 7.42773 17.961 7.42773 13.604C7.42773 9.24693 10.9193 5.71484 15.2263 5.71484C17.1566 5.71484 18.9231 6.42427 20.2849 7.59945C21.6467 6.42427 23.4131 5.71484 25.3434 5.71484C29.6505 5.71484 33.142 9.24693 33.142 13.604C33.142 17.961 29.6505 21.4931 25.3434 21.4931C23.4131 21.4931 21.6467 20.7837 20.2849 19.6085Z" fill="#ED0006"/>
<path fill-rule="evenodd" clip-rule="evenodd" d="M20.2852 19.6085C21.962 18.1615 23.0252 16.0083 23.0252 13.604C23.0252 11.1996 21.962 9.04646 20.2852 7.59945C21.647 6.42427 23.4134 5.71484 25.3437 5.71484C29.6507 5.71484 33.1423 9.24693 33.1423 13.604C33.1423 17.961 29.6507 21.4931 25.3437 21.4931C23.4134 21.4931 21.647 20.7837 20.2852 19.6085Z" fill="#F9A000"/>
<path fill-rule="evenodd" clip-rule="evenodd" d="M20.2849 19.6066C21.9617 18.1596 23.025 16.0065 23.025 13.6021C23.025 11.1978 21.9617 9.04467 20.2849 7.59766C18.6082 9.04467 17.5449 11.1978 17.5449 13.6021C17.5449 16.0065 18.6082 18.1596 20.2849 19.6066Z" fill="#FF5E00"/>
</svg>
