<svg width="40" height="28" viewBox="0 0 40 28" fill="none" xmlns="http://www.w3.org/2000/svg">
<path d="M0 4C0 1.79086 1.79086 0 4 0H36C38.2091 0 40 1.79086 40 4V23.4286C40 25.6377 38.2091 27.4286 36 27.4286H4C1.79086 27.4286 0 25.6377 0 23.4286V4Z" fill="white"/>
<path fill-rule="evenodd" clip-rule="evenodd" d="M11.3151 17.4219H9.53729C9.41562 17.4219 9.31215 17.5103 9.29318 17.6304L8.57413 22.1893C8.55984 22.2793 8.62951 22.3604 8.72075 22.3604H9.56951C9.69117 22.3604 9.79465 22.2719 9.81362 22.1516L10.0076 20.922C10.0263 20.8016 10.13 20.7133 10.2514 20.7133H10.8142C11.9853 20.7133 12.6612 20.1466 12.8378 19.0236C12.9173 18.5323 12.8411 18.1462 12.611 17.8758C12.3584 17.579 11.9101 17.4219 11.3151 17.4219ZM11.5202 19.087C11.423 19.7249 10.9356 19.7249 10.4643 19.7249H10.196L10.3842 18.5335C10.3954 18.4615 10.4578 18.4085 10.5306 18.4085H10.6535C10.9746 18.4085 11.2775 18.4085 11.434 18.5914C11.5272 18.7007 11.5559 18.8628 11.5202 19.087ZM16.6296 19.0665H15.7782C15.7056 19.0665 15.643 19.1196 15.6318 19.1916L15.5941 19.4297L15.5346 19.3434C15.3503 19.0759 14.9393 18.9865 14.5291 18.9865C13.5882 18.9865 12.7847 19.6991 12.6282 20.6986C12.5469 21.1972 12.6625 21.6739 12.9453 22.0064C13.2048 22.3121 13.5761 22.4395 14.0177 22.4395C14.7757 22.4395 15.1962 21.9521 15.1962 21.9521L15.1581 22.1887C15.1438 22.2792 15.2135 22.3602 15.3042 22.3602H16.0711C16.1931 22.3602 16.296 22.2718 16.3152 22.1515L16.7754 19.2376C16.7899 19.148 16.7205 19.0665 16.6296 19.0665ZM15.4428 20.7235C15.3606 21.2099 14.9746 21.5364 14.4823 21.5364C14.2351 21.5364 14.0374 21.4571 13.9106 21.3069C13.7848 21.1577 13.7369 20.9453 13.777 20.7087C13.8537 20.2265 14.2463 19.8894 14.7311 19.8894C14.9728 19.8894 15.1693 19.9696 15.2988 20.1212C15.4285 20.2743 15.48 20.488 15.4428 20.7235ZM20.3082 19.0664H21.1638C21.2836 19.0664 21.3535 19.2008 21.2854 19.2991L18.44 23.4064C18.3939 23.4729 18.318 23.5125 18.2369 23.5125H17.3824C17.2621 23.5125 17.1918 23.377 17.2615 23.2785L18.1475 22.0278L17.2052 19.2624C17.1726 19.1662 17.2436 19.0664 17.3458 19.0664H18.1865C18.2957 19.0664 18.3921 19.1381 18.4236 19.2426L18.9237 20.9129L20.1037 19.1748C20.1499 19.1069 20.2267 19.0664 20.3082 19.0664Z" fill="#253B80"/>
<path fill-rule="evenodd" clip-rule="evenodd" d="M29.5847 22.1856L30.3143 17.5433C30.3255 17.4713 30.388 17.4182 30.4605 17.418H31.2819C31.3726 17.418 31.4423 17.4993 31.428 17.5893L30.7084 22.148C30.6897 22.2683 30.5862 22.3567 30.4643 22.3567H29.7307C29.64 22.3567 29.5704 22.2756 29.5847 22.1856ZM23.9968 17.4182H22.2187C22.0973 17.4182 21.9938 17.5066 21.9748 17.6267L21.2558 22.1856C21.2415 22.2756 21.3111 22.3567 21.4019 22.3567H22.3143C22.3991 22.3567 22.4717 22.2949 22.4849 22.2106L22.6889 20.9184C22.7077 20.7979 22.8114 20.7096 22.9328 20.7096H23.4953C24.6667 20.7096 25.3424 20.1429 25.5191 19.0199C25.5989 18.5286 25.5223 18.1425 25.2922 17.8721C25.0397 17.5753 24.5918 17.4182 23.9968 17.4182ZM24.202 19.0833C24.105 19.7213 23.6175 19.7213 23.1459 19.7213H22.8779L23.0664 18.5298C23.0776 18.4579 23.1395 18.4048 23.2125 18.4048H23.3354C23.6563 18.4048 23.9594 18.4048 24.1158 18.5878C24.2092 18.697 24.2376 18.8592 24.202 19.0833ZM29.3108 19.0628H28.46C28.3869 19.0628 28.3248 19.1159 28.3138 19.188L28.2762 19.426L28.2164 19.3398C28.0321 19.0722 27.6214 18.9828 27.2112 18.9828C26.2703 18.9828 25.467 19.6954 25.3105 20.695C25.2294 21.1935 25.3446 21.6702 25.6274 22.0028C25.8874 22.3084 26.2581 22.4358 26.6998 22.4358C27.4578 22.4358 27.8781 21.9484 27.8781 21.9484L27.8402 22.185C27.8259 22.2755 27.8956 22.3566 27.9869 22.3566H28.7534C28.8748 22.3566 28.9783 22.2681 28.9973 22.1478L29.4577 19.2339C29.4717 19.1443 29.4021 19.0628 29.3108 19.0628ZM28.1241 20.7199C28.0424 21.2062 27.6559 21.5327 27.1635 21.5327C26.9168 21.5327 26.7188 21.4535 26.5918 21.3032C26.466 21.154 26.4187 20.9416 26.4583 20.7051C26.5354 20.2228 26.9275 19.8857 27.4123 19.8857C27.6541 19.8857 27.8506 19.9659 27.9801 20.1175C28.1103 20.2707 28.1618 20.4843 28.1241 20.7199Z" fill="#179BD7"/>
<path d="M17.8939 15.7872L18.1125 14.3989L17.6256 14.3876H15.3008L16.9164 4.14325C16.9214 4.11232 16.9377 4.08348 16.9615 4.06301C16.9854 4.04253 17.0159 4.03125 17.0477 4.03125H20.9677C22.2691 4.03125 23.1671 4.30206 23.6361 4.83657C23.8559 5.08732 23.9959 5.34935 24.0636 5.63771C24.1346 5.94029 24.1359 6.30179 24.0665 6.74269L24.0615 6.77487V7.05737L24.2814 7.18192C24.4665 7.28012 24.6135 7.39254 24.7264 7.52127C24.9145 7.73566 25.0361 8.00814 25.0875 8.33118C25.1406 8.66343 25.123 9.05877 25.0361 9.50637C24.9358 10.0212 24.7736 10.4697 24.5547 10.8366C24.3532 11.1747 24.0966 11.4551 23.792 11.6724C23.5011 11.8789 23.1555 12.0356 22.7647 12.136C22.386 12.2345 21.9544 12.2843 21.4809 12.2843H21.1758C20.9577 12.2843 20.7457 12.3628 20.5795 12.5037C20.4127 12.6475 20.3023 12.8438 20.2685 13.0587L20.2455 13.1837L19.8593 15.6305L19.8418 15.7203C19.8372 15.7488 19.8293 15.763 19.8176 15.7727C19.8071 15.7813 19.7921 15.7872 19.7774 15.7872H17.8939Z" fill="#253B80"/>
<path d="M24.4893 6.80859C24.4776 6.8834 24.4643 6.95987 24.4492 7.03844C23.9322 9.69263 22.1636 10.6095 19.9047 10.6095H18.7547C18.4784 10.6095 18.2457 10.8101 18.2026 11.0826L17.6137 14.8172L17.447 15.8757C17.419 16.0546 17.5569 16.2159 17.7374 16.2159H19.7773C20.0189 16.2159 20.224 16.0404 20.262 15.8022L20.2821 15.6985L20.6662 13.2612L20.6909 13.1275C20.7284 12.8885 20.934 12.713 21.1756 12.713H21.4807C23.457 12.713 25.0042 11.9106 25.4564 9.58857C25.6453 8.61858 25.5475 7.80867 25.0476 7.23904C24.8964 7.06728 24.7087 6.92477 24.4893 6.80859Z" fill="#179BD7"/>
<path d="M23.9491 6.59571C23.8701 6.57272 23.7886 6.55182 23.705 6.53302C23.621 6.51464 23.5349 6.49834 23.4463 6.48413C23.1362 6.43398 22.7965 6.41016 22.4324 6.41016H19.3599C19.2843 6.41016 19.2125 6.42729 19.1481 6.45822C19.0064 6.52633 18.9011 6.66049 18.8756 6.82473L18.2219 10.9646L18.2031 11.0854C18.2462 10.8129 18.479 10.6123 18.7552 10.6123H19.9053C22.1642 10.6123 23.9328 9.69498 24.4498 7.04121C24.4652 6.96264 24.4781 6.88616 24.4898 6.81136C24.359 6.74198 24.2173 6.68264 24.0648 6.63206C24.0273 6.61953 23.9884 6.60741 23.9491 6.59571Z" fill="#222D65"/>
<path d="M18.8752 6.823C18.9007 6.65876 19.0061 6.52461 19.1477 6.4569C19.2125 6.42598 19.284 6.40884 19.3595 6.40884H22.4322C22.7962 6.40884 23.1359 6.43266 23.4459 6.48282C23.5346 6.49702 23.6207 6.51333 23.7047 6.53171C23.7883 6.55052 23.8698 6.57142 23.9488 6.5944C23.988 6.6061 24.0269 6.61822 24.0649 6.63034C24.2174 6.6809 24.3591 6.74067 24.4899 6.80963C24.6438 5.82878 24.4887 5.16095 23.9584 4.55622C23.3738 3.89049 22.3185 3.60547 20.9682 3.60547H17.0481C16.7722 3.60547 16.537 3.80606 16.4943 4.07896L14.8616 14.4287C14.8294 14.6334 14.9873 14.8182 15.1938 14.8182H17.614L18.2216 10.9629L18.8752 6.823Z" fill="#253B80"/>
</svg>
