<svg width="40" height="28" viewBox="0 0 40 28" fill="none" xmlns="http://www.w3.org/2000/svg">
<path d="M0 4C0 1.79086 1.79086 0 4 0H36C38.2091 0 40 1.79086 40 4V23.4286C40 25.6377 38.2091 27.4286 36 27.4286H4C1.79086 27.4286 0 25.6377 0 23.4286V4Z" fill="white"/>
<path fill-rule="evenodd" clip-rule="evenodd" d="M21.4925 9.30338L19.4606 9.73946V8.09206L21.4925 7.66406V9.30338ZM13.2352 8.60081L11.26 9.02073L11.2519 15.4892C11.2519 16.6843 12.1505 17.5646 13.3486 17.5646C14.0124 17.5646 14.4981 17.4434 14.7653 17.2981V15.6588C14.5062 15.7637 13.2272 16.1352 13.2272 14.94V12.0733H14.7653V10.3532H13.2272L13.2352 8.60081ZM34.8577 13.9145C34.8577 11.8471 33.8539 10.2159 31.9353 10.2159C30.0086 10.2159 28.8429 11.8471 28.8429 13.8983C28.8429 16.329 30.2191 17.5565 32.1944 17.5565C33.1577 17.5565 33.8863 17.3385 34.4368 17.0316V15.4165C33.8863 15.6911 33.2548 15.8607 32.4534 15.8607C31.6682 15.8607 30.972 15.5861 30.8829 14.6332H34.8415C34.8415 14.5887 34.8444 14.4877 34.8478 14.3713V14.3712V14.3711V14.3711C34.8523 14.2128 34.8577 14.0261 34.8577 13.9145ZM30.8586 13.1473C30.8586 12.2348 31.4172 11.8552 31.9272 11.8552C32.421 11.8552 32.9472 12.2348 32.9472 13.1473H30.8586ZM8.45105 11.9683C8.022 11.9683 7.76295 12.0894 7.76295 12.4044C7.76295 12.7482 8.20878 12.8995 8.76187 13.0872C9.66355 13.3931 10.8503 13.7958 10.8553 15.2873C10.8553 16.7328 9.69772 17.5646 8.0139 17.5646C7.31771 17.5646 6.55675 17.4273 5.80389 17.1043V15.1823C6.48389 15.5538 7.34199 15.8284 8.0139 15.8284C8.46724 15.8284 8.79105 15.7072 8.79105 15.3358C8.79105 14.9549 8.30776 14.7808 7.72431 14.5706C6.83574 14.2505 5.71484 13.8467 5.71484 12.5013C5.71484 11.0719 6.80771 10.2159 8.45105 10.2159C9.12295 10.2159 9.78677 10.3209 10.4587 10.5874V12.4851C9.84343 12.154 9.06629 11.9683 8.45105 11.9683ZM17.283 10.9508L17.1535 10.3532H15.4049V17.4192H17.4287V12.6305C17.9063 12.0087 18.7159 12.1217 18.9668 12.2105V10.3532C18.7078 10.2563 17.7606 10.0786 17.283 10.9508ZM19.4604 10.3532H21.4924V17.4192H19.4604V10.3532ZM24.1314 10.8458C24.4147 10.5874 24.9247 10.2159 25.7181 10.2159C27.1347 10.2159 28.4705 11.4918 28.4786 13.8337C28.4786 16.3936 27.159 17.5565 25.71 17.5565C24.9976 17.5565 24.5685 17.2577 24.2771 17.0478L24.269 19.3331L22.2452 19.7611V10.3451H24.0262L24.1314 10.8458ZM24.2771 15.4003C24.4714 15.6103 24.7547 15.7799 25.2323 15.7799C25.9771 15.7799 26.479 14.9723 26.479 13.8902C26.479 12.8324 25.969 12.0087 25.2323 12.0087C24.7709 12.0087 24.4795 12.1702 24.269 12.4044L24.2771 15.4003Z" fill="#6461FC"/>
</svg>
