<svg width="40" height="28" viewBox="0 0 40 28" fill="none" xmlns="http://www.w3.org/2000/svg">
<path d="M0 4C0 1.79086 1.79086 0 4 0H36C38.2091 0 40 1.79086 40 4V23.4286C40 25.6377 38.2091 27.4286 36 27.4286H4C1.79086 27.4286 0 25.6377 0 23.4286V4Z" fill="white"/>
<path fill-rule="evenodd" clip-rule="evenodd" d="M12.1429 18.5814H9.71965L7.90253 11.649C7.81628 11.3301 7.63315 11.0482 7.36377 10.9153C6.6915 10.5814 5.95071 10.3156 5.14258 10.1816V9.91472H9.0462C9.58496 9.91472 9.98903 10.3156 10.0564 10.7813L10.9992 15.7819L13.4212 9.91472H15.7771L12.1429 18.5814ZM17.124 18.5814H14.8355L16.7199 9.91472H19.0085L17.124 18.5814ZM21.9693 12.3157C22.0366 11.8489 22.4407 11.582 22.9121 11.582C23.6529 11.515 24.4598 11.649 25.1333 11.9817L25.5374 10.1158C24.8639 9.84887 24.1231 9.71484 23.4509 9.71484C21.2297 9.71484 19.6134 10.9153 19.6134 12.5814C19.6134 13.8489 20.7583 14.5144 21.5664 14.9153C22.4407 15.3151 22.7774 15.582 22.7101 15.9818C22.7101 16.5814 22.0366 16.8483 21.3644 16.8483C20.5562 16.8483 19.7481 16.6484 19.0085 16.3145L18.6044 18.1816C19.4125 18.5144 20.2868 18.6484 21.095 18.6484C23.5856 18.7143 25.1333 17.515 25.1333 15.7149C25.1333 13.448 21.9693 13.3151 21.9693 12.3157ZM33.1426 18.5814L31.3255 9.91472H29.3736C28.9696 9.91472 28.5655 10.1816 28.4308 10.5814L25.066 18.5814H27.4218L27.8921 17.3151H30.7867L31.0561 18.5814H33.1426ZM29.7104 12.2486L30.3826 15.515H28.4982L29.7104 12.2486Z" fill="#172B85"/>
</svg>
