<svg width="1410" height="230" viewBox="0 0 1410 230" fill="none" xmlns="http://www.w3.org/2000/svg">
<rect x="0.5" y="0.5" width="1409" height="229" stroke="black" stroke-dasharray="8 8"/>
<rect width="982" height="230" fill="white"/>
<rect width="982" height="230" fill="#FF458D" fill-opacity="0.8"/>
<rect width="286" height="230" transform="matrix(-1 0 0 1 1268 0)" fill="#FF1941"/>
<path d="M387.581 75.8C387.581 79.4 388.861 82.16 391.421 84.08C393.981 85.92 396.981 86.84 400.421 86.84C404.021 86.84 407.021 85.92 409.421 84.08C411.821 82.16 413.021 79.4 413.021 75.8C413.021 74.68 412.861 73.48 412.541 72.2C412.221 70.84 411.581 69.56 410.621 68.36C409.741 67.16 408.461 66.16 406.781 65.36C405.181 64.56 403.061 64.16 400.421 64.16C398.741 64.16 397.101 64.44 395.501 65C393.981 65.48 392.621 66.2 391.421 67.16C390.221 68.12 389.261 69.32 388.541 70.76C387.901 72.2 387.581 73.88 387.581 75.8ZM372.101 74.24C372.101 70.48 372.941 67.16 374.621 64.28C376.301 61.4 378.461 59 381.101 57.08C383.821 55.16 386.861 53.72 390.221 52.76C393.581 51.8 396.981 51.32 400.421 51.32C405.621 51.32 410.021 52.12 413.621 53.72C417.221 55.32 420.101 57.28 422.261 59.6C424.501 61.84 426.101 64.28 427.061 66.92C428.021 69.48 428.501 71.8 428.501 73.88C428.501 78.04 427.461 81.68 425.381 84.8C423.381 87.92 420.341 90.16 416.261 91.52V91.76C421.301 92.88 425.181 95.28 427.901 98.96C430.621 102.56 431.981 107 431.981 112.28C431.981 116.76 431.061 120.64 429.221 123.92C427.461 127.2 425.101 129.92 422.141 132.08C419.181 134.24 415.821 135.88 412.061 137C408.301 138.04 404.461 138.56 400.541 138.56C396.461 138.56 392.501 138.04 388.661 137C384.901 136.04 381.501 134.48 378.461 132.32C375.501 130.16 373.101 127.44 371.261 124.16C369.501 120.88 368.621 116.96 368.621 112.4C368.621 107.04 369.981 102.56 372.701 98.96C375.501 95.36 379.421 92.96 384.461 91.76V91.52C380.381 90.4 377.301 88.28 375.221 85.16C373.141 82.04 372.101 78.4 372.101 74.24ZM385.661 111.56C385.661 113.72 386.061 115.68 386.861 117.44C387.661 119.2 388.701 120.72 389.981 122C391.341 123.2 392.941 124.16 394.781 124.88C396.621 125.52 398.541 125.84 400.541 125.84C402.621 125.84 404.501 125.52 406.181 124.88C407.941 124.16 409.461 123.2 410.741 122C412.101 120.72 413.141 119.2 413.861 117.44C414.581 115.68 414.941 113.76 414.941 111.68C414.941 109.68 414.541 107.88 413.741 106.28C413.021 104.6 411.981 103.16 410.621 101.96C409.341 100.76 407.821 99.84 406.061 99.2C404.381 98.56 402.541 98.24 400.541 98.24C396.381 98.24 392.861 99.4 389.981 101.72C387.101 103.96 385.661 107.24 385.661 111.56ZM471.06 74.36H470.7L448.98 103.52H471.06V74.36ZM471.06 117.56H435.54V101.96L472.02 53H487.26V103.52H498.42V117.56H487.26V137H471.06V117.56ZM578.66 115.16C578.66 116.44 578.7 117.92 578.78 119.6C578.86 121.28 579.14 122.88 579.62 124.4C580.1 125.84 580.86 127.08 581.9 128.12C582.94 129.16 584.42 129.68 586.34 129.68C588.18 129.68 589.62 129.16 590.66 128.12C591.78 127.08 592.58 125.84 593.06 124.4C593.62 122.88 593.94 121.32 594.02 119.72C594.18 118.04 594.26 116.56 594.26 115.28C594.26 114.08 594.18 112.68 594.02 111.08C593.94 109.4 593.66 107.84 593.18 106.4C592.7 104.88 591.94 103.6 590.9 102.56C589.94 101.44 588.58 100.88 586.82 100.88C584.9 100.88 583.38 101.36 582.26 102.32C581.22 103.28 580.42 104.48 579.86 105.92C579.3 107.36 578.94 108.92 578.78 110.6C578.7 112.28 578.66 113.8 578.66 115.16ZM566.42 115.04C566.42 111.76 566.82 108.72 567.62 105.92C568.42 103.12 569.66 100.68 571.34 98.6C573.02 96.52 575.14 94.88 577.7 93.68C580.26 92.48 583.3 91.88 586.82 91.88C590.58 91.88 593.7 92.52 596.18 93.8C598.66 95 600.66 96.68 602.18 98.84C603.78 100.92 604.9 103.4 605.54 106.28C606.18 109.16 606.5 112.24 606.5 115.52C606.5 118.8 606.1 121.84 605.3 124.64C604.5 127.44 603.26 129.88 601.58 131.96C599.98 134.04 597.9 135.68 595.34 136.88C592.78 138 589.74 138.56 586.22 138.56C582.54 138.56 579.42 137.96 576.86 136.76C574.38 135.56 572.34 133.92 570.74 131.84C569.22 129.68 568.1 127.16 567.38 124.28C566.74 121.4 566.42 118.32 566.42 115.04ZM575.66 50.36H585.86L536.42 139.52H525.98L575.66 50.36ZM516.74 75.32C516.74 76.6 516.78 78.04 516.86 79.64C516.94 81.24 517.22 82.76 517.7 84.2C518.18 85.56 518.94 86.72 519.98 87.68C521.02 88.64 522.5 89.12 524.42 89.12C526.26 89.12 527.7 88.64 528.74 87.68C529.86 86.72 530.66 85.56 531.14 84.2C531.7 82.76 532.02 81.28 532.1 79.76C532.26 78.16 532.34 76.72 532.34 75.44C532.34 74.24 532.26 72.8 532.1 71.12C532.02 69.36 531.74 67.68 531.26 66.08C530.78 64.48 530.02 63.12 528.98 62C528.02 60.88 526.66 60.32 524.9 60.32C522.98 60.32 521.46 60.84 520.34 61.88C519.3 62.92 518.5 64.2 517.94 65.72C517.38 67.24 517.02 68.88 516.86 70.64C516.78 72.4 516.74 73.96 516.74 75.32ZM504.5 75.08C504.5 71.8 504.9 68.72 505.7 65.84C506.5 62.96 507.74 60.44 509.42 58.28C511.1 56.12 513.22 54.44 515.78 53.24C518.34 51.96 521.38 51.32 524.9 51.32C528.66 51.32 531.78 51.96 534.26 53.24C536.74 54.52 538.74 56.28 540.26 58.52C541.86 60.68 542.98 63.24 543.62 66.2C544.26 69.16 544.58 72.28 544.58 75.56C544.58 78.84 544.18 81.88 543.38 84.68C542.58 87.4 541.34 89.76 539.66 91.76C538.06 93.76 535.98 95.32 533.42 96.44C530.86 97.56 527.82 98.12 524.3 98.12C520.62 98.12 517.5 97.56 514.94 96.44C512.46 95.24 510.42 93.64 508.82 91.64C507.3 89.56 506.18 87.12 505.46 84.32C504.82 81.44 504.5 78.36 504.5 75.08Z" fill="#131313"/>
<path d="M397.065 171.26C397.065 171.74 397.152 172.147 397.325 172.48C397.499 172.813 397.725 173.087 398.005 173.3C398.299 173.5 398.639 173.653 399.025 173.76C399.412 173.853 399.812 173.9 400.225 173.9C400.505 173.9 400.805 173.88 401.125 173.84C401.445 173.787 401.745 173.693 402.025 173.56C402.305 173.427 402.539 173.247 402.725 173.02C402.912 172.78 403.005 172.48 403.005 172.12C403.005 171.733 402.879 171.42 402.625 171.18C402.385 170.94 402.065 170.74 401.665 170.58C401.265 170.42 400.812 170.28 400.305 170.16C399.799 170.04 399.285 169.907 398.765 169.76C398.232 169.627 397.712 169.467 397.205 169.28C396.699 169.08 396.245 168.827 395.845 168.52C395.445 168.213 395.119 167.833 394.865 167.38C394.625 166.913 394.505 166.353 394.505 165.7C394.505 164.967 394.659 164.333 394.965 163.8C395.285 163.253 395.699 162.8 396.205 162.44C396.712 162.08 397.285 161.813 397.925 161.64C398.565 161.467 399.205 161.38 399.845 161.38C400.592 161.38 401.305 161.467 401.985 161.64C402.679 161.8 403.292 162.067 403.825 162.44C404.359 162.813 404.779 163.293 405.085 163.88C405.405 164.453 405.565 165.153 405.565 165.98H402.525C402.499 165.553 402.405 165.2 402.245 164.92C402.099 164.64 401.899 164.42 401.645 164.26C401.392 164.1 401.099 163.987 400.765 163.92C400.445 163.853 400.092 163.82 399.705 163.82C399.452 163.82 399.199 163.847 398.945 163.9C398.692 163.953 398.459 164.047 398.245 164.18C398.045 164.313 397.879 164.48 397.745 164.68C397.612 164.88 397.545 165.133 397.545 165.44C397.545 165.72 397.599 165.947 397.705 166.12C397.812 166.293 398.019 166.453 398.325 166.6C398.645 166.747 399.079 166.893 399.625 167.04C400.185 167.187 400.912 167.373 401.805 167.6C402.072 167.653 402.439 167.753 402.905 167.9C403.385 168.033 403.859 168.253 404.325 168.56C404.792 168.867 405.192 169.28 405.525 169.8C405.872 170.307 406.045 170.96 406.045 171.76C406.045 172.413 405.919 173.02 405.665 173.58C405.412 174.14 405.032 174.627 404.525 175.04C404.032 175.44 403.412 175.753 402.665 175.98C401.932 176.207 401.079 176.32 400.105 176.32C399.319 176.32 398.552 176.22 397.805 176.02C397.072 175.833 396.419 175.533 395.845 175.12C395.285 174.707 394.839 174.18 394.505 173.54C394.172 172.9 394.012 172.14 394.025 171.26H397.065ZM417.114 176H414.414V174.56H414.354C413.994 175.16 413.527 175.593 412.954 175.86C412.38 176.127 411.794 176.26 411.194 176.26C410.434 176.26 409.807 176.16 409.314 175.96C408.834 175.76 408.454 175.48 408.174 175.12C407.894 174.747 407.694 174.3 407.574 173.78C407.467 173.247 407.414 172.66 407.414 172.02V165.66H410.254V171.5C410.254 172.353 410.387 172.993 410.654 173.42C410.92 173.833 411.394 174.04 412.074 174.04C412.847 174.04 413.407 173.813 413.754 173.36C414.1 172.893 414.274 172.133 414.274 171.08V165.66H417.114V176ZM424.289 174.14C424.756 174.14 425.142 174.047 425.449 173.86C425.769 173.673 426.022 173.433 426.209 173.14C426.409 172.833 426.549 172.48 426.629 172.08C426.709 171.68 426.749 171.273 426.749 170.86C426.749 170.447 426.702 170.04 426.609 169.64C426.529 169.24 426.389 168.887 426.189 168.58C425.989 168.26 425.729 168.007 425.409 167.82C425.102 167.62 424.722 167.52 424.269 167.52C423.802 167.52 423.409 167.62 423.089 167.82C422.782 168.007 422.529 168.253 422.329 168.56C422.142 168.867 422.009 169.22 421.929 169.62C421.849 170.02 421.809 170.433 421.809 170.86C421.809 171.273 421.849 171.68 421.929 172.08C422.022 172.48 422.162 172.833 422.349 173.14C422.549 173.433 422.809 173.673 423.129 173.86C423.449 174.047 423.836 174.14 424.289 174.14ZM419.069 165.66H421.769V166.98H421.809C422.156 166.42 422.596 166.013 423.129 165.76C423.662 165.507 424.249 165.38 424.889 165.38C425.702 165.38 426.402 165.533 426.989 165.84C427.576 166.147 428.062 166.553 428.449 167.06C428.836 167.567 429.122 168.16 429.309 168.84C429.496 169.507 429.589 170.207 429.589 170.94C429.589 171.633 429.496 172.3 429.309 172.94C429.122 173.58 428.836 174.147 428.449 174.64C428.076 175.133 427.602 175.527 427.029 175.82C426.469 176.113 425.809 176.26 425.049 176.26C424.409 176.26 423.816 176.133 423.269 175.88C422.736 175.613 422.296 175.227 421.949 174.72H421.909V179.62H419.069V165.66ZM436.316 174.14C436.782 174.14 437.169 174.047 437.476 173.86C437.796 173.673 438.049 173.433 438.236 173.14C438.436 172.833 438.576 172.48 438.656 172.08C438.736 171.68 438.776 171.273 438.776 170.86C438.776 170.447 438.729 170.04 438.636 169.64C438.556 169.24 438.416 168.887 438.216 168.58C438.016 168.26 437.756 168.007 437.436 167.82C437.129 167.62 436.749 167.52 436.296 167.52C435.829 167.52 435.436 167.62 435.116 167.82C434.809 168.007 434.556 168.253 434.356 168.56C434.169 168.867 434.036 169.22 433.956 169.62C433.876 170.02 433.836 170.433 433.836 170.86C433.836 171.273 433.876 171.68 433.956 172.08C434.049 172.48 434.189 172.833 434.376 173.14C434.576 173.433 434.836 173.673 435.156 173.86C435.476 174.047 435.862 174.14 436.316 174.14ZM431.096 165.66H433.796V166.98H433.836C434.182 166.42 434.622 166.013 435.156 165.76C435.689 165.507 436.276 165.38 436.916 165.38C437.729 165.38 438.429 165.533 439.016 165.84C439.602 166.147 440.089 166.553 440.476 167.06C440.862 167.567 441.149 168.16 441.336 168.84C441.522 169.507 441.616 170.207 441.616 170.94C441.616 171.633 441.522 172.3 441.336 172.94C441.149 173.58 440.862 174.147 440.476 174.64C440.102 175.133 439.629 175.527 439.056 175.82C438.496 176.113 437.836 176.26 437.076 176.26C436.436 176.26 435.842 176.133 435.296 175.88C434.762 175.613 434.322 175.227 433.976 174.72H433.936V179.62H431.096V165.66ZM445.642 170.84C445.642 171.253 445.682 171.66 445.762 172.06C445.842 172.447 445.976 172.8 446.162 173.12C446.362 173.427 446.622 173.673 446.942 173.86C447.262 174.047 447.662 174.14 448.142 174.14C448.622 174.14 449.022 174.047 449.342 173.86C449.676 173.673 449.936 173.427 450.122 173.12C450.322 172.8 450.462 172.447 450.542 172.06C450.622 171.66 450.662 171.253 450.662 170.84C450.662 170.427 450.622 170.02 450.542 169.62C450.462 169.22 450.322 168.867 450.122 168.56C449.936 168.253 449.676 168.007 449.342 167.82C449.022 167.62 448.622 167.52 448.142 167.52C447.662 167.52 447.262 167.62 446.942 167.82C446.622 168.007 446.362 168.253 446.162 168.56C445.976 168.867 445.842 169.22 445.762 169.62C445.682 170.02 445.642 170.427 445.642 170.84ZM442.802 170.84C442.802 170.013 442.929 169.267 443.182 168.6C443.436 167.92 443.796 167.347 444.262 166.88C444.729 166.4 445.289 166.033 445.942 165.78C446.596 165.513 447.329 165.38 448.142 165.38C448.956 165.38 449.689 165.513 450.342 165.78C451.009 166.033 451.576 166.4 452.042 166.88C452.509 167.347 452.869 167.92 453.122 168.6C453.376 169.267 453.502 170.013 453.502 170.84C453.502 171.667 453.376 172.413 453.122 173.08C452.869 173.747 452.509 174.32 452.042 174.8C451.576 175.267 451.009 175.627 450.342 175.88C449.689 176.133 448.956 176.26 448.142 176.26C447.329 176.26 446.596 176.133 445.942 175.88C445.289 175.627 444.729 175.267 444.262 174.8C443.796 174.32 443.436 173.747 443.182 173.08C442.929 172.413 442.802 171.667 442.802 170.84ZM455.149 165.66H457.849V167.58H457.889C458.022 167.26 458.202 166.967 458.429 166.7C458.655 166.42 458.915 166.187 459.209 166C459.502 165.8 459.815 165.647 460.149 165.54C460.482 165.433 460.829 165.38 461.189 165.38C461.375 165.38 461.582 165.413 461.809 165.48V168.12C461.675 168.093 461.515 168.073 461.329 168.06C461.142 168.033 460.962 168.02 460.789 168.02C460.269 168.02 459.829 168.107 459.469 168.28C459.109 168.453 458.815 168.693 458.589 169C458.375 169.293 458.222 169.64 458.129 170.04C458.035 170.44 457.989 170.873 457.989 171.34V176H455.149V165.66ZM466.322 165.66H468.402V167.56H466.322V172.68C466.322 173.16 466.402 173.48 466.562 173.64C466.722 173.8 467.042 173.88 467.522 173.88C467.682 173.88 467.836 173.873 467.982 173.86C468.129 173.847 468.269 173.827 468.402 173.8V176C468.162 176.04 467.896 176.067 467.602 176.08C467.309 176.093 467.022 176.1 466.742 176.1C466.302 176.1 465.882 176.067 465.482 176C465.096 175.947 464.749 175.833 464.442 175.66C464.149 175.487 463.916 175.24 463.742 174.92C463.569 174.6 463.482 174.18 463.482 173.66V167.56H461.762V165.66H463.482V162.56H466.322V165.66ZM476.513 169.72C476.38 169 476.14 168.453 475.793 168.08C475.46 167.707 474.947 167.52 474.253 167.52C473.8 167.52 473.42 167.6 473.113 167.76C472.82 167.907 472.58 168.093 472.393 168.32C472.22 168.547 472.093 168.787 472.013 169.04C471.947 169.293 471.907 169.52 471.893 169.72H476.513ZM471.893 171.52C471.933 172.44 472.167 173.107 472.593 173.52C473.02 173.933 473.633 174.14 474.433 174.14C475.007 174.14 475.5 174 475.913 173.72C476.327 173.427 476.58 173.12 476.673 172.8H479.173C478.773 174.04 478.16 174.927 477.333 175.46C476.507 175.993 475.507 176.26 474.333 176.26C473.52 176.26 472.787 176.133 472.133 175.88C471.48 175.613 470.927 175.24 470.473 174.76C470.02 174.28 469.667 173.707 469.413 173.04C469.173 172.373 469.053 171.64 469.053 170.84C469.053 170.067 469.18 169.347 469.433 168.68C469.687 168.013 470.047 167.44 470.513 166.96C470.98 166.467 471.533 166.08 472.173 165.8C472.827 165.52 473.547 165.38 474.333 165.38C475.213 165.38 475.98 165.553 476.633 165.9C477.287 166.233 477.82 166.687 478.233 167.26C478.66 167.833 478.967 168.487 479.153 169.22C479.34 169.953 479.407 170.72 479.353 171.52H471.893ZM480.838 165.66H483.538V167.58H483.578C483.711 167.26 483.891 166.967 484.118 166.7C484.344 166.42 484.604 166.187 484.898 166C485.191 165.8 485.504 165.647 485.838 165.54C486.171 165.433 486.518 165.38 486.878 165.38C487.064 165.38 487.271 165.413 487.498 165.48V168.12C487.364 168.093 487.204 168.073 487.018 168.06C486.831 168.033 486.651 168.02 486.478 168.02C485.958 168.02 485.518 168.107 485.158 168.28C484.798 168.453 484.504 168.693 484.278 169C484.064 169.293 483.911 169.64 483.818 170.04C483.724 170.44 483.678 170.873 483.678 171.34V176H480.838V165.66ZM497.218 173.36H500.018C500.471 173.36 500.911 173.287 501.338 173.14C501.764 172.993 502.144 172.753 502.478 172.42C502.811 172.073 503.078 171.627 503.278 171.08C503.478 170.533 503.578 169.867 503.578 169.08C503.578 168.36 503.504 167.713 503.358 167.14C503.224 166.553 502.998 166.053 502.678 165.64C502.358 165.227 501.931 164.913 501.398 164.7C500.878 164.473 500.231 164.36 499.458 164.36H497.218V173.36ZM494.078 161.72H500.238C501.158 161.72 502.011 161.867 502.798 162.16C503.598 162.453 504.284 162.893 504.858 163.48C505.444 164.067 505.898 164.8 506.218 165.68C506.551 166.56 506.718 167.593 506.718 168.78C506.718 169.82 506.584 170.78 506.318 171.66C506.051 172.54 505.644 173.3 505.098 173.94C504.564 174.58 503.891 175.087 503.078 175.46C502.278 175.82 501.331 176 500.238 176H494.078V161.72ZM510.922 170.84C510.922 171.253 510.962 171.66 511.042 172.06C511.122 172.447 511.255 172.8 511.442 173.12C511.642 173.427 511.902 173.673 512.222 173.86C512.542 174.047 512.942 174.14 513.422 174.14C513.902 174.14 514.302 174.047 514.622 173.86C514.955 173.673 515.215 173.427 515.402 173.12C515.602 172.8 515.742 172.447 515.822 172.06C515.902 171.66 515.942 171.253 515.942 170.84C515.942 170.427 515.902 170.02 515.822 169.62C515.742 169.22 515.602 168.867 515.402 168.56C515.215 168.253 514.955 168.007 514.622 167.82C514.302 167.62 513.902 167.52 513.422 167.52C512.942 167.52 512.542 167.62 512.222 167.82C511.902 168.007 511.642 168.253 511.442 168.56C511.255 168.867 511.122 169.22 511.042 169.62C510.962 170.02 510.922 170.427 510.922 170.84ZM508.082 170.84C508.082 170.013 508.209 169.267 508.462 168.6C508.715 167.92 509.075 167.347 509.542 166.88C510.009 166.4 510.569 166.033 511.222 165.78C511.875 165.513 512.609 165.38 513.422 165.38C514.235 165.38 514.969 165.513 515.622 165.78C516.289 166.033 516.855 166.4 517.322 166.88C517.789 167.347 518.149 167.92 518.402 168.6C518.655 169.267 518.782 170.013 518.782 170.84C518.782 171.667 518.655 172.413 518.402 173.08C518.149 173.747 517.789 174.32 517.322 174.8C516.855 175.267 516.289 175.627 515.622 175.88C514.969 176.133 514.235 176.26 513.422 176.26C512.609 176.26 511.875 176.133 511.222 175.88C510.569 175.627 510.009 175.267 509.542 174.8C509.075 174.32 508.715 173.747 508.462 173.08C508.209 172.413 508.082 171.667 508.082 170.84ZM520.428 165.66H523.128V167.1H523.188C523.548 166.5 524.015 166.067 524.588 165.8C525.162 165.52 525.748 165.38 526.348 165.38C527.108 165.38 527.728 165.487 528.208 165.7C528.702 165.9 529.088 166.187 529.368 166.56C529.648 166.92 529.842 167.367 529.948 167.9C530.068 168.42 530.128 169 530.128 169.64V176H527.288V170.16C527.288 169.307 527.155 168.673 526.888 168.26C526.622 167.833 526.148 167.62 525.468 167.62C524.695 167.62 524.135 167.853 523.788 168.32C523.442 168.773 523.268 169.527 523.268 170.58V176H520.428V165.66ZM531.964 168.84C532.004 168.173 532.171 167.62 532.464 167.18C532.757 166.74 533.131 166.387 533.584 166.12C534.037 165.853 534.544 165.667 535.104 165.56C535.677 165.44 536.251 165.38 536.824 165.38C537.344 165.38 537.871 165.42 538.404 165.5C538.937 165.567 539.424 165.707 539.864 165.92C540.304 166.133 540.664 166.433 540.944 166.82C541.224 167.193 541.364 167.693 541.364 168.32V173.7C541.364 174.167 541.391 174.613 541.444 175.04C541.497 175.467 541.591 175.787 541.724 176H538.844C538.791 175.84 538.744 175.68 538.704 175.52C538.677 175.347 538.657 175.173 538.644 175C538.191 175.467 537.657 175.793 537.044 175.98C536.431 176.167 535.804 176.26 535.164 176.26C534.671 176.26 534.211 176.2 533.784 176.08C533.357 175.96 532.984 175.773 532.664 175.52C532.344 175.267 532.091 174.947 531.904 174.56C531.731 174.173 531.644 173.713 531.644 173.18C531.644 172.593 531.744 172.113 531.944 171.74C532.157 171.353 532.424 171.047 532.744 170.82C533.077 170.593 533.451 170.427 533.864 170.32C534.291 170.2 534.717 170.107 535.144 170.04C535.571 169.973 535.991 169.92 536.404 169.88C536.817 169.84 537.184 169.78 537.504 169.7C537.824 169.62 538.077 169.507 538.264 169.36C538.451 169.2 538.537 168.973 538.524 168.68C538.524 168.373 538.471 168.133 538.364 167.96C538.271 167.773 538.137 167.633 537.964 167.54C537.804 167.433 537.611 167.367 537.384 167.34C537.171 167.3 536.937 167.28 536.684 167.28C536.124 167.28 535.684 167.4 535.364 167.64C535.044 167.88 534.857 168.28 534.804 168.84H531.964ZM538.524 170.94C538.404 171.047 538.251 171.133 538.064 171.2C537.891 171.253 537.697 171.3 537.484 171.34C537.284 171.38 537.071 171.413 536.844 171.44C536.617 171.467 536.391 171.5 536.164 171.54C535.951 171.58 535.737 171.633 535.524 171.7C535.324 171.767 535.144 171.86 534.984 171.98C534.837 172.087 534.717 172.227 534.624 172.4C534.531 172.573 534.484 172.793 534.484 173.06C534.484 173.313 534.531 173.527 534.624 173.7C534.717 173.873 534.844 174.013 535.004 174.12C535.164 174.213 535.351 174.28 535.564 174.32C535.777 174.36 535.997 174.38 536.224 174.38C536.784 174.38 537.217 174.287 537.524 174.1C537.831 173.913 538.057 173.693 538.204 173.44C538.351 173.173 538.437 172.907 538.464 172.64C538.504 172.373 538.524 172.16 538.524 172V170.94ZM546.968 165.66H549.048V167.56H546.968V172.68C546.968 173.16 547.048 173.48 547.208 173.64C547.368 173.8 547.688 173.88 548.168 173.88C548.328 173.88 548.482 173.873 548.628 173.86C548.775 173.847 548.915 173.827 549.048 173.8V176C548.808 176.04 548.542 176.067 548.248 176.08C547.955 176.093 547.668 176.1 547.388 176.1C546.948 176.1 546.528 176.067 546.128 176C545.742 175.947 545.395 175.833 545.088 175.66C544.795 175.487 544.562 175.24 544.388 174.92C544.215 174.6 544.128 174.18 544.128 173.66V167.56H542.408V165.66H544.128V162.56H546.968V165.66ZM553.12 164.06H550.28V161.72H553.12V164.06ZM550.28 165.66H553.12V176H550.28V165.66ZM557.676 170.84C557.676 171.253 557.716 171.66 557.796 172.06C557.876 172.447 558.009 172.8 558.196 173.12C558.396 173.427 558.656 173.673 558.976 173.86C559.296 174.047 559.696 174.14 560.176 174.14C560.656 174.14 561.056 174.047 561.376 173.86C561.709 173.673 561.969 173.427 562.156 173.12C562.356 172.8 562.496 172.447 562.576 172.06C562.656 171.66 562.696 171.253 562.696 170.84C562.696 170.427 562.656 170.02 562.576 169.62C562.496 169.22 562.356 168.867 562.156 168.56C561.969 168.253 561.709 168.007 561.376 167.82C561.056 167.62 560.656 167.52 560.176 167.52C559.696 167.52 559.296 167.62 558.976 167.82C558.656 168.007 558.396 168.253 558.196 168.56C558.009 168.867 557.876 169.22 557.796 169.62C557.716 170.02 557.676 170.427 557.676 170.84ZM554.836 170.84C554.836 170.013 554.962 169.267 555.216 168.6C555.469 167.92 555.829 167.347 556.296 166.88C556.762 166.4 557.322 166.033 557.976 165.78C558.629 165.513 559.362 165.38 560.176 165.38C560.989 165.38 561.722 165.513 562.376 165.78C563.042 166.033 563.609 166.4 564.076 166.88C564.542 167.347 564.902 167.92 565.156 168.6C565.409 169.267 565.536 170.013 565.536 170.84C565.536 171.667 565.409 172.413 565.156 173.08C564.902 173.747 564.542 174.32 564.076 174.8C563.609 175.267 563.042 175.627 562.376 175.88C561.722 176.133 560.989 176.26 560.176 176.26C559.362 176.26 558.629 176.133 557.976 175.88C557.322 175.627 556.762 175.267 556.296 174.8C555.829 174.32 555.469 173.747 555.216 173.08C554.962 172.413 554.836 171.667 554.836 170.84ZM567.182 165.66H569.882V167.1H569.942C570.302 166.5 570.769 166.067 571.342 165.8C571.916 165.52 572.502 165.38 573.102 165.38C573.862 165.38 574.482 165.487 574.962 165.7C575.456 165.9 575.842 166.187 576.122 166.56C576.402 166.92 576.596 167.367 576.702 167.9C576.822 168.42 576.882 169 576.882 169.64V176H574.042V170.16C574.042 169.307 573.909 168.673 573.642 168.26C573.376 167.833 572.902 167.62 572.222 167.62C571.449 167.62 570.889 167.853 570.542 168.32C570.196 168.773 570.022 169.527 570.022 170.58V176H567.182V165.66ZM581.038 172.64C581.038 172.947 581.098 173.213 581.218 173.44C581.351 173.653 581.518 173.833 581.718 173.98C581.918 174.113 582.144 174.213 582.398 174.28C582.664 174.347 582.938 174.38 583.218 174.38C583.418 174.38 583.624 174.36 583.838 174.32C584.064 174.267 584.264 174.193 584.438 174.1C584.624 173.993 584.778 173.86 584.898 173.7C585.018 173.527 585.078 173.313 585.078 173.06C585.078 172.633 584.791 172.313 584.218 172.1C583.658 171.887 582.871 171.673 581.858 171.46C581.444 171.367 581.038 171.26 580.638 171.14C580.251 171.007 579.904 170.84 579.598 170.64C579.291 170.427 579.044 170.167 578.858 169.86C578.671 169.54 578.578 169.153 578.578 168.7C578.578 168.033 578.704 167.487 578.958 167.06C579.224 166.633 579.571 166.3 579.998 166.06C580.424 165.807 580.904 165.633 581.438 165.54C581.971 165.433 582.518 165.38 583.078 165.38C583.638 165.38 584.178 165.433 584.698 165.54C585.231 165.647 585.704 165.827 586.118 166.08C586.531 166.333 586.871 166.673 587.138 167.1C587.418 167.513 587.584 168.04 587.638 168.68H584.938C584.898 168.133 584.691 167.767 584.318 167.58C583.944 167.38 583.504 167.28 582.998 167.28C582.838 167.28 582.664 167.293 582.478 167.32C582.291 167.333 582.118 167.373 581.958 167.44C581.811 167.507 581.684 167.607 581.578 167.74C581.471 167.86 581.418 168.027 581.418 168.24C581.418 168.493 581.511 168.7 581.698 168.86C581.884 169.02 582.124 169.153 582.418 169.26C582.724 169.353 583.071 169.44 583.458 169.52C583.844 169.6 584.238 169.687 584.638 169.78C585.051 169.873 585.451 169.987 585.838 170.12C586.238 170.253 586.591 170.433 586.898 170.66C587.204 170.873 587.451 171.147 587.638 171.48C587.824 171.8 587.918 172.2 587.918 172.68C587.918 173.36 587.778 173.933 587.498 174.4C587.231 174.853 586.878 175.22 586.438 175.5C585.998 175.78 585.491 175.973 584.918 176.08C584.358 176.2 583.784 176.26 583.198 176.26C582.598 176.26 582.011 176.2 581.438 176.08C580.864 175.96 580.351 175.76 579.898 175.48C579.458 175.2 579.091 174.833 578.798 174.38C578.518 173.913 578.364 173.333 578.338 172.64H581.038Z" fill="#131313"/>
<path d="M1055.38 137H1038.34V82.52H1017.22V69.68C1020.18 69.76 1023.02 69.56 1025.74 69.08C1028.54 68.52 1031.02 67.6 1033.18 66.32C1035.42 64.96 1037.3 63.2 1038.82 61.04C1040.34 58.88 1041.34 56.2 1041.82 53H1055.38V137ZM1099.74 93.44C1097.5 93.44 1095.5 93.88 1093.74 94.76C1092.06 95.56 1090.66 96.68 1089.54 98.12C1088.42 99.56 1087.58 101.24 1087.02 103.16C1086.46 105 1086.18 106.96 1086.18 109.04C1086.18 110.96 1086.46 112.88 1087.02 114.8C1087.66 116.64 1088.54 118.32 1089.66 119.84C1090.86 121.28 1092.3 122.44 1093.98 123.32C1095.66 124.2 1097.58 124.64 1099.74 124.64C1101.82 124.64 1103.62 124.2 1105.14 123.32C1106.74 122.44 1108.1 121.28 1109.22 119.84C1110.34 118.4 1111.18 116.76 1111.74 114.92C1112.3 113.08 1112.58 111.2 1112.58 109.28C1112.58 107.28 1112.3 105.36 1111.74 103.52C1111.26 101.6 1110.5 99.92 1109.46 98.48C1108.42 96.96 1107.06 95.76 1105.38 94.88C1103.78 93.92 1101.9 93.44 1099.74 93.44ZM1111.98 74.6C1111.42 71.8 1110.14 69.36 1108.14 67.28C1106.14 65.2 1103.66 64.16 1100.7 64.16C1097.66 64.16 1095.1 65.08 1093.02 66.92C1091.02 68.68 1089.42 70.88 1088.22 73.52C1087.02 76.08 1086.14 78.84 1085.58 81.8C1085.02 84.76 1084.7 87.4 1084.62 89.72L1084.86 89.96C1087.18 86.6 1089.9 84.2 1093.02 82.76C1096.14 81.32 1099.74 80.6 1103.82 80.6C1107.42 80.6 1110.94 81.4 1114.38 83C1117.82 84.52 1120.74 86.6 1123.14 89.24C1125.38 91.8 1127.02 94.72 1128.06 98C1129.1 101.28 1129.62 104.6 1129.62 107.96C1129.62 112.28 1128.9 116.32 1127.46 120.08C1126.1 123.76 1124.1 127 1121.46 129.8C1118.9 132.52 1115.82 134.68 1112.22 136.28C1108.62 137.8 1104.62 138.56 1100.22 138.56C1093.9 138.56 1088.66 137.32 1084.5 134.84C1080.34 132.28 1077.02 128.96 1074.54 124.88C1072.06 120.8 1070.34 116.2 1069.38 111.08C1068.42 105.88 1067.94 100.6 1067.94 95.24C1067.94 90.04 1068.54 84.84 1069.74 79.64C1070.94 74.44 1072.86 69.76 1075.5 65.6C1078.14 61.36 1081.54 57.92 1085.7 55.28C1089.86 52.64 1094.94 51.32 1100.94 51.32C1104.54 51.32 1107.9 51.84 1111.02 52.88C1114.14 53.92 1116.9 55.44 1119.3 57.44C1121.7 59.36 1123.66 61.76 1125.18 64.64C1126.7 67.52 1127.7 70.84 1128.18 74.6H1111.98ZM1205.66 115.16C1205.66 116.44 1205.7 117.92 1205.78 119.6C1205.86 121.28 1206.14 122.88 1206.62 124.4C1207.1 125.84 1207.86 127.08 1208.9 128.12C1209.94 129.16 1211.42 129.68 1213.34 129.68C1215.18 129.68 1216.62 129.16 1217.66 128.12C1218.78 127.08 1219.58 125.84 1220.06 124.4C1220.62 122.88 1220.94 121.32 1221.02 119.72C1221.18 118.04 1221.26 116.56 1221.26 115.28C1221.26 114.08 1221.18 112.68 1221.02 111.08C1220.94 109.4 1220.66 107.84 1220.18 106.4C1219.7 104.88 1218.94 103.6 1217.9 102.56C1216.94 101.44 1215.58 100.88 1213.82 100.88C1211.9 100.88 1210.38 101.36 1209.26 102.32C1208.22 103.28 1207.42 104.48 1206.86 105.92C1206.3 107.36 1205.94 108.92 1205.78 110.6C1205.7 112.28 1205.66 113.8 1205.66 115.16ZM1193.42 115.04C1193.42 111.76 1193.82 108.72 1194.62 105.92C1195.42 103.12 1196.66 100.68 1198.34 98.6C1200.02 96.52 1202.14 94.88 1204.7 93.68C1207.26 92.48 1210.3 91.88 1213.82 91.88C1217.58 91.88 1220.7 92.52 1223.18 93.8C1225.66 95 1227.66 96.68 1229.18 98.84C1230.78 100.92 1231.9 103.4 1232.54 106.28C1233.18 109.16 1233.5 112.24 1233.5 115.52C1233.5 118.8 1233.1 121.84 1232.3 124.64C1231.5 127.44 1230.26 129.88 1228.58 131.96C1226.98 134.04 1224.9 135.68 1222.34 136.88C1219.78 138 1216.74 138.56 1213.22 138.56C1209.54 138.56 1206.42 137.96 1203.86 136.76C1201.38 135.56 1199.34 133.92 1197.74 131.84C1196.22 129.68 1195.1 127.16 1194.38 124.28C1193.74 121.4 1193.42 118.32 1193.42 115.04ZM1202.66 50.36H1212.86L1163.42 139.52H1152.98L1202.66 50.36ZM1143.74 75.32C1143.74 76.6 1143.78 78.04 1143.86 79.64C1143.94 81.24 1144.22 82.76 1144.7 84.2C1145.18 85.56 1145.94 86.72 1146.98 87.68C1148.02 88.64 1149.5 89.12 1151.42 89.12C1153.26 89.12 1154.7 88.64 1155.74 87.68C1156.86 86.72 1157.66 85.56 1158.14 84.2C1158.7 82.76 1159.02 81.28 1159.1 79.76C1159.26 78.16 1159.34 76.72 1159.34 75.44C1159.34 74.24 1159.26 72.8 1159.1 71.12C1159.02 69.36 1158.74 67.68 1158.26 66.08C1157.78 64.48 1157.02 63.12 1155.98 62C1155.02 60.88 1153.66 60.32 1151.9 60.32C1149.98 60.32 1148.46 60.84 1147.34 61.88C1146.3 62.92 1145.5 64.2 1144.94 65.72C1144.38 67.24 1144.02 68.88 1143.86 70.64C1143.78 72.4 1143.74 73.96 1143.74 75.32ZM1131.5 75.08C1131.5 71.8 1131.9 68.72 1132.7 65.84C1133.5 62.96 1134.74 60.44 1136.42 58.28C1138.1 56.12 1140.22 54.44 1142.78 53.24C1145.34 51.96 1148.38 51.32 1151.9 51.32C1155.66 51.32 1158.78 51.96 1161.26 53.24C1163.74 54.52 1165.74 56.28 1167.26 58.52C1168.86 60.68 1169.98 63.24 1170.62 66.2C1171.26 69.16 1171.58 72.28 1171.58 75.56C1171.58 78.84 1171.18 81.88 1170.38 84.68C1169.58 87.4 1168.34 89.76 1166.66 91.76C1165.06 93.76 1162.98 95.32 1160.42 96.44C1157.86 97.56 1154.82 98.12 1151.3 98.12C1147.62 98.12 1144.5 97.56 1141.94 96.44C1139.46 95.24 1137.42 93.64 1135.82 91.64C1134.3 89.56 1133.18 87.12 1132.46 84.32C1131.82 81.44 1131.5 78.36 1131.5 75.08Z" fill="#131313"/>
<path d="M1090.13 162.44L1084.89 153.72H1088.41L1091.75 159.36L1095.07 153.72H1098.57L1093.27 162.52V168H1090.13V162.44ZM1099.56 162.84C1099.56 163.253 1099.6 163.66 1099.68 164.06C1099.76 164.447 1099.89 164.8 1100.08 165.12C1100.28 165.427 1100.54 165.673 1100.86 165.86C1101.18 166.047 1101.58 166.14 1102.06 166.14C1102.54 166.14 1102.94 166.047 1103.26 165.86C1103.59 165.673 1103.85 165.427 1104.04 165.12C1104.24 164.8 1104.38 164.447 1104.46 164.06C1104.54 163.66 1104.58 163.253 1104.58 162.84C1104.58 162.427 1104.54 162.02 1104.46 161.62C1104.38 161.22 1104.24 160.867 1104.04 160.56C1103.85 160.253 1103.59 160.007 1103.26 159.82C1102.94 159.62 1102.54 159.52 1102.06 159.52C1101.58 159.52 1101.18 159.62 1100.86 159.82C1100.54 160.007 1100.28 160.253 1100.08 160.56C1099.89 160.867 1099.76 161.22 1099.68 161.62C1099.6 162.02 1099.56 162.427 1099.56 162.84ZM1096.72 162.84C1096.72 162.013 1096.85 161.267 1097.1 160.6C1097.35 159.92 1097.71 159.347 1098.18 158.88C1098.65 158.4 1099.21 158.033 1099.86 157.78C1100.51 157.513 1101.25 157.38 1102.06 157.38C1102.87 157.38 1103.61 157.513 1104.26 157.78C1104.93 158.033 1105.49 158.4 1105.96 158.88C1106.43 159.347 1106.79 159.92 1107.04 160.6C1107.29 161.267 1107.42 162.013 1107.42 162.84C1107.42 163.667 1107.29 164.413 1107.04 165.08C1106.79 165.747 1106.43 166.32 1105.96 166.8C1105.49 167.267 1104.93 167.627 1104.26 167.88C1103.61 168.133 1102.87 168.26 1102.06 168.26C1101.25 168.26 1100.51 168.133 1099.86 167.88C1099.21 167.627 1098.65 167.267 1098.18 166.8C1097.71 166.32 1097.35 165.747 1097.1 165.08C1096.85 164.413 1096.72 163.667 1096.72 162.84ZM1118.77 168H1116.07V166.56H1116.01C1115.65 167.16 1115.18 167.593 1114.61 167.86C1114.03 168.127 1113.45 168.26 1112.85 168.26C1112.09 168.26 1111.46 168.16 1110.97 167.96C1110.49 167.76 1110.11 167.48 1109.83 167.12C1109.55 166.747 1109.35 166.3 1109.23 165.78C1109.12 165.247 1109.07 164.66 1109.07 164.02V157.66H1111.91V163.5C1111.91 164.353 1112.04 164.993 1112.31 165.42C1112.57 165.833 1113.05 166.04 1113.73 166.04C1114.5 166.04 1115.06 165.813 1115.41 165.36C1115.75 164.893 1115.93 164.133 1115.93 163.08V157.66H1118.77V168ZM1124.18 156.36H1119.9V153.72H1131.6V156.36H1127.32V168H1124.18V156.36ZM1140.61 168H1137.91V166.56H1137.85C1137.49 167.16 1137.03 167.593 1136.45 167.86C1135.88 168.127 1135.29 168.26 1134.69 168.26C1133.93 168.26 1133.31 168.16 1132.81 167.96C1132.33 167.76 1131.95 167.48 1131.67 167.12C1131.39 166.747 1131.19 166.3 1131.07 165.78C1130.97 165.247 1130.91 164.66 1130.91 164.02V157.66H1133.75V163.5C1133.75 164.353 1133.89 164.993 1134.15 165.42C1134.42 165.833 1134.89 166.04 1135.57 166.04C1136.35 166.04 1136.91 165.813 1137.25 165.36C1137.6 164.893 1137.77 164.133 1137.77 163.08V157.66H1140.61V168ZM1150.15 162.84C1150.15 162.4 1150.1 161.98 1150.01 161.58C1149.92 161.18 1149.77 160.827 1149.57 160.52C1149.37 160.213 1149.12 159.973 1148.81 159.8C1148.52 159.613 1148.16 159.52 1147.73 159.52C1147.32 159.52 1146.96 159.613 1146.65 159.8C1146.34 159.973 1146.09 160.213 1145.89 160.52C1145.69 160.827 1145.54 161.18 1145.45 161.58C1145.36 161.98 1145.31 162.4 1145.31 162.84C1145.31 163.267 1145.36 163.68 1145.45 164.08C1145.54 164.48 1145.69 164.833 1145.89 165.14C1146.09 165.447 1146.34 165.693 1146.65 165.88C1146.96 166.053 1147.32 166.14 1147.73 166.14C1148.16 166.14 1148.52 166.053 1148.81 165.88C1149.12 165.693 1149.37 165.447 1149.57 165.14C1149.77 164.833 1149.92 164.48 1150.01 164.08C1150.1 163.68 1150.15 163.267 1150.15 162.84ZM1142.57 153.72H1145.41V158.92H1145.45C1145.8 158.387 1146.26 158 1146.85 157.76C1147.45 157.507 1148.07 157.38 1148.71 157.38C1149.23 157.38 1149.74 157.487 1150.25 157.7C1150.76 157.913 1151.21 158.24 1151.61 158.68C1152.02 159.12 1152.36 159.687 1152.61 160.38C1152.86 161.06 1152.99 161.873 1152.99 162.82C1152.99 163.767 1152.86 164.587 1152.61 165.28C1152.36 165.96 1152.02 166.52 1151.61 166.96C1151.21 167.4 1150.76 167.727 1150.25 167.94C1149.74 168.153 1149.23 168.26 1148.71 168.26C1147.95 168.26 1147.27 168.14 1146.67 167.9C1146.07 167.66 1145.62 167.253 1145.31 166.68H1145.27V168H1142.57V153.72ZM1161.56 161.72C1161.42 161 1161.18 160.453 1160.84 160.08C1160.5 159.707 1159.99 159.52 1159.3 159.52C1158.84 159.52 1158.46 159.6 1158.16 159.76C1157.86 159.907 1157.62 160.093 1157.44 160.32C1157.26 160.547 1157.14 160.787 1157.06 161.04C1156.99 161.293 1156.95 161.52 1156.94 161.72H1161.56ZM1156.94 163.52C1156.98 164.44 1157.21 165.107 1157.64 165.52C1158.06 165.933 1158.68 166.14 1159.48 166.14C1160.05 166.14 1160.54 166 1160.96 165.72C1161.37 165.427 1161.62 165.12 1161.72 164.8H1164.22C1163.82 166.04 1163.2 166.927 1162.38 167.46C1161.55 167.993 1160.55 168.26 1159.38 168.26C1158.56 168.26 1157.83 168.133 1157.18 167.88C1156.52 167.613 1155.97 167.24 1155.52 166.76C1155.06 166.28 1154.71 165.707 1154.46 165.04C1154.22 164.373 1154.1 163.64 1154.1 162.84C1154.1 162.067 1154.22 161.347 1154.48 160.68C1154.73 160.013 1155.09 159.44 1155.56 158.96C1156.02 158.467 1156.58 158.08 1157.22 157.8C1157.87 157.52 1158.59 157.38 1159.38 157.38C1160.26 157.38 1161.02 157.553 1161.68 157.9C1162.33 158.233 1162.86 158.687 1163.28 159.26C1163.7 159.833 1164.01 160.487 1164.2 161.22C1164.38 161.953 1164.45 162.72 1164.4 163.52H1156.94Z" fill="#131313"/>
<path d="M1372.88 115.8C1372.88 117.08 1372.91 118.56 1372.95 120.24C1373 121.92 1373.16 123.52 1373.44 125.04C1373.72 126.48 1374.16 127.72 1374.76 128.76C1375.36 129.8 1376.22 130.32 1377.33 130.32C1378.39 130.32 1379.23 129.8 1379.83 128.76C1380.48 127.72 1380.94 126.48 1381.22 125.04C1381.54 123.52 1381.73 121.96 1381.77 120.36C1381.87 118.68 1381.91 117.2 1381.91 115.92C1381.91 114.72 1381.87 113.32 1381.77 111.72C1381.73 110.04 1381.57 108.48 1381.29 107.04C1381.01 105.52 1380.57 104.24 1379.97 103.2C1379.41 102.08 1378.62 101.52 1377.61 101.52C1376.49 101.52 1375.61 102 1374.97 102.96C1374.36 103.92 1373.9 105.12 1373.58 106.56C1373.25 108 1373.04 109.56 1372.95 111.24C1372.91 112.92 1372.88 114.44 1372.88 115.8ZM1365.8 115.68C1365.8 112.4 1366.03 109.36 1366.49 106.56C1366.96 103.76 1367.67 101.32 1368.65 99.24C1369.62 97.16 1370.85 95.52 1372.33 94.32C1373.81 93.12 1375.57 92.52 1377.61 92.52C1379.78 92.52 1381.59 93.16 1383.02 94.44C1384.46 95.64 1385.62 97.32 1386.5 99.48C1387.42 101.56 1388.07 104.04 1388.44 106.92C1388.81 109.8 1389 112.88 1389 116.16C1389 119.44 1388.77 122.48 1388.3 125.28C1387.84 128.08 1387.12 130.52 1386.15 132.6C1385.22 134.68 1384.02 136.32 1382.54 137.52C1381.06 138.64 1379.3 139.2 1377.26 139.2C1375.13 139.2 1373.32 138.6 1371.84 137.4C1370.41 136.2 1369.22 134.56 1368.3 132.48C1367.42 130.32 1366.77 127.8 1366.35 124.92C1365.98 122.04 1365.8 118.96 1365.8 115.68ZM1371.15 51H1377.05L1348.43 140.16H1342.39L1371.15 51ZM1337.04 75.96C1337.04 77.24 1337.07 78.68 1337.11 80.28C1337.16 81.88 1337.32 83.4 1337.6 84.84C1337.88 86.2 1338.32 87.36 1338.92 88.32C1339.52 89.28 1340.38 89.76 1341.49 89.76C1342.55 89.76 1343.39 89.28 1343.99 88.32C1344.64 87.36 1345.1 86.2 1345.38 84.84C1345.7 83.4 1345.89 81.92 1345.93 80.4C1346.03 78.8 1346.07 77.36 1346.07 76.08C1346.07 74.88 1346.03 73.44 1345.93 71.76C1345.89 70 1345.72 68.32 1345.45 66.72C1345.17 65.12 1344.73 63.76 1344.13 62.64C1343.57 61.52 1342.78 60.96 1341.77 60.96C1340.65 60.96 1339.77 61.48 1339.13 62.52C1338.52 63.56 1338.06 64.84 1337.74 66.36C1337.41 67.88 1337.2 69.52 1337.11 71.28C1337.07 73.04 1337.04 74.6 1337.04 75.96ZM1329.96 75.72C1329.96 72.44 1330.19 69.36 1330.65 66.48C1331.11 63.6 1331.83 61.08 1332.8 58.92C1333.78 56.76 1335 55.08 1336.49 53.88C1337.97 52.6 1339.73 51.96 1341.77 51.96C1343.94 51.96 1345.75 52.6 1347.18 53.88C1348.62 55.16 1349.78 56.92 1350.66 59.16C1351.58 61.32 1352.23 63.88 1352.6 66.84C1352.97 69.8 1353.16 72.92 1353.16 76.2C1353.16 79.48 1352.92 82.52 1352.46 85.32C1352 88.04 1351.28 90.4 1350.31 92.4C1349.38 94.4 1348.18 95.96 1346.7 97.08C1345.21 98.2 1343.46 98.76 1341.42 98.76C1339.29 98.76 1337.48 98.2 1336 97.08C1334.56 95.88 1333.38 94.28 1332.46 92.28C1331.58 90.2 1330.93 87.76 1330.51 84.96C1330.14 82.08 1329.96 79 1329.96 75.72Z" fill="#131313"/>
<path d="M1298.86 95.2809C1298.86 97.6809 1298.91 100.601 1299 104.041C1299.09 107.401 1299.37 110.681 1299.84 113.881C1300.35 117.001 1301.13 119.681 1302.2 121.921C1303.26 124.161 1304.79 125.281 1306.78 125.281C1308.82 125.281 1310.37 124.161 1311.44 121.921C1312.55 119.681 1313.33 117.001 1313.8 113.881C1314.31 110.681 1314.61 107.401 1314.7 104.041C1314.79 100.601 1314.84 97.6809 1314.84 95.2809C1314.84 93.8409 1314.82 92.1209 1314.77 90.1209C1314.77 88.0409 1314.68 85.9209 1314.49 83.7609C1314.35 81.6009 1314.12 79.4809 1313.8 77.4009C1313.52 75.2409 1313.08 73.3209 1312.48 71.6409C1311.88 69.9609 1311.11 68.6009 1310.19 67.5609C1309.26 66.5209 1308.12 66.0009 1306.78 66.0009C1305.44 66.0009 1304.3 66.5209 1303.38 67.5609C1302.5 68.6009 1301.76 69.9609 1301.16 71.6409C1300.6 73.3209 1300.16 75.2409 1299.84 77.4009C1299.51 79.4809 1299.28 81.6009 1299.14 83.7609C1299 85.9209 1298.91 88.0409 1298.86 90.1209C1298.86 92.1209 1298.86 93.8409 1298.86 95.2809ZM1289 95.2809C1289 87.1209 1289.46 80.2809 1290.39 74.7609C1291.36 69.1609 1292.66 64.6809 1294.28 61.3209C1295.9 57.9609 1297.78 55.5609 1299.91 54.1209C1302.08 52.6809 1304.37 51.9609 1306.78 51.9609C1309.24 51.9609 1311.53 52.6809 1313.66 54.1209C1315.83 55.5609 1317.73 57.9609 1319.35 61.3209C1321.02 64.6809 1322.32 69.1609 1323.24 74.7609C1324.22 80.2809 1324.7 87.1209 1324.7 95.2809C1324.7 103.681 1324.22 110.721 1323.24 116.401C1322.32 122.001 1321.02 126.481 1319.35 129.841C1317.73 133.201 1315.83 135.601 1313.66 137.041C1311.53 138.481 1309.24 139.201 1306.78 139.201C1304.37 139.201 1302.08 138.481 1299.91 137.041C1297.78 135.601 1295.9 133.201 1294.28 129.841C1292.66 126.481 1291.36 122.001 1290.39 116.401C1289.46 110.721 1289 103.681 1289 95.2809Z" fill="#131313"/>
<path d="M1370.08 160.16H1372.92V165.54H1372.98C1373.34 164.94 1373.8 164.507 1374.36 164.24C1374.92 163.96 1375.47 163.82 1376 163.82C1376.76 163.82 1377.38 163.927 1377.86 164.14C1378.35 164.34 1378.74 164.627 1379.02 165C1379.3 165.36 1379.49 165.807 1379.6 166.34C1379.72 166.86 1379.78 167.44 1379.78 168.08V174.44H1376.94V168.6C1376.94 167.747 1376.81 167.113 1376.54 166.7C1376.27 166.273 1375.8 166.06 1375.12 166.06C1374.35 166.06 1373.79 166.293 1373.44 166.76C1373.09 167.213 1372.92 167.967 1372.92 169.02V174.44H1370.08V160.16Z" fill="#131313"/>
<path d="M1365.84 167.74C1365.65 166.554 1364.95 165.96 1363.74 165.96C1363.28 165.96 1362.9 166.067 1362.6 166.28C1362.29 166.48 1362.04 166.747 1361.84 167.08C1361.65 167.4 1361.52 167.76 1361.44 168.16C1361.36 168.547 1361.32 168.934 1361.32 169.32C1361.32 169.694 1361.36 170.074 1361.44 170.46C1361.52 170.847 1361.64 171.2 1361.82 171.52C1362 171.827 1362.25 172.08 1362.56 172.28C1362.86 172.48 1363.24 172.58 1363.68 172.58C1364.36 172.58 1364.88 172.394 1365.24 172.02C1365.61 171.634 1365.84 171.12 1365.94 170.48H1368.68C1368.49 171.854 1367.96 172.9 1367.08 173.62C1366.2 174.34 1365.07 174.7 1363.7 174.7C1362.92 174.7 1362.21 174.574 1361.56 174.32C1360.92 174.054 1360.37 173.687 1359.92 173.22C1359.46 172.754 1359.11 172.2 1358.86 171.56C1358.6 170.907 1358.48 170.194 1358.48 169.42C1358.48 168.62 1358.59 167.88 1358.82 167.2C1359.06 166.507 1359.4 165.914 1359.86 165.42C1360.31 164.914 1360.86 164.52 1361.52 164.24C1362.17 163.96 1362.92 163.82 1363.76 163.82C1364.37 163.82 1364.96 163.9 1365.52 164.06C1366.09 164.22 1366.6 164.467 1367.04 164.8C1367.49 165.12 1367.86 165.527 1368.14 166.02C1368.42 166.5 1368.58 167.074 1368.62 167.74H1365.84Z" fill="#131313"/>
<path d="M1349.29 169.28C1349.29 169.694 1349.33 170.1 1349.41 170.5C1349.49 170.887 1349.62 171.24 1349.81 171.56C1350.01 171.867 1350.27 172.114 1350.59 172.3C1350.91 172.487 1351.31 172.58 1351.79 172.58C1352.27 172.58 1352.67 172.487 1352.99 172.3C1353.32 172.114 1353.58 171.867 1353.77 171.56C1353.97 171.24 1354.11 170.887 1354.19 170.5C1354.27 170.1 1354.31 169.694 1354.31 169.28C1354.31 168.867 1354.27 168.46 1354.19 168.06C1354.11 167.66 1353.97 167.307 1353.77 167C1353.58 166.694 1353.32 166.447 1352.99 166.26C1352.67 166.06 1352.27 165.96 1351.79 165.96C1351.31 165.96 1350.91 166.06 1350.59 166.26C1350.27 166.447 1350.01 166.694 1349.81 167C1349.62 167.307 1349.49 167.66 1349.41 168.06C1349.33 168.46 1349.29 168.867 1349.29 169.28ZM1346.45 169.28C1346.45 168.454 1346.58 167.707 1346.83 167.04C1347.08 166.36 1347.44 165.787 1347.91 165.32C1348.38 164.84 1348.94 164.474 1349.59 164.22C1350.24 163.954 1350.98 163.82 1351.79 163.82C1352.6 163.82 1353.34 163.954 1353.99 164.22C1354.66 164.474 1355.22 164.84 1355.69 165.32C1356.16 165.787 1356.52 166.36 1356.77 167.04C1357.02 167.707 1357.15 168.454 1357.15 169.28C1357.15 170.107 1357.02 170.854 1356.77 171.52C1356.52 172.187 1356.16 172.76 1355.69 173.24C1355.22 173.707 1354.66 174.067 1353.99 174.32C1353.34 174.574 1352.6 174.7 1351.79 174.7C1350.98 174.7 1350.24 174.574 1349.59 174.32C1348.94 174.067 1348.38 173.707 1347.91 173.24C1347.44 172.76 1347.08 172.187 1346.83 171.52C1346.58 170.854 1346.45 170.107 1346.45 169.28Z" fill="#131313"/>
<path d="M1342.08 169.24C1342.08 168.813 1342.04 168.407 1341.96 168.02C1341.88 167.62 1341.74 167.273 1341.54 166.98C1341.36 166.673 1341.11 166.427 1340.8 166.24C1340.5 166.053 1340.11 165.96 1339.64 165.96C1339.18 165.96 1338.78 166.053 1338.46 166.24C1338.14 166.427 1337.88 166.673 1337.68 166.98C1337.5 167.287 1337.36 167.64 1337.26 168.04C1337.18 168.427 1337.14 168.833 1337.14 169.26C1337.14 169.66 1337.19 170.06 1337.28 170.46C1337.38 170.86 1337.52 171.22 1337.72 171.54C1337.94 171.847 1338.2 172.1 1338.5 172.3C1338.82 172.487 1339.2 172.58 1339.64 172.58C1340.11 172.58 1340.5 172.487 1340.8 172.3C1341.12 172.113 1341.38 171.867 1341.56 171.56C1341.75 171.24 1341.88 170.88 1341.96 170.48C1342.04 170.08 1342.08 169.667 1342.08 169.24ZM1342.12 173.12H1342.08C1341.75 173.68 1341.31 174.087 1340.76 174.34C1340.23 174.58 1339.62 174.7 1338.94 174.7C1338.17 174.7 1337.49 174.553 1336.9 174.26C1336.32 173.953 1335.83 173.547 1335.44 173.04C1335.07 172.52 1334.78 171.927 1334.58 171.26C1334.4 170.593 1334.3 169.9 1334.3 169.18C1334.3 168.487 1334.4 167.82 1334.58 167.18C1334.78 166.527 1335.07 165.953 1335.44 165.46C1335.83 164.967 1336.31 164.573 1336.88 164.28C1337.46 163.973 1338.12 163.82 1338.88 163.82C1339.5 163.82 1340.08 163.953 1340.62 164.22C1341.18 164.473 1341.62 164.853 1341.94 165.36H1341.98V160.16H1344.82V174.44H1342.12V173.12Z" fill="#131313"/>
<path d="M1327.52 164.1H1330.22V166.02H1330.26C1330.39 165.7 1330.57 165.407 1330.8 165.14C1331.03 164.86 1331.29 164.627 1331.58 164.44C1331.87 164.24 1332.19 164.087 1332.52 163.98C1332.85 163.874 1333.2 163.82 1333.56 163.82C1333.75 163.82 1333.95 163.854 1334.18 163.92V166.56C1334.05 166.534 1333.89 166.514 1333.7 166.5C1333.51 166.474 1333.33 166.46 1333.16 166.46C1332.64 166.46 1332.2 166.547 1331.84 166.72C1331.48 166.894 1331.19 167.134 1330.96 167.44C1330.75 167.734 1330.59 168.08 1330.5 168.48C1330.41 168.88 1330.36 169.314 1330.36 169.78V174.44H1327.52V164.1Z" fill="#131313"/>
<path d="M1325.57 174.442H1322.87V173.002H1322.81C1322.45 173.602 1321.98 174.035 1321.41 174.302C1320.83 174.568 1320.25 174.702 1319.65 174.702C1318.89 174.702 1318.26 174.602 1317.77 174.402C1317.29 174.202 1316.91 173.922 1316.63 173.562C1316.35 173.188 1316.15 172.742 1316.03 172.222C1315.92 171.688 1315.87 171.102 1315.87 170.462V164.102H1318.71V169.942C1318.71 170.795 1318.84 171.435 1319.11 171.862C1319.37 172.275 1319.85 172.482 1320.53 172.482C1321.3 172.482 1321.86 172.255 1322.21 171.802C1322.55 171.335 1322.73 170.575 1322.73 169.522V164.102H1325.57V174.442Z" fill="#131313"/>
<path d="M1298.22 160.16H1302.64L1305.98 169.98H1306.02L1309.18 160.16H1313.6V174.44H1310.66V164.32H1310.62L1307.12 174.44H1304.7L1301.2 164.42H1301.16V174.44H1298.22V160.16Z" fill="#131313"/>
</svg>
