<svg width="365" height="432" viewBox="0 0 365 432" fill="none" xmlns="http://www.w3.org/2000/svg">
<rect x="0.5" y="0.5" width="364" height="431" stroke="black" stroke-dasharray="8 8"/>
<rect width="365" height="336" fill="white"/>
<rect width="365" height="336" fill="#FF458D" fill-opacity="0.8"/>
<path d="M99.6645 138.54C99.6645 141.42 100.688 143.628 102.736 145.164C104.784 146.636 107.184 147.372 109.936 147.372C112.816 147.372 115.216 146.636 117.136 145.164C119.056 143.628 120.016 141.42 120.016 138.54C120.016 137.644 119.888 136.684 119.632 135.66C119.376 134.572 118.864 133.548 118.096 132.588C117.392 131.628 116.368 130.828 115.024 130.188C113.744 129.548 112.048 129.228 109.936 129.228C108.592 129.228 107.28 129.452 106 129.9C104.784 130.284 103.696 130.86 102.736 131.628C101.776 132.396 101.008 133.356 100.432 134.508C99.9205 135.66 99.6645 137.004 99.6645 138.54ZM87.2805 137.292C87.2805 134.284 87.9525 131.628 89.2965 129.324C90.6405 127.02 92.3685 125.1 94.4805 123.564C96.6565 122.028 99.0885 120.876 101.776 120.108C104.464 119.34 107.184 118.956 109.936 118.956C114.096 118.956 117.616 119.596 120.496 120.876C123.376 122.156 125.68 123.724 127.408 125.58C129.2 127.372 130.48 129.324 131.249 131.436C132.016 133.484 132.4 135.34 132.4 137.004C132.4 140.332 131.568 143.244 129.904 145.74C128.304 148.236 125.872 150.028 122.608 151.116V151.308C126.64 152.204 129.744 154.124 131.92 157.068C134.097 159.948 135.185 163.5 135.185 167.724C135.185 171.308 134.449 174.412 132.977 177.036C131.568 179.66 129.68 181.836 127.312 183.564C124.944 185.292 122.256 186.604 119.248 187.5C116.24 188.332 113.168 188.748 110.032 188.748C106.768 188.748 103.6 188.332 100.528 187.5C97.5205 186.732 94.8005 185.484 92.3685 183.756C90.0005 182.028 88.0805 179.852 86.6085 177.228C85.2005 174.604 84.4965 171.468 84.4965 167.82C84.4965 163.532 85.5845 159.948 87.7605 157.068C90.0005 154.188 93.1365 152.268 97.1685 151.308V151.116C93.9045 150.22 91.4405 148.524 89.7765 146.028C88.1125 143.532 87.2805 140.62 87.2805 137.292ZM98.1285 167.148C98.1285 168.876 98.4485 170.444 99.0885 171.852C99.7285 173.26 100.56 174.476 101.584 175.5C102.672 176.46 103.952 177.228 105.424 177.804C106.896 178.316 108.432 178.572 110.032 178.572C111.696 178.572 113.2 178.316 114.544 177.804C115.952 177.228 117.168 176.46 118.192 175.5C119.28 174.476 120.112 173.26 120.688 171.852C121.264 170.444 121.552 168.908 121.552 167.244C121.552 165.644 121.232 164.204 120.592 162.924C120.016 161.58 119.184 160.428 118.096 159.468C117.072 158.508 115.856 157.772 114.448 157.26C113.104 156.748 111.632 156.492 110.032 156.492C106.704 156.492 103.888 157.42 101.584 159.276C99.2805 161.068 98.1285 163.692 98.1285 167.148ZM164.528 137.388H164.24L146.864 160.716H164.528V137.388ZM164.528 171.948H136.112V159.468L165.296 120.3H177.488V160.716H186.416V171.948H177.488V187.5H164.528V171.948ZM252.528 170.028C252.528 171.052 252.56 172.236 252.624 173.58C252.688 174.924 252.912 176.204 253.296 177.42C253.68 178.572 254.288 179.564 255.12 180.396C255.952 181.228 257.136 181.644 258.672 181.644C260.144 181.644 261.296 181.228 262.128 180.396C263.024 179.564 263.664 178.572 264.048 177.42C264.496 176.204 264.752 174.956 264.816 173.676C264.944 172.332 265.008 171.148 265.008 170.124C265.008 169.164 264.944 168.044 264.816 166.764C264.752 165.42 264.528 164.172 264.144 163.02C263.76 161.804 263.152 160.78 262.32 159.948C261.552 159.052 260.464 158.604 259.056 158.604C257.52 158.604 256.304 158.988 255.408 159.756C254.576 160.524 253.936 161.484 253.488 162.636C253.04 163.788 252.752 165.036 252.624 166.38C252.56 167.724 252.528 168.94 252.528 170.028ZM242.736 169.932C242.736 167.308 243.056 164.876 243.696 162.636C244.336 160.396 245.328 158.444 246.672 156.78C248.016 155.116 249.712 153.804 251.76 152.844C253.808 151.884 256.24 151.404 259.056 151.404C262.064 151.404 264.56 151.916 266.544 152.94C268.528 153.9 270.128 155.244 271.344 156.972C272.624 158.636 273.52 160.62 274.032 162.924C274.544 165.228 274.8 167.692 274.8 170.316C274.8 172.94 274.48 175.372 273.84 177.612C273.2 179.852 272.208 181.804 270.864 183.468C269.584 185.132 267.92 186.444 265.872 187.404C263.824 188.3 261.392 188.748 258.576 188.748C255.632 188.748 253.136 188.268 251.088 187.308C249.104 186.348 247.472 185.036 246.192 183.372C244.976 181.644 244.08 179.628 243.504 177.324C242.992 175.02 242.736 172.556 242.736 169.932ZM250.128 118.188H258.288L218.736 189.516H210.384L250.128 118.188ZM202.992 138.156C202.992 139.18 203.024 140.332 203.088 141.612C203.152 142.892 203.376 144.108 203.76 145.26C204.144 146.348 204.752 147.276 205.584 148.044C206.416 148.812 207.6 149.196 209.136 149.196C210.608 149.196 211.76 148.812 212.592 148.044C213.488 147.276 214.128 146.348 214.512 145.26C214.96 144.108 215.216 142.924 215.28 141.708C215.408 140.428 215.472 139.276 215.472 138.252C215.472 137.292 215.408 136.14 215.28 134.796C215.216 133.388 214.992 132.044 214.608 130.764C214.224 129.484 213.616 128.396 212.784 127.5C212.016 126.604 210.928 126.156 209.52 126.156C207.984 126.156 206.768 126.572 205.872 127.404C205.04 128.236 204.4 129.26 203.952 130.476C203.504 131.692 203.216 133.004 203.088 134.412C203.024 135.82 202.992 137.068 202.992 138.156ZM193.2 137.964C193.2 135.34 193.52 132.876 194.16 130.572C194.8 128.268 195.792 126.252 197.136 124.524C198.48 122.796 200.176 121.452 202.224 120.492C204.272 119.468 206.704 118.956 209.52 118.956C212.528 118.956 215.024 119.468 217.008 120.492C218.992 121.516 220.592 122.924 221.808 124.716C223.088 126.444 223.984 128.492 224.496 130.86C225.008 133.228 225.264 135.724 225.264 138.348C225.264 140.972 224.944 143.404 224.304 145.644C223.664 147.82 222.672 149.708 221.328 151.308C220.048 152.908 218.384 154.156 216.336 155.052C214.288 155.948 211.856 156.396 209.04 156.396C206.096 156.396 203.6 155.948 201.552 155.052C199.568 154.092 197.936 152.812 196.656 151.212C195.44 149.548 194.544 147.596 193.968 145.356C193.456 143.052 193.2 140.588 193.2 137.964Z" fill="#131313"/>
<path d="M107.352 210.708C107.352 211.092 107.422 211.417 107.56 211.684C107.699 211.951 107.88 212.169 108.104 212.34C108.339 212.5 108.611 212.623 108.92 212.708C109.23 212.783 109.55 212.82 109.88 212.82C110.104 212.82 110.344 212.804 110.6 212.772C110.856 212.729 111.096 212.655 111.32 212.548C111.544 212.441 111.731 212.297 111.88 212.116C112.03 211.924 112.104 211.684 112.104 211.396C112.104 211.087 112.003 210.836 111.8 210.644C111.608 210.452 111.352 210.292 111.032 210.164C110.712 210.036 110.35 209.924 109.944 209.828C109.539 209.732 109.128 209.625 108.712 209.508C108.286 209.401 107.87 209.273 107.464 209.124C107.059 208.964 106.696 208.761 106.376 208.516C106.056 208.271 105.795 207.967 105.592 207.604C105.4 207.231 105.304 206.783 105.304 206.26C105.304 205.673 105.427 205.167 105.672 204.74C105.928 204.303 106.259 203.94 106.664 203.652C107.07 203.364 107.528 203.151 108.04 203.012C108.552 202.873 109.064 202.804 109.576 202.804C110.174 202.804 110.744 202.873 111.288 203.012C111.843 203.14 112.334 203.353 112.76 203.652C113.187 203.951 113.523 204.335 113.768 204.804C114.024 205.263 114.152 205.823 114.152 206.484H111.72C111.699 206.143 111.624 205.86 111.496 205.636C111.379 205.412 111.219 205.236 111.016 205.108C110.814 204.98 110.579 204.889 110.312 204.836C110.056 204.783 109.774 204.756 109.464 204.756C109.262 204.756 109.059 204.777 108.856 204.82C108.654 204.863 108.467 204.937 108.296 205.044C108.136 205.151 108.003 205.284 107.896 205.444C107.79 205.604 107.736 205.807 107.736 206.052C107.736 206.276 107.779 206.457 107.864 206.596C107.95 206.735 108.115 206.863 108.36 206.98C108.616 207.097 108.963 207.215 109.4 207.332C109.848 207.449 110.43 207.599 111.144 207.78C111.358 207.823 111.651 207.903 112.024 208.02C112.408 208.127 112.787 208.303 113.16 208.548C113.534 208.793 113.854 209.124 114.12 209.54C114.398 209.945 114.536 210.468 114.536 211.108C114.536 211.631 114.435 212.116 114.232 212.564C114.03 213.012 113.726 213.401 113.32 213.732C112.926 214.052 112.43 214.303 111.832 214.484C111.246 214.665 110.563 214.756 109.784 214.756C109.155 214.756 108.542 214.676 107.944 214.516C107.358 214.367 106.835 214.127 106.376 213.796C105.928 213.465 105.571 213.044 105.304 212.532C105.038 212.02 104.91 211.412 104.92 210.708H107.352ZM123.391 214.5H121.231V213.348H121.183C120.895 213.828 120.522 214.175 120.063 214.388C119.604 214.601 119.135 214.708 118.655 214.708C118.047 214.708 117.546 214.628 117.151 214.468C116.767 214.308 116.463 214.084 116.239 213.796C116.015 213.497 115.855 213.14 115.759 212.724C115.674 212.297 115.631 211.828 115.631 211.316V206.228H117.903V210.9C117.903 211.583 118.01 212.095 118.223 212.436C118.436 212.767 118.815 212.932 119.359 212.932C119.978 212.932 120.426 212.751 120.703 212.388C120.98 212.015 121.119 211.407 121.119 210.564V206.228H123.391V214.5ZM129.131 213.012C129.505 213.012 129.814 212.937 130.059 212.788C130.315 212.639 130.518 212.447 130.667 212.212C130.827 211.967 130.939 211.684 131.003 211.364C131.067 211.044 131.099 210.719 131.099 210.388C131.099 210.057 131.062 209.732 130.987 209.412C130.923 209.092 130.811 208.809 130.651 208.564C130.491 208.308 130.283 208.105 130.027 207.956C129.782 207.796 129.478 207.716 129.115 207.716C128.742 207.716 128.427 207.796 128.171 207.956C127.926 208.105 127.723 208.303 127.563 208.548C127.414 208.793 127.307 209.076 127.243 209.396C127.179 209.716 127.147 210.047 127.147 210.388C127.147 210.719 127.179 211.044 127.243 211.364C127.318 211.684 127.43 211.967 127.579 212.212C127.739 212.447 127.947 212.639 128.203 212.788C128.459 212.937 128.769 213.012 129.131 213.012ZM124.955 206.228H127.115V207.284H127.147C127.425 206.836 127.777 206.511 128.203 206.308C128.63 206.105 129.099 206.004 129.611 206.004C130.262 206.004 130.822 206.127 131.291 206.372C131.761 206.617 132.15 206.943 132.459 207.348C132.769 207.753 132.998 208.228 133.147 208.772C133.297 209.305 133.371 209.865 133.371 210.452C133.371 211.007 133.297 211.54 133.147 212.052C132.998 212.564 132.769 213.017 132.459 213.412C132.161 213.807 131.782 214.121 131.323 214.356C130.875 214.591 130.347 214.708 129.739 214.708C129.227 214.708 128.753 214.607 128.315 214.404C127.889 214.191 127.537 213.881 127.259 213.476H127.227V217.396H124.955V206.228ZM138.753 213.012C139.126 213.012 139.435 212.937 139.681 212.788C139.937 212.639 140.139 212.447 140.289 212.212C140.449 211.967 140.561 211.684 140.625 211.364C140.689 211.044 140.721 210.719 140.721 210.388C140.721 210.057 140.683 209.732 140.609 209.412C140.545 209.092 140.433 208.809 140.273 208.564C140.113 208.308 139.905 208.105 139.649 207.956C139.403 207.796 139.099 207.716 138.737 207.716C138.363 207.716 138.049 207.796 137.793 207.956C137.547 208.105 137.345 208.303 137.185 208.548C137.035 208.793 136.929 209.076 136.865 209.396C136.801 209.716 136.769 210.047 136.769 210.388C136.769 210.719 136.801 211.044 136.865 211.364C136.939 211.684 137.051 211.967 137.201 212.212C137.361 212.447 137.569 212.639 137.825 212.788C138.081 212.937 138.39 213.012 138.753 213.012ZM134.577 206.228H136.737V207.284H136.769C137.046 206.836 137.398 206.511 137.825 206.308C138.251 206.105 138.721 206.004 139.233 206.004C139.883 206.004 140.443 206.127 140.913 206.372C141.382 206.617 141.771 206.943 142.081 207.348C142.39 207.753 142.619 208.228 142.769 208.772C142.918 209.305 142.993 209.865 142.993 210.452C142.993 211.007 142.918 211.54 142.769 212.052C142.619 212.564 142.39 213.017 142.081 213.412C141.782 213.807 141.403 214.121 140.945 214.356C140.497 214.591 139.969 214.708 139.361 214.708C138.849 214.708 138.374 214.607 137.937 214.404C137.51 214.191 137.158 213.881 136.881 213.476H136.849V217.396H134.577V206.228ZM146.214 210.372C146.214 210.703 146.246 211.028 146.31 211.348C146.374 211.657 146.48 211.94 146.63 212.196C146.79 212.441 146.998 212.639 147.254 212.788C147.51 212.937 147.83 213.012 148.214 213.012C148.598 213.012 148.918 212.937 149.174 212.788C149.44 212.639 149.648 212.441 149.798 212.196C149.958 211.94 150.07 211.657 150.134 211.348C150.198 211.028 150.23 210.703 150.23 210.372C150.23 210.041 150.198 209.716 150.134 209.396C150.07 209.076 149.958 208.793 149.798 208.548C149.648 208.303 149.44 208.105 149.174 207.956C148.918 207.796 148.598 207.716 148.214 207.716C147.83 207.716 147.51 207.796 147.254 207.956C146.998 208.105 146.79 208.303 146.63 208.548C146.48 208.793 146.374 209.076 146.31 209.396C146.246 209.716 146.214 210.041 146.214 210.372ZM143.942 210.372C143.942 209.711 144.043 209.113 144.246 208.58C144.448 208.036 144.736 207.577 145.11 207.204C145.483 206.82 145.931 206.527 146.454 206.324C146.976 206.111 147.563 206.004 148.214 206.004C148.864 206.004 149.451 206.111 149.974 206.324C150.507 206.527 150.96 206.82 151.334 207.204C151.707 207.577 151.995 208.036 152.198 208.58C152.4 209.113 152.502 209.711 152.502 210.372C152.502 211.033 152.4 211.631 152.198 212.164C151.995 212.697 151.707 213.156 151.334 213.54C150.96 213.913 150.507 214.201 149.974 214.404C149.451 214.607 148.864 214.708 148.214 214.708C147.563 214.708 146.976 214.607 146.454 214.404C145.931 214.201 145.483 213.913 145.11 213.54C144.736 213.156 144.448 212.697 144.246 212.164C144.043 211.631 143.942 211.033 143.942 210.372ZM153.819 206.228H155.979V207.764H156.011C156.118 207.508 156.262 207.273 156.443 207.06C156.624 206.836 156.832 206.649 157.067 206.5C157.302 206.34 157.552 206.217 157.819 206.132C158.086 206.047 158.363 206.004 158.651 206.004C158.8 206.004 158.966 206.031 159.147 206.084V208.196C159.04 208.175 158.912 208.159 158.763 208.148C158.614 208.127 158.47 208.116 158.331 208.116C157.915 208.116 157.563 208.185 157.275 208.324C156.987 208.463 156.752 208.655 156.571 208.9C156.4 209.135 156.278 209.412 156.203 209.732C156.128 210.052 156.091 210.399 156.091 210.772V214.5H153.819V206.228ZM162.758 206.228H164.422V207.748H162.758V211.844C162.758 212.228 162.822 212.484 162.95 212.612C163.078 212.74 163.334 212.804 163.718 212.804C163.846 212.804 163.968 212.799 164.086 212.788C164.203 212.777 164.315 212.761 164.422 212.74V214.5C164.23 214.532 164.016 214.553 163.782 214.564C163.547 214.575 163.318 214.58 163.094 214.58C162.742 214.58 162.406 214.553 162.086 214.5C161.776 214.457 161.499 214.367 161.254 214.228C161.019 214.089 160.832 213.892 160.694 213.636C160.555 213.38 160.486 213.044 160.486 212.628V207.748H159.11V206.228H160.486V203.748H162.758V206.228ZM170.911 209.476C170.804 208.9 170.612 208.463 170.335 208.164C170.068 207.865 169.657 207.716 169.103 207.716C168.74 207.716 168.436 207.78 168.191 207.908C167.956 208.025 167.764 208.175 167.615 208.356C167.476 208.537 167.375 208.729 167.311 208.932C167.257 209.135 167.225 209.316 167.215 209.476H170.911ZM167.215 210.916C167.247 211.652 167.433 212.185 167.775 212.516C168.116 212.847 168.607 213.012 169.247 213.012C169.705 213.012 170.1 212.9 170.431 212.676C170.761 212.441 170.964 212.196 171.039 211.94H173.039C172.719 212.932 172.228 213.641 171.567 214.068C170.905 214.495 170.105 214.708 169.167 214.708C168.516 214.708 167.929 214.607 167.407 214.404C166.884 214.191 166.441 213.892 166.079 213.508C165.716 213.124 165.433 212.665 165.231 212.132C165.039 211.599 164.943 211.012 164.943 210.372C164.943 209.753 165.044 209.177 165.247 208.644C165.449 208.111 165.737 207.652 166.111 207.268C166.484 206.873 166.927 206.564 167.439 206.34C167.961 206.116 168.537 206.004 169.167 206.004C169.871 206.004 170.484 206.143 171.007 206.42C171.529 206.687 171.956 207.049 172.287 207.508C172.628 207.967 172.873 208.489 173.023 209.076C173.172 209.663 173.225 210.276 173.183 210.916H167.215ZM174.37 206.228H176.53V207.764H176.562C176.669 207.508 176.813 207.273 176.994 207.06C177.176 206.836 177.384 206.649 177.618 206.5C177.853 206.34 178.104 206.217 178.37 206.132C178.637 206.047 178.914 206.004 179.202 206.004C179.352 206.004 179.517 206.031 179.698 206.084V208.196C179.592 208.175 179.464 208.159 179.314 208.148C179.165 208.127 179.021 208.116 178.882 208.116C178.466 208.116 178.114 208.185 177.826 208.324C177.538 208.463 177.304 208.655 177.122 208.9C176.952 209.135 176.829 209.412 176.754 209.732C176.68 210.052 176.642 210.399 176.642 210.772V214.5H174.37V206.228ZM187.474 212.388H189.714C190.077 212.388 190.429 212.329 190.77 212.212C191.111 212.095 191.415 211.903 191.682 211.636C191.949 211.359 192.162 211.001 192.322 210.564C192.482 210.127 192.562 209.593 192.562 208.964C192.562 208.388 192.503 207.871 192.386 207.412C192.279 206.943 192.098 206.543 191.842 206.212C191.586 205.881 191.245 205.631 190.818 205.46C190.402 205.279 189.885 205.188 189.266 205.188H187.474V212.388ZM184.962 203.076H189.89C190.626 203.076 191.309 203.193 191.938 203.428C192.578 203.663 193.127 204.015 193.586 204.484C194.055 204.953 194.418 205.54 194.674 206.244C194.941 206.948 195.074 207.775 195.074 208.724C195.074 209.556 194.967 210.324 194.754 211.028C194.541 211.732 194.215 212.34 193.778 212.852C193.351 213.364 192.813 213.769 192.162 214.068C191.522 214.356 190.765 214.5 189.89 214.5H184.962V203.076ZM198.438 210.372C198.438 210.703 198.47 211.028 198.534 211.348C198.598 211.657 198.704 211.94 198.854 212.196C199.014 212.441 199.222 212.639 199.478 212.788C199.734 212.937 200.054 213.012 200.438 213.012C200.822 213.012 201.142 212.937 201.398 212.788C201.664 212.639 201.872 212.441 202.022 212.196C202.182 211.94 202.294 211.657 202.358 211.348C202.422 211.028 202.454 210.703 202.454 210.372C202.454 210.041 202.422 209.716 202.358 209.396C202.294 209.076 202.182 208.793 202.022 208.548C201.872 208.303 201.664 208.105 201.398 207.956C201.142 207.796 200.822 207.716 200.438 207.716C200.054 207.716 199.734 207.796 199.478 207.956C199.222 208.105 199.014 208.303 198.854 208.548C198.704 208.793 198.598 209.076 198.534 209.396C198.47 209.716 198.438 210.041 198.438 210.372ZM196.166 210.372C196.166 209.711 196.267 209.113 196.47 208.58C196.672 208.036 196.96 207.577 197.334 207.204C197.707 206.82 198.155 206.527 198.678 206.324C199.2 206.111 199.787 206.004 200.438 206.004C201.088 206.004 201.675 206.111 202.198 206.324C202.731 206.527 203.184 206.82 203.558 207.204C203.931 207.577 204.219 208.036 204.422 208.58C204.624 209.113 204.726 209.711 204.726 210.372C204.726 211.033 204.624 211.631 204.422 212.164C204.219 212.697 203.931 213.156 203.558 213.54C203.184 213.913 202.731 214.201 202.198 214.404C201.675 214.607 201.088 214.708 200.438 214.708C199.787 214.708 199.2 214.607 198.678 214.404C198.155 214.201 197.707 213.913 197.334 213.54C196.96 213.156 196.672 212.697 196.47 212.164C196.267 211.631 196.166 211.033 196.166 210.372ZM206.043 206.228H208.203V207.38H208.251C208.539 206.9 208.912 206.553 209.371 206.34C209.829 206.116 210.299 206.004 210.779 206.004C211.387 206.004 211.883 206.089 212.267 206.26C212.661 206.42 212.971 206.649 213.195 206.948C213.419 207.236 213.573 207.593 213.659 208.02C213.755 208.436 213.803 208.9 213.803 209.412V214.5H211.531V209.828C211.531 209.145 211.424 208.639 211.211 208.308C210.997 207.967 210.619 207.796 210.075 207.796C209.456 207.796 209.008 207.983 208.731 208.356C208.453 208.719 208.315 209.321 208.315 210.164V214.5H206.043V206.228ZM215.271 208.772C215.303 208.239 215.436 207.796 215.671 207.444C215.906 207.092 216.204 206.809 216.567 206.596C216.93 206.383 217.335 206.233 217.783 206.148C218.242 206.052 218.7 206.004 219.159 206.004C219.575 206.004 219.996 206.036 220.423 206.1C220.85 206.153 221.239 206.265 221.591 206.436C221.943 206.607 222.231 206.847 222.455 207.156C222.679 207.455 222.791 207.855 222.791 208.356V212.66C222.791 213.033 222.812 213.391 222.855 213.732C222.898 214.073 222.972 214.329 223.079 214.5H220.775C220.732 214.372 220.695 214.244 220.663 214.116C220.642 213.977 220.626 213.839 220.615 213.7C220.252 214.073 219.826 214.335 219.335 214.484C218.844 214.633 218.343 214.708 217.831 214.708C217.436 214.708 217.068 214.66 216.727 214.564C216.386 214.468 216.087 214.319 215.831 214.116C215.575 213.913 215.372 213.657 215.223 213.348C215.084 213.039 215.015 212.671 215.015 212.244C215.015 211.775 215.095 211.391 215.255 211.092C215.426 210.783 215.639 210.537 215.895 210.356C216.162 210.175 216.46 210.041 216.791 209.956C217.132 209.86 217.474 209.785 217.815 209.732C218.156 209.679 218.492 209.636 218.823 209.604C219.154 209.572 219.447 209.524 219.703 209.46C219.959 209.396 220.162 209.305 220.311 209.188C220.46 209.06 220.53 208.879 220.519 208.644C220.519 208.399 220.476 208.207 220.391 208.068C220.316 207.919 220.21 207.807 220.071 207.732C219.943 207.647 219.788 207.593 219.607 207.572C219.436 207.54 219.25 207.524 219.047 207.524C218.599 207.524 218.247 207.62 217.991 207.812C217.735 208.004 217.586 208.324 217.543 208.772H215.271ZM220.519 210.452C220.423 210.537 220.3 210.607 220.151 210.66C220.012 210.703 219.858 210.74 219.687 210.772C219.527 210.804 219.356 210.831 219.175 210.852C218.994 210.873 218.812 210.9 218.631 210.932C218.46 210.964 218.29 211.007 218.119 211.06C217.959 211.113 217.815 211.188 217.687 211.284C217.57 211.369 217.474 211.481 217.399 211.62C217.324 211.759 217.287 211.935 217.287 212.148C217.287 212.351 217.324 212.521 217.399 212.66C217.474 212.799 217.575 212.911 217.703 212.996C217.831 213.071 217.98 213.124 218.151 213.156C218.322 213.188 218.498 213.204 218.679 213.204C219.127 213.204 219.474 213.129 219.719 212.98C219.964 212.831 220.146 212.655 220.263 212.452C220.38 212.239 220.45 212.025 220.471 211.812C220.503 211.599 220.519 211.428 220.519 211.3V210.452ZM227.275 206.228H228.939V207.748H227.275V211.844C227.275 212.228 227.339 212.484 227.467 212.612C227.595 212.74 227.851 212.804 228.235 212.804C228.363 212.804 228.485 212.799 228.603 212.788C228.72 212.777 228.832 212.761 228.939 212.74V214.5C228.747 214.532 228.533 214.553 228.299 214.564C228.064 214.575 227.835 214.58 227.611 214.58C227.259 214.58 226.923 214.553 226.603 214.5C226.293 214.457 226.016 214.367 225.771 214.228C225.536 214.089 225.349 213.892 225.211 213.636C225.072 213.38 225.003 213.044 225.003 212.628V207.748H223.627V206.228H225.003V203.748H227.275V206.228ZM232.196 204.948H229.924V203.076H232.196V204.948ZM229.924 206.228H232.196V214.5H229.924V206.228ZM235.841 210.372C235.841 210.703 235.873 211.028 235.937 211.348C236.001 211.657 236.107 211.94 236.257 212.196C236.417 212.441 236.625 212.639 236.881 212.788C237.137 212.937 237.457 213.012 237.841 213.012C238.225 213.012 238.545 212.937 238.801 212.788C239.067 212.639 239.275 212.441 239.425 212.196C239.585 211.94 239.697 211.657 239.761 211.348C239.825 211.028 239.857 210.703 239.857 210.372C239.857 210.041 239.825 209.716 239.761 209.396C239.697 209.076 239.585 208.793 239.425 208.548C239.275 208.303 239.067 208.105 238.801 207.956C238.545 207.796 238.225 207.716 237.841 207.716C237.457 207.716 237.137 207.796 236.881 207.956C236.625 208.105 236.417 208.303 236.257 208.548C236.107 208.793 236.001 209.076 235.937 209.396C235.873 209.716 235.841 210.041 235.841 210.372ZM233.569 210.372C233.569 209.711 233.67 209.113 233.873 208.58C234.075 208.036 234.363 207.577 234.737 207.204C235.11 206.82 235.558 206.527 236.081 206.324C236.603 206.111 237.19 206.004 237.841 206.004C238.491 206.004 239.078 206.111 239.601 206.324C240.134 206.527 240.587 206.82 240.961 207.204C241.334 207.577 241.622 208.036 241.825 208.58C242.027 209.113 242.129 209.711 242.129 210.372C242.129 211.033 242.027 211.631 241.825 212.164C241.622 212.697 241.334 213.156 240.961 213.54C240.587 213.913 240.134 214.201 239.601 214.404C239.078 214.607 238.491 214.708 237.841 214.708C237.19 214.708 236.603 214.607 236.081 214.404C235.558 214.201 235.11 213.913 234.737 213.54C234.363 213.156 234.075 212.697 233.873 212.164C233.67 211.631 233.569 211.033 233.569 210.372ZM243.446 206.228H245.606V207.38H245.654C245.942 206.9 246.315 206.553 246.774 206.34C247.233 206.116 247.702 206.004 248.182 206.004C248.79 206.004 249.286 206.089 249.67 206.26C250.065 206.42 250.374 206.649 250.598 206.948C250.822 207.236 250.977 207.593 251.062 208.02C251.158 208.436 251.206 208.9 251.206 209.412V214.5H248.934V209.828C248.934 209.145 248.827 208.639 248.614 208.308C248.401 207.967 248.022 207.796 247.478 207.796C246.859 207.796 246.411 207.983 246.134 208.356C245.857 208.719 245.718 209.321 245.718 210.164V214.5H243.446V206.228ZM254.53 211.812C254.53 212.057 254.578 212.271 254.674 212.452C254.781 212.623 254.914 212.767 255.074 212.884C255.234 212.991 255.416 213.071 255.618 213.124C255.832 213.177 256.05 213.204 256.274 213.204C256.434 213.204 256.6 213.188 256.77 213.156C256.952 213.113 257.112 213.055 257.25 212.98C257.4 212.895 257.522 212.788 257.618 212.66C257.714 212.521 257.762 212.351 257.762 212.148C257.762 211.807 257.533 211.551 257.074 211.38C256.626 211.209 255.997 211.039 255.186 210.868C254.856 210.793 254.53 210.708 254.21 210.612C253.901 210.505 253.624 210.372 253.378 210.212C253.133 210.041 252.936 209.833 252.786 209.588C252.637 209.332 252.562 209.023 252.562 208.66C252.562 208.127 252.664 207.689 252.866 207.348C253.08 207.007 253.357 206.74 253.698 206.548C254.04 206.345 254.424 206.207 254.85 206.132C255.277 206.047 255.714 206.004 256.162 206.004C256.61 206.004 257.042 206.047 257.458 206.132C257.885 206.217 258.264 206.361 258.594 206.564C258.925 206.767 259.197 207.039 259.41 207.38C259.634 207.711 259.768 208.132 259.81 208.644H257.65C257.618 208.207 257.453 207.913 257.154 207.764C256.856 207.604 256.504 207.524 256.098 207.524C255.97 207.524 255.832 207.535 255.682 207.556C255.533 207.567 255.394 207.599 255.266 207.652C255.149 207.705 255.048 207.785 254.962 207.892C254.877 207.988 254.834 208.121 254.834 208.292C254.834 208.495 254.909 208.66 255.058 208.788C255.208 208.916 255.4 209.023 255.634 209.108C255.88 209.183 256.157 209.252 256.466 209.316C256.776 209.38 257.09 209.449 257.41 209.524C257.741 209.599 258.061 209.689 258.37 209.796C258.69 209.903 258.973 210.047 259.218 210.228C259.464 210.399 259.661 210.617 259.81 210.884C259.96 211.14 260.034 211.46 260.034 211.844C260.034 212.388 259.922 212.847 259.698 213.22C259.485 213.583 259.202 213.876 258.85 214.1C258.498 214.324 258.093 214.479 257.634 214.564C257.186 214.66 256.728 214.708 256.258 214.708C255.778 214.708 255.309 214.66 254.85 214.564C254.392 214.468 253.981 214.308 253.618 214.084C253.266 213.86 252.973 213.567 252.738 213.204C252.514 212.831 252.392 212.367 252.37 211.812H254.53Z" fill="#131313"/>
<rect width="365" height="64" transform="translate(0 336)" fill="#FF1941"/>
<path d="M115.216 376.5H111.808V365.604H107.584V363.036C108.176 363.052 108.744 363.012 109.288 362.916C109.848 362.804 110.344 362.62 110.776 362.364C111.224 362.092 111.6 361.74 111.904 361.308C112.208 360.876 112.408 360.34 112.504 359.7H115.216V376.5ZM125.768 367.788C125.32 367.788 124.92 367.876 124.568 368.052C124.232 368.212 123.952 368.436 123.728 368.724C123.504 369.012 123.336 369.348 123.224 369.732C123.112 370.1 123.056 370.492 123.056 370.908C123.056 371.292 123.112 371.676 123.224 372.06C123.352 372.428 123.528 372.764 123.752 373.068C123.992 373.356 124.28 373.588 124.616 373.764C124.952 373.94 125.336 374.028 125.768 374.028C126.184 374.028 126.544 373.94 126.848 373.764C127.168 373.588 127.44 373.356 127.664 373.068C127.888 372.78 128.056 372.452 128.168 372.084C128.28 371.716 128.336 371.34 128.336 370.956C128.336 370.556 128.28 370.172 128.168 369.804C128.072 369.42 127.92 369.084 127.712 368.796C127.504 368.492 127.232 368.252 126.896 368.076C126.576 367.884 126.2 367.788 125.768 367.788ZM128.216 364.02C128.104 363.46 127.848 362.972 127.448 362.556C127.048 362.14 126.552 361.932 125.96 361.932C125.352 361.932 124.84 362.116 124.424 362.484C124.024 362.836 123.704 363.276 123.464 363.804C123.224 364.316 123.048 364.868 122.936 365.46C122.824 366.052 122.76 366.58 122.744 367.044L122.792 367.092C123.256 366.42 123.8 365.94 124.424 365.652C125.048 365.364 125.768 365.22 126.584 365.22C127.304 365.22 128.008 365.38 128.696 365.7C129.384 366.004 129.968 366.42 130.448 366.948C130.896 367.46 131.224 368.044 131.432 368.7C131.64 369.356 131.744 370.02 131.744 370.692C131.744 371.556 131.6 372.364 131.312 373.116C131.04 373.852 130.64 374.5 130.112 375.06C129.6 375.604 128.984 376.036 128.264 376.356C127.544 376.66 126.744 376.812 125.864 376.812C124.6 376.812 123.552 376.564 122.72 376.068C121.888 375.556 121.224 374.892 120.728 374.076C120.232 373.26 119.888 372.34 119.696 371.316C119.504 370.276 119.408 369.22 119.408 368.148C119.408 367.108 119.528 366.068 119.768 365.028C120.008 363.988 120.392 363.052 120.92 362.22C121.448 361.372 122.128 360.684 122.96 360.156C123.792 359.628 124.808 359.364 126.008 359.364C126.728 359.364 127.4 359.468 128.024 359.676C128.648 359.884 129.2 360.188 129.68 360.588C130.16 360.972 130.552 361.452 130.856 362.028C131.16 362.604 131.36 363.268 131.456 364.02H128.216ZM148.632 372.132C148.632 372.388 148.64 372.684 148.656 373.02C148.672 373.356 148.728 373.676 148.824 373.98C148.92 374.268 149.072 374.516 149.28 374.724C149.488 374.932 149.784 375.036 150.168 375.036C150.536 375.036 150.824 374.932 151.032 374.724C151.256 374.516 151.416 374.268 151.512 373.98C151.624 373.676 151.688 373.364 151.704 373.044C151.736 372.708 151.752 372.412 151.752 372.156C151.752 371.916 151.736 371.636 151.704 371.316C151.688 370.98 151.632 370.668 151.536 370.38C151.44 370.076 151.288 369.82 151.08 369.612C150.888 369.388 150.616 369.276 150.264 369.276C149.88 369.276 149.576 369.372 149.352 369.564C149.144 369.756 148.984 369.996 148.872 370.284C148.76 370.572 148.688 370.884 148.656 371.22C148.64 371.556 148.632 371.86 148.632 372.132ZM146.184 372.108C146.184 371.452 146.264 370.844 146.424 370.284C146.584 369.724 146.832 369.236 147.168 368.82C147.504 368.404 147.928 368.076 148.44 367.836C148.952 367.596 149.56 367.476 150.264 367.476C151.016 367.476 151.64 367.604 152.136 367.86C152.632 368.1 153.032 368.436 153.336 368.868C153.656 369.284 153.88 369.78 154.008 370.356C154.136 370.932 154.2 371.548 154.2 372.204C154.2 372.86 154.12 373.468 153.96 374.028C153.8 374.588 153.552 375.076 153.216 375.492C152.896 375.908 152.48 376.236 151.968 376.476C151.456 376.7 150.848 376.812 150.144 376.812C149.408 376.812 148.784 376.692 148.272 376.452C147.776 376.212 147.368 375.884 147.048 375.468C146.744 375.036 146.52 374.532 146.376 373.956C146.248 373.38 146.184 372.764 146.184 372.108ZM148.032 359.172H150.072L140.184 377.004H138.096L148.032 359.172ZM136.248 364.164C136.248 364.42 136.256 364.708 136.272 365.028C136.288 365.348 136.344 365.652 136.44 365.94C136.536 366.212 136.688 366.444 136.896 366.636C137.104 366.828 137.4 366.924 137.784 366.924C138.152 366.924 138.44 366.828 138.648 366.636C138.872 366.444 139.032 366.212 139.128 365.94C139.24 365.652 139.304 365.356 139.32 365.052C139.352 364.732 139.368 364.444 139.368 364.188C139.368 363.948 139.352 363.66 139.32 363.324C139.304 362.972 139.248 362.636 139.152 362.316C139.056 361.996 138.904 361.724 138.696 361.5C138.504 361.276 138.232 361.164 137.88 361.164C137.496 361.164 137.192 361.268 136.968 361.476C136.76 361.684 136.6 361.94 136.488 362.244C136.376 362.548 136.304 362.876 136.272 363.228C136.256 363.58 136.248 363.892 136.248 364.164ZM133.8 364.116C133.8 363.46 133.88 362.844 134.04 362.268C134.2 361.692 134.448 361.188 134.784 360.756C135.12 360.324 135.544 359.988 136.056 359.748C136.568 359.492 137.176 359.364 137.88 359.364C138.632 359.364 139.256 359.492 139.752 359.748C140.248 360.004 140.648 360.356 140.952 360.804C141.272 361.236 141.496 361.748 141.624 362.34C141.752 362.932 141.816 363.556 141.816 364.212C141.816 364.868 141.736 365.476 141.576 366.036C141.416 366.58 141.168 367.052 140.832 367.452C140.512 367.852 140.096 368.164 139.584 368.388C139.072 368.612 138.464 368.724 137.76 368.724C137.024 368.724 136.4 368.612 135.888 368.388C135.392 368.148 134.984 367.828 134.664 367.428C134.36 367.012 134.136 366.524 133.992 365.964C133.864 365.388 133.8 364.772 133.8 364.116Z" fill="#131313"/>
<path d="M170.153 369.828L163.865 359.364H168.089L172.097 366.132L176.081 359.364H180.281L173.921 369.924V376.5H170.153V369.828ZM181.473 370.308C181.473 370.804 181.521 371.292 181.617 371.772C181.713 372.236 181.873 372.66 182.097 373.044C182.337 373.412 182.649 373.708 183.033 373.932C183.417 374.156 183.897 374.268 184.473 374.268C185.049 374.268 185.529 374.156 185.913 373.932C186.313 373.708 186.625 373.412 186.849 373.044C187.089 372.66 187.257 372.236 187.353 371.772C187.449 371.292 187.497 370.804 187.497 370.308C187.497 369.812 187.449 369.324 187.353 368.844C187.257 368.364 187.089 367.94 186.849 367.572C186.625 367.204 186.313 366.908 185.913 366.684C185.529 366.444 185.049 366.324 184.473 366.324C183.897 366.324 183.417 366.444 183.033 366.684C182.649 366.908 182.337 367.204 182.097 367.572C181.873 367.94 181.713 368.364 181.617 368.844C181.521 369.324 181.473 369.812 181.473 370.308ZM178.065 370.308C178.065 369.316 178.217 368.42 178.521 367.62C178.825 366.804 179.257 366.116 179.817 365.556C180.377 364.98 181.049 364.54 181.833 364.236C182.617 363.916 183.497 363.756 184.473 363.756C185.449 363.756 186.329 363.916 187.113 364.236C187.913 364.54 188.593 364.98 189.153 365.556C189.713 366.116 190.145 366.804 190.449 367.62C190.753 368.42 190.905 369.316 190.905 370.308C190.905 371.3 190.753 372.196 190.449 372.996C190.145 373.796 189.713 374.484 189.153 375.06C188.593 375.62 187.913 376.052 187.113 376.356C186.329 376.66 185.449 376.812 184.473 376.812C183.497 376.812 182.617 376.66 181.833 376.356C181.049 376.052 180.377 375.62 179.817 375.06C179.257 374.484 178.825 373.796 178.521 372.996C178.217 372.196 178.065 371.3 178.065 370.308ZM204.521 376.5H201.281V374.772H201.209C200.777 375.492 200.217 376.012 199.529 376.332C198.841 376.652 198.137 376.812 197.417 376.812C196.505 376.812 195.753 376.692 195.161 376.452C194.585 376.212 194.129 375.876 193.793 375.444C193.457 374.996 193.217 374.46 193.073 373.836C192.945 373.196 192.881 372.492 192.881 371.724V364.092H196.289V371.1C196.289 372.124 196.449 372.892 196.769 373.404C197.089 373.9 197.657 374.148 198.473 374.148C199.401 374.148 200.073 373.876 200.489 373.332C200.905 372.772 201.113 371.86 201.113 370.596V364.092H204.521V376.5ZM211.02 362.532H205.884V359.364H219.924V362.532H214.788V376.5H211.02V362.532ZM230.736 376.5H227.496V374.772H227.424C226.992 375.492 226.432 376.012 225.744 376.332C225.056 376.652 224.352 376.812 223.632 376.812C222.72 376.812 221.968 376.692 221.376 376.452C220.8 376.212 220.344 375.876 220.008 375.444C219.672 374.996 219.432 374.46 219.288 373.836C219.16 373.196 219.096 372.492 219.096 371.724V364.092H222.504V371.1C222.504 372.124 222.664 372.892 222.984 373.404C223.304 373.9 223.872 374.148 224.688 374.148C225.616 374.148 226.288 373.876 226.704 373.332C227.12 372.772 227.328 371.86 227.328 370.596V364.092H230.736V376.5ZM242.179 370.308C242.179 369.78 242.123 369.276 242.011 368.796C241.899 368.316 241.723 367.892 241.483 367.524C241.243 367.156 240.939 366.868 240.571 366.66C240.219 366.436 239.787 366.324 239.275 366.324C238.779 366.324 238.347 366.436 237.979 366.66C237.611 366.868 237.307 367.156 237.067 367.524C236.827 367.892 236.651 368.316 236.539 368.796C236.427 369.276 236.371 369.78 236.371 370.308C236.371 370.82 236.427 371.316 236.539 371.796C236.651 372.276 236.827 372.7 237.067 373.068C237.307 373.436 237.611 373.732 237.979 373.956C238.347 374.164 238.779 374.268 239.275 374.268C239.787 374.268 240.219 374.164 240.571 373.956C240.939 373.732 241.243 373.436 241.483 373.068C241.723 372.7 241.899 372.276 242.011 371.796C242.123 371.316 242.179 370.82 242.179 370.308ZM233.083 359.364H236.491V365.604H236.539C236.955 364.964 237.515 364.5 238.219 364.212C238.939 363.908 239.683 363.756 240.451 363.756C241.075 363.756 241.691 363.884 242.299 364.14C242.907 364.396 243.451 364.788 243.931 365.316C244.427 365.844 244.827 366.524 245.131 367.356C245.435 368.172 245.587 369.148 245.587 370.284C245.587 371.42 245.435 372.404 245.131 373.236C244.827 374.052 244.427 374.724 243.931 375.252C243.451 375.78 242.907 376.172 242.299 376.428C241.691 376.684 241.075 376.812 240.451 376.812C239.539 376.812 238.723 376.668 238.003 376.38C237.283 376.092 236.739 375.604 236.371 374.916H236.323V376.5H233.083V359.364ZM255.867 368.964C255.707 368.1 255.419 367.444 255.003 366.996C254.603 366.548 253.987 366.324 253.155 366.324C252.611 366.324 252.155 366.42 251.787 366.612C251.435 366.788 251.147 367.012 250.923 367.284C250.715 367.556 250.563 367.844 250.467 368.148C250.387 368.452 250.339 368.724 250.323 368.964H255.867ZM250.323 371.124C250.371 372.228 250.651 373.028 251.163 373.524C251.675 374.02 252.411 374.268 253.371 374.268C254.059 374.268 254.651 374.1 255.147 373.764C255.643 373.412 255.947 373.044 256.059 372.66H259.059C258.579 374.148 257.843 375.212 256.851 375.852C255.859 376.492 254.659 376.812 253.251 376.812C252.275 376.812 251.395 376.66 250.611 376.356C249.827 376.036 249.163 375.588 248.619 375.012C248.075 374.436 247.651 373.748 247.347 372.948C247.059 372.148 246.915 371.268 246.915 370.308C246.915 369.38 247.067 368.516 247.371 367.716C247.675 366.916 248.107 366.228 248.667 365.652C249.227 365.06 249.891 364.596 250.659 364.26C251.443 363.924 252.307 363.756 253.251 363.756C254.307 363.756 255.227 363.964 256.011 364.38C256.795 364.78 257.435 365.324 257.931 366.012C258.443 366.7 258.811 367.484 259.035 368.364C259.259 369.244 259.339 370.164 259.275 371.124H250.323Z" fill="#131313"/>
<path d="M158.154 417.817C158.154 417.932 158.159 418.065 158.168 418.215C158.177 418.366 158.21 418.51 158.266 418.646C158.322 418.776 158.411 418.887 158.532 418.98C158.653 419.074 158.826 419.12 159.05 419.12C159.265 419.12 159.433 419.074 159.554 418.98C159.685 418.887 159.778 418.776 159.834 418.646C159.899 418.51 159.937 418.37 159.946 418.226C159.965 418.075 159.974 417.943 159.974 417.828C159.974 417.72 159.965 417.594 159.946 417.451C159.937 417.3 159.904 417.16 159.848 417.031C159.792 416.894 159.703 416.779 159.582 416.686C159.47 416.585 159.311 416.535 159.106 416.535C158.882 416.535 158.705 416.578 158.574 416.664C158.453 416.75 158.359 416.858 158.294 416.987C158.229 417.117 158.187 417.257 158.168 417.408C158.159 417.558 158.154 417.695 158.154 417.817ZM156.726 417.806C156.726 417.512 156.773 417.239 156.866 416.987C156.959 416.736 157.104 416.517 157.3 416.33C157.496 416.144 157.743 415.996 158.042 415.889C158.341 415.781 158.695 415.727 159.106 415.727C159.545 415.727 159.909 415.785 160.198 415.899C160.487 416.007 160.721 416.158 160.898 416.352C161.085 416.539 161.215 416.761 161.29 417.02C161.365 417.278 161.402 417.555 161.402 417.849C161.402 418.144 161.355 418.416 161.262 418.668C161.169 418.919 161.024 419.138 160.828 419.325C160.641 419.512 160.399 419.659 160.1 419.767C159.801 419.867 159.447 419.917 159.036 419.917C158.607 419.917 158.243 419.864 157.944 419.756C157.655 419.648 157.417 419.501 157.23 419.314C157.053 419.12 156.922 418.894 156.838 418.636C156.763 418.377 156.726 418.101 156.726 417.806ZM157.804 412H158.994L153.226 420.004H152.008L157.804 412ZM150.93 414.241C150.93 414.355 150.935 414.485 150.944 414.628C150.953 414.772 150.986 414.908 151.042 415.038C151.098 415.16 151.187 415.264 151.308 415.35C151.429 415.436 151.602 415.479 151.826 415.479C152.041 415.479 152.209 415.436 152.33 415.35C152.461 415.264 152.554 415.16 152.61 415.038C152.675 414.908 152.713 414.776 152.722 414.639C152.741 414.496 152.75 414.366 152.75 414.251C152.75 414.144 152.741 414.014 152.722 413.864C152.713 413.706 152.68 413.555 152.624 413.411C152.568 413.268 152.479 413.145 152.358 413.045C152.246 412.944 152.087 412.894 151.882 412.894C151.658 412.894 151.481 412.941 151.35 413.034C151.229 413.127 151.135 413.242 151.07 413.379C151.005 413.515 150.963 413.662 150.944 413.82C150.935 413.978 150.93 414.118 150.93 414.241ZM149.502 414.219C149.502 413.925 149.549 413.648 149.642 413.39C149.735 413.131 149.88 412.905 150.076 412.711C150.272 412.517 150.519 412.366 150.818 412.259C151.117 412.144 151.471 412.086 151.882 412.086C152.321 412.086 152.685 412.144 152.974 412.259C153.263 412.373 153.497 412.531 153.674 412.732C153.861 412.926 153.991 413.156 154.066 413.422C154.141 413.688 154.178 413.968 154.178 414.262C154.178 414.557 154.131 414.829 154.038 415.081C153.945 415.325 153.8 415.537 153.604 415.716C153.417 415.896 153.175 416.036 152.876 416.136C152.577 416.237 152.223 416.287 151.812 416.287C151.383 416.287 151.019 416.237 150.72 416.136C150.431 416.029 150.193 415.885 150.006 415.706C149.829 415.519 149.698 415.3 149.614 415.048C149.539 414.79 149.502 414.513 149.502 414.219Z" fill="#131313"/>
<path d="M142.814 415.975C142.814 416.19 142.824 416.452 142.842 416.761C142.861 417.063 142.917 417.357 143.01 417.644C143.113 417.924 143.272 418.165 143.486 418.366C143.701 418.567 144.009 418.668 144.41 418.668C144.821 418.668 145.134 418.567 145.348 418.366C145.572 418.165 145.731 417.924 145.824 417.644C145.927 417.357 145.988 417.063 146.006 416.761C146.025 416.452 146.034 416.19 146.034 415.975C146.034 415.845 146.03 415.691 146.02 415.511C146.02 415.325 146.002 415.134 145.964 414.941C145.936 414.747 145.89 414.556 145.824 414.37C145.768 414.176 145.68 414.003 145.558 413.853C145.437 413.702 145.283 413.58 145.096 413.486C144.91 413.393 144.681 413.346 144.41 413.346C144.14 413.346 143.911 413.393 143.724 413.486C143.547 413.58 143.398 413.702 143.276 413.853C143.164 414.003 143.076 414.176 143.01 414.37C142.945 414.556 142.898 414.747 142.87 414.941C142.842 415.134 142.824 415.325 142.814 415.511C142.814 415.691 142.814 415.845 142.814 415.975ZM140.826 415.975C140.826 415.242 140.92 414.628 141.106 414.133C141.302 413.63 141.564 413.228 141.89 412.926C142.217 412.625 142.595 412.409 143.024 412.28C143.463 412.151 143.925 412.086 144.41 412.086C144.905 412.086 145.367 412.151 145.796 412.28C146.235 412.409 146.618 412.625 146.944 412.926C147.28 413.228 147.542 413.63 147.728 414.133C147.924 414.628 148.022 415.242 148.022 415.975C148.022 416.729 147.924 417.361 147.728 417.87C147.542 418.373 147.28 418.775 146.944 419.077C146.618 419.379 146.235 419.594 145.796 419.723C145.367 419.853 144.905 419.917 144.41 419.917C143.925 419.917 143.463 419.853 143.024 419.723C142.595 419.594 142.217 419.379 141.89 419.077C141.564 418.775 141.302 418.373 141.106 417.87C140.92 417.361 140.826 416.729 140.826 415.975Z" fill="#131313"/>
<path d="M217.385 412.086H219.373V414.984H219.415C219.667 414.66 219.989 414.427 220.381 414.283C220.773 414.133 221.155 414.057 221.529 414.057C222.061 414.057 222.495 414.115 222.831 414.23C223.176 414.337 223.447 414.492 223.643 414.693C223.839 414.887 223.974 415.127 224.049 415.414C224.133 415.695 224.175 416.007 224.175 416.352V419.777H222.187V416.632C222.187 416.172 222.093 415.831 221.907 415.608C221.72 415.379 221.389 415.264 220.913 415.264C220.371 415.264 219.979 415.389 219.737 415.641C219.494 415.885 219.373 416.291 219.373 416.858V419.777H217.385V412.086Z" fill="#131313"/>
<path d="M214.132 416.17C214.002 415.531 213.512 415.211 212.662 415.211C212.345 415.211 212.079 415.269 211.864 415.384C211.65 415.491 211.472 415.635 211.332 415.814C211.202 415.987 211.108 416.181 211.052 416.396C210.996 416.604 210.968 416.813 210.968 417.021C210.968 417.222 210.996 417.427 211.052 417.635C211.108 417.843 211.197 418.033 211.318 418.206C211.449 418.371 211.622 418.507 211.836 418.615C212.051 418.723 212.312 418.777 212.62 418.777C213.096 418.777 213.46 418.676 213.712 418.475C213.974 418.267 214.137 417.99 214.202 417.646H216.12C215.99 418.385 215.616 418.949 215 419.337C214.384 419.725 213.596 419.919 212.634 419.919C212.093 419.919 211.594 419.85 211.136 419.714C210.688 419.57 210.306 419.373 209.988 419.121C209.671 418.87 209.424 418.572 209.246 418.227C209.069 417.875 208.98 417.491 208.98 417.075C208.98 416.644 209.06 416.245 209.218 415.879C209.386 415.506 209.629 415.186 209.946 414.92C210.264 414.647 210.651 414.436 211.108 414.285C211.566 414.134 212.088 414.059 212.676 414.059C213.106 414.059 213.516 414.102 213.908 414.188C214.31 414.274 214.664 414.407 214.972 414.586C215.29 414.759 215.546 414.978 215.742 415.244C215.938 415.502 216.05 415.811 216.078 416.17H214.132Z" fill="#131313"/>
<path d="M202.271 416.999C202.271 417.222 202.299 417.441 202.355 417.656C202.411 417.865 202.505 418.055 202.635 418.227C202.775 418.393 202.957 418.525 203.181 418.626C203.405 418.726 203.685 418.777 204.021 418.777C204.357 418.777 204.637 418.726 204.861 418.626C205.095 418.525 205.277 418.393 205.407 418.227C205.547 418.055 205.645 417.865 205.701 417.656C205.757 417.441 205.785 417.222 205.785 416.999C205.785 416.777 205.757 416.558 205.701 416.342C205.645 416.127 205.547 415.937 205.407 415.771C205.277 415.606 205.095 415.473 204.861 415.373C204.637 415.265 204.357 415.211 204.021 415.211C203.685 415.211 203.405 415.265 203.181 415.373C202.957 415.473 202.775 415.606 202.635 415.771C202.505 415.937 202.411 416.127 202.355 416.342C202.299 416.558 202.271 416.777 202.271 416.999ZM200.283 416.999C200.283 416.554 200.372 416.152 200.549 415.793C200.727 415.427 200.979 415.118 201.305 414.866C201.632 414.608 202.024 414.41 202.481 414.274C202.939 414.13 203.452 414.059 204.021 414.059C204.591 414.059 205.104 414.13 205.561 414.274C206.028 414.41 206.425 414.608 206.751 414.866C207.078 415.118 207.33 415.427 207.507 415.793C207.685 416.152 207.773 416.554 207.773 416.999C207.773 417.445 207.685 417.847 207.507 418.206C207.33 418.565 207.078 418.874 206.751 419.132C206.425 419.384 206.028 419.577 205.561 419.714C205.104 419.85 204.591 419.919 204.021 419.919C203.452 419.919 202.939 419.85 202.481 419.714C202.024 419.577 201.632 419.384 201.305 419.132C200.979 418.874 200.727 418.565 200.549 418.206C200.372 417.847 200.283 417.445 200.283 416.999Z" fill="#131313"/>
<path d="M196.946 416.976C196.946 416.747 196.918 416.528 196.862 416.319C196.806 416.104 196.708 415.917 196.568 415.759C196.437 415.594 196.265 415.461 196.05 415.361C195.835 415.26 195.565 415.21 195.238 415.21C194.911 415.21 194.636 415.26 194.412 415.361C194.188 415.461 194.006 415.594 193.866 415.759C193.735 415.924 193.637 416.115 193.572 416.33C193.516 416.538 193.488 416.757 193.488 416.987C193.488 417.203 193.521 417.418 193.586 417.633C193.651 417.849 193.754 418.043 193.894 418.215C194.043 418.38 194.225 418.517 194.44 418.625C194.664 418.725 194.93 418.775 195.238 418.775C195.565 418.775 195.835 418.725 196.05 418.625C196.274 418.524 196.451 418.391 196.582 418.226C196.713 418.054 196.806 417.86 196.862 417.644C196.918 417.429 196.946 417.206 196.946 416.976ZM196.974 419.066H196.946C196.713 419.368 196.405 419.587 196.022 419.723C195.649 419.853 195.224 419.917 194.748 419.917C194.207 419.917 193.731 419.838 193.32 419.68C192.909 419.515 192.569 419.296 192.298 419.023C192.037 418.743 191.836 418.423 191.696 418.064C191.565 417.705 191.5 417.332 191.5 416.944C191.5 416.571 191.565 416.212 191.696 415.867C191.836 415.515 192.037 415.206 192.298 414.941C192.569 414.675 192.905 414.463 193.306 414.305C193.707 414.14 194.174 414.057 194.706 414.057C195.135 414.057 195.541 414.129 195.924 414.273C196.316 414.409 196.624 414.614 196.848 414.887H196.876V412.086H198.864V419.777H196.974V419.066Z" fill="#131313"/>
<path d="M186.473 414.209H188.363V415.244H188.391C188.484 415.071 188.61 414.913 188.769 414.77C188.927 414.619 189.109 414.493 189.315 414.393C189.52 414.285 189.739 414.202 189.973 414.145C190.206 414.087 190.449 414.059 190.701 414.059C190.831 414.059 190.976 414.077 191.135 414.112V415.534C191.041 415.52 190.929 415.509 190.799 415.502C190.668 415.488 190.542 415.48 190.421 415.48C190.057 415.48 189.749 415.527 189.497 415.621C189.245 415.714 189.039 415.843 188.881 416.008C188.731 416.166 188.624 416.353 188.559 416.568C188.493 416.784 188.461 417.017 188.461 417.269V419.779H186.473V414.209Z" fill="#131313"/>
<path d="M184.823 419.776H182.933V419.001H182.891C182.639 419.324 182.313 419.557 181.911 419.701C181.51 419.844 181.099 419.916 180.679 419.916C180.147 419.916 179.709 419.862 179.363 419.755C179.027 419.647 178.761 419.496 178.565 419.302C178.369 419.101 178.229 418.861 178.145 418.58C178.071 418.293 178.033 417.977 178.033 417.633V414.207H180.021V417.352C180.021 417.812 180.115 418.157 180.301 418.387C180.488 418.609 180.819 418.72 181.295 418.72C181.837 418.72 182.229 418.598 182.471 418.354C182.714 418.103 182.835 417.694 182.835 417.126V414.207H184.823V419.776Z" fill="#131313"/>
<path d="M165.402 412.086H168.496L170.834 417.375H170.862L173.074 412.086H176.168V419.777H174.11V414.327H174.082L171.632 419.777H169.938L167.488 414.38H167.46V419.777H165.402V412.086Z" fill="#131313"/>
</svg>
