<?xml version="1.0" encoding="utf-8"?>
<!-- Generator: Adobe Illustrator 24.3.0, SVG Export Plug-In . SVG Version: 6.00 Build 0)  -->
<svg version="1.1" id="Layer_1" xmlns="http://www.w3.org/2000/svg" xmlns:xlink="http://www.w3.org/1999/xlink" x="0px" y="0px"
	 viewBox="0 0 94 30" style="enable-background:new 0 0 94 30;" xml:space="preserve">
<style type="text/css">
	.st0{fill-rule:evenodd;clip-rule:evenodd;}
</style>
<path class="st0" d="M44.2,6.3h4.9c0,0,4.8-0.1,4.8,4.2c0,3.2-4.7,3.7-4.7,3.7h-5L44.2,6.3L44.2,6.3L44.2,6.3z M58.8,21.8
	c0.1,0.6,0.6,1.3,2.1,1.4c2,0,3.2-0.7,3.2-0.7V24c0,0-2.2,0.5-3.3,0.5c-1.1,0-4.4-0.2-4.4-3.3c0-2.5,2.7-3.2,4.3-3.2
	c2.7,0.1,4,1.1,4,3.8C64.7,21.9,60.2,21.8,58.8,21.8L58.8,21.8z M58.8,20.6h3.7c0,0,0-1.4-1.8-1.4C59.4,19.2,58.9,20,58.8,20.6z
	 M70.6,19.1c0.5-0.6,1.4-1,3-1c3,0,3.5,2.5,3.5,3.2c0,0.7-0.3,3.2-3.8,3.2c-1.3,0-2.1-0.4-2.6-1v0.8h-2.4v-8.7h2.4L70.6,19.1
	L70.6,19.1L70.6,19.1z M72.7,23.1c1.4,0,2-1.2,2-1.8c0-0.6-0.3-1.8-2.1-1.8c-1.4,0-1.8,1-2,1.6v0.6C70.8,22.2,71.2,23.1,72.7,23.1
	L72.7,23.1z M93.3,22.9l0,1.3c0,0-1.1,0.2-1.9,0.2c-0.7,0-2.6-0.4-2.6-2.3v-2.8h-2v-1.2h2v-1.5h2.4v1.5h2v1.2h-2v2.4
	c0,0,0,1.2,1,1.2C93.3,23,93.3,22.9,93.3,22.9L93.3,22.9z M85.9,7.6h2.8v6.7h2.4V7.6H94V6.2h-8.1V7.6z M84.9,7.9l0.3-1.4
	c0,0-1.2-0.5-3.4-0.5c-2.1,0-5.5,1.2-5.5,4.3c0,3.1,3.6,4.1,5.8,4.1s2.9-0.3,2.9-0.3l-0.2-1.5c0,0-1,0.3-2.6,0.3
	c-1.6,0-3.3-1.3-3.3-2.7c0-1.2,1.5-2.6,3.4-2.6C83.8,7.5,84.9,7.9,84.9,7.9L84.9,7.9z M63.4,6.3c0,0,4-0.2,4,2.1
	c0,2-2.3,2.1-2.3,2.1s0.6,0.1,0.9,0.5c0.2,0.4,1.9,3.3,1.9,3.3h-2.4c0,0-0.4-0.5-0.6-0.8c-0.1-0.3-0.6-1.1-0.6-1.1s-0.3-1.2-1.5-1.2
	c0,0-0.5,0-0.9,0v3.1h-2.3v-8H63.4L63.4,6.3z M61.9,9.9h1.3c0,0,1.8-0.1,1.9-1.2c0-1-1.7-1.2-1.7-1.2h-1.4V9.9L61.9,9.9z M71.7,11.1
	h3.9V9.6h-3.9V7.8h4.2V6.3h-6.6v8H76v-1.4h-4.3L71.7,11.1L71.7,11.1z M81.2,17.3h2.4v-1.6h-2.4V17.3z M81.2,24.3h2.4v-6.1h-2.4V24.3
	L81.2,24.3z M55.1,14.3h2.3v-8h-2.3V14.3L55.1,14.3z M44.2,16.3h4.9c0,0,4.8-0.1,4.8,4.2c0,3.2-4.7,3.7-4.7,3.7h-5L44.2,16.3
	L44.2,16.3L44.2,16.3z M46.6,22.7h1.6c0,0,3.2-0.2,3.2-2.6c0-2.5-3.4-2.7-3.4-2.7h-1.4V22.7z M46.6,12.7h1.6c0,0,3.2-0.2,3.2-2.6
	c0-2.5-3.4-2.7-3.4-2.7h-1.4V12.7z M22.3,11.1v16.1c0,0-9.5-1.7-9.5-8.1C12.9,14,19.9,11.7,22.3,11.1z M22.3,10.8
	c-5.7-0.4-18.6,2.2-18.6,8c0,3.7,6.8,9.2,17.9,9.4c0.4,0,13.1-0.5,12.9-13.8C34.4,3.1,25.9,1.1,23.2,0.7V0.1
	C34,0.7,42.6,7.2,42.6,15c0,8.3-9.6,15-21.3,15C9.5,30,0,23.3,0,15C0,6.7,9.5,0,21.3,0c0.4,0,0.7,0,1.1,0L22.3,10.8L22.3,10.8z"/>
</svg>
