<svg width="1753" height="655" viewBox="0 0 1753 655" fill="none" xmlns="http://www.w3.org/2000/svg">
<path d="M413.269 2.96365C645.972 -12.9846 838.308 37.0264 842.863 114.667C845.262 155.568 795.068 195.975 713.007 227.391C740.551 223.618 769.271 221.224 798.826 220.391C932.799 216.618 1052.36 245.755 1124.56 293.216C1108.59 273.577 1100.65 251.511 1102.66 227.979C1110.26 139.045 1257.09 62.8821 1430.62 57.866C1604.15 52.8501 1738.66 120.88 1731.05 209.814C1729.15 232.093 1718.51 253.57 1700.9 273.329C1705.06 279.478 1710.22 285.628 1715.78 291.477C1728.24 304.601 1742.63 316.181 1752.08 322.829L1751.72 323.674C1716.97 316.417 1690.99 307.692 1672.65 299.178C1612.82 344.833 1513.34 376.741 1403.09 379.928C1306.15 382.73 1221.38 362.731 1166.76 329.025C1184.88 349.655 1195.32 372.374 1196.34 396.419C1199.52 471.14 1110.97 538.194 980.275 571.858C981.331 573.651 981.783 575.854 981.522 578.498C980.992 583.851 982.718 590.205 985.935 597.012C989.147 603.809 993.823 611.009 999.126 618.037C1009.73 632.092 1022.82 645.41 1031.63 653.377L1031.13 654.16C987.624 635.899 958.35 619.311 940.517 606.205C931.603 599.654 925.529 593.959 921.965 589.345C920.641 587.632 919.655 586.056 919 584.631C885.92 590.006 850.959 593.37 814.743 594.39C599.598 600.45 421.625 521.64 417.229 418.363C414.736 359.792 468.607 305.931 554.955 269.17C515.538 276.013 473.493 281.128 429.762 284.125C357.605 289.07 289.329 287.67 229.329 281.074C228.428 282.508 227.216 284.02 225.693 285.589C221.532 289.875 214.964 294.696 205.764 299.698C187.36 309.705 158.351 320.478 116.795 329.156L116.435 328.311C125.882 321.664 140.275 310.084 152.735 296.96C158.964 290.398 164.702 283.459 169.096 276.566C169.932 275.254 170.718 273.944 171.45 272.64C69.7658 253.806 2.83289 217.842 0.168269 172.421C-4.3859 94.7802 180.566 18.9119 413.269 2.96365Z" fill="#FCFFFF"/>
<mask id="mask0_19963_4651" style="mask-type:alpha" maskUnits="userSpaceOnUse" x="0" y="0" width="1753" height="655">
<path d="M413.182 2.96366C645.885 -12.9846 838.222 37.0263 842.777 114.667C845.176 155.564 794.993 195.965 712.948 227.381C740.489 223.608 769.205 221.216 798.757 220.384C932.758 216.61 1052.34 245.759 1124.54 293.237C1108.57 273.6 1100.63 251.534 1102.64 228.005C1110.24 139.07 1257.08 62.9084 1430.6 57.8924C1604.13 52.8766 1738.64 120.906 1731.04 209.841C1729.13 232.115 1718.49 253.588 1700.89 273.344C1705.06 279.499 1710.23 285.657 1715.78 291.512C1728.24 304.636 1742.64 316.217 1752.08 322.864L1751.72 323.708C1716.96 316.448 1690.98 307.72 1672.64 299.203C1612.8 344.858 1513.33 376.766 1403.08 379.953C1306.1 382.756 1221.31 362.747 1166.7 329.025C1184.82 349.653 1195.25 372.369 1196.27 396.411C1199.45 471.135 1110.89 538.189 980.193 571.852C981.258 573.649 981.715 575.86 981.452 578.514C980.923 583.867 982.649 590.221 985.866 597.027C989.078 603.825 993.754 611.026 999.058 618.054C1009.67 632.108 1022.75 645.427 1031.56 653.393L1031.06 654.177C987.555 635.916 958.282 619.327 940.449 606.22C931.535 599.67 925.459 593.975 921.896 589.361C920.565 587.638 919.576 586.054 918.921 584.624C885.844 589.998 850.886 593.362 814.674 594.382C599.529 600.441 421.555 521.631 417.159 418.354C414.667 359.789 468.527 305.931 554.863 269.171C515.447 276.014 473.405 281.128 429.676 284.125C357.512 289.071 289.23 287.67 229.227 281.072C228.326 282.506 227.113 284.019 225.59 285.589C221.429 289.875 214.86 294.696 205.66 299.698C187.256 309.705 158.247 320.478 116.692 329.156L116.332 328.311C125.779 321.664 140.173 310.084 152.632 296.96C158.861 290.398 164.599 283.459 168.992 276.566C169.829 275.253 170.616 273.942 171.349 272.637C69.6727 253.802 2.7468 217.84 0.0823338 172.421C-4.47189 94.7802 180.479 18.912 413.182 2.96366Z" fill="#FCFFFF"/>
</mask>
<g mask="url(#mask0_19963_4651)">
<path d="M68.9084 33.4754H125.655V132.511H230.113V33.4754H286.86V291.547H230.113V180.222H125.655V291.547H68.9084V33.4754ZM296.695 162.15C297.418 150.102 300.43 140.102 305.731 132.15C311.032 124.198 317.779 117.813 325.972 112.993C334.165 108.174 343.321 104.801 353.442 102.873C363.803 100.704 374.164 99.6198 384.526 99.6198C393.923 99.6198 403.441 100.343 413.08 101.788C422.718 102.993 431.514 105.523 439.465 109.379C447.417 113.234 453.923 118.656 458.983 125.644C464.044 132.391 466.574 141.427 466.574 152.752V249.981C466.574 258.414 467.056 266.487 468.019 274.198C468.983 281.908 470.67 287.691 473.08 291.547H421.032C420.068 288.655 419.224 285.764 418.502 282.872C418.02 279.74 417.658 276.607 417.417 273.475C409.225 281.908 399.586 287.812 388.502 291.185C377.417 294.559 366.092 296.246 354.526 296.246C345.61 296.246 337.297 295.161 329.586 292.993C321.875 290.824 315.128 287.451 309.345 282.872C303.562 278.294 298.984 272.511 295.61 265.523C292.478 258.535 290.912 250.222 290.912 240.583C290.912 229.981 292.719 221.306 296.333 214.559C300.189 207.571 305.008 202.029 310.791 197.933C316.815 193.836 323.562 190.824 331.032 188.897C338.743 186.728 346.454 185.041 354.164 183.836C361.875 182.632 369.466 181.668 376.935 180.945C384.405 180.222 391.032 179.138 396.815 177.692C402.598 176.246 407.176 174.198 410.55 171.547C413.923 168.656 415.49 164.559 415.249 159.258C415.249 153.716 414.285 149.379 412.357 146.246C410.67 142.873 408.261 140.343 405.128 138.656C402.237 136.728 398.743 135.523 394.646 135.041C390.791 134.318 386.574 133.957 381.996 133.957C371.875 133.957 363.923 136.126 358.14 140.463C352.357 144.8 348.984 152.029 348.02 162.15H296.695ZM415.249 200.101C413.08 202.029 410.309 203.595 406.935 204.8C403.803 205.764 400.309 206.607 396.453 207.33C392.839 208.053 388.984 208.656 384.887 209.138C380.791 209.619 376.694 210.222 372.598 210.945C368.743 211.668 364.887 212.631 361.032 213.836C357.417 215.041 354.164 216.728 351.273 218.897C348.622 220.824 346.454 223.354 344.767 226.487C343.08 229.619 342.237 233.595 342.237 238.415C342.237 242.993 343.08 246.848 344.767 249.981C346.454 253.113 348.743 255.643 351.634 257.571C354.526 259.258 357.899 260.463 361.755 261.186C365.61 261.908 369.586 262.27 373.682 262.27C383.803 262.27 391.634 260.583 397.176 257.21C402.718 253.836 406.815 249.86 409.465 245.282C412.116 240.463 413.682 235.643 414.164 230.824C414.887 226.005 415.249 222.15 415.249 219.258V200.101ZM577.255 291.547H520.147L456.171 104.68H510.026L549.424 232.27H550.146L589.544 104.68H640.508L577.255 291.547ZM751.302 178.053C748.892 165.041 744.555 155.162 738.29 148.415C732.266 141.668 722.988 138.294 710.458 138.294C702.266 138.294 695.398 139.74 689.856 142.632C684.555 145.282 680.218 148.656 676.844 152.752C673.712 156.849 671.422 161.186 669.977 165.764C668.772 170.342 668.049 174.439 667.808 178.053H751.302ZM667.808 210.583C668.531 227.21 672.748 239.258 680.459 246.728C688.169 254.198 699.254 257.933 713.711 257.933C724.073 257.933 732.988 255.402 740.458 250.342C747.928 245.041 752.506 239.499 754.193 233.716H799.374C792.145 256.125 781.061 272.149 766.121 281.788C751.181 291.426 733.109 296.246 711.904 296.246C697.205 296.246 683.952 293.957 672.145 289.378C660.338 284.559 650.338 277.812 642.145 269.137C633.953 260.463 627.567 250.101 622.989 238.053C618.651 226.005 616.483 212.752 616.483 198.294C616.483 184.318 618.772 171.306 623.35 159.258C627.929 147.21 634.435 136.849 642.868 128.174C651.302 119.258 661.302 112.27 672.868 107.21C684.675 102.15 697.687 99.6198 711.904 99.6198C727.808 99.6198 741.663 102.752 753.47 109.017C765.278 115.041 774.916 123.234 782.386 133.596C790.097 143.957 795.639 155.764 799.012 169.017C802.386 182.27 803.591 196.126 802.627 210.583H667.808ZM1181.24 230.824C1181.24 236.366 1182.32 241.186 1184.49 245.282C1186.9 249.137 1189.91 252.39 1193.53 255.041C1197.14 257.451 1201.24 259.258 1205.82 260.463C1210.64 261.667 1215.58 262.27 1220.64 262.27C1224.25 262.27 1227.99 261.908 1231.84 261.186C1235.94 260.222 1239.55 258.896 1242.69 257.21C1246.06 255.282 1248.83 252.872 1251 249.981C1253.17 246.848 1254.25 242.993 1254.25 238.415C1254.25 230.704 1249.07 224.921 1238.71 221.065C1228.59 217.21 1214.37 213.354 1196.06 209.499C1188.59 207.812 1181.24 205.885 1174.01 203.716C1167.02 201.306 1160.76 198.294 1155.22 194.68C1149.67 190.824 1145.22 186.126 1141.84 180.583C1138.47 174.8 1136.78 167.812 1136.78 159.62C1136.78 147.571 1139.07 137.692 1143.65 129.981C1148.47 122.27 1154.73 116.246 1162.44 111.909C1170.16 107.331 1178.83 104.198 1188.47 102.511C1198.11 100.584 1207.99 99.6198 1218.11 99.6198C1228.23 99.6198 1237.99 100.584 1247.38 102.511C1257.02 104.439 1265.58 107.692 1273.05 112.27C1280.52 116.849 1286.66 122.993 1291.48 130.704C1296.54 138.174 1299.55 147.692 1300.52 159.258H1251.72C1251 149.379 1247.26 142.752 1240.52 139.379C1233.77 135.764 1225.82 133.957 1216.66 133.957C1213.77 133.957 1210.64 134.198 1207.26 134.68C1203.89 134.921 1200.76 135.644 1197.87 136.849C1195.22 138.053 1192.93 139.861 1191 142.27C1189.07 144.439 1188.11 147.451 1188.11 151.306C1188.11 155.885 1189.79 159.62 1193.17 162.511C1196.54 165.403 1200.88 167.812 1206.18 169.74C1211.72 171.427 1217.99 172.993 1224.97 174.439C1231.96 175.885 1239.07 177.451 1246.3 179.138C1253.77 180.824 1261 182.873 1267.99 185.282C1275.22 187.692 1281.6 190.945 1287.14 195.041C1292.69 198.897 1297.14 203.836 1300.52 209.86C1303.89 215.644 1305.58 222.872 1305.58 231.547C1305.58 243.836 1303.05 254.198 1297.99 262.631C1293.17 270.824 1286.78 277.451 1278.83 282.511C1270.88 287.571 1261.72 291.065 1251.36 292.993C1241.24 295.161 1230.88 296.246 1220.28 296.246C1209.43 296.246 1198.83 295.161 1188.47 292.993C1178.11 290.824 1168.83 287.21 1160.64 282.149C1152.69 277.089 1146.06 270.463 1140.76 262.27C1135.7 253.836 1132.93 243.354 1132.44 230.824H1181.24ZM1318.99 162.15C1319.71 150.102 1322.72 140.102 1328.03 132.15C1333.33 124.198 1340.07 117.813 1348.27 112.993C1356.46 108.174 1365.62 104.801 1375.74 102.873C1386.1 100.704 1396.46 99.6198 1406.82 99.6198C1416.22 99.6198 1425.74 100.343 1435.37 101.788C1445.01 102.993 1453.81 105.523 1461.76 109.379C1469.71 113.234 1476.22 118.656 1481.28 125.644C1486.34 132.391 1488.87 141.427 1488.87 152.752V249.981C1488.87 258.414 1489.35 266.487 1490.31 274.198C1491.28 281.908 1492.97 287.691 1495.37 291.547H1443.33C1442.36 288.655 1441.52 285.764 1440.8 282.872C1440.31 279.74 1439.95 276.607 1439.71 273.475C1431.52 281.908 1421.88 287.812 1410.8 291.185C1399.71 294.559 1388.39 296.246 1376.82 296.246C1367.91 296.246 1359.59 295.161 1351.88 292.993C1344.17 290.824 1337.42 287.451 1331.64 282.872C1325.86 278.294 1321.28 272.511 1317.91 265.523C1314.77 258.535 1313.21 250.222 1313.21 240.583C1313.21 229.981 1315.01 221.306 1318.63 214.559C1322.48 207.571 1327.3 202.029 1333.09 197.933C1339.11 193.836 1345.86 190.824 1353.33 188.897C1361.04 186.728 1368.75 185.041 1376.46 183.836C1384.17 182.632 1391.76 181.668 1399.23 180.945C1406.7 180.222 1413.33 179.138 1419.11 177.692C1424.89 176.246 1429.47 174.198 1432.84 171.547C1436.22 168.656 1437.78 164.559 1437.54 159.258C1437.54 153.716 1436.58 149.379 1434.65 146.246C1432.97 142.873 1430.56 140.343 1427.42 138.656C1424.53 136.728 1421.04 135.523 1416.94 135.041C1413.09 134.318 1408.87 133.957 1404.29 133.957C1394.17 133.957 1386.22 136.126 1380.44 140.463C1374.65 144.8 1371.28 152.029 1370.31 162.15H1318.99ZM1437.54 200.101C1435.38 202.029 1432.6 203.595 1429.23 204.8C1426.1 205.764 1422.6 206.607 1418.75 207.33C1415.13 208.053 1411.28 208.656 1407.18 209.138C1403.09 209.619 1398.99 210.222 1394.89 210.945C1391.04 211.668 1387.18 212.631 1383.33 213.836C1379.71 215.041 1376.46 216.728 1373.57 218.897C1370.92 220.824 1368.75 223.354 1367.06 226.487C1365.38 229.619 1364.53 233.595 1364.53 238.415C1364.53 242.993 1365.38 246.848 1367.06 249.981C1368.75 253.113 1371.04 255.643 1373.93 257.571C1376.82 259.258 1380.19 260.463 1384.05 261.186C1387.91 261.908 1391.88 262.27 1395.98 262.27C1406.1 262.27 1413.93 260.583 1419.47 257.21C1425.01 253.836 1429.11 249.86 1431.76 245.282C1434.41 240.463 1435.98 235.643 1436.46 230.824C1437.18 226.005 1437.54 222.15 1437.54 219.258V200.101ZM1606.42 314.679C1600.88 329.86 1593.16 340.703 1583.28 347.209C1573.41 353.715 1559.67 356.968 1542.08 356.968C1536.78 356.968 1531.48 356.727 1526.18 356.245C1521.12 356.004 1515.94 355.643 1510.63 355.161V312.872C1515.45 313.354 1520.39 313.836 1525.45 314.318C1530.51 314.8 1535.57 314.92 1540.63 314.679C1547.38 313.956 1552.32 311.306 1555.45 306.728C1558.83 302.149 1560.51 297.089 1560.51 291.547C1560.51 287.451 1559.79 283.595 1558.35 279.981L1492.92 104.68H1547.5L1589.79 232.631H1590.51L1631.36 104.68H1684.49L1606.42 314.679ZM1662.56 235.884H1719.31V291.547H1662.56V235.884ZM568.281 514.679C562.739 529.86 555.028 540.703 545.148 547.209C535.269 553.715 521.534 556.968 503.944 556.968C498.642 556.968 493.341 556.727 488.04 556.245C482.98 556.004 477.799 555.643 472.498 555.161V512.872C477.317 513.354 482.257 513.836 487.317 514.318C492.377 514.8 497.438 514.92 502.498 514.679C509.245 513.956 514.185 511.306 517.317 506.728C520.691 502.149 522.377 497.089 522.377 491.547C522.377 487.451 521.654 483.595 520.209 479.981L454.787 304.68H509.365L551.654 432.631H552.377L593.22 304.68H646.353L568.281 514.679ZM694.625 398.294C694.625 405.764 695.348 413.113 696.794 420.342C698.24 427.33 700.65 433.716 704.023 439.499C707.637 445.041 712.336 449.499 718.119 452.872C723.902 456.246 731.131 457.933 739.806 457.933C748.481 457.933 755.71 456.246 761.493 452.872C767.517 449.499 772.216 445.041 775.589 439.499C779.203 433.716 781.734 427.33 783.179 420.342C784.625 413.113 785.348 405.764 785.348 398.294C785.348 390.824 784.625 383.475 783.179 376.246C781.734 369.017 779.203 362.632 775.589 357.089C772.216 351.547 767.517 347.09 761.493 343.716C755.71 340.102 748.481 338.294 739.806 338.294C731.131 338.294 723.902 340.102 718.119 343.716C712.336 347.09 707.637 351.547 704.023 357.089C700.65 362.632 698.24 369.017 696.794 376.246C695.348 383.475 694.625 390.824 694.625 398.294ZM643.3 398.294C643.3 383.354 645.589 369.861 650.168 357.812C654.746 345.523 661.252 335.162 669.686 326.728C678.119 318.053 688.24 311.427 700.047 306.849C711.854 302.029 725.107 299.62 739.806 299.62C754.505 299.62 767.758 302.029 779.565 306.849C791.613 311.427 801.854 318.053 810.288 326.728C818.721 335.162 825.227 345.523 829.806 357.812C834.384 369.861 836.673 383.354 836.673 398.294C836.673 413.234 834.384 426.728 829.806 438.776C825.227 450.824 818.721 461.186 810.288 469.86C801.854 478.294 791.613 484.8 779.565 489.378C767.758 493.957 754.505 496.246 739.806 496.246C725.107 496.246 711.854 493.957 700.047 489.378C688.24 484.8 678.119 478.294 669.686 469.86C661.252 461.186 654.746 450.824 650.168 438.776C645.589 426.728 643.3 413.234 643.3 398.294ZM1030.89 491.547H982.093V465.523H981.008C974.502 476.366 966.068 484.198 955.707 489.017C945.346 493.836 934.743 496.246 923.9 496.246C910.165 496.246 898.84 494.438 889.924 490.824C881.249 487.21 874.382 482.149 869.322 475.643C864.262 468.896 860.647 460.824 858.478 451.427C856.551 441.788 855.587 431.186 855.587 419.619V304.68H906.912V410.222C906.912 425.643 909.322 437.21 914.141 444.921C918.96 452.39 927.514 456.125 939.804 456.125C953.779 456.125 963.9 452.029 970.165 443.836C976.43 435.402 979.562 421.668 979.562 402.632V304.68H1030.89V491.547ZM1055.38 304.68H1104.18V339.379H1104.9C1107.31 333.596 1110.56 328.294 1114.66 323.475C1118.76 318.415 1123.46 314.198 1128.76 310.825C1134.06 307.21 1139.72 304.439 1145.75 302.511C1151.77 300.584 1158.03 299.62 1164.54 299.62C1167.91 299.62 1171.65 300.222 1175.74 301.427V349.138C1173.34 348.656 1170.44 348.294 1167.07 348.053C1163.7 347.571 1160.44 347.33 1157.31 347.33C1147.91 347.33 1139.96 348.897 1133.46 352.029C1126.95 355.162 1121.65 359.499 1117.55 365.041C1113.7 370.342 1110.93 376.607 1109.24 383.836C1107.55 391.065 1106.71 398.897 1106.71 407.33V491.547H1055.38V304.68Z" fill="#0E0E0E"/>
</g>
</svg>
