<svg width="983" height="740" viewBox="0 0 983 740" fill="none" xmlns="http://www.w3.org/2000/svg">
<mask id="mask0_19950_4628" style="mask-type:alpha" maskUnits="userSpaceOnUse" x="58" y="315" width="410" height="393">
<path d="M232.973 320.435C121.263 341.832 44.1011 429.118 60.6262 515.395C70.5419 567.164 111.936 606.804 167.596 625.612C167.564 625.77 167.533 625.93 167.5 626.089C165.629 635.247 162.133 645.28 157.842 655.265C149.26 675.236 137.521 694.96 129.328 707.016L130.036 707.702C168.905 679.46 196.273 655.27 214.392 635.997C239.334 638.889 265.849 638.038 292.816 632.872C404.526 611.476 481.687 524.189 465.162 437.912C448.637 351.635 344.682 299.039 232.973 320.435Z" fill="#FCFFFF"/>
</mask>
<g mask="url(#mask0_19950_4628)">
<path d="M232.988 320.428C121.279 341.824 44.1167 429.11 60.6418 515.387C70.5563 567.15 111.942 606.786 167.591 625.597C167.558 625.76 167.526 625.924 167.492 626.088C165.621 635.246 162.125 645.28 157.834 655.266C149.253 675.236 137.513 694.959 129.32 707.016L130.029 707.701C168.903 679.455 196.273 655.262 214.391 635.988C239.338 638.882 265.859 638.031 292.832 632.865C404.541 611.468 481.703 524.181 465.178 437.904C448.652 351.627 344.698 299.031 232.988 320.428Z" fill="#FCFFFF"/>
<path d="M150.259 103.906H210.594V209.204H321.657V103.906H381.993V378.297H321.657V259.932H210.594V378.297H150.259V103.906ZM392.45 240.717C393.219 227.907 396.421 217.275 402.058 208.82C407.694 200.365 414.868 193.576 423.578 188.452C432.289 183.328 442.025 179.741 452.785 177.691C463.802 175.386 474.819 174.233 485.835 174.233C495.827 174.233 505.947 175.001 516.195 176.539C526.443 177.82 535.794 180.51 544.249 184.609C552.704 188.708 559.621 194.473 565.001 201.902C570.382 209.076 573.072 218.684 573.072 230.725V334.102C573.072 343.069 573.584 351.652 574.609 359.85C575.634 368.049 577.427 374.198 579.989 378.297H524.65C523.625 375.222 522.728 372.148 521.96 369.074C521.447 365.743 521.063 362.412 520.807 359.082C512.096 368.049 501.848 374.326 490.063 377.913C478.277 381.499 466.236 383.293 453.938 383.293C444.459 383.293 435.62 382.14 427.421 379.834C419.223 377.528 412.049 373.941 405.901 369.074C399.752 364.206 394.884 358.057 391.297 350.627C387.966 343.197 386.301 334.358 386.301 324.11C386.301 312.838 388.223 303.614 392.066 296.441C396.165 289.011 401.289 283.118 407.438 278.763C413.843 274.407 421.016 271.205 428.959 269.155C437.157 266.849 445.355 265.056 453.554 263.775C461.752 262.494 469.823 261.469 477.765 260.701C485.707 259.932 492.753 258.779 498.901 257.242C505.05 255.705 509.918 253.527 513.505 250.709C517.092 247.634 518.757 243.279 518.501 237.643C518.501 231.75 517.476 227.138 515.426 223.808C513.633 220.221 511.071 217.531 507.74 215.737C504.666 213.688 500.951 212.407 496.596 211.894C492.496 211.126 488.013 210.741 483.145 210.741C472.385 210.741 463.93 213.047 457.781 217.659C451.632 222.27 448.046 229.956 447.021 240.717H392.45ZM518.501 281.069C516.195 283.118 513.249 284.784 509.662 286.065C506.331 287.089 502.616 287.986 498.517 288.755C494.674 289.523 490.575 290.164 486.22 290.676C481.864 291.189 477.509 291.829 473.153 292.598C469.054 293.366 464.955 294.391 460.856 295.672C457.013 296.953 453.554 298.746 450.48 301.052C447.661 303.102 445.355 305.792 443.562 309.123C441.769 312.453 440.872 316.681 440.872 321.805C440.872 326.672 441.769 330.772 443.562 334.102C445.355 337.433 447.789 340.123 450.864 342.173C453.938 343.966 457.525 345.247 461.624 346.016C465.723 346.784 469.951 347.168 474.306 347.168C485.067 347.168 493.393 345.375 499.286 341.788C505.178 338.201 509.534 333.974 512.352 329.106C515.17 323.982 516.836 318.858 517.348 313.734C518.117 308.61 518.501 304.511 518.501 301.437V281.069ZM690.752 378.297H630.032L562.011 179.613H619.272L661.161 315.271H661.929L703.818 179.613H758.005L690.752 378.297ZM875.805 257.626C873.243 243.791 868.632 233.287 861.97 226.113C855.565 218.94 845.702 215.353 832.379 215.353C823.668 215.353 816.367 216.89 810.474 219.965C804.838 222.783 800.226 226.37 796.639 230.725C793.308 235.081 790.875 239.692 789.337 244.56C788.056 249.428 787.288 253.783 787.032 257.626H875.805ZM787.032 292.213C787.8 309.891 792.284 322.701 800.482 330.643C808.681 338.586 820.466 342.557 835.838 342.557C846.854 342.557 856.334 339.867 864.276 334.487C872.218 328.85 877.086 322.957 878.88 316.809H926.917C919.231 340.635 907.446 357.673 891.562 367.921C875.677 378.169 856.462 383.293 833.916 383.293C818.288 383.293 804.197 380.859 791.643 375.991C779.089 370.867 768.457 363.693 759.746 354.47C751.035 345.247 744.246 334.23 739.378 321.42C734.767 308.61 732.461 294.519 732.461 279.147C732.461 264.287 734.895 250.453 739.762 237.643C744.63 224.832 751.548 213.816 760.515 204.593C769.482 195.113 780.114 187.683 792.412 182.303C804.966 176.923 818.8 174.233 833.916 174.233C850.826 174.233 865.557 177.563 878.111 184.225C890.665 190.63 900.913 199.34 908.855 210.357C917.054 221.374 922.946 233.928 926.533 248.019C930.12 262.11 931.401 276.841 930.376 292.213H787.032ZM142.189 452.717C142.957 439.907 146.16 429.275 151.796 420.82C157.433 412.365 164.606 405.576 173.317 400.452C182.028 395.328 191.764 391.741 202.524 389.691C213.541 387.386 224.557 386.233 235.574 386.233C245.566 386.233 255.686 387.001 265.934 388.539C276.182 389.82 285.533 392.51 293.988 396.609C302.442 400.708 309.36 406.473 314.74 413.902C320.12 421.076 322.81 430.684 322.81 442.725V546.102C322.81 555.069 323.323 563.652 324.348 571.85C325.372 580.049 327.166 586.198 329.728 590.297H274.388C273.364 587.222 272.467 584.148 271.698 581.074C271.186 577.743 270.802 574.412 270.545 571.082C261.835 580.049 251.586 586.326 239.801 589.913C228.016 593.499 215.975 595.293 203.677 595.293C194.197 595.293 185.359 594.14 177.16 591.834C168.962 589.528 161.788 585.941 155.639 581.074C149.49 576.206 144.623 570.057 141.036 562.627C137.705 555.197 136.04 546.358 136.04 536.11C136.04 524.838 137.961 515.614 141.804 508.441C145.904 501.011 151.028 495.118 157.176 490.763C163.581 486.407 170.755 483.205 178.697 481.155C186.896 478.849 195.094 477.056 203.293 475.775C211.491 474.494 219.561 473.469 227.504 472.701C235.446 471.932 242.491 470.779 248.64 469.242C254.789 467.705 259.657 465.527 263.244 462.709C266.83 459.634 268.496 455.279 268.24 449.643C268.24 443.75 267.215 439.138 265.165 435.808C263.372 432.221 260.81 429.531 257.479 427.737C254.405 425.688 250.69 424.407 246.334 423.894C242.235 423.126 237.752 422.741 232.884 422.741C222.123 422.741 213.669 425.047 207.52 429.659C201.371 434.27 197.784 441.956 196.759 452.717H142.189ZM268.24 493.069C265.934 495.118 262.987 496.784 259.401 498.065C256.07 499.089 252.355 499.986 248.256 500.755C244.413 501.523 240.314 502.164 235.958 502.676C231.603 503.189 227.247 503.829 222.892 504.598C218.793 505.366 214.694 506.391 210.594 507.672C206.751 508.953 203.293 510.746 200.218 513.052C197.4 515.102 195.094 517.792 193.301 521.123C191.507 524.453 190.611 528.681 190.611 533.805C190.611 538.672 191.507 542.772 193.301 546.102C195.094 549.433 197.528 552.123 200.602 554.173C203.677 555.966 207.264 557.247 211.363 558.016C215.462 558.784 219.689 559.168 224.045 559.168C234.805 559.168 243.132 557.375 249.024 553.788C254.917 550.201 259.273 545.974 262.091 541.106C264.909 535.982 266.574 530.858 267.087 525.734C267.855 520.61 268.24 516.511 268.24 513.437V493.069ZM445.225 525.734C445.225 531.627 446.378 536.751 448.684 541.106C451.246 545.205 454.449 548.664 458.292 551.482C462.135 554.044 466.49 555.966 471.358 557.247C476.482 558.528 481.734 559.168 487.114 559.168C490.957 559.168 494.928 558.784 499.028 558.016C503.383 556.991 507.226 555.582 510.557 553.788C514.143 551.739 517.09 549.177 519.396 546.102C521.701 542.772 522.854 538.672 522.854 533.805C522.854 525.606 517.346 519.457 506.329 515.358C495.569 511.259 480.453 507.16 460.982 503.06C453.04 501.267 445.225 499.217 437.539 496.912C430.11 494.35 423.448 491.147 417.556 487.304C411.663 483.205 406.923 478.209 403.337 472.316C399.75 466.167 397.956 458.738 397.956 450.027C397.956 437.217 400.39 426.713 405.258 418.514C410.382 410.316 417.043 403.911 425.242 399.299C433.44 394.431 442.663 391.101 452.911 389.307C463.159 387.258 473.664 386.233 484.424 386.233C495.185 386.233 505.561 387.258 515.553 389.307C525.801 391.357 534.896 394.816 542.838 399.683C550.78 404.551 557.313 411.084 562.437 419.283C567.818 427.225 571.02 437.345 572.045 449.643H520.164C519.396 439.138 515.424 432.093 508.251 428.506C501.077 424.663 492.623 422.741 482.887 422.741C479.813 422.741 476.482 422.998 472.895 423.51C469.308 423.766 465.978 424.535 462.903 425.816C460.085 427.097 457.651 429.018 455.602 431.58C453.552 433.886 452.527 437.089 452.527 441.188C452.527 446.056 454.321 450.027 457.907 453.101C461.494 456.176 466.106 458.738 471.742 460.787C477.635 462.581 484.296 464.246 491.726 465.783C499.156 467.32 506.714 468.986 514.4 470.779C522.342 472.573 530.028 474.75 537.458 477.312C545.144 479.874 551.933 483.333 557.826 487.688C563.718 491.788 568.458 497.04 572.045 503.445C575.632 509.594 577.425 517.28 577.425 526.503C577.425 539.569 574.735 550.586 569.355 559.553C564.231 568.264 557.441 575.309 548.987 580.689C540.532 586.07 530.797 589.784 519.78 591.834C509.019 594.14 498.003 595.293 486.73 595.293C475.201 595.293 463.928 594.14 452.911 591.834C441.895 589.528 432.031 585.685 423.32 580.305C414.866 574.925 407.82 567.879 402.184 559.168C396.803 550.201 393.857 539.057 393.345 525.734H445.225ZM584 452.717C584.769 439.907 587.971 429.275 593.608 420.82C599.244 412.365 606.418 405.576 615.129 400.452C623.839 395.328 633.575 391.741 644.336 389.691C655.352 387.386 666.369 386.233 677.386 386.233C687.377 386.233 697.497 387.001 707.745 388.539C717.993 389.82 727.345 392.51 735.799 396.609C744.254 400.708 751.171 406.473 756.552 413.902C761.932 421.076 764.622 430.684 764.622 442.725V546.102C764.622 555.069 765.134 563.652 766.159 571.85C767.184 580.049 768.977 586.198 771.539 590.297H716.2C715.175 587.222 714.278 584.148 713.51 581.074C712.997 577.743 712.613 574.412 712.357 571.082C703.646 580.049 693.398 586.326 681.613 589.913C669.828 593.499 657.786 595.293 645.488 595.293C636.009 595.293 627.17 594.14 618.972 591.834C610.773 589.528 603.6 585.941 597.451 581.074C591.302 576.206 586.434 570.057 582.847 562.627C579.517 555.197 577.851 546.358 577.851 536.11C577.851 524.838 579.773 515.614 583.616 508.441C587.715 501.011 592.839 495.118 598.988 490.763C605.393 486.407 612.567 483.205 620.509 481.155C628.707 478.849 636.906 477.056 645.104 475.775C653.303 474.494 661.373 473.469 669.315 472.701C677.257 471.932 684.303 470.779 690.452 469.242C696.601 467.705 701.468 465.527 705.055 462.709C708.642 459.634 710.307 455.279 710.051 449.643C710.051 443.75 709.026 439.138 706.977 435.808C705.183 432.221 702.621 429.531 699.291 427.737C696.216 425.688 692.501 424.407 688.146 423.894C684.047 423.126 679.563 422.741 674.695 422.741C663.935 422.741 655.48 425.047 649.331 429.659C643.183 434.27 639.596 441.956 638.571 452.717H584ZM710.051 493.069C707.745 495.118 704.799 496.784 701.212 498.065C697.882 499.089 694.167 499.986 690.067 500.755C686.224 501.523 682.125 502.164 677.77 502.676C673.414 503.189 669.059 503.829 664.704 504.598C660.604 505.366 656.505 506.391 652.406 507.672C648.563 508.953 645.104 510.746 642.03 513.052C639.212 515.102 636.906 517.792 635.112 521.123C633.319 524.453 632.422 528.681 632.422 533.805C632.422 538.672 633.319 542.772 635.112 546.102C636.906 549.433 639.34 552.123 642.414 554.173C645.488 555.966 649.075 557.247 653.175 558.016C657.274 558.784 661.501 559.168 665.856 559.168C676.617 559.168 684.943 557.375 690.836 553.788C696.729 550.201 701.084 545.974 703.902 541.106C706.721 535.982 708.386 530.858 708.898 525.734C709.667 520.61 710.051 516.511 710.051 513.437V493.069ZM874.232 614.892C868.339 631.033 860.141 642.562 849.637 649.479C839.132 656.397 824.529 659.855 805.826 659.855C800.19 659.855 794.553 659.599 788.917 659.087C783.537 658.831 778.028 658.446 772.392 657.934V612.971C777.516 613.483 782.768 613.995 788.148 614.508C793.529 615.02 798.909 615.148 804.289 614.892C811.463 614.124 816.715 611.305 820.045 606.438C823.632 601.57 825.426 596.189 825.426 590.297C825.426 585.941 824.657 581.842 823.12 577.999L753.561 391.613H811.591L856.554 527.656H857.323L900.749 391.613H957.241L874.232 614.892ZM907.027 531.114H967.362V590.297H907.027V531.114Z" fill="#0E0E0E"/>
</g>
<mask id="mask1_19950_4628" style="mask-type:alpha" maskUnits="userSpaceOnUse" x="432" y="310" width="551" height="430">
<path d="M653.286 319.009C799.854 285.706 940.809 350.806 968.118 464.413C983.624 528.916 959.159 595.187 908.288 646.52C910.746 648.704 913.222 650.856 915.709 652.967C939.981 673.569 965.067 690.447 980.746 699.683L982.366 700.636L980.49 700.604C932.732 699.763 894.949 691.49 867.339 680.633C834.611 703.17 795.584 720.555 752.182 730.417C605.614 763.719 464.659 698.619 437.35 585.011C410.041 471.404 506.719 352.311 653.286 319.009Z" fill="#FCFFFF"/>
</mask>
<g mask="url(#mask1_19950_4628)">
<rect x="165.727" y="157.273" width="860" height="626" fill="#FCFFFF"/>
<path d="M150.243 103.882H210.579V209.181H321.642V103.882H381.977V378.273H321.642V259.909H210.579V378.273H150.243V103.882ZM392.434 240.694C393.203 227.883 396.405 217.251 402.042 208.796C407.678 200.342 414.852 193.553 423.563 188.428C432.274 183.304 442.009 179.718 452.77 177.668C463.786 175.362 474.803 174.209 485.82 174.209C495.811 174.209 505.931 174.978 516.179 176.515C526.427 177.796 535.779 180.486 544.233 184.585C552.688 188.685 559.606 194.449 564.986 201.879C570.366 209.053 573.056 218.66 573.056 230.702V334.079C573.056 343.046 573.568 351.629 574.593 359.827C575.618 368.025 577.411 374.174 579.973 378.273H524.634C523.609 375.199 522.713 372.125 521.944 369.05C521.432 365.72 521.047 362.389 520.791 359.058C512.08 368.025 501.832 374.302 490.047 377.889C478.262 381.476 466.22 383.269 453.923 383.269C444.443 383.269 435.604 382.116 427.406 379.811C419.207 377.505 412.034 373.918 405.885 369.05C399.736 364.182 394.868 358.034 391.281 350.604C387.951 343.174 386.286 334.335 386.286 324.087C386.286 312.814 388.207 303.591 392.05 296.417C396.149 288.987 401.273 283.095 407.422 278.739C413.827 274.384 421.001 271.181 428.943 269.132C437.141 266.826 445.34 265.033 453.538 263.752C461.737 262.471 469.807 261.446 477.749 260.677C485.692 259.909 492.737 258.756 498.886 257.218C505.035 255.681 509.903 253.504 513.489 250.685C517.076 247.611 518.741 243.256 518.485 237.619C518.485 231.726 517.46 227.115 515.411 223.784C513.617 220.197 511.055 217.507 507.725 215.714C504.65 213.664 500.935 212.383 496.58 211.871C492.481 211.102 487.997 210.718 483.13 210.718C472.369 210.718 463.914 213.024 457.766 217.635C451.617 222.247 448.03 229.933 447.005 240.694H392.434ZM518.485 281.045C516.179 283.095 513.233 284.76 509.646 286.041C506.316 287.066 502.601 287.963 498.502 288.731C494.659 289.5 490.559 290.14 486.204 290.653C481.849 291.165 477.493 291.806 473.138 292.574C469.038 293.343 464.939 294.368 460.84 295.649C456.997 296.93 453.538 298.723 450.464 301.029C447.646 303.078 445.34 305.769 443.546 309.099C441.753 312.43 440.856 316.657 440.856 321.781C440.856 326.649 441.753 330.748 443.546 334.079C445.34 337.409 447.774 340.099 450.848 342.149C453.923 343.943 457.509 345.224 461.609 345.992C465.708 346.761 469.935 347.145 474.291 347.145C485.051 347.145 493.378 345.352 499.27 341.765C505.163 338.178 509.518 333.951 512.336 329.083C515.155 323.959 516.82 318.835 517.332 313.711C518.101 308.587 518.485 304.488 518.485 301.413V281.045ZM690.736 378.273H630.017L561.995 179.59H619.256L661.145 315.248H661.914L703.803 179.59H757.989L690.736 378.273ZM875.79 257.603C873.228 243.768 868.616 233.264 861.955 226.09C855.55 218.916 845.686 215.33 832.363 215.33C823.653 215.33 816.351 216.867 810.458 219.941C804.822 222.759 800.21 226.346 796.623 230.702C793.293 235.057 790.859 239.669 789.322 244.537C788.041 249.404 787.272 253.76 787.016 257.603H875.79ZM787.016 292.19C787.785 309.868 792.268 322.678 800.466 330.62C808.665 338.562 820.45 342.533 835.822 342.533C846.839 342.533 856.318 339.843 864.261 334.463C872.203 328.827 877.071 322.934 878.864 316.785H926.902C919.216 340.612 907.43 357.649 891.546 367.897C875.661 378.145 856.446 383.269 833.901 383.269C818.272 383.269 804.181 380.835 791.628 375.968C779.074 370.844 768.441 363.67 759.731 354.447C751.02 345.224 744.23 334.207 739.363 321.397C734.751 308.587 732.445 294.496 732.445 279.124C732.445 264.264 734.879 250.429 739.747 237.619C744.615 224.809 751.532 213.792 760.499 204.569C769.466 195.09 780.098 187.66 792.396 182.28C804.95 176.899 818.785 174.209 833.901 174.209C850.81 174.209 865.542 177.54 878.095 184.201C890.649 190.606 900.897 199.317 908.839 210.334C917.038 221.35 922.931 233.904 926.517 247.995C930.104 262.086 931.385 276.818 930.36 292.19H787.016ZM142.173 452.694C142.942 439.883 146.144 429.251 151.781 420.796C157.417 412.342 164.591 405.553 173.301 400.428C182.012 395.304 191.748 391.718 202.508 389.668C213.525 387.362 224.542 386.209 235.558 386.209C245.55 386.209 255.67 386.978 265.918 388.515C276.166 389.796 285.517 392.486 293.972 396.585C302.427 400.685 309.344 406.449 314.724 413.879C320.105 421.053 322.795 430.66 322.795 442.702V546.079C322.795 555.046 323.307 563.629 324.332 571.827C325.357 580.025 327.15 586.174 329.712 590.273H274.373C273.348 587.199 272.451 584.125 271.683 581.05C271.17 577.72 270.786 574.389 270.53 571.058C261.819 580.025 251.571 586.302 239.786 589.889C228 593.476 215.959 595.269 203.661 595.269C194.182 595.269 185.343 594.116 177.144 591.811C168.946 589.505 161.772 585.918 155.624 581.05C149.475 576.182 144.607 570.034 141.02 562.604C137.69 555.174 136.024 546.335 136.024 536.087C136.024 524.814 137.946 515.591 141.789 508.417C145.888 500.987 151.012 495.095 157.161 490.739C163.566 486.384 170.739 483.181 178.682 481.132C186.88 478.826 195.079 477.033 203.277 475.752C211.475 474.471 219.546 473.446 227.488 472.677C235.43 471.909 242.476 470.756 248.625 469.218C254.773 467.681 259.641 465.504 263.228 462.685C266.815 459.611 268.48 455.256 268.224 449.619C268.224 443.726 267.199 439.115 265.15 435.784C263.356 432.197 260.794 429.507 257.463 427.714C254.389 425.664 250.674 424.383 246.319 423.871C242.22 423.102 237.736 422.718 232.868 422.718C222.108 422.718 213.653 425.024 207.504 429.635C201.355 434.247 197.769 441.933 196.744 452.694H142.173ZM268.224 493.045C265.918 495.095 262.972 496.76 259.385 498.041C256.054 499.066 252.339 499.963 248.24 500.731C244.397 501.5 240.298 502.14 235.943 502.653C231.587 503.165 227.232 503.806 222.876 504.574C218.777 505.343 214.678 506.368 210.579 507.649C206.736 508.93 203.277 510.723 200.203 513.029C197.384 515.078 195.079 517.769 193.285 521.099C191.492 524.43 190.595 528.657 190.595 533.781C190.595 538.649 191.492 542.748 193.285 546.079C195.079 549.409 197.512 552.099 200.587 554.149C203.661 555.943 207.248 557.224 211.347 557.992C215.447 558.761 219.674 559.145 224.029 559.145C234.79 559.145 243.116 557.352 249.009 553.765C254.901 550.178 259.257 545.951 262.075 541.083C264.893 535.959 266.559 530.835 267.071 525.711C267.84 520.587 268.224 516.488 268.224 513.413V493.045ZM445.21 525.711C445.21 531.603 446.363 536.727 448.668 541.083C451.23 545.182 454.433 548.641 458.276 551.459C462.119 554.021 466.474 555.943 471.342 557.224C476.466 558.505 481.718 559.145 487.099 559.145C490.942 559.145 494.913 558.761 499.012 557.992C503.367 556.967 507.21 555.558 510.541 553.765C514.128 551.715 517.074 549.153 519.38 546.079C521.686 542.748 522.839 538.649 522.839 533.781C522.839 525.583 517.33 519.434 506.314 515.335C495.553 511.235 480.437 507.136 460.966 503.037C453.024 501.244 445.21 499.194 437.524 496.888C430.094 494.326 423.433 491.124 417.54 487.281C411.647 483.181 406.908 478.186 403.321 472.293C399.734 466.144 397.941 458.714 397.941 450.003C397.941 437.193 400.375 426.689 405.242 418.491C410.366 410.292 417.028 403.887 425.226 399.276C433.425 394.408 442.648 391.077 452.896 389.284C463.144 387.234 473.648 386.209 484.409 386.209C495.169 386.209 505.545 387.234 515.537 389.284C525.785 391.333 534.88 394.792 542.822 399.66C550.765 404.528 557.298 411.061 562.422 419.259C567.802 427.201 571.004 437.321 572.029 449.619H520.149C519.38 439.115 515.409 432.069 508.235 428.483C501.062 424.639 492.607 422.718 482.871 422.718C479.797 422.718 476.466 422.974 472.879 423.487C469.293 423.743 465.962 424.511 462.888 425.792C460.069 427.073 457.636 428.995 455.586 431.557C453.536 433.863 452.512 437.065 452.512 441.164C452.512 446.032 454.305 450.003 457.892 453.078C461.479 456.152 466.09 458.714 471.727 460.764C477.619 462.557 484.28 464.223 491.71 465.76C499.14 467.297 506.698 468.962 514.384 470.756C522.326 472.549 530.012 474.727 537.442 477.289C545.128 479.851 551.917 483.31 557.81 487.665C563.703 491.764 568.442 497.016 572.029 503.421C575.616 509.57 577.409 517.256 577.409 526.479C577.409 539.546 574.719 550.562 569.339 559.529C564.215 568.24 557.426 575.286 548.971 580.666C540.517 586.046 530.781 589.761 519.764 591.811C509.004 594.116 497.987 595.269 486.714 595.269C475.185 595.269 463.912 594.116 452.896 591.811C441.879 589.505 432.015 585.662 423.305 580.282C414.85 574.901 407.804 567.856 402.168 559.145C396.788 550.178 393.841 539.033 393.329 525.711H445.21ZM583.985 452.694C584.753 439.883 587.956 429.251 593.592 420.796C599.229 412.342 606.402 405.553 615.113 400.428C623.824 395.304 633.56 391.718 644.32 389.668C655.337 387.362 666.353 386.209 677.37 386.209C687.362 386.209 697.482 386.978 707.73 388.515C717.978 389.796 727.329 392.486 735.784 396.585C744.238 400.685 751.156 406.449 756.536 413.879C761.916 421.053 764.606 430.66 764.606 442.702V546.079C764.606 555.046 765.119 563.629 766.144 571.827C767.168 580.025 768.962 586.174 771.524 590.273H716.184C715.16 587.199 714.263 584.125 713.494 581.05C712.982 577.72 712.598 574.389 712.341 571.058C703.63 580.025 693.382 586.302 681.597 589.889C669.812 593.476 657.771 595.269 645.473 595.269C635.993 595.269 627.154 594.116 618.956 591.811C610.758 589.505 603.584 585.918 597.435 581.05C591.286 576.182 586.419 570.034 582.832 562.604C579.501 555.174 577.836 546.335 577.836 536.087C577.836 524.814 579.757 515.591 583.6 508.417C587.7 500.987 592.824 495.095 598.972 490.739C605.377 486.384 612.551 483.181 620.493 481.132C628.692 478.826 636.89 477.033 645.089 475.752C653.287 474.471 661.357 473.446 669.3 472.677C677.242 471.909 684.287 470.756 690.436 469.218C696.585 467.681 701.453 465.504 705.04 462.685C708.626 459.611 710.292 455.256 710.036 449.619C710.036 443.726 709.011 439.115 706.961 435.784C705.168 432.197 702.606 429.507 699.275 427.714C696.201 425.664 692.486 424.383 688.13 423.871C684.031 423.102 679.548 422.718 674.68 422.718C663.919 422.718 655.465 425.024 649.316 429.635C643.167 434.247 639.58 441.933 638.555 452.694H583.985ZM710.036 493.045C707.73 495.095 704.783 496.76 701.197 498.041C697.866 499.066 694.151 499.963 690.052 500.731C686.209 501.5 682.11 502.14 677.754 502.653C673.399 503.165 669.043 503.806 664.688 504.574C660.589 505.343 656.49 506.368 652.39 507.649C648.547 508.93 645.089 510.723 642.014 513.029C639.196 515.078 636.89 517.769 635.097 521.099C633.303 524.43 632.407 528.657 632.407 533.781C632.407 538.649 633.303 542.748 635.097 546.079C636.89 549.409 639.324 552.099 642.398 554.149C645.473 555.943 649.06 557.224 653.159 557.992C657.258 558.761 661.485 559.145 665.841 559.145C676.601 559.145 684.928 557.352 690.82 553.765C696.713 550.178 701.068 545.951 703.887 541.083C706.705 535.959 708.37 530.835 708.883 525.711C709.651 520.587 710.036 516.488 710.036 513.413V493.045ZM874.216 614.869C868.324 631.009 860.125 642.538 849.621 649.456C839.117 656.373 824.513 659.832 805.811 659.832C800.174 659.832 794.538 659.576 788.901 659.063C783.521 658.807 778.013 658.423 772.376 657.911V612.947C777.5 613.46 782.753 613.972 788.133 614.484C793.513 614.997 798.893 615.125 804.273 614.869C811.447 614.1 816.699 611.282 820.03 606.414C823.617 601.546 825.41 596.166 825.41 590.273C825.41 585.918 824.641 581.819 823.104 577.976L753.546 391.59H811.575L856.538 527.632H857.307L900.733 391.59H957.225L874.216 614.869ZM907.011 531.091H967.346V590.273H907.011V531.091Z" fill="#0E0E0E"/>
</g>
<mask id="mask2_19950_4628" style="mask-type:alpha" maskUnits="userSpaceOnUse" x="113" y="0" width="861" height="385">
<path d="M114.155 144.95C124.456 42.0806 325.022 -20.1528 562.131 5.94799C799.24 32.0489 983.105 136.6 972.804 239.469C962.503 342.339 761.937 404.571 524.828 378.47C402.488 365.003 294.324 330.651 219.691 286.422C194.259 296.894 159.847 304.795 116.622 305.616L114.803 305.651L116.335 304.677C130.875 295.442 154.137 278.564 176.644 257.961C176.862 257.761 177.078 257.559 177.295 257.359C133.823 222.485 110.285 183.599 114.155 144.95Z" fill="#FCFFFF"/>
</mask>
<g mask="url(#mask2_19950_4628)">
<rect x="-195.258" y="-147.703" width="1309" height="626" fill="#FCFFFF"/>
<path d="M150.243 103.898H210.579V209.196H321.642V103.898H381.977V378.289H321.642V259.924H210.579V378.289H150.243V103.898ZM392.434 240.709C393.203 227.899 396.405 217.267 402.042 208.812C407.678 200.357 414.852 193.568 423.563 188.444C432.274 183.32 442.009 179.733 452.77 177.684C463.786 175.378 474.803 174.225 485.82 174.225C495.811 174.225 505.931 174.994 516.179 176.531C526.427 177.812 535.779 180.502 544.233 184.601C552.688 188.7 559.606 194.465 564.986 201.895C570.366 209.068 573.056 218.676 573.056 230.717V334.094C573.056 343.061 573.568 351.644 574.593 359.843C575.618 368.041 577.411 374.19 579.973 378.289H524.634C523.609 375.215 522.713 372.14 521.944 369.066C521.432 365.735 521.047 362.405 520.791 359.074C512.08 368.041 501.832 374.318 490.047 377.905C478.262 381.492 466.22 383.285 453.923 383.285C444.443 383.285 435.604 382.132 427.406 379.826C419.207 377.52 412.034 373.934 405.885 369.066C399.736 364.198 394.868 358.049 391.281 350.619C387.951 343.19 386.286 334.351 386.286 324.103C386.286 312.83 388.207 303.606 392.05 296.433C396.149 289.003 401.273 283.11 407.422 278.755C413.827 274.4 421.001 271.197 428.943 269.147C437.141 266.842 445.34 265.048 453.538 263.767C461.737 262.486 469.807 261.461 477.749 260.693C485.692 259.924 492.737 258.771 498.886 257.234C505.035 255.697 509.903 253.519 513.489 250.701C517.076 247.627 518.741 243.271 518.485 237.635C518.485 231.742 517.46 227.13 515.411 223.8C513.617 220.213 511.055 217.523 507.725 215.73C504.65 213.68 500.935 212.399 496.58 211.887C492.481 211.118 487.997 210.734 483.13 210.734C472.369 210.734 463.914 213.039 457.766 217.651C451.617 222.263 448.03 229.949 447.005 240.709H392.434ZM518.485 281.061C516.179 283.11 513.233 284.776 509.646 286.057C506.316 287.082 502.601 287.978 498.502 288.747C494.659 289.515 490.559 290.156 486.204 290.668C481.849 291.181 477.493 291.821 473.138 292.59C469.038 293.358 464.939 294.383 460.84 295.664C456.997 296.945 453.538 298.739 450.464 301.044C447.646 303.094 445.34 305.784 443.546 309.115C441.753 312.445 440.856 316.673 440.856 321.797C440.856 326.665 441.753 330.764 443.546 334.094C445.34 337.425 447.774 340.115 450.848 342.165C453.923 343.958 457.509 345.239 461.609 346.008C465.708 346.776 469.935 347.161 474.291 347.161C485.051 347.161 493.378 345.367 499.27 341.78C505.163 338.194 509.518 333.966 512.336 329.098C515.155 323.974 516.82 318.85 517.332 313.726C518.101 308.602 518.485 304.503 518.485 301.429V281.061ZM690.736 378.289H630.017L561.995 179.605H619.256L661.145 315.264H661.914L703.803 179.605H757.989L690.736 378.289ZM875.79 257.618C873.228 243.784 868.616 233.279 861.955 226.106C855.55 218.932 845.686 215.345 832.363 215.345C823.653 215.345 816.351 216.882 810.458 219.957C804.822 222.775 800.21 226.362 796.623 230.717C793.293 235.073 790.859 239.684 789.322 244.552C788.041 249.42 787.272 253.775 787.016 257.618H875.79ZM787.016 292.206C787.785 309.883 792.268 322.693 800.466 330.636C808.665 338.578 820.45 342.549 835.822 342.549C846.839 342.549 856.318 339.859 864.261 334.479C872.203 328.842 877.071 322.95 878.864 316.801H926.902C919.216 340.628 907.43 357.665 891.546 367.913C875.661 378.161 856.446 383.285 833.901 383.285C818.272 383.285 804.181 380.851 791.628 375.983C779.074 370.859 768.441 363.686 759.731 354.462C751.02 345.239 744.23 334.222 739.363 321.412C734.751 308.602 732.445 294.511 732.445 279.139C732.445 264.28 734.879 250.445 739.747 237.635C744.615 224.825 751.532 213.808 760.499 204.585C769.466 195.105 780.098 187.676 792.396 182.295C804.95 176.915 818.785 174.225 833.901 174.225C850.81 174.225 865.542 177.556 878.095 184.217C890.649 190.622 900.897 199.333 908.839 210.349C917.038 221.366 922.931 233.92 926.517 248.011C930.104 262.102 931.385 276.833 930.36 292.206H787.016ZM142.173 452.709C142.942 439.899 146.144 429.267 151.781 420.812C157.417 412.357 164.591 405.568 173.301 400.444C182.012 395.32 191.748 391.733 202.508 389.684C213.525 387.378 224.542 386.225 235.558 386.225C245.55 386.225 255.67 386.994 265.918 388.531C276.166 389.812 285.517 392.502 293.972 396.601C302.427 400.7 309.344 406.465 314.724 413.895C320.105 421.068 322.795 430.676 322.795 442.717V546.094C322.795 555.061 323.307 563.644 324.332 571.843C325.357 580.041 327.15 586.19 329.712 590.289H274.373C273.348 587.215 272.451 584.14 271.683 581.066C271.17 577.735 270.786 574.405 270.53 571.074C261.819 580.041 251.571 586.318 239.786 589.905C228 593.492 215.959 595.285 203.661 595.285C194.182 595.285 185.343 594.132 177.144 591.826C168.946 589.52 161.772 585.934 155.624 581.066C149.475 576.198 144.607 570.049 141.02 562.619C137.69 555.19 136.024 546.351 136.024 536.103C136.024 524.83 137.946 515.606 141.789 508.433C145.888 501.003 151.012 495.11 157.161 490.755C163.566 486.4 170.739 483.197 178.682 481.147C186.88 478.842 195.079 477.048 203.277 475.767C211.475 474.486 219.546 473.461 227.488 472.693C235.43 471.924 242.476 470.771 248.625 469.234C254.773 467.697 259.641 465.519 263.228 462.701C266.815 459.627 268.48 455.271 268.224 449.635C268.224 443.742 267.199 439.13 265.15 435.8C263.356 432.213 260.794 429.523 257.463 427.73C254.389 425.68 250.674 424.399 246.319 423.887C242.22 423.118 237.736 422.734 232.868 422.734C222.108 422.734 213.653 425.039 207.504 429.651C201.355 434.263 197.769 441.949 196.744 452.709H142.173ZM268.224 493.061C265.918 495.11 262.972 496.776 259.385 498.057C256.054 499.082 252.339 499.978 248.24 500.747C244.397 501.515 240.298 502.156 235.943 502.668C231.587 503.181 227.232 503.821 222.876 504.59C218.777 505.358 214.678 506.383 210.579 507.664C206.736 508.945 203.277 510.739 200.203 513.044C197.384 515.094 195.079 517.784 193.285 521.115C191.492 524.445 190.595 528.673 190.595 533.797C190.595 538.665 191.492 542.764 193.285 546.094C195.079 549.425 197.512 552.115 200.587 554.165C203.661 555.958 207.248 557.239 211.347 558.008C215.447 558.776 219.674 559.161 224.029 559.161C234.79 559.161 243.116 557.367 249.009 553.78C254.901 550.194 259.257 545.966 262.075 541.098C264.893 535.974 266.559 530.85 267.071 525.726C267.84 520.602 268.224 516.503 268.224 513.429V493.061ZM445.21 525.726C445.21 531.619 446.363 536.743 448.668 541.098C451.23 545.198 454.433 548.656 458.276 551.475C462.119 554.037 466.474 555.958 471.342 557.239C476.466 558.52 481.718 559.161 487.099 559.161C490.942 559.161 494.913 558.776 499.012 558.008C503.367 556.983 507.21 555.574 510.541 553.78C514.128 551.731 517.074 549.169 519.38 546.094C521.686 542.764 522.839 538.665 522.839 533.797C522.839 525.598 517.33 519.449 506.314 515.35C495.553 511.251 480.437 507.152 460.966 503.053C453.024 501.259 445.21 499.21 437.524 496.904C430.094 494.342 423.433 491.139 417.54 487.296C411.647 483.197 406.908 478.201 403.321 472.309C399.734 466.16 397.941 458.73 397.941 450.019C397.941 437.209 400.375 426.705 405.242 418.506C410.366 410.308 417.028 403.903 425.226 399.291C433.425 394.423 442.648 391.093 452.896 389.299C463.144 387.25 473.648 386.225 484.409 386.225C495.169 386.225 505.545 387.25 515.537 389.299C525.785 391.349 534.88 394.808 542.822 399.676C550.765 404.543 557.298 411.076 562.422 419.275C567.802 427.217 571.004 437.337 572.029 449.635H520.149C519.38 439.13 515.409 432.085 508.235 428.498C501.062 424.655 492.607 422.734 482.871 422.734C479.797 422.734 476.466 422.99 472.879 423.502C469.293 423.758 465.962 424.527 462.888 425.808C460.069 427.089 457.636 429.011 455.586 431.573C453.536 433.878 452.512 437.081 452.512 441.18C452.512 446.048 454.305 450.019 457.892 453.093C461.479 456.168 466.09 458.73 471.727 460.779C477.619 462.573 484.28 464.238 491.71 465.775C499.14 467.313 506.698 468.978 514.384 470.771C522.326 472.565 530.012 474.742 537.442 477.304C545.128 479.866 551.917 483.325 557.81 487.681C563.703 491.78 568.442 497.032 572.029 503.437C575.616 509.586 577.409 517.272 577.409 526.495C577.409 539.561 574.719 550.578 569.339 559.545C564.215 568.256 557.426 575.301 548.971 580.682C540.517 586.062 530.781 589.777 519.764 591.826C509.004 594.132 497.987 595.285 486.714 595.285C475.185 595.285 463.912 594.132 452.896 591.826C441.879 589.52 432.015 585.677 423.305 580.297C414.85 574.917 407.804 567.871 402.168 559.161C396.788 550.194 393.841 539.049 393.329 525.726H445.21ZM583.985 452.709C584.753 439.899 587.956 429.267 593.592 420.812C599.229 412.357 606.402 405.568 615.113 400.444C623.824 395.32 633.56 391.733 644.32 389.684C655.337 387.378 666.353 386.225 677.37 386.225C687.362 386.225 697.482 386.994 707.73 388.531C717.978 389.812 727.329 392.502 735.784 396.601C744.238 400.7 751.156 406.465 756.536 413.895C761.916 421.068 764.606 430.676 764.606 442.717V546.094C764.606 555.061 765.119 563.644 766.144 571.843C767.168 580.041 768.962 586.19 771.524 590.289H716.184C715.16 587.215 714.263 584.14 713.494 581.066C712.982 577.735 712.598 574.405 712.341 571.074C703.63 580.041 693.382 586.318 681.597 589.905C669.812 593.492 657.771 595.285 645.473 595.285C635.993 595.285 627.154 594.132 618.956 591.826C610.758 589.52 603.584 585.934 597.435 581.066C591.286 576.198 586.419 570.049 582.832 562.619C579.501 555.19 577.836 546.351 577.836 536.103C577.836 524.83 579.757 515.606 583.6 508.433C587.7 501.003 592.824 495.11 598.972 490.755C605.377 486.4 612.551 483.197 620.493 481.147C628.692 478.842 636.89 477.048 645.089 475.767C653.287 474.486 661.357 473.461 669.3 472.693C677.242 471.924 684.287 470.771 690.436 469.234C696.585 467.697 701.453 465.519 705.04 462.701C708.626 459.627 710.292 455.271 710.036 449.635C710.036 443.742 709.011 439.13 706.961 435.8C705.168 432.213 702.606 429.523 699.275 427.73C696.201 425.68 692.486 424.399 688.13 423.887C684.031 423.118 679.548 422.734 674.68 422.734C663.919 422.734 655.465 425.039 649.316 429.651C643.167 434.263 639.58 441.949 638.555 452.709H583.985ZM710.036 493.061C707.73 495.11 704.783 496.776 701.197 498.057C697.866 499.082 694.151 499.978 690.052 500.747C686.209 501.515 682.11 502.156 677.754 502.668C673.399 503.181 669.043 503.821 664.688 504.59C660.589 505.358 656.49 506.383 652.39 507.664C648.547 508.945 645.089 510.739 642.014 513.044C639.196 515.094 636.89 517.784 635.097 521.115C633.303 524.445 632.407 528.673 632.407 533.797C632.407 538.665 633.303 542.764 635.097 546.094C636.89 549.425 639.324 552.115 642.398 554.165C645.473 555.958 649.06 557.239 653.159 558.008C657.258 558.776 661.485 559.161 665.841 559.161C676.601 559.161 684.928 557.367 690.82 553.78C696.713 550.194 701.068 545.966 703.887 541.098C706.705 535.974 708.37 530.85 708.883 525.726C709.651 520.602 710.036 516.503 710.036 513.429V493.061ZM874.216 614.884C868.324 631.025 860.125 642.554 849.621 649.471C839.117 656.389 824.513 659.848 805.811 659.848C800.174 659.848 794.538 659.591 788.901 659.079C783.521 658.823 778.013 658.439 772.376 657.926V612.963C777.5 613.475 782.753 613.988 788.133 614.5C793.513 615.012 798.893 615.141 804.273 614.884C811.447 614.116 816.699 611.298 820.03 606.43C823.617 601.562 825.41 596.182 825.41 590.289C825.41 585.934 824.641 581.834 823.104 577.991L753.546 391.605H811.575L856.538 527.648H857.307L900.733 391.605H957.225L874.216 614.884ZM907.011 531.107H967.346V590.289H907.011V531.107Z" fill="#0E0E0E"/>
</g>
</svg>
