<svg width="719" height="126" viewBox="0 0 719 126" fill="none" xmlns="http://www.w3.org/2000/svg"><path d="M564.796 20.512c-1.356 1.47-2.034 4.012-2.034 7.629v5.255h16.613V49.5h-16.613v35.154h-8.454v23.117c0 1.953.363 3.544 1.089 4.772.781 1.228 1.981 2.149 3.6 2.763 1.34.503 3.126.921 5.359 1.256 2.233.279 4.158.475 5.777.587v5.526h-43.539v-5.526a918.12 918.12 0 0 1 3.935-.335c1.396-.112 2.596-.335 3.601-.67 1.563-.503 2.707-1.368 3.432-2.596.782-1.284 1.173-2.93 1.173-4.94V49.5H524.28V33.396h14.41v-6.781c0-7.798 2.429-14.183 7.289-19.156C550.839 2.486 558.185 0 568.017 0c2.147 0 4.294.113 6.442.339 2.147.113 4.238.226 6.272.34v17.968a73.986 73.986 0 0 0-8.815-.508c-3.278 0-5.651.79-7.12 2.373ZM35.26 34.583c-4.86 2.26-8.815 5.933-11.866 11.018h-.508V33.396H0v51.258h15.013v23.954c0 2.01-.39 3.656-1.172 4.94-.726 1.228-1.87 2.093-3.433 2.596-1.005.335-2.205.558-3.6.67-1.34.111-2.652.223-3.936.335v5.526h40.442v-5.526a35.815 35.815 0 0 1-4.27-.587 16.56 16.56 0 0 1-3.768-1.256c-1.563-.669-2.736-1.618-3.517-2.846-.782-1.228-1.172-2.791-1.172-4.689V84.654h-6.515v-9.556c0-8.928 1.47-15.313 4.408-19.156 2.938-3.955 7.685-5.933 14.24-5.933 5.763 0 9.775 1.808 12.036 5.425 2.26 3.503 3.39 8.871 3.39 16.104v13.116h8.247l-.138 23.954c0 2.01-.39 3.656-1.172 4.94-.725 1.228-1.87 2.093-3.433 2.596-1.004.335-2.288.558-3.851.67-1.507.111-2.903.223-4.187.335v5.526h40.442v-5.526c-1.73-.112-3.098-.28-4.103-.503-.949-.223-2.093-.614-3.433-1.172-1.619-.67-2.763-1.591-3.433-2.763-.67-1.228-1.005-2.819-1.005-4.773l.138-23.284V67.13c0-5.425-.508-10.341-1.526-14.749-.904-4.52-2.542-8.306-4.916-11.358-2.373-3.164-5.65-5.594-9.832-7.29-4.069-1.807-9.324-2.712-15.766-2.712-5.085 0-10.058 1.187-14.917 3.56Z" fill="#FCFFFF"/><path fill-rule="evenodd" clip-rule="evenodd" d="M100.34 99.9c-1.808-4.615-2.846-9.698-3.112-15.246h-9.2a61.969 61.969 0 0 1-.424-7.352c0-7.007 1.074-13.336 3.221-18.987 2.148-5.763 5.199-10.623 9.154-14.578 3.956-4.069 8.703-7.177 14.24-9.324 5.538-2.26 11.754-3.39 18.648-3.39s13.109 1.13 18.647 3.39c5.651 2.147 10.454 5.255 14.409 9.324 3.956 3.955 7.007 8.815 9.155 14.578 1.55 4.08 2.385 7.055 2.829 11.404.299 1.841.363 3.78.36 5.78 0 .721-.009 1.58-.028 2.493-.014.904-.029 1.816-.029 2.734 0 5.805-1.341 11.36-3.183 16.997-1.842 5.582-4.466 10.327-7.871 14.234-3.851 4.466-8.317 7.787-13.397 9.964-5.079 2.177-10.773 3.266-17.08 3.266-5.247 0-10.243-.977-14.988-2.931-4.745-2.01-8.959-4.912-12.643-8.708-3.628-3.74-6.531-8.289-8.708-13.648Zm12.044-31.246c.094-.566.197-1.13.31-1.693.678-3.39 1.808-6.385 3.39-8.984 1.695-2.6 3.899-4.69 6.611-6.273 2.713-1.695 6.103-2.543 10.172-2.543 4.068 0 7.459.848 10.171 2.543 2.825 1.582 5.029 3.673 6.611 6.273 1.696 2.599 2.882 5.594 3.56 8.984a52.606 52.606 0 0 1 1.017 10.341c0 2.479-.169 4.93-.509 7.352h6.663c-.408 10.033-2.42 18.046-6.034 24.038-4.075 6.754-9.601 10.131-16.579 10.131-4.242 0-7.815-1.005-10.717-3.014-2.847-2.066-5.219-4.884-7.117-8.457-1.898-3.572-3.294-7.62-4.187-12.14-.837-4.578-1.256-9.546-1.256-14.904 0-3.766.31-7.65.93-11.654h-3.036Z" fill="#FCFFFF"/><path d="M224.601 101.91a6813.053 6813.053 0 0 1 7.257-17.256h-9.66l15.828-51.258h23.902l-17.35 51.258h-5.923a3608.56 3608.56 0 0 0-8.36 19.516c-1.117 2.568-2.317 5.61-3.601 9.127a550.242 550.242 0 0 0-3.432 10.131h-6.531a4437.697 4437.697 0 0 0-14.653-35.836l-1.213-2.938h-7.844l-17.549-51.258H197l20.443 51.258a2781.8 2781.8 0 0 0 7.158 17.256Z" fill="#FCFFFF"/><path fill-rule="evenodd" clip-rule="evenodd" d="m260.648 84.654 11.53.138c-1.986 1.193-3.609 2.545-4.868 4.056a20.416 20.416 0 0 0-4.019 6.782c-.893 2.512-1.34 5.359-1.34 8.54 0 6.141 1.982 11.109 5.945 14.904 4.019 3.796 9.127 5.694 15.323 5.694 5.861 0 10.856-1.061 14.987-3.182 4.187-2.121 8.094-5.191 11.722-9.21h.503c.725 3.907 2.372 6.894 4.94 8.959 2.623 2.009 6.112 3.014 10.466 3.014 2.512 0 4.744-.307 6.698-.921 2.01-.558 4.326-1.312 6.95-2.26v-5.359c-1.898 0-3.768-.028-5.61-.084-1.786-.056-3.098-.335-3.935-.837-1.563-.893-2.736-1.982-3.517-3.266-.726-1.283-1.089-3.014-1.089-5.191 0-7.312.084-14.038.252-20.179l.04-1.598h14.712V55.942c0-5.312-1.187-9.55-3.56-12.714-2.374-3.277-5.425-5.82-9.154-7.628-3.73-1.809-7.855-2.995-12.376-3.56a90.172 90.172 0 0 0-13.392-1.017 71 71 0 0 0-14.579 1.525c-4.746.904-9.041 2.486-12.883 4.747-3.843 2.26-7.007 5.255-9.494 8.984-2.486 3.73-3.899 8.42-4.238 14.07h24.072c.453-4.746 2.035-8.136 4.747-10.17 2.712-2.035 6.442-3.052 11.189-3.052 2.147 0 4.125.17 5.933.509 1.921.226 3.56.79 4.916 1.695 1.469.791 2.599 1.978 3.39 3.56.904 1.469 1.357 3.503 1.357 6.103.113 2.486-.622 4.407-2.204 5.763-1.582 1.243-3.73 2.204-6.442 2.882-2.712.678-5.82 1.187-9.324 1.526a184.13 184.13 0 0 0-10.68 1.356 93.183 93.183 0 0 0-10.849 2.373c-3.504.904-6.668 2.317-9.493 4.238-2.636 1.867-4.845 4.374-6.626 7.522Zm27.176 1.43c.944-.618 1.961-1.115 3.02-1.547 1.809-.565 3.61-.963 5.418-1.302a101.18 101.18 0 0 1 5.764-.847 68.483 68.483 0 0 0 5.424-.848c.963-.18 1.877-.377 2.744-.59l-.433 24.895c-2.066 2.624-4.605 4.912-7.62 6.866-3.014 1.898-6.503 2.847-10.466 2.847-3.74 0-6.838-1.089-9.294-3.266-2.4-2.177-3.6-5.582-3.6-10.215 0-3.572.809-6.642 2.428-9.21 1.619-2.624 3.824-4.884 6.615-6.782Z" fill="#FCFFFF"/><path d="M351.8 113.548c.781-1.284 1.172-2.93 1.172-4.94V84.654h-4.121V33.396h22.885V49.67h.339a28.206 28.206 0 0 1 4.577-7.46c1.922-2.372 4.125-4.35 6.612-5.932a30.67 30.67 0 0 1 7.967-3.9 28.75 28.75 0 0 1 8.815-1.355c1.583 0 3.334.282 5.256.847v22.377c-1.131-.226-2.487-.396-4.069-.509a32.377 32.377 0 0 0-4.577-.339c-4.408 0-8.137.735-11.188 2.204-3.052 1.47-5.538 3.504-7.459 6.103-1.809 2.486-3.108 5.425-3.899 8.815-.792 3.39-1.187 7.064-1.187 11.019v3.114h-4.377v23.117c0 1.953.362 3.544 1.088 4.772.781 1.228 1.982 2.149 3.6 2.763 1.396.559 3.182.977 5.359 1.256 2.233.279 4.159.475 5.777.587v5.526h-43.539v-5.526a918.12 918.12 0 0 1 3.935-.335c1.396-.112 2.596-.335 3.601-.67 1.563-.503 2.707-1.368 3.433-2.596Z" fill="#FCFFFF"/><path fill-rule="evenodd" clip-rule="evenodd" d="M481.361 43.228c2.374 3.164 3.56 7.402 3.56 12.714v28.712h-14.556l-.041 1.598a741.955 741.955 0 0 0-.252 20.179c0 2.177.363 3.908 1.089 5.191.781 1.284 1.954 2.373 3.517 3.266.837.502 2.149.781 3.935.837 1.842.056 3.712.084 5.61.084v5.359c-2.624.948-4.94 1.702-6.95 2.26-1.953.614-4.186.921-6.698.921-4.354 0-7.843-1.005-10.466-3.014-2.568-2.065-4.215-5.052-4.94-8.959h-.503c-3.628 4.019-7.535 7.089-11.722 9.21-4.13 2.121-9.126 3.182-14.987 3.182-6.196 0-11.304-1.898-15.323-5.694-3.963-3.795-5.945-8.763-5.945-14.904 0-3.181.447-6.028 1.34-8.54a20.416 20.416 0 0 1 4.019-6.782c1.296-1.555 2.977-2.942 5.044-4.16l-11.861-.034c1.782-3.148 3.991-5.655 6.626-7.522 2.826-1.92 5.99-3.334 9.494-4.238a93.139 93.139 0 0 1 10.849-2.373 183.914 183.914 0 0 1 10.68-1.356c3.503-.34 6.611-.848 9.324-1.526 2.712-.678 4.859-1.638 6.441-2.882 1.583-1.356 2.317-3.277 2.204-5.763 0-2.6-.452-4.634-1.356-6.103-.791-1.582-1.921-2.769-3.39-3.56-1.357-.904-2.995-1.47-4.917-1.695-1.808-.34-3.786-.509-5.933-.509-4.746 0-8.476 1.017-11.188 3.051-2.713 2.035-4.295 5.425-4.747 10.172h-24.072c.339-5.65 1.752-10.341 4.238-14.07 2.486-3.73 5.651-6.725 9.493-8.985 3.843-2.26 8.137-3.843 12.884-4.747a70.993 70.993 0 0 1 14.579-1.526c4.407 0 8.871.34 13.392 1.018 4.521.565 8.646 1.751 12.375 3.56 3.73 1.808 6.781 4.35 9.154 7.628Zm-45.94 41.363c-.062.02-.36.127-.421.148-.867.411-1.689.855-2.438 1.346-2.791 1.898-4.996 4.158-6.615 6.782-1.619 2.568-2.428 5.638-2.428 9.21 0 4.633 1.2 8.038 3.6 10.215 2.456 2.177 5.554 3.266 9.294 3.266 3.963 0 7.452-.949 10.466-2.847 3.015-1.954 5.554-4.242 7.62-6.866l.433-24.933c-.912.227-1.878.437-2.898.628-1.695.34-3.503.622-5.425.848-1.921.226-3.842.508-5.763.847-1.809.34-3.617.791-5.425 1.356Z" fill="#FCFFFF"/><path d="M605.59 112.376c-.782-1.284-1.173-2.875-1.173-4.773v-37.42c0-4.296.67-7.742 1.913-10.342 1.243-2.712 2.712-4.746 4.408-6.103 1.808-1.469 3.616-2.43 5.424-2.881 1.922-.566 3.447-.848 4.578-.848 3.842 0 6.724.678 8.645 2.034 2.034 1.243 3.447 2.939 4.238 5.086.904 2.147 1.413 4.52 1.526 7.12.113 2.486.169 5.029.169 7.628v12.777h3.931v23.954c0 2.01-.391 3.656-1.172 4.94-.726 1.228-1.87 2.093-3.433 2.596-1.005.335-2.121.558-3.349.67-1.173.111-2.401.223-3.684.335v5.526h39.436v-5.526c-1.675-.112-3.042-.28-4.103-.503a36.224 36.224 0 0 1-3.433-1.172c-1.618-.67-2.763-1.619-3.433-2.847-.669-1.284-1.004-2.903-1.004-4.856V84.654h4.317V72.216c0-2.712.169-5.368.508-7.967.452-2.713 1.243-5.086 2.373-7.12 1.244-2.147 2.882-3.843 4.916-5.086 2.148-1.356 4.917-2.034 8.307-2.034 3.39 0 6.046.565 7.968 1.695 2.034 1.13 3.56 2.656 4.577 4.577 1.017 1.922 1.638 4.182 1.864 6.781.05.57.105 1.147.161 1.733v.004c.199 2.086.408 4.277.408 6.57v37.239c0 2.01-.39 3.656-1.172 4.94-.726 1.228-1.87 2.093-3.433 2.596-1.005.335-2.177.558-3.516.67l-3.852.335v5.526h40.274v-5.526a43.063 43.063 0 0 1-4.27-.503 26.464 26.464 0 0 1-3.768-1.172c-1.619-.67-2.763-1.619-3.433-2.847-.67-1.284-1.005-2.903-1.005-4.856V84.654h8.018v-22.27c0-5.65-.792-10.454-2.374-14.41-1.582-4.068-3.786-7.345-6.611-9.832-2.825-2.486-6.216-4.294-10.171-5.424-3.956-1.13-8.25-1.696-12.884-1.696-6.103 0-11.415 1.47-15.935 4.408-4.408 2.938-7.911 6.329-10.51 10.171-2.374-5.424-5.877-9.21-10.511-11.358-4.52-2.147-9.55-3.22-15.087-3.22-5.764 0-10.906 1.243-15.427 3.729-4.407 2.486-8.193 5.99-11.358 10.51h-.339V33.396h-22.716v51.258h8.451v23.954c0 2.01-.391 3.656-1.172 4.94-.726 1.228-1.87 2.093-3.433 2.596-1.005.335-2.205.558-3.601.67a918.12 918.12 0 0 0-3.935.335v5.526h40.106v-5.526c-1.507-.112-2.874-.308-4.102-.587a17.214 17.214 0 0 1-3.601-1.256c-1.563-.669-2.735-1.646-3.516-2.93Z" fill="#FCFFFF"/></svg>