<svg xmlns="http://www.w3.org/2000/svg" width="719" height="126" fill="none" viewBox="0 0 719 126"><path fill="#FCFFFF" d="M564.796 20.512q-2.034 2.204-2.034 7.629v5.255h16.613V49.5h-16.613v35.154h-8.454v23.117q0 2.93 1.089 4.772 1.172 1.842 3.6 2.763 2.01.754 5.359 1.256 3.349.419 5.777.587v5.526h-43.539v-5.526a918 918 0 0 1 3.935-.335q2.094-.168 3.601-.67 2.345-.754 3.432-2.596 1.173-1.926 1.173-4.94V49.5H524.28V33.396h14.41v-6.781q0-11.697 7.289-19.156 7.29-7.46 22.038-7.459 3.22 0 6.442.339 3.22.17 6.272.34v17.968a74 74 0 0 0-8.815-.508q-4.917 0-7.12 2.373M35.26 34.583q-7.29 3.39-11.866 11.018h-.508V33.396H0v51.258h15.013v23.954q0 3.015-1.172 4.94-1.089 1.842-3.433 2.596-1.508.502-3.6.67-2.01.167-3.936.335v5.526h40.442v-5.526a36 36 0 0 1-4.27-.587 16.6 16.6 0 0 1-3.768-1.256q-2.345-1.004-3.517-2.846-1.173-1.842-1.172-4.689V84.654h-6.515v-9.556q0-13.392 4.408-19.156 4.407-5.933 14.24-5.933 8.645 0 12.036 5.425 3.39 5.254 3.39 16.104v13.116h8.247l-.138 23.954q0 3.015-1.172 4.94-1.088 1.842-3.433 2.596-1.506.502-3.851.67-2.26.167-4.187.335v5.526h40.442v-5.526q-2.595-.168-4.103-.503-1.423-.335-3.433-1.172-2.428-1.005-3.433-2.763-1.005-1.842-1.005-4.773l.138-23.284V67.13q0-8.137-1.526-14.749-1.356-6.78-4.916-11.358-3.56-4.746-9.832-7.29-6.102-2.711-15.766-2.712-7.628 0-14.917 3.56"/><path fill="#FCFFFF" fill-rule="evenodd" d="M100.34 99.9q-2.713-6.923-3.112-15.246h-9.2a62 62 0 0 1-.424-7.352q0-10.51 3.221-18.987 3.222-8.645 9.154-14.578 5.934-6.104 14.24-9.324 8.307-3.39 18.648-3.39t18.647 3.39q8.477 3.22 14.409 9.324 5.933 5.933 9.155 14.578c1.55 4.08 2.385 7.055 2.829 11.404.299 1.841.363 3.78.36 5.78 0 .721-.009 1.58-.028 2.493-.014.904-.029 1.816-.029 2.734 0 5.805-1.341 11.36-3.183 16.997q-2.763 8.373-7.871 14.234-5.777 6.699-13.397 9.964-7.619 3.266-17.08 3.266-7.87 0-14.988-2.931-7.117-3.014-12.643-8.708-5.442-5.61-8.708-13.648m12.044-31.246q.14-.849.31-1.693 1.017-5.085 3.39-8.984 2.543-3.9 6.611-6.273 4.069-2.543 10.172-2.543 6.102 0 10.171 2.543 4.238 2.373 6.611 6.273 2.543 3.899 3.56 8.984a52.6 52.6 0 0 1 1.017 10.341q0 3.719-.509 7.352h6.663q-.612 15.05-6.034 24.038-6.112 10.131-16.579 10.131-6.363 0-10.717-3.014-4.27-3.098-7.117-8.457t-4.187-12.14q-1.256-6.867-1.256-14.904 0-5.649.93-11.654z" clip-rule="evenodd"/><path fill="#FCFFFF" d="M224.601 101.91a6813 6813 0 0 1 7.257-17.256h-9.66l15.828-51.258h23.902l-17.35 51.258h-5.923a3609 3609 0 0 0-8.36 19.516q-1.675 3.852-3.601 9.127a550 550 0 0 0-3.432 10.131h-6.531a4438 4438 0 0 0-14.653-35.836l-1.213-2.938h-7.844l-17.549-51.258H197l20.443 51.258a2782 2782 0 0 0 7.158 17.256"/><path fill="#FCFFFF" fill-rule="evenodd" d="m260.648 84.654 11.53.138q-2.98 1.79-4.868 4.056a20.4 20.4 0 0 0-4.019 6.782q-1.34 3.768-1.34 8.54 0 9.211 5.945 14.904 6.029 5.694 15.323 5.694 8.791 0 14.987-3.182 6.28-3.182 11.722-9.21h.503q1.088 5.861 4.94 8.959 3.935 3.014 10.466 3.014 3.768 0 6.698-.921 3.014-.838 6.95-2.26v-5.359q-2.847 0-5.61-.084-2.68-.084-3.935-.837-2.345-1.34-3.517-3.266-1.089-1.925-1.089-5.191 0-10.968.252-20.179l.04-1.598h14.712V55.942q0-7.968-3.56-12.714-3.56-4.916-9.154-7.628-5.595-2.713-12.376-3.56a90 90 0 0 0-13.392-1.017 71 71 0 0 0-14.579 1.525q-7.12 1.356-12.883 4.747-5.764 3.39-9.494 8.984-3.73 5.595-4.238 14.07h24.072q.68-7.119 4.747-10.17t11.189-3.052q3.22 0 5.933.509 2.882.338 4.916 1.695 2.203 1.187 3.39 3.56 1.356 2.203 1.357 6.103.17 3.729-2.204 5.763-2.374 1.865-6.442 2.882t-9.324 1.526q-5.254.509-10.68 1.356a93 93 0 0 0-10.849 2.373q-5.256 1.356-9.493 4.238-3.954 2.8-6.626 7.522m27.176 1.43c.944-.618 1.961-1.115 3.02-1.547 1.809-.565 3.61-.963 5.418-1.302a101 101 0 0 1 5.764-.847 69 69 0 0 0 5.424-.848q1.444-.27 2.744-.59l-.433 24.895q-3.098 3.935-7.62 6.866-4.521 2.847-10.466 2.847-5.61 0-9.294-3.266-3.6-3.266-3.6-10.215 0-5.358 2.428-9.21 2.429-3.936 6.615-6.782" clip-rule="evenodd"/><path fill="#FCFFFF" d="M351.8 113.548q1.172-1.926 1.172-4.94V84.654h-4.121V33.396h22.885V49.67h.339a28.2 28.2 0 0 1 4.577-7.46q2.882-3.559 6.612-5.932a30.7 30.7 0 0 1 7.967-3.9 28.8 28.8 0 0 1 8.815-1.355q2.374 0 5.256.847v22.377q-1.696-.34-4.069-.509a32 32 0 0 0-4.577-.339q-6.612 0-11.188 2.204-4.578 2.205-7.459 6.103-2.713 3.73-3.899 8.815-1.187 5.086-1.187 11.019v3.114h-4.377v23.117q0 2.93 1.088 4.772 1.172 1.842 3.6 2.763 2.094.838 5.359 1.256 3.35.419 5.777.587v5.526h-43.539v-5.526a918 918 0 0 1 3.935-.335q2.094-.168 3.601-.67 2.344-.754 3.433-2.596"/><path fill="#FCFFFF" fill-rule="evenodd" d="M481.361 43.228q3.56 4.746 3.56 12.714v28.712h-14.556l-.041 1.598a742 742 0 0 0-.252 20.179q0 3.266 1.089 5.191 1.172 1.926 3.517 3.266 1.256.753 3.935.837 2.763.084 5.61.084v5.359q-3.935 1.422-6.95 2.26-2.93.921-6.698.921-6.531 0-10.466-3.014-3.852-3.098-4.94-8.959h-.503q-5.442 6.029-11.722 9.21-6.195 3.182-14.987 3.182-9.294 0-15.323-5.694-5.945-5.693-5.945-14.904 0-4.772 1.34-8.54a20.4 20.4 0 0 1 4.019-6.782q1.944-2.333 5.044-4.16l-11.861-.034q2.673-4.722 6.626-7.522 4.239-2.881 9.494-4.238a93 93 0 0 1 10.849-2.373 184 184 0 0 1 10.68-1.356q5.255-.51 9.324-1.526 4.068-1.017 6.441-2.882 2.374-2.034 2.204-5.763 0-3.9-1.356-6.103-1.187-2.373-3.39-3.56-2.035-1.357-4.917-1.695-2.712-.51-5.933-.509-7.12 0-11.188 3.051-4.07 3.052-4.747 10.172h-24.072q.509-8.476 4.238-14.07 3.73-5.595 9.493-8.985 5.764-3.39 12.884-4.747a71 71 0 0 1 14.579-1.526q6.61 0 13.392 1.018 6.781.847 12.375 3.56t9.154 7.628m-45.94 41.363c-.062.02-.36.127-.421.148-.867.411-1.689.855-2.438 1.346q-4.186 2.847-6.615 6.782-2.428 3.852-2.428 9.21 0 6.95 3.6 10.215 3.684 3.266 9.294 3.266 5.945 0 10.466-2.847 4.522-2.93 7.62-6.866l.433-24.933q-1.368.341-2.898.628-2.542.51-5.425.848-2.882.339-5.763.847-2.713.51-5.425 1.356" clip-rule="evenodd"/><path fill="#FCFFFF" d="M605.59 112.376q-1.173-1.926-1.173-4.773v-37.42c0-4.296.67-7.742 1.913-10.342q1.864-4.068 4.408-6.103 2.712-2.204 5.424-2.881 2.882-.849 4.578-.848 5.763 0 8.645 2.034 3.051 1.865 4.238 5.086 1.356 3.22 1.526 7.12.17 3.73.169 7.628v12.777h3.931v23.954q0 3.015-1.172 4.94-1.089 1.842-3.433 2.596-1.507.502-3.349.67-1.76.167-3.684.335v5.526h39.436v-5.526q-2.512-.168-4.103-.503a36 36 0 0 1-3.433-1.172q-2.428-1.005-3.433-2.847-1.004-1.926-1.004-4.856V84.654h4.317V72.216q0-4.068.508-7.967.678-4.07 2.373-7.12 1.865-3.221 4.916-5.086 3.222-2.034 8.307-2.034t7.968 1.695q3.051 1.695 4.577 4.577 1.525 2.883 1.864 6.781.076.855.161 1.733v.004c.199 2.086.408 4.277.408 6.57v37.239q0 3.015-1.172 4.94-1.089 1.842-3.433 2.596-1.508.502-3.516.67l-3.852.335v5.526h40.274v-5.526a43 43 0 0 1-4.27-.503 26.5 26.5 0 0 1-3.768-1.172q-2.428-1.005-3.433-2.847-1.005-1.926-1.005-4.856V84.654h8.018v-22.27q0-8.476-2.374-14.41-2.373-6.102-6.611-9.832-4.238-3.729-10.171-5.424t-12.884-1.696q-9.155 0-15.935 4.408-6.612 4.408-10.51 10.171-3.56-8.136-10.511-11.358-6.78-3.22-15.087-3.22-8.646 0-15.427 3.729-6.61 3.73-11.358 10.51h-.339V33.396h-22.716v51.258h8.451v23.954q0 3.015-1.172 4.94-1.089 1.842-3.433 2.596-1.507.502-3.601.67a918 918 0 0 0-3.935.335v5.526h40.106v-5.526q-2.26-.168-4.102-.587a17.2 17.2 0 0 1-3.601-1.256q-2.345-1.004-3.516-2.93"/></svg>