<svg xmlns="http://www.w3.org/2000/svg" width="983" height="740" fill="none" viewBox="0 0 983 740"><mask id="mask0_19950_4628" width="410" height="393" x="58" y="315" maskUnits="userSpaceOnUse" style="mask-type:alpha"><path fill="#fcffff" d="M232.973 320.435c-111.71 21.397-188.872 108.683-172.347 194.96 9.916 51.769 51.31 91.409 106.97 110.217l-.096.477c-1.871 9.158-5.367 19.191-9.658 29.176-8.582 19.971-20.321 39.695-28.514 51.751l.708.686c38.869-28.242 66.237-52.432 84.356-71.705 24.942 2.892 51.457 2.041 78.424-3.125 111.71-21.396 188.871-108.683 172.346-194.96s-120.48-138.873-232.189-117.477"/></mask><g mask="url(#mask0_19950_4628)"><path fill="#fcffff" d="M232.988 320.428C121.279 341.824 44.117 429.11 60.642 515.387c9.914 51.763 51.3 91.399 106.949 110.21l-.099.491c-1.871 9.158-5.367 19.192-9.658 29.178-8.581 19.97-20.321 39.693-28.514 51.75l.709.685c38.874-28.246 66.244-52.439 84.362-71.713 24.947 2.894 51.468 2.043 78.441-3.123 111.709-21.397 188.871-108.684 172.346-194.961s-120.48-138.873-232.19-117.476"/><path fill="#0e0e0e" d="M150.259 103.906h60.335v105.298h111.063V103.906h60.336v274.391h-60.336V259.932H210.594v118.365h-60.335zM392.45 240.717q1.153-19.215 9.608-31.897t21.52-20.368q13.067-7.686 29.207-10.761 16.526-3.458 33.05-3.458 14.988 0 30.36 2.306 15.372 1.922 28.054 8.07t20.752 17.293q8.071 10.761 8.071 28.823v103.377q0 13.45 1.537 25.748t5.38 18.447H524.65a125 125 0 0 1-2.69-9.223 132 132 0 0 1-1.153-9.992q-13.067 13.45-30.744 18.831a123.4 123.4 0 0 1-36.125 5.38q-14.218 0-26.517-3.459t-21.52-10.76q-9.224-7.302-14.604-18.447-4.996-11.145-4.996-26.517 0-16.909 5.765-27.669 6.148-11.145 15.372-17.678 9.607-6.533 21.521-9.608a211 211 0 0 1 24.595-5.38 417 417 0 0 1 24.211-3.074q11.914-1.154 21.136-3.459 9.224-2.306 14.604-6.533 5.38-4.612 4.996-13.066 0-8.84-3.075-13.835-2.69-5.38-7.686-8.071-4.611-3.073-11.144-3.843-6.15-1.152-13.451-1.153-16.14 0-25.364 6.918-9.223 6.916-10.76 23.058zm126.051 40.352q-3.459 3.074-8.839 4.996-4.997 1.536-11.145 2.69-5.765 1.153-12.297 1.921a230 230 0 0 0-13.067 1.922 108 108 0 0 0-12.297 3.074q-5.765 1.921-10.376 5.38-4.229 3.075-6.918 8.071t-2.69 12.682q0 7.301 2.69 12.297t7.302 8.071q4.611 2.69 10.76 3.843 6.149 1.152 12.682 1.152 16.141 0 24.98-5.38t13.066-12.682q4.228-7.686 4.996-15.372 1.153-7.686 1.153-12.297zm172.251 97.228h-60.72l-68.021-198.684h57.261l41.889 135.658h.768l41.889-135.658h54.187zm185.053-120.671q-3.842-20.752-13.835-31.513-9.607-10.76-29.591-10.76-13.066 0-21.905 4.612-8.454 4.227-13.835 10.76-4.996 6.533-7.302 13.835-1.921 7.302-2.305 13.066zm-88.773 34.587q1.152 26.517 13.45 38.43t35.356 11.914q16.524 0 28.438-8.07 11.913-8.456 14.604-17.678h48.037q-11.529 35.74-35.355 51.112-23.827 15.372-57.646 15.372-23.442 0-42.273-7.302-18.83-7.686-31.897-21.521t-20.368-33.05q-6.917-19.215-6.917-42.273 0-22.29 7.301-41.504 7.302-19.216 20.753-33.05 13.45-14.22 31.897-22.29 18.83-8.07 41.504-8.07 25.365 0 44.195 9.992 18.831 9.607 30.744 26.132 12.298 16.525 17.678 37.662 5.38 21.136 3.843 44.194zM142.189 452.717q1.153-19.215 9.607-31.897 8.455-12.682 21.521-20.368t29.207-10.761q16.525-3.458 33.05-3.458 14.988 0 30.36 2.306 15.372 1.922 28.054 8.07t20.752 17.293q8.07 10.761 8.07 28.823v103.377q0 13.45 1.538 25.748 1.536 12.298 5.38 18.447h-55.34a126 126 0 0 1-2.69-9.223 133 133 0 0 1-1.153-9.992q-13.066 13.45-30.744 18.831a123.4 123.4 0 0 1-36.124 5.38q-14.22 0-26.517-3.459t-21.521-10.76q-9.223-7.302-14.603-18.447-4.996-11.145-4.996-26.517 0-16.909 5.764-27.669 6.15-11.145 15.372-17.678 9.608-6.533 21.521-9.608a211 211 0 0 1 24.596-5.38 417 417 0 0 1 24.211-3.074q11.913-1.154 21.136-3.459 9.224-2.306 14.604-6.533 5.38-4.612 4.996-13.066 0-8.84-3.075-13.835-2.69-5.38-7.686-8.071-4.611-3.074-11.145-3.843-6.148-1.152-13.45-1.153-16.141 0-25.364 6.918-9.223 6.916-10.761 23.058zm126.051 40.352q-3.46 3.074-8.839 4.996-4.996 1.536-11.145 2.69-5.764 1.153-12.298 1.921a230 230 0 0 0-13.066 1.922 108 108 0 0 0-12.298 3.074q-5.764 1.921-10.376 5.38-4.227 3.075-6.917 8.071t-2.69 12.682q0 7.301 2.69 12.297t7.301 8.071q4.612 2.69 10.761 3.843 6.148 1.152 12.682 1.152 16.14 0 24.979-5.38 8.84-5.38 13.067-12.682 4.227-7.686 4.996-15.372 1.152-7.686 1.153-12.297zm176.985 32.665q0 8.84 3.459 15.372 3.843 6.149 9.608 10.376 5.764 3.843 13.066 5.765a64.7 64.7 0 0 0 15.756 1.921q5.764 0 11.914-1.152 6.532-1.537 11.529-4.228 5.38-3.073 8.839-7.686 3.458-4.996 3.458-12.297 0-12.298-16.525-18.447-16.14-6.148-45.347-12.298a350 350 0 0 1-23.443-6.148q-11.144-3.843-19.983-9.608-8.84-6.149-14.219-14.988-5.38-9.223-5.381-22.289 0-19.215 7.302-31.513 7.686-12.297 19.984-19.215 12.297-7.302 27.669-9.992 15.372-3.074 31.513-3.074t31.129 3.074q15.372 3.075 27.285 10.376 11.913 7.302 19.599 19.6 8.071 11.913 9.608 30.36h-51.881q-1.153-15.757-11.913-21.137-10.76-5.765-25.364-5.765-4.611 0-9.992.769-5.38.384-9.992 2.306-4.227 1.921-7.301 5.764-3.075 3.46-3.075 9.608 0 7.302 5.38 11.913t13.835 7.686q8.84 2.69 19.984 4.996a922 922 0 0 1 22.674 4.996 218 218 0 0 1 23.058 6.533q11.529 3.843 20.368 10.376 8.838 6.15 14.219 15.757 5.38 9.224 5.38 23.058 0 19.6-8.07 33.05-7.687 13.066-20.368 21.136-12.682 8.07-29.207 11.145-16.141 3.459-33.05 3.459-17.293 0-33.819-3.459-16.524-3.459-29.591-11.529-12.681-8.07-21.136-21.137-8.071-13.45-8.839-33.434zM584 452.717q1.153-19.215 9.608-31.897t21.521-20.368 29.207-10.761q16.524-3.458 33.05-3.458 14.987 0 30.359 2.306 15.373 1.922 28.054 8.07 12.682 6.149 20.753 17.293 8.07 10.761 8.07 28.823v103.377q0 13.45 1.537 25.748t5.38 18.447H716.2a125 125 0 0 1-2.69-9.223 132 132 0 0 1-1.153-9.992q-13.066 13.45-30.744 18.831a123.4 123.4 0 0 1-36.125 5.38q-14.219 0-26.516-3.459-12.298-3.46-21.521-10.76-9.224-7.302-14.604-18.447-4.995-11.145-4.996-26.517 0-16.909 5.765-27.669 6.149-11.145 15.372-17.678 9.608-6.533 21.521-9.608a211 211 0 0 1 24.595-5.38 417 417 0 0 1 24.211-3.074q11.913-1.154 21.137-3.459t14.603-6.533q5.38-4.612 4.996-13.066 0-8.84-3.074-13.835-2.691-5.38-7.686-8.071-4.613-3.074-11.145-3.843-6.149-1.152-13.451-1.153-16.14 0-25.364 6.918-9.222 6.916-10.76 23.058zm126.051 40.352q-3.459 3.074-8.839 4.996-4.995 1.536-11.145 2.69-5.764 1.153-12.297 1.921a230 230 0 0 0-13.066 1.922 108 108 0 0 0-12.298 3.074q-5.765 1.921-10.376 5.38-4.227 3.075-6.918 8.071t-2.69 12.682q0 7.301 2.69 12.297t7.302 8.071q4.611 2.69 10.761 3.843 6.149 1.152 12.681 1.152 16.141 0 24.98-5.38t13.066-12.682q4.228-7.686 4.996-15.372 1.153-7.686 1.153-12.297zm164.181 121.823q-8.84 24.212-24.595 34.587-15.757 10.377-43.811 10.376-8.454 0-16.909-.768a385 385 0 0 1-16.525-1.153v-44.963q7.686.768 15.756 1.537t16.141.384q10.761-1.153 15.756-8.454 5.38-7.303 5.381-16.141 0-6.534-2.306-12.298l-69.559-186.386h58.03l44.963 136.043h.769l43.426-136.043h56.492zm32.795-83.778h60.335v59.183h-60.335z"/></g><mask id="mask1_19950_4628" width="551" height="430" x="432" y="310" maskUnits="userSpaceOnUse" style="mask-type:alpha"><path fill="#fcffff" d="M653.286 319.009c146.568-33.303 287.523 31.797 314.832 145.404 15.506 64.503-8.959 130.774-59.83 182.107a435 435 0 0 0 7.421 6.447c24.272 20.602 49.358 37.48 65.037 46.716l1.62.953-1.876-.032c-47.758-.841-85.541-9.114-113.151-19.971-32.728 22.537-71.755 39.922-115.157 49.784-146.568 33.302-287.523-31.798-314.832-145.406-27.309-113.607 69.369-232.7 215.936-266.002"/></mask><g mask="url(#mask1_19950_4628)"><path fill="#fcffff" d="M165.727 157.273h860v626h-860z"/><path fill="#0e0e0e" d="M150.243 103.882h60.336v105.299h111.063V103.882h60.335v274.391h-60.335V259.909H210.579v118.364h-60.336zm242.191 136.812q1.153-19.216 9.608-31.898 8.454-12.68 21.521-20.368 13.066-7.685 29.207-10.76 16.524-3.459 33.05-3.459 14.987 0 30.359 2.306 15.373 1.921 28.054 8.07 12.683 6.15 20.753 17.294 8.07 10.76 8.07 28.823v103.377q0 13.45 1.537 25.748 1.537 12.297 5.38 18.446h-55.339a125 125 0 0 1-2.69-9.223q-.769-4.995-1.153-9.992-13.067 13.45-30.744 18.831a123.4 123.4 0 0 1-36.124 5.38q-14.22 0-26.517-3.458-12.298-3.459-21.521-10.761t-14.604-18.446q-4.995-11.145-4.995-26.517 0-16.91 5.764-27.67 6.149-11.145 15.372-17.678 9.608-6.533 21.521-9.607a211 211 0 0 1 24.595-5.38 418 418 0 0 1 24.211-3.075q11.914-1.152 21.137-3.459 9.224-2.305 14.603-6.533 5.38-4.61 4.996-13.066 0-8.839-3.074-13.835-2.691-5.38-7.686-8.07-4.613-3.075-11.145-3.843-6.149-1.153-13.45-1.153-16.142 0-25.364 6.917-9.224 6.918-10.761 23.059zm126.051 40.351q-3.459 3.075-8.839 4.996-4.995 1.538-11.144 2.69-5.765 1.153-12.298 1.922a230 230 0 0 0-13.066 1.921q-6.15 1.153-12.298 3.075-5.765 1.921-10.376 5.38-4.227 3.074-6.918 8.07t-2.69 12.682q0 7.302 2.69 12.298 2.691 4.995 7.302 8.07 4.612 2.691 10.761 3.843t12.682 1.153q16.14 0 24.979-5.38 8.84-5.38 13.066-12.682 4.228-7.686 4.996-15.372 1.153-7.686 1.153-12.298zm172.251 97.228h-60.719L561.995 179.59h57.261l41.889 135.658h.769l41.889-135.658h54.186zm185.054-120.67q-3.843-20.752-13.835-31.513-9.607-10.76-29.592-10.76-13.065 0-21.905 4.611-8.454 4.227-13.835 10.761-4.995 6.533-7.301 13.835-1.922 7.301-2.306 13.066zm-88.774 34.587q1.153 26.517 13.45 38.43 12.298 11.913 35.356 11.913 16.525 0 28.439-8.07 11.913-8.454 14.603-17.678h48.038q-11.53 35.74-35.356 51.112-23.827 15.372-57.645 15.372-23.443 0-42.273-7.301-18.831-7.686-31.897-21.521-13.067-13.835-20.368-33.05-6.918-19.215-6.918-42.273 0-22.29 7.302-41.505t20.752-33.05q13.45-14.219 31.897-22.289 18.831-8.071 41.505-8.071 25.364 0 44.194 9.992 18.831 9.607 30.744 26.133 12.299 16.524 17.678 37.661t3.843 44.195zM142.173 452.694q1.153-19.216 9.608-31.898 8.454-12.68 21.52-20.368 13.067-7.686 29.207-10.76 16.526-3.459 33.05-3.459 14.988 0 30.36 2.306 15.372 1.922 28.054 8.07 12.682 6.15 20.752 17.294 8.071 10.76 8.071 28.823v103.377q0 13.45 1.537 25.748 1.537 12.297 5.38 18.446h-55.339a125 125 0 0 1-2.69-9.223q-.77-4.995-1.153-9.992-13.067 13.45-30.744 18.831a123.4 123.4 0 0 1-36.125 5.38q-14.219 0-26.517-3.458t-21.52-10.761q-9.224-7.302-14.604-18.446-4.996-11.145-4.996-26.517 0-16.91 5.765-27.67 6.149-11.145 15.372-17.678 9.607-6.533 21.521-9.607a211 211 0 0 1 24.595-5.38 418 418 0 0 1 24.211-3.075q11.913-1.152 21.137-3.459 9.222-2.305 14.603-6.533 5.38-4.61 4.996-13.066 0-8.839-3.074-13.835-2.69-5.38-7.687-8.07-4.611-3.075-11.144-3.843-6.149-1.153-13.451-1.153-16.14 0-25.364 6.917-9.223 6.918-10.76 23.059zm126.051 40.351q-3.459 3.075-8.839 4.996-4.996 1.538-11.145 2.69-5.764 1.153-12.297 1.922a230 230 0 0 0-13.067 1.921 108 108 0 0 0-12.297 3.075q-5.765 1.921-10.376 5.38-4.228 3.074-6.918 8.07t-2.69 12.682q0 7.302 2.69 12.298 2.69 4.995 7.302 8.07 4.611 2.691 10.76 3.843 6.15 1.153 12.682 1.153 16.141 0 24.98-5.38 8.838-5.38 13.066-12.682 4.227-7.686 4.996-15.372 1.153-7.686 1.153-12.298zm176.986 32.666q0 8.838 3.458 15.372 3.843 6.149 9.608 10.376 5.764 3.843 13.066 5.765a64.7 64.7 0 0 0 15.757 1.921q5.765 0 11.913-1.153 6.533-1.537 11.529-4.227 5.38-3.075 8.839-7.686 3.459-4.996 3.459-12.298 0-12.297-16.525-18.446-16.142-6.15-45.348-12.298a349 349 0 0 1-23.442-6.149q-11.145-3.843-19.984-9.607-8.839-6.15-14.219-14.988-5.38-9.223-5.38-22.29 0-19.215 7.301-31.512 7.687-12.298 19.984-19.215 12.298-7.302 27.67-9.992 15.372-3.075 31.513-3.075 16.14 0 31.128 3.075 15.372 3.074 27.285 10.376t19.6 19.599q8.07 11.913 9.607 30.36h-51.88q-1.153-15.756-11.914-21.136-10.76-5.766-25.364-5.765-4.611 0-9.992.769-5.38.384-9.991 2.305-4.228 1.922-7.302 5.765-3.075 3.459-3.074 9.607 0 7.302 5.38 11.914 5.38 4.611 13.835 7.686 8.838 2.69 19.983 4.996a917 917 0 0 1 22.674 4.996 218 218 0 0 1 23.058 6.533q11.529 3.843 20.368 10.376 8.839 6.148 14.219 15.756 5.38 9.224 5.38 23.058 0 19.6-8.07 33.05-7.686 13.067-20.368 21.137t-29.207 11.145q-16.14 3.458-33.05 3.458-17.294 0-33.818-3.458-16.526-3.459-29.591-11.529-12.683-8.071-21.137-21.137-8.07-13.45-8.839-33.434zm138.775-73.017q1.152-19.216 9.607-31.898 8.455-12.68 21.521-20.368 13.067-7.686 29.207-10.76 16.525-3.459 33.05-3.459 14.988 0 30.36 2.306 15.372 1.922 28.054 8.07 12.681 6.15 20.752 17.294 8.07 10.76 8.07 28.823v103.377q0 13.45 1.538 25.748 1.536 12.297 5.38 18.446h-55.34a126 126 0 0 1-2.69-9.223q-.768-4.995-1.153-9.992-13.067 13.45-30.744 18.831a123.4 123.4 0 0 1-36.124 5.38q-14.22 0-26.517-3.458t-21.521-10.761-14.603-18.446q-4.996-11.145-4.996-26.517 0-16.91 5.764-27.67 6.15-11.145 15.372-17.678 9.608-6.533 21.521-9.607a211 211 0 0 1 24.596-5.38 417 417 0 0 1 24.211-3.075q11.913-1.152 21.136-3.459 9.224-2.305 14.604-6.533 5.38-4.61 4.996-13.066 0-8.839-3.075-13.835-2.69-5.38-7.686-8.07-4.611-3.075-11.145-3.843-6.148-1.153-13.45-1.153-16.141 0-25.364 6.917-9.223 6.918-10.761 23.059zm126.051 40.351q-3.46 3.075-8.839 4.996-4.997 1.538-11.145 2.69-5.764 1.153-12.298 1.922a230 230 0 0 0-13.066 1.921 108 108 0 0 0-12.298 3.075q-5.764 1.921-10.376 5.38-4.227 3.074-6.917 8.07t-2.69 12.682q0 7.302 2.69 12.298 2.69 4.995 7.301 8.07 4.613 2.691 10.761 3.843t12.682 1.153q16.14 0 24.979-5.38t13.067-12.682q4.227-7.686 4.996-15.372 1.153-7.686 1.153-12.298zm164.18 121.824q-8.839 24.21-24.595 34.587-15.757 10.376-43.81 10.376-8.455 0-16.91-.769a385 385 0 0 1-16.525-1.152v-44.964q7.687.77 15.757 1.537 8.07.77 16.14.385 10.76-1.153 15.757-8.455 5.38-7.302 5.38-16.141 0-6.533-2.306-12.297L753.546 391.59h58.029l44.963 136.042h.769l43.426-136.042h56.492zm32.795-83.778h60.335v59.182h-60.335z"/></g><mask id="mask2_19950_4628" width="861" height="385" x="113" y="0" maskUnits="userSpaceOnUse" style="mask-type:alpha"><path fill="#fcffff" d="M114.155 144.95C124.456 42.08 325.022-20.153 562.131 5.948S983.105 136.6 972.804 239.469c-10.301 102.87-210.867 165.102-447.976 139.001-122.34-13.467-230.504-47.819-305.137-92.048-25.432 10.472-59.844 18.373-103.069 19.194l-1.819.035 1.532-.974c14.54-9.235 37.802-26.113 60.309-46.716l.651-.602c-43.472-34.874-67.01-73.76-63.14-112.409"/></mask><g mask="url(#mask2_19950_4628)"><path fill="#fcffff" d="M-195.258-147.703h1309v626h-1309z"/><path fill="#0e0e0e" d="M150.243 103.898h60.336v105.298h111.063V103.898h60.335v274.391h-60.335V259.924H210.579v118.365h-60.336zm242.191 136.811q1.153-19.215 9.608-31.897t21.521-20.368 29.207-10.76q16.524-3.459 33.05-3.459 14.987 0 30.359 2.306 15.373 1.922 28.054 8.07 12.683 6.149 20.753 17.294 8.07 10.76 8.07 28.822v103.377q0 13.45 1.537 25.749 1.537 12.297 5.38 18.446h-55.339a125 125 0 0 1-2.69-9.223 133 133 0 0 1-1.153-9.992q-13.067 13.45-30.744 18.831a123.4 123.4 0 0 1-36.124 5.38q-14.22 0-26.517-3.459-12.298-3.458-21.521-10.76t-14.604-18.447q-4.995-11.144-4.995-26.516 0-16.91 5.764-27.67 6.149-11.145 15.372-17.678 9.608-6.533 21.521-9.608a211 211 0 0 1 24.595-5.38 417 417 0 0 1 24.211-3.074q11.914-1.154 21.137-3.459t14.603-6.533q5.38-4.612 4.996-13.066 0-8.84-3.074-13.835-2.691-5.38-7.686-8.07-4.613-3.075-11.145-3.843-6.149-1.153-13.45-1.153-16.142 0-25.364 6.917-9.224 6.918-10.761 23.058zm126.051 40.352q-3.459 3.074-8.839 4.996-4.995 1.537-11.144 2.69-5.765 1.152-12.298 1.921a230 230 0 0 0-13.066 1.922 108 108 0 0 0-12.298 3.074q-5.765 1.922-10.376 5.38-4.227 3.075-6.918 8.071t-2.69 12.682q0 7.302 2.69 12.297t7.302 8.071q4.612 2.69 10.761 3.843a68.7 68.7 0 0 0 12.682 1.153q16.14 0 24.979-5.381 8.84-5.38 13.066-12.682 4.228-7.686 4.996-15.372 1.153-7.686 1.153-12.297zm172.251 97.228h-60.719l-68.022-198.684h57.261l41.889 135.659h.769l41.889-135.659h54.186zM875.79 257.618q-3.843-20.752-13.835-31.512-9.607-10.761-29.592-10.761-13.065 0-21.905 4.612-8.454 4.227-13.835 10.76-4.995 6.534-7.301 13.835-1.922 7.302-2.306 13.066zm-88.774 34.588q1.153 26.516 13.45 38.43 12.298 11.913 35.356 11.913 16.525 0 28.439-8.07 11.913-8.455 14.603-17.678h48.038q-11.53 35.74-35.356 51.112-23.827 15.372-57.645 15.372-23.443 0-42.273-7.302-18.831-7.685-31.897-21.521-13.067-13.835-20.368-33.05-6.918-19.215-6.918-42.273 0-22.289 7.302-41.504t20.752-33.05q13.45-14.22 31.897-22.29 18.831-8.07 41.505-8.07 25.364 0 44.194 9.992 18.831 9.608 30.744 26.132 12.299 16.526 17.678 37.662t3.843 44.195zM142.173 452.709q1.153-19.215 9.608-31.897t21.52-20.368q13.067-7.686 29.207-10.76 16.526-3.459 33.05-3.459 14.988 0 30.36 2.306 15.372 1.922 28.054 8.07t20.752 17.294q8.071 10.76 8.071 28.822v103.377q0 13.45 1.537 25.749 1.537 12.297 5.38 18.446h-55.339a125 125 0 0 1-2.69-9.223 132 132 0 0 1-1.153-9.992q-13.067 13.45-30.744 18.831a123.4 123.4 0 0 1-36.125 5.38q-14.219 0-26.517-3.459t-21.52-10.76q-9.224-7.302-14.604-18.447-4.996-11.144-4.996-26.516 0-16.91 5.765-27.67 6.149-11.145 15.372-17.678 9.607-6.533 21.521-9.608a211 211 0 0 1 24.595-5.38 417 417 0 0 1 24.211-3.074q11.913-1.154 21.137-3.459 9.222-2.306 14.603-6.533 5.38-4.611 4.996-13.066 0-8.84-3.074-13.835-2.69-5.38-7.687-8.07-4.611-3.075-11.144-3.843-6.149-1.153-13.451-1.153-16.14 0-25.364 6.917-9.223 6.918-10.76 23.058zm126.051 40.352q-3.459 3.074-8.839 4.996-4.996 1.537-11.145 2.69-5.764 1.152-12.297 1.921a230 230 0 0 0-13.067 1.922 108 108 0 0 0-12.297 3.074q-5.765 1.922-10.376 5.38-4.228 3.075-6.918 8.071t-2.69 12.682q0 7.302 2.69 12.297t7.302 8.071q4.611 2.69 10.76 3.843 6.15 1.153 12.682 1.153 16.141 0 24.98-5.381 8.838-5.38 13.066-12.682 4.227-7.686 4.996-15.372 1.153-7.686 1.153-12.297zm176.986 32.665q0 8.84 3.458 15.372 3.843 6.15 9.608 10.377 5.764 3.843 13.066 5.764a64.7 64.7 0 0 0 15.757 1.922q5.765 0 11.913-1.153 6.533-1.537 11.529-4.228 5.38-3.073 8.839-7.686 3.459-4.995 3.459-12.297 0-12.298-16.525-18.447-16.142-6.148-45.348-12.297a350 350 0 0 1-23.442-6.149q-11.145-3.843-19.984-9.608-8.839-6.149-14.219-14.987-5.38-9.224-5.38-22.29 0-19.215 7.301-31.513 7.687-12.297 19.984-19.215 12.298-7.301 27.67-9.992 15.372-3.074 31.513-3.074 16.14 0 31.128 3.074 15.372 3.075 27.285 10.377 11.914 7.3 19.6 19.599 8.07 11.913 9.607 30.36h-51.88q-1.153-15.757-11.914-21.137-10.76-5.764-25.364-5.764-4.611 0-9.992.768-5.38.384-9.991 2.306-4.228 1.922-7.302 5.765-3.075 3.458-3.074 9.607 0 7.302 5.38 11.913t13.835 7.686q8.838 2.69 19.983 4.996a927 927 0 0 1 22.674 4.996 218 218 0 0 1 23.058 6.533q11.529 3.843 20.368 10.377 8.839 6.148 14.219 15.756 5.38 9.224 5.38 23.058 0 19.6-8.07 33.05-7.686 13.066-20.368 21.137t-29.207 11.144q-16.14 3.459-33.05 3.459-17.294 0-33.818-3.459-16.526-3.459-29.591-11.529-12.683-8.07-21.137-21.136-8.07-13.45-8.839-33.435zm138.775-73.017q1.152-19.215 9.607-31.897t21.521-20.368 29.207-10.76q16.525-3.459 33.05-3.459 14.988 0 30.36 2.306 15.372 1.922 28.054 8.07t20.752 17.294q8.07 10.76 8.07 28.822v103.377q0 13.45 1.538 25.749 1.536 12.297 5.38 18.446h-55.34a126 126 0 0 1-2.69-9.223 133 133 0 0 1-1.153-9.992q-13.067 13.45-30.744 18.831a123.4 123.4 0 0 1-36.124 5.38q-14.22 0-26.517-3.459t-21.521-10.76-14.603-18.447q-4.996-11.144-4.996-26.516 0-16.91 5.764-27.67 6.15-11.145 15.372-17.678 9.608-6.533 21.521-9.608a211 211 0 0 1 24.596-5.38 417 417 0 0 1 24.211-3.074q11.913-1.154 21.136-3.459 9.224-2.306 14.604-6.533 5.38-4.611 4.996-13.066 0-8.84-3.075-13.835-2.69-5.38-7.686-8.07-4.611-3.075-11.145-3.843-6.148-1.153-13.45-1.153-16.141 0-25.364 6.917-9.223 6.918-10.761 23.058zm126.051 40.352q-3.46 3.074-8.839 4.996-4.997 1.537-11.145 2.69-5.764 1.152-12.298 1.921a230 230 0 0 0-13.066 1.922 108 108 0 0 0-12.298 3.074q-5.764 1.922-10.376 5.38-4.227 3.075-6.917 8.071t-2.69 12.682q0 7.302 2.69 12.297t7.301 8.071q4.613 2.69 10.761 3.843a68.7 68.7 0 0 0 12.682 1.153q16.14 0 24.979-5.381 8.839-5.38 13.067-12.682 4.227-7.686 4.996-15.372 1.153-7.686 1.153-12.297zm164.18 121.823q-8.839 24.211-24.595 34.587-15.757 10.377-43.81 10.377-8.455 0-16.91-.769a384 384 0 0 1-16.525-1.153v-44.963a3361 3361 0 0 0 15.757 1.537q8.07.769 16.14.384 10.76-1.152 15.757-8.454 5.38-7.302 5.38-16.141 0-6.533-2.306-12.298l-69.558-186.386h58.029l44.963 136.043h.769l43.426-136.043h56.492zm32.795-83.777h60.335v59.182h-60.335z"/></g></svg>