<svg xmlns="http://www.w3.org/2000/svg" width="1753" height="655" fill="none" viewBox="0 0 1753 655"><path fill="#fcffff" d="M413.269 2.964c232.703-15.949 425.039 34.062 429.594 111.703 2.399 40.901-47.795 81.308-129.856 112.724 27.544-3.773 56.264-6.167 85.819-7 133.973-3.773 253.534 25.364 325.734 72.825-15.97-19.639-23.91-41.705-21.9-65.237 7.6-88.934 154.43-165.097 327.96-170.113s308.04 63.014 300.43 151.948c-1.9 22.279-12.54 43.756-30.15 63.515 4.16 6.149 9.32 12.299 14.88 18.148 12.46 13.124 26.85 24.704 36.3 31.352l-.36.845c-34.75-7.257-60.73-15.982-79.07-24.496-59.83 45.655-159.31 77.563-269.56 80.75-96.94 2.802-181.71-17.197-236.33-50.903 18.12 20.63 28.56 43.349 29.58 67.394 3.18 74.721-85.37 141.775-216.065 175.439 1.056 1.793 1.508 3.996 1.247 6.64-.53 5.353 1.196 11.707 4.413 18.514 3.212 6.797 7.888 13.997 13.191 21.025 10.604 14.055 23.694 27.373 32.504 35.34l-.5.783c-43.506-18.261-72.78-34.849-90.613-47.955-8.914-6.551-14.988-12.246-18.552-16.86-1.324-1.713-2.31-3.289-2.965-4.714-33.08 5.375-68.041 8.739-104.257 9.759-215.145 6.06-393.118-72.75-397.514-176.027-2.493-58.571 51.378-112.432 137.726-149.193-39.417 6.843-81.462 11.958-125.193 14.955-72.157 4.945-140.433 3.545-200.433-3.051-.901 1.434-2.113 2.946-3.636 4.515-4.161 4.286-10.729 9.107-19.929 14.109-18.404 10.007-47.413 20.78-88.969 29.458l-.36-.845c9.447-6.647 23.84-18.227 36.3-31.351 6.229-6.562 11.967-13.501 16.361-20.394a82 82 0 0 0 2.354-3.926C69.766 253.806 2.833 217.842.168 172.421-4.386 94.781 180.566 18.911 413.27 2.964"/><mask id="mask0_19963_4651" width="1753" height="655" x="0" y="0" maskUnits="userSpaceOnUse" style="mask-type:alpha"><path fill="#fcffff" d="M413.182 2.964c232.703-15.949 425.04 34.062 429.595 111.703 2.399 40.897-47.784 81.298-129.829 112.714 27.541-3.773 56.257-6.165 85.809-6.997 134.001-3.774 253.583 25.375 325.783 72.853-15.97-19.637-23.91-41.703-21.9-65.232 7.6-88.935 154.44-165.097 327.96-170.113 173.53-5.015 308.04 63.014 300.44 151.949-1.91 22.274-12.55 43.747-30.15 63.503 4.17 6.155 9.34 12.313 14.89 18.168 12.46 13.124 26.86 24.705 36.3 31.352l-.36.844c-34.76-7.26-60.74-15.988-79.08-24.505-59.84 45.655-159.31 77.563-269.56 80.75-96.98 2.803-181.77-17.206-236.38-50.928 18.12 20.628 28.55 43.344 29.57 67.386 3.18 74.724-85.38 141.778-216.077 175.441 1.065 1.797 1.522 4.008 1.259 6.662-.529 5.353 1.197 11.707 4.414 18.513 3.212 6.798 7.888 13.999 13.192 21.027 10.612 14.054 23.692 27.373 32.502 35.339l-.5.784c-43.505-18.261-72.778-34.85-90.611-47.957-8.914-6.55-14.99-12.245-18.553-16.859-1.331-1.723-2.32-3.307-2.975-4.737-33.077 5.374-68.035 8.738-104.247 9.758-215.145 6.059-393.119-72.751-397.515-176.028-2.492-58.565 51.368-112.423 137.704-149.183-39.416 6.843-81.458 11.957-125.187 14.954-72.164 4.946-140.446 3.545-200.449-3.053-.901 1.434-2.114 2.947-3.637 4.517-4.161 4.286-10.73 9.107-19.93 14.109-18.404 10.007-47.413 20.78-88.968 29.458l-.36-.845c9.447-6.647 23.841-18.227 36.3-31.351 6.229-6.562 11.967-13.501 16.36-20.394a82 82 0 0 0 2.357-3.929C69.673 253.802 2.747 217.84.082 172.421-4.472 94.781 180.48 18.912 413.182 2.964"/></mask><g mask="url(#mask0_19963_4651)"><path fill="#0e0e0e" d="M68.908 33.475h56.747v99.036h104.458V33.475h56.747v258.072h-56.747V180.222H125.655v111.325H68.908zM296.695 162.15q1.084-18.072 9.036-30 7.952-11.927 20.241-19.157 12.289-7.228 27.47-10.12 15.541-3.253 31.084-3.253 14.096 0 28.554 2.168 14.458 1.807 26.385 7.591 11.928 5.783 19.518 16.265 7.591 10.12 7.591 27.108v97.229q0 12.65 1.445 24.217 1.446 11.565 5.061 17.349h-52.048a117 117 0 0 1-2.53-8.675 125 125 0 0 1-1.085-9.397q-12.288 12.65-28.915 17.71a116 116 0 0 1-33.976 5.061q-13.374 0-24.94-3.253t-20.241-10.121q-8.674-6.867-13.735-17.349-4.698-10.482-4.698-24.94 0-15.903 5.421-26.024 5.784-10.482 14.458-16.626 9.036-6.146 20.241-9.036a199 199 0 0 1 23.132-5.061 393 393 0 0 1 22.771-2.891q11.205-1.084 19.88-3.253t13.735-6.145q5.06-4.337 4.699-12.289 0-8.313-2.892-13.012-2.53-5.06-7.229-7.59-4.337-2.892-10.482-3.615-5.783-1.084-12.65-1.084-15.181 0-23.856 6.506-8.674 6.506-10.12 21.687zm118.554 37.951q-3.253 2.892-8.314 4.699-4.698 1.446-10.482 2.53a146 146 0 0 1-11.566 1.808 215 215 0 0 0-12.289 1.807 101 101 0 0 0-11.566 2.891q-5.422 1.807-9.759 5.061-3.976 2.89-6.506 7.59-2.53 4.698-2.53 11.928 0 6.867 2.53 11.566 2.53 4.698 6.867 7.59 4.337 2.53 10.121 3.615a64.7 64.7 0 0 0 11.927 1.084q15.181 0 23.494-5.06 8.314-5.061 12.289-11.928 3.976-7.229 4.699-14.458 1.085-7.228 1.085-11.566zm162.006 91.446h-57.108L456.171 104.68h53.855l39.398 127.59h.722l39.398-127.59h50.964zm174.047-113.494q-3.615-19.518-13.012-29.638-9.037-10.12-27.832-10.121-12.288 0-20.602 4.338-7.951 3.976-13.012 10.12-4.699 6.145-6.867 13.012-1.808 6.868-2.169 12.289zm-83.494 32.53q1.085 24.94 12.651 36.145t33.252 11.205q15.543 0 26.747-7.591 11.205-7.951 13.735-16.626h45.181q-10.843 33.613-33.253 48.072-22.41 14.457-54.217 14.458-22.048 0-39.759-6.868-17.71-7.228-30-20.241-12.288-13.011-19.156-31.084-6.506-18.072-6.506-39.759 0-20.964 6.867-39.036 6.869-18.072 19.518-31.084 12.651-13.374 30-20.964 17.71-7.59 39.036-7.59 23.856 0 41.566 9.397 17.711 9.036 28.916 24.579 11.567 15.541 16.626 35.421 5.061 19.88 3.615 41.566zm513.432 20.241c0 5.542 1.08 10.362 3.25 14.458 2.41 3.855 5.42 7.108 9.04 9.759 3.61 2.41 7.71 4.217 12.29 5.422a61 61 0 0 0 14.82 1.807c3.61 0 7.35-.362 11.2-1.084 4.1-.964 7.71-2.29 10.85-3.976q5.055-2.892 8.31-7.229c2.17-3.133 3.25-6.988 3.25-11.566q0-11.566-15.54-17.35c-10.12-3.855-24.34-7.711-42.65-11.566a329 329 0 0 1-22.05-5.783c-6.99-2.41-13.25-5.422-18.79-9.036-5.55-3.856-10-8.554-13.38-14.097-3.37-5.783-5.06-12.771-5.06-20.963q0-18.073 6.87-29.639c4.82-7.711 11.08-13.735 18.79-18.072 7.72-4.578 16.39-7.711 26.03-9.398q14.46-2.89 29.64-2.891c10.12 0 19.88.964 29.27 2.891 9.64 1.928 18.2 5.181 25.67 9.759s13.61 10.723 18.43 18.434c5.06 7.47 8.07 16.988 9.04 28.554h-48.8c-.72-9.879-4.46-16.506-11.2-19.879-6.75-3.615-14.7-5.422-23.86-5.422-2.89 0-6.02.241-9.4.723q-5.055.361-9.39 2.169-3.975 1.807-6.87 5.421c-1.93 2.169-2.89 5.181-2.89 9.036 0 4.579 1.68 8.314 5.06 11.205 3.37 2.892 7.71 5.301 13.01 7.229 5.54 1.687 11.81 3.253 18.79 4.699q10.485 2.169 21.33 4.699 11.205 2.53 21.69 6.144c7.23 2.41 13.61 5.663 19.15 9.759 5.55 3.856 10 8.795 13.38 14.819 3.37 5.784 5.06 13.012 5.06 21.687q0 18.434-7.59 31.084c-4.82 8.193-11.21 14.82-19.16 19.88s-17.11 8.554-27.47 10.482q-15.18 3.252-31.08 3.253c-10.85 0-21.45-1.085-31.81-3.253s-19.64-5.783-27.83-10.844c-7.95-5.06-14.58-11.686-19.88-19.879-5.06-8.434-7.83-18.916-8.32-31.446zm137.75-68.674c.72-12.048 3.73-22.048 9.04-30 5.3-7.952 12.04-14.337 20.24-19.157 8.19-4.819 17.35-8.192 27.47-10.12q15.54-3.253 31.08-3.253c9.4 0 18.92.723 28.55 2.168 9.64 1.205 18.44 3.735 26.39 7.591 7.95 3.855 14.46 9.277 19.52 16.265q7.59 10.12 7.59 27.108v97.229q0 12.65 1.44 24.217c.97 7.71 2.66 13.493 5.06 17.349h-52.04c-.97-2.892-1.81-5.783-2.53-8.675-.49-3.132-.85-6.265-1.09-9.397-8.19 8.433-17.83 14.337-28.91 17.71a116 116 0 0 1-33.98 5.061c-8.91 0-17.23-1.085-24.94-3.253s-14.46-5.542-20.24-10.121c-5.78-4.578-10.36-10.361-13.73-17.349-3.14-6.988-4.7-15.301-4.7-24.94 0-10.602 1.8-19.277 5.42-26.024q5.775-10.482 14.46-16.626c6.02-4.097 12.77-7.109 20.24-9.036a199 199 0 0 1 23.13-5.061q11.565-1.806 22.77-2.891c7.47-.723 14.1-1.807 19.88-3.253s10.36-3.494 13.73-6.145c3.38-2.891 4.94-6.988 4.7-12.289 0-5.542-.96-9.879-2.89-13.012q-2.52-5.06-7.23-7.59c-2.89-1.928-6.38-3.133-10.48-3.615-3.85-.723-8.07-1.084-12.65-1.084q-15.18 0-23.85 6.506c-5.79 4.337-9.16 11.566-10.13 21.687zm118.55 37.951c-2.16 1.928-4.94 3.494-8.31 4.699-3.13.964-6.63 1.807-10.48 2.53-3.62.723-7.47 1.326-11.57 1.808-4.09.481-8.19 1.084-12.29 1.807-3.85.723-7.71 1.686-11.56 2.891-3.62 1.205-6.87 2.892-9.76 5.061q-3.975 2.89-6.51 7.59c-1.68 3.132-2.53 7.108-2.53 11.928 0 4.578.85 8.433 2.53 11.566q2.535 4.698 6.87 7.59c2.89 1.687 6.26 2.892 10.12 3.615 3.86.722 7.83 1.084 11.93 1.084q15.18 0 23.49-5.06c5.54-3.374 9.64-7.35 12.29-11.928 2.65-4.819 4.22-9.639 4.7-14.458q1.08-7.228 1.08-11.566zm168.88 114.578c-5.54 15.181-13.26 26.024-23.14 32.53-9.87 6.506-23.61 9.759-41.2 9.759q-7.95 0-15.9-.723c-5.06-.241-10.24-.602-15.55-1.084v-42.289q7.23.723 14.82 1.446t15.18.361q10.125-1.084 14.82-7.951c3.38-4.579 5.06-9.639 5.06-15.181q0-6.144-2.16-11.566l-65.43-175.301h54.58l42.29 127.951h.72l40.85-127.951h53.13zm56.14-78.795h56.75v55.663h-56.75zM568.281 514.679q-8.313 22.771-23.133 32.53t-41.204 9.759q-7.953 0-15.904-.723a362 362 0 0 1-15.542-1.084v-42.289q7.229.723 14.819 1.446t15.181.361q10.12-1.084 14.819-7.951 5.06-6.868 5.06-15.181 0-6.144-2.168-11.566L454.787 304.68h54.578l42.289 127.951h.723L593.22 304.68h53.133zm126.344-116.385q0 11.205 2.169 22.048 2.17 10.482 7.229 19.157 5.421 8.313 14.096 13.373 8.674 5.061 21.687 5.061t21.687-5.061q9.036-5.06 14.096-13.373 5.422-8.675 7.59-19.157a112 112 0 0 0 2.169-22.048q0-11.205-2.169-22.048t-7.59-19.157q-5.06-8.312-14.096-13.373-8.674-5.422-21.687-5.422t-21.687 5.422q-8.675 5.06-14.096 13.373-5.06 8.314-7.229 19.157a112 112 0 0 0-2.169 22.048m-51.325 0q0-22.41 6.868-40.482 6.867-18.433 19.518-31.084 12.65-13.012 30.361-19.879 17.71-7.23 39.759-7.229 22.048 0 39.759 7.229 18.072 6.867 30.723 19.879 12.65 12.65 19.518 31.084 6.867 18.073 6.867 40.482 0 22.41-6.867 40.482-6.868 18.072-19.518 31.084-12.651 12.651-30.723 19.518-17.71 6.868-39.759 6.868-22.048 0-39.759-6.868-17.711-6.867-30.361-19.518-12.651-13.012-19.518-31.084t-6.868-40.482m387.59 93.253h-48.797v-26.024h-1.085q-9.76 16.265-25.301 23.494-15.542 7.229-31.807 7.229-20.602 0-33.976-5.422-13.012-5.421-20.602-15.181-7.59-10.12-10.844-24.216-2.89-14.458-2.891-31.808V304.68h51.325v105.542q0 23.132 7.229 34.699 7.228 11.204 25.663 11.204 20.963 0 30.361-12.289 9.397-12.65 9.397-41.204V304.68h51.328zm24.49-186.867h48.8v34.699h.72a60 60 0 0 1 9.76-15.904q6.15-7.59 14.1-12.65c5.3-3.615 10.96-6.386 16.99-8.314 6.02-1.927 12.28-2.891 18.79-2.891 3.37 0 7.11.602 11.2 1.807v47.711c-2.4-.482-5.3-.844-8.67-1.085-3.37-.482-6.63-.723-9.76-.723q-14.1 0-23.85 4.699c-6.51 3.133-11.81 7.47-15.91 13.012q-5.775 7.951-8.31 18.795c-1.69 7.229-2.53 15.061-2.53 23.494v84.217h-51.33z"/></g></svg>