<svg xmlns="http://www.w3.org/2000/svg" width="589.106" height="59.013" viewBox="0 0 589.106 59.013"><g fill="#FFF"><path d="M33.899.864l-2 2v28.31L14.817 1.857 13.089.864H2l-2 2v52.492l2 2h10.801l2-2V26.485L32.17 56.361l1.729.995H44.7l2-2V2.864l-2-2zM80.77 0C64.753 0 53.567 12.133 53.567 29.506s11.215 29.506 27.274 29.506 27.274-11.985 27.274-29.146C108.116 12.002 97.126 0 80.77 0zm.071 45.796c-7.577 0-12.473-6.394-12.473-16.29 0-9.896 4.896-16.29 12.473-16.29 7.694 0 12.473 6.352 12.473 16.578 0 9.571-5.012 16.002-12.473 16.002zM155.002.864H144.13l-1.921 1.444-9.546 32.96-9.729-32.97-1.918-1.434h-10.873l-1.895 2.639 17.713 52.493 1.895 1.36h9.145l1.892-1.35 18.002-52.493zM183.729.864h-11.953l-1.885 1.331-18.649 52.493 1.885 2.669h11.017l1.897-1.368 3.072-9.217h16.766l3.006 9.205 1.901 1.38h11.089l1.89-2.653L185.619 2.21l-1.89-1.346zm-2.127 32.907h-8.131l4.066-12.197 4.065 12.197zM253.985 49.055c-.238-12.779-.479-16.348-4.855-19.074 4.277-2.852 6.44-7.185 6.44-12.931 0-7.825-4.233-16.186-16.113-16.186h-28.155l-2 2v52.493l2 2h10.801l2-2v-18.81h10.385c3.994 0 4.697 1.375 4.697 4.264 0 .901-.025 1.314-.054 1.783-.042.697-.09 1.488-.09 3.762 0 4.925.262 6.94 1.898 9.955l1.758 1.046h11.593l2-2v-1.944l-1.016-1.741c-.935-.529-1.289-.889-1.289-2.617zm-29.882-35.19h11.033c4.295 0 5.632.647 5.632 4.696 0 4.264-1.406 4.985-5.632 4.985h-11.033v-9.681zM293.671.864h-11.952l-1.885 1.331-18.65 52.493 1.885 2.669h11.017l1.897-1.368 3.073-9.217h16.765l3.005 9.205 1.901 1.38h11.09l1.891-2.653L295.561 2.21l-1.89-1.346zm-2.127 32.907h-8.131l4.065-12.197 4.066 12.197zM378.198.864l-1.953 1.569-7.294 33.049-7.524-33.062-1.95-1.556h-16.129l-2 2v52.492l2 2h10.8l2-2V32.028l5.484 23.778 1.949 1.55h10.801l1.95-1.557 5.339-23.506v23.063l2 2h10.801l2-2V2.864l-2-2zM422.244 44.355v-9.609h23.13l2-2v-9l-2-2h-23.13v-7.881h25.147l2-2V2.864l-2-2h-37.948l-2 2v52.492l2 2h39.244l2-2v-9.001l-2-2zM481.373.864h-20.521l-2 2v52.493l2 2h20.521c8.588 0 14.17-2.11 18.083-6.823 4.441-5.205 6.887-12.826 6.887-21.459 0-8.556-2.442-16.173-6.869-21.439-3.943-4.747-9.356-6.772-18.101-6.772zm-7.721 13.001h7.721c4.365 0 10.169 1.584 10.169 15.281 0 13.633-5.804 15.209-10.169 15.209h-7.721v-30.49zM516.867.864l-2 2v52.492l2 2h10.801l2-2V2.864l-2-2zM570.96 2.21L569.069.863h-11.952l-1.885 1.331-18.65 52.493 1.885 2.669h11.018l1.897-1.368 3.072-9.217h16.765l3.006 9.205 1.901 1.38h11.09l1.891-2.653L570.96 2.21zm-4.017 31.561h-8.132l4.065-12.197 4.067 12.197z"/></g></svg>