<svg xmlns="http://www.w3.org/2000/svg" width="780.759" height="57.127" viewBox="0 0 780.759 57.127"><g fill="#FFF"><path d="M19.122 25.629v29.779H0V.899h23.377l17.648 29.179V.899H60.15v54.509H37.07L19.122 25.629zM102.176 0c15.778 0 34.228 11.592 34.228 28.942 0 15.619-17.778 28.185-34.151 28.185-15.998 0-34.151-11.965-34.151-28.563S86.328 0 102.176 0zM87.224 28.564c0 11.445 5.986 13.93 15.029 13.93 8.971 0 15.029-2.485 15.029-13.633 0-11.815-5.831-14.662-15.029-14.662-9.044 0-15.029 2.926-15.029 14.365zM155.85 55.408L137.457.899h19.196l12.114 41.045L180.653.899h19.199l-18.69 54.509H155.85zM220.52 44.415l-3.661 10.993h-19.35L216.87.899h28.231l18.841 54.509H244.52l-3.587-10.993H220.52zm10.245-30.657l-7.105 21.308h14.21l-7.105-21.308zM361.433 44.415l-3.661 10.993h-19.35L357.784.899h28.231l18.837 54.509h-19.42l-3.587-10.993h-20.412zm10.241-30.657l-7.102 21.308h14.207l-7.105-21.308zM737.341 44.415l-3.661 10.993h-19.351L733.691.899h28.231l18.836 54.509H761.34l-3.588-10.993h-20.411zm10.24-30.657l-7.102 21.308h14.206l-7.104-21.308zM310.581 40.303c0-4.557-2.093-6.503-6.951-6.503h-12.862v21.608h-19.122V.899h45.051c11.736 0 14.651 8.669 14.651 14.736 0 6.646-3.066 11.058-9.193 13.453 6.95 2.99 7.251 3.738 7.549 19.81 0 2.398.672 3.518 2.395 4.492v2.018H312.15c-1.417-2.617-1.718-4.258-1.718-9.348-.001-4.043.149-3.432.149-5.757zm-6.278-26.104h-13.535v10.248h13.535c4.633 0 7.912.921 7.923-5.431.008-5.019-3.212-4.817-7.923-4.817zM470.767 55.408h-19.122V.899h32.564l8.757 35.461L502.538.899h31.602v54.509h-19.122V15.155l-9.646 40.253H480.56l-9.793-40.253v40.253zM566.935 42.105h37.444v13.303h-56.562V.899h55.215v13.3h-36.097v8.387h34.004v13.291h-34.004v6.228zM615.64.899h29.217c8.373 0 21.439 1.869 25.104 6.283 4.337 5.159 6.657 12.562 6.657 20.93 0 8.453-2.32 15.854-6.657 20.94-3.664 4.41-16.805 6.355-25.104 6.355H615.64V.899zm29.216 41.065c8.449 0 12.635-1.809 12.635-13.779 0-12.028-4.186-13.986-12.635-13.986h-10.094v27.765h10.094zM705.387 55.408h-19.122V.899h19.122v54.509z"/></g></svg>