<svg xmlns="http://www.w3.org/2000/svg" width="590.023" height="59.013" viewBox="0 0 590.023 59.013"><g fill="#FFF"><path d="M31.899 31.174L14.239.863H0v56.493h14.801V26.485l17.947 30.871H46.7V.863H31.899zM80.77 0C64.753 0 53.567 12.133 53.567 29.506s11.215 29.507 27.274 29.507 27.274-11.985 27.274-29.146C108.116 12.002 97.126 0 80.77 0zm.071 45.796c-7.577 0-12.473-6.395-12.473-16.29s4.896-16.289 12.473-16.289c7.694 0 12.473 6.353 12.473 16.578 0 9.57-5.012 16.001-12.473 16.001zM142.627.863l-9.964 34.405L122.511.863h-15.154l19.063 56.493h12.009L157.803.863zM170.364.863l-20.07 56.493h15.291l3.528-10.585h16.766l3.457 10.585h15.347L185.154.863h-14.79zm11.238 32.908h-8.131l4.066-12.197 4.065 12.197zM253.985 49.055c-.238-12.779-.479-16.348-4.855-19.074 4.277-2.852 6.44-7.186 6.44-12.932 0-7.824-4.233-16.186-16.113-16.186h-30.155v56.493h14.801v-20.81h10.385c3.994 0 4.697 1.375 4.697 4.264 0 .901-.025 1.313-.054 1.782-.042.698-.09 1.489-.09 3.763 0 4.924.262 6.939 1.898 9.955l.568 1.046h14.783v-5.111l-1.016-.574c-.936-.528-1.289-.888-1.289-2.616zm-29.882-35.19h11.033c4.295 0 5.632.647 5.632 4.695 0 4.265-1.406 4.985-5.632 4.985h-11.033v-9.68zM280.307.863l-20.071 56.493h15.291l3.529-10.585h16.765l3.456 10.585h15.349L295.096.863h-14.789zm11.237 32.908h-8.131l4.065-12.197 4.066 12.197zM352.148.863h-10.8v56.493h14.8V32.028l5.842 25.328h13.989l5.692-25.063v25.063h14.801V.863H376.592l-7.641 34.619L361.072.863zM422.244 34.746h25.13v-13h-25.13v-7.881h27.147V.863h-41.948v56.493h43.244V44.355h-28.443zM481.373.863h-22.521v56.493h22.521c8.588 0 14.17-2.11 18.083-6.822 4.441-5.206 6.887-12.827 6.887-21.46 0-8.556-2.442-16.173-6.87-21.44-3.942-4.745-9.355-6.771-18.1-6.771zm-7.721 13.002h7.721c4.365 0 10.169 1.584 10.169 15.281 0 13.633-5.804 15.209-10.169 15.209h-7.721v-30.49zM514.867.863h14.801v56.493h-14.801zM570.494.863h-14.789l-20.071 56.493h15.292l3.528-10.585h16.765l3.456 10.585h15.349L570.494.863zm-3.551 32.908h-8.132l4.065-12.197 4.067 12.197z"/></g></svg>