<svg aria-label="Novara Media" version="1.1" id="logomark" xmlns="http://www.w3.org/2000/svg" x="0" y="0" viewBox="0 0 226.6 17" xml:space="preserve"><path d="M0 16.7V.3h6.8l5.6 6.6V.3h6.9v16.4H12l-5.1-5.8v5.8H0zm6.1-7.9l6.3 7.1h6.1V1.1h-5.3v8l-6.8-8H.8v14.8h5.3V8.8zM31.7 17c-2.7 0-5.3-.9-7.2-2.5-1.9-1.6-3-3.8-3-6 0-2.3 1.1-4.4 3-6C26.4.9 29 0 31.7 0s5.3.9 7.2 2.5c1.9 1.6 3 3.8 3 6 0 2.3-1.1 4.4-3 6-2 1.6-4.5 2.5-7.2 2.5zm0-16.2c-2.5 0-4.9.8-6.7 2.3-1.8 1.5-2.7 3.4-2.7 5.4 0 2 1 4 2.7 5.4 1.8 1.5 4.2 2.3 6.7 2.3 5.2 0 9.4-3.5 9.4-7.7 0-2-1-4-2.7-5.4C36.6 1.6 34.2.8 31.7.8zm0 12.8c-1 0-1.9-.6-2.5-1.5-.6-.9-1-2.2-1-3.5 0-1.3.3-2.6 1-3.5.7-1 1.6-1.5 2.5-1.5 1 0 1.9.5 2.5 1.5.6.9 1 2.2 1 3.5 0 1.3-.4 2.6-1 3.5-.7.9-1.6 1.5-2.5 1.5zm0-9.4c-.7 0-1.4.4-1.9 1.2-.5.8-.9 1.9-.9 3.1 0 1.2.3 2.3.9 3.1.5.8 1.2 1.2 1.9 1.2s1.4-.4 1.9-1.2c.5-.8.9-1.9.9-3.1 0-1.2-.3-2.3-.9-3.1-.6-.8-1.2-1.2-1.9-1.2zm22.7 12.5h-6.2L42.2.3h7l2.1 6.6L53.4.3h7l-6 16.4zm-5.7-.8h5.1l5.4-14.8h-5.3l-2.7 8.4-2.7-8.4h-5.3l5.5 14.8zm31.6.8h-7l-1.1-2.9H67l-1.1 2.9h-7l6-16.4h9.5l5.9 16.4zm-6.4-.8h5.3L73.8 1.1h-8.4L60 15.9h5.3l1.1-2.9h6.4l1.1 2.9zm-2-5.6h-4.5l2.3-6.2 2.2 6.2zm-3.4-.8h2.3l-1.1-3.1-1.2 3.1zm53.9 7.2h-7l-1.1-2.9H109l-1.1 2.9h-7l6-16.4h9.5l6 16.4zm-6.4-.8h5.3l-5.4-14.8h-8.4l-5.4 14.8h5.3l1.1-2.9h6.4l1.1 2.9zm-2-5.6h-4.5l2.3-6.2 2.2 6.2zm-3.4-.8h2.3l-1.1-3.1-1.2 3.1zm-28.5 7.2V.3h.4c.4 0 1 0 1.5-.1h.5c.8 0 2-.1 6.1 0 2.6 0 4.5.4 6 1.1 1.2.6 2 1.4 2.5 2.5.5 1 .6 1.9.3 2.8-.4 1.1-1.4 2-2.9 2.7l3.4 6.8.3.6h-7.8l-.4-.2c-.8-1.5-1.5-3.1-2.3-4.6l-.4-.9H89v5.7h-6.9zm6.1-6.5h1.5l.6 1.3c.7 1.5 1.5 2.9 2.2 4.4h6.2c-1.2-2.3-2.2-4.5-3.3-6.6l-.2-.4.4-.2c1.5-.7 2.5-1.5 2.8-2.4.2-.7.2-1.4-.2-2.2C96.9 1.4 93.4 1 90.5 1h-7.6v14.8h5.3v-5.6zm3.1-2.6h-3.1V4.1h3.2v.1c.7.2 1.3.9 1.3 1.7 0 .8-.6 1.5-1.4 1.7zM89 6.8h2c.5 0 .9-.4.9-.9S91.5 5 91 5h-2v1.8zm137.6 9.9h-7l-1.1-2.9h-5.3l-1.1 2.9h-7l6-16.4h9.5l6 16.4zm-6.4-.8h5.3l-5.4-14.8h-8.4l-5.4 14.8h5.3l1.1-2.9h6.4l1.1 2.9zm-2-5.6h-4.5l2.3-6.2 2.2 6.2zm-3.4-.7h2.3L216 6.5l-1.2 3.1zm-42 7.1h-15.4l.1-16.4h15.4V5h-8.5v1.6h7.2v3.9h-7.2v1.6h8.5v4.6zm-14.6-.8H172v-3.1h-8.5V9.7h7.2V7.4h-7.2V4.1h8.5v-3h-13.8v14.8zm24.6.8H176V.3h6.8c3.2 0 5.9.6 7.8 1.9 1.1.7 1.9 1.5 2.4 2.6.6 1.1.9 2.4.9 3.8 0 3.2-.8 5.2-2.5 6.4-1.6 1.1-4.3 1.7-8.6 1.7zm-6-.8h6c4.2 0 6.7-.5 8.3-1.6 1.5-1.1 2.1-2.9 2.1-5.8 0-2.5-1-4.4-3-5.7-1.8-1.1-4.3-1.7-7.4-1.7h-6v14.8zm7.4-3.1h-2.1V4.2h2.1c.9.3 1.7.9 2.2 1.6s.9 1.7.9 2.6c0 1-.3 1.9-.9 2.6-.5.9-1.2 1.5-2.2 1.8zm-1.3-.8h1.1c1.5-.5 2.5-1.9 2.5-3.5s-1-3-2.5-3.5h-1.1v7zm13.3 4.7V.3h6.9v16.4h-6.9zm.8-15.6v14.8h5.3V1.1H197zm-49.8 15.6V9.4l-3.5 7.3h-4l-3.5-7.3v7.3h-6.9V.3h10.4l2 4.9 2-4.9h10.4v16.4h-6.9zm-7.1-.8h3l4.1-8.4.8.2v8.2h5.3V1.1h-9.1l-2.6 6.1-2.6-6.1h-9.1v14.8h5.3V7.7l.8-.2 4.1 8.4z" fill="#fff"/></svg>