<svg xmlns="http://www.w3.org/2000/svg" xml:space="preserve" id="logomark" x="0" y="0" version="1.1" viewBox="0 0 236.7 17"><path d="M13 .3v7.6L6.5.3H0v16.4h6.4V9.9l6 6.8h7V.3zM32.8 0c-5.7 0-10.3 3.8-10.3 8.5S27.1 17 32.8 17s10.3-3.8 10.3-8.5S38.5 0 32.8 0m0 13.4c-1.8 0-3.3-2.2-3.3-4.9s1.5-4.9 3.3-4.9 3.3 2.2 3.3 4.9-1.5 4.9-3.3 4.9M55.9.3l-2.5 7.9L50.8.3h-6.4l6 16.4h5.9l6-16.4zm21.4 0H68l-6 16.4h6.4l1.1-3.1h6.2l1.1 3.1h6.4zM70.9 10l1.8-4.9 1.8 4.9zM121.5.3h-9.4l-6 16.4h6.4l1.1-3.1h6.2l1.1 3.1h6.4zM115 10l1.8-4.9 1.8 4.9zm-14.9-.9c3.1-1.3 4-3.2 2.9-5.4-.9-1.8-2.8-3.5-8.5-3.6-5.2-.1-5.8 0-6.9.1-.5 0-1.1 0-1.6.1v16.3h6.4v-6h1l3 6h7.4c-1.2-2.5-2.4-4.9-3.7-7.5m-5.1-2h-2.5V4.3H95c.7 0 1.3.6 1.3 1.4.1.8-.5 1.4-1.3 1.4M230.7.3h-9.3l-6 16.4h6.4l1.1-3.1h6.2l1.1 3.1h6.4zm-6.4 9.7 1.8-4.9 1.8 4.9zm-43.8-5.6V.3h-15.3l-.1 16.4h15.3v-4.1h-8.8v-2.5h7.5V6.8h-7.5V4.4zm22.1 4.1c0-5.9-5.1-8.2-11.3-8.2h-6.7v16.4h6.7c8.6 0 11.3-2.1 11.3-8.2m-9.9 4.1H191V4.4h1.7c1.8.6 3 2.2 3 4.1 0 1.8-1.2 3.5-3 4.1M205.8.3h6.4v16.4h-6.4zM148.1 6l2.4-5.7h10.3v16.4h-6.4V7.6l-4.4 9.1h-3.7l-4.4-9.1v9.1h-6.4V.3h10.2z" style="fill:#fff"/></svg>