<svg xmlns="http://www.w3.org/2000/svg" xml:space="preserve" id="Layer_1" x="0" y="0" version="1.1" viewBox="0 0 3293 1629"><style>.lt0{fill-rule:evenodd;clip-rule:evenodd;fill:#fff;fill-opacity:.9}</style><path d="M285.5 250h245.7l256.6 441.2V250h262.1v441.2L1306.6 250h251.2v902.2h-262.1V761.9L1039 1152.2H804.2L547.6 761.9v390.3H285.5zm196.6 308.3L834.2 1090h155.6V312.2h-142v608.1L495.7 312.2H342.8V1090H482V558.3z" class="lt0"/><path d="M3042 1378.5H250v-127.3h2792zM1642 683.7 1802.7 511v644.8h241v-904h-220.9L1642 452.7z" style="fill:#fff;fill-opacity:.9"/><path d="M3007.8 703.8c0 249.6-202.3 451.9-451.9 451.9S2104 953.4 2104 703.8s202.3-451.9 451.9-451.9 451.9 202.3 451.9 451.9m-241 0c0 116.5-94.4 210.9-210.9 210.9S2345 820.3 2345 703.8s94.4-210.9 210.9-210.9 210.9 94.4 210.9 210.9" class="lt0"/></svg>