<svg version="1.1" id="Layer_1" xmlns="http://www.w3.org/2000/svg" x="0" y="0" viewBox="0 0 3293 1629" style="enable-background:new 0 0 3293 1629" xml:space="preserve"><style>.lt0{fill-rule:evenodd;clip-rule:evenodd;fill:#fff;fill-opacity:.9}</style><path class="lt0" d="M285.5 250h245.7l256.6 441.2V250h262.1v441.2L1306.6 250h251.2v902.2h-262.1V761.9L1039 1152.2H804.2L547.6 761.9v390.3H285.5V250zm196.6 308.3L834.2 1090h155.6V312.2h-142v608.1L495.7 312.2H342.8V1090H482V558.3z"/><path d="M3042 1378.5H250v-127.3h2792v127.3zM1642 683.7 1802.7 511v644.8h241v-904h-220.9L1642 452.7v231z" style="fill:#fff;fill-opacity:.9"/><path class="lt0" d="M3007.8 703.8c0 249.6-202.3 451.9-451.9 451.9S2104 953.4 2104 703.8c0-249.6 202.3-451.9 451.9-451.9s451.9 202.3 451.9 451.9zm-241 0c0 116.5-94.4 210.9-210.9 210.9S2345 820.3 2345 703.8s94.4-210.9 210.9-210.9 210.9 94.4 210.9 210.9z"/></svg>