<svg version="1.1" id="Layer_1" xmlns="http://www.w3.org/2000/svg" x="0" y="0" viewBox="0 0 30 30" xml:space="preserve"><path d="M11.4 29.6c8 2 16.2-2.9 18.2-10.9S26.7 2.5 18.7.5 2.5 3.4.5 11.4c-2.1 8 2.8 16.1 10.9 18.2zm6.9-20.5c2.1.7 3.6 1.8 3.3 3.8-.2 1.5-1 2.2-2.1 2.4 1.5.8 2.2 1.9 1.5 4-.9 2.5-3 2.8-5.8 2.2l-.7 2.7-1.6-.4.7-2.7c-.4-.1-.9-.2-1.3-.3l-.7 2.7-1.6-.4.7-2.7c-.2 0-.3-.1-.5-.1-.2-.1-.5-.1-.7-.2l-2.1-.5.8-1.9 1.2.3c.5.1.7-.2.8-.4l1.1-4.3h.2c-.1 0-.1 0-.2-.1l.8-3.1c0-.3-.1-.8-.8-1l-1.2-.3.4-1.8 2.3.6c.3.1.7.2 1.1.2l.7-2.7 1.4.5-.7 2.6c.4.1.9.2 1.3.3l.7-2.5 1.7.4-.7 2.7zm-5.2 9.8c1.3.4 4.3 1.1 4.7-.7.5-1.9-2.4-2.6-3.8-2.9-.2 0-.3-.1-.4-.1l-.9 3.6c.2 0 .3 0 .4.1zm1.3-5.3c1.1.3 3.6 1 4-.8.4-1.7-1.9-2.3-3.1-2.5-.1 0-.2-.1-.3-.1l-.8 3.3s.1.1.2.1z" fill-rule="evenodd" clip-rule="evenodd" fill="#000300"/></svg>