<svg version="1.1" id="Layer_1" xmlns="http://www.w3.org/2000/svg" x="0" y="0" viewBox="0 0 124.2 30" xml:space="preserve"><style>.st0{fill:#8b8b8b}</style><path d="M46.4 6.7h-6.9c-.2 0-.4.1-.6.2-.2.1-.3.3-.3.6l-2.8 17.4v.2c0 .1.1.2.1.2.1.1.1.1.2.1s.2.1.2.1h3.3c.2 0 .4-.1.6-.2.2-.1.3-.3.3-.6l.7-4.7c0-.2.1-.4.3-.6.2-.1.4-.2.6-.2h2.2c4.5 0 7.1-2.2 7.8-6.5.3-1.9 0-3.4-.9-4.4-.7-1-2.5-1.6-4.8-1.6zm.8 6.4c-.4 2.4-2.3 2.4-4.1 2.4h-1l.7-4.6c0-.1.1-.3.2-.3s.2-.1.4-.1h.5c1.2 0 2.4 0 3 .7.4.4.5 1 .3 1.9zM67 13h-3.3c-.1 0-.3 0-.4.1-.1.1-.2.2-.2.3l-.1 1-.2-.3c-.7-1-2.3-1.4-3.9-1.4-3.6 0-6.7 2.7-7.3 6.5-.3 1.9.1 3.7 1.2 5 1 1.2 2.4 1.7 4.1 1.7 2.9 0 4.6-1.9 4.6-1.9l-.1.9v.2c0 .1.1.2.1.2.1.1.1.1.2.1s.2.1.2.1h3c.2 0 .4-.1.6-.2s.3-.3.3-.6l1.8-11.1v-.2c0-.1-.1-.2-.1-.2-.1-.1-.1-.1-.2-.1-.2-.1-.2-.1-.3-.1zm-4.6 6.3c-.3 1.9-1.8 3.1-3.7 3.1-1 0-1.7-.3-2.2-.9-.5-.5-.7-1.3-.5-2.2.3-1.8 1.8-3.1 3.7-3.1.9 0 1.7.3 2.2.9.4.5.6 1.3.5 2.2zM84.5 13h-3.3c-.2 0-.3 0-.4.1-.1.1-.3.2-.3.3L75.9 20 74 13.6c-.1-.2-.2-.4-.3-.5-.3 0-.5-.1-.7-.1h-3.2c-.1 0-.2 0-.3.1-.1 0-.2.1-.2.2-.1.1-.1.2-.1.2v.3l3.6 10.6-3.4 4.8c-.1.1-.1.2-.1.3 0 .1 0 .2.1.3 0 .1.1.2.2.2.1.1.2.1.3.1h3.3c.2 0 .3 0 .4-.1.1-.1.3-.2.3-.3l11-15.7c.1-.1.1-.2.1-.3 0-.1 0-.2-.1-.3 0-.1-.1-.2-.2-.2 0-.2-.1-.2-.2-.2z"/><path class="st0" d="M95.5 6.7h-6.9c-.2 0-.4.1-.6.2-.2.1-.3.3-.3.6l-2.8 17.4v.2c0 .1.1.2.1.2.1.1.1.1.2.1s.2.1.2.1h3.5c.2 0 .3-.1.4-.2.1-.1.2-.2.2-.4l.8-4.9c0-.2.1-.4.3-.6.2-.1.4-.2.6-.2h2.2c4.5 0 7.1-2.2 7.8-6.5.3-1.9 0-3.4-.9-4.4-.8-1-2.5-1.6-4.8-1.6zm.7 6.4c-.4 2.4-2.3 2.4-4.1 2.4h-1l.7-4.6c0-.1.1-.3.2-.3.1-.1.2-.1.4-.1h.5c1.2 0 2.4 0 3 .7.4.4.5 1 .3 1.9zM116 13h-3.3c-.1 0-.3 0-.4.1-.1.1-.2.2-.2.3l-.1.9-.2-.3c-.7-1-2.3-1.4-3.9-1.4-3.6 0-6.7 2.7-7.3 6.5-.3 1.9.1 3.7 1.2 5 1 1.2 2.4 1.7 4.1 1.7 2.9 0 4.6-1.9 4.6-1.9l-.1.9v.2c0 .1.1.2.1.2.1.1.1.1.2.1s.2.1.2.1h3c.2 0 .4-.1.6-.2.2-.1.3-.3.3-.6l1.8-11.1v-.2c0-.1-.1-.2-.1-.2-.1-.1-.1-.1-.2-.1h-.3zm-4.6 6.3c-.3 1.9-1.8 3.1-3.7 3.1-1 0-1.7-.3-2.2-.9-.5-.6-.7-1.4-.5-2.3.3-1.8 1.8-3.1 3.7-3.1.9 0 1.7.3 2.2.9.5.6.7 1.4.5 2.3zm8.5-12.1L117.1 25v.2c0 .1.1.2.1.2.1.1.1.1.2.1s.2.1.2.1h2.8c.5 0 .9-.3.9-.8l2.8-17.4v-.2c0-.1-.1-.2-.1-.2-.1-.1-.1-.1-.2-.1s-.2-.1-.2-.1h-3.2c-.1 0-.3 0-.4.1 0 0-.1.2-.1.3z"/><path d="M7.3 29l.5-3.3H1.1L5 1.3c0-.1 0-.1.1-.2 0-.1.1-.1.2-.1h9.4c3.1 0 5.3.6 6.4 1.9.5.6.9 1.2 1 1.9.2.7.2 1.6 0 2.6v.8l.5.3c.4.2.8.5 1.1.8.5.5.7 1.2.9 1.9.1.8.1 1.7-.1 2.8-.2 1.2-.6 2.3-1.2 3.2-.5.8-1.1 1.5-1.8 2s-1.5.9-2.5 1.1c-.9.2-1.9.4-3.1.4h-.7c-.5 0-1 .2-1.4.5-.4.3-.7.8-.7 1.3l-.1.3-1 5.8v.2c0 .1 0 .1-.1.1H7.3z"/><path class="st0" d="M23.2 7.6c0 .2-.1.4-.1.5-1.2 6.3-5.5 8.5-10.9 8.5H9.4c-.7 0-1.2.5-1.3 1.1l-1.4 8.9-.4 2.5v.3c0 .1.1.2.1.3l.2.2c.1.1.2.1.3.1h4.9c.6 0 1.1-.4 1.2-1v-.2l1-5.8.1-.3c.1-.6.6-1 1.2-1h.7c4.8 0 8.5-1.9 9.6-7.4.5-2.3.2-4.2-1-5.6-.5-.5-.9-.8-1.4-1.1z"/><path d="M21.9 7.1l-1.2-.3c-.8-.1-1.6-.2-2.4-.2h-7.4c-.3 0-.6.1-.8.3-.3.2-.4.5-.4.8l-1.6 9.8v.3c0-.3.2-.6.5-.8.2-.2.6-.3.9-.3h2.8c5.4 0 9.7-2.2 10.9-8.5 0-.2.1-.4.1-.5-.3-.2-.7-.3-1-.4-.3-.1-.3-.2-.4-.2z" fill="#292929"/><path d="M9.7 7.7c0-.3.2-.5.4-.7.2-.2.5-.3.8-.3h7.4c.9 0 1.7.1 2.4.2.5.1 1 .2 1.5.4.4.1.7.3 1 .4.4-2.3 0-3.9-1.3-5.4C20.5.7 17.9 0 14.7 0H5.3C4.6 0 4 .5 3.9 1.1L0 25.7v.3c0 .1.1.2.2.3.1.1.2.2.3.2.1 0 .2.1.3.1h5.8l1.5-9.2 1.6-9.7z"/></svg>