<svg version="1.1" id="Layer_1" xmlns="http://www.w3.org/2000/svg" x="0" y="0" viewBox="0 0 94 30" xml:space="preserve"><path d="M44.2 6.3h4.9s4.8-.1 4.8 4.2c0 3.2-4.7 3.7-4.7 3.7h-5V6.3zm14.6 15.5c.1.6.6 1.3 2.1 1.4 2 0 3.2-.7 3.2-.7V24s-2.2.5-3.3.5c-1.1 0-4.4-.2-4.4-3.3 0-2.5 2.7-3.2 4.3-3.2 2.7.1 4 1.1 4 3.8 0 .1-4.5 0-5.9 0zm0-1.2h3.7s0-1.4-1.8-1.4c-1.3 0-1.8.8-1.9 1.4zm11.8-1.5c.5-.6 1.4-1 3-1 3 0 3.5 2.5 3.5 3.2 0 .7-.3 3.2-3.8 3.2-1.3 0-2.1-.4-2.6-1v.8h-2.4v-8.7h2.4l-.1 3.5zm2.1 4c1.4 0 2-1.2 2-1.8 0-.6-.3-1.8-2.1-1.8-1.4 0-1.8 1-2 1.6v.6c.2.5.6 1.4 2.1 1.4zm20.6-.2v1.3s-1.1.2-1.9.2c-.7 0-2.6-.4-2.6-2.3v-2.8h-2v-1.2h2v-1.5h2.4v1.5h2v1.2h-2v2.4s0 1.2 1 1.2c1.1.1 1.1 0 1.1 0zM85.9 7.6h2.8v6.7h2.4V7.6H94V6.2h-8.1v1.4zm-1 .3l.3-1.4S84 6 81.8 6c-2.1 0-5.5 1.2-5.5 4.3 0 3.1 3.6 4.1 5.8 4.1s2.9-.3 2.9-.3l-.2-1.5s-1 .3-2.6.3-3.3-1.3-3.3-2.7c0-1.2 1.5-2.6 3.4-2.6 1.5-.1 2.6.3 2.6.3zM63.4 6.3s4-.2 4 2.1c0 2-2.3 2.1-2.3 2.1s.6.1.9.5c.2.4 1.9 3.3 1.9 3.3h-2.4s-.4-.5-.6-.8c-.1-.3-.6-1.1-.6-1.1s-.3-1.2-1.5-1.2h-.9v3.1h-2.3v-8h3.8zm-1.5 3.6h1.3s1.8-.1 1.9-1.2c0-1-1.7-1.2-1.7-1.2H62v2.4h-.1zm9.8 1.2h3.9V9.6h-3.9V7.8h4.2V6.3h-6.6v8H76v-1.4h-4.3v-1.8zm9.5 6.2h2.4v-1.6h-2.4v1.6zm0 7h2.4v-6.1h-2.4v6.1zm-26.1-10h2.3v-8h-2.3v8zm-10.9 2h4.9s4.8-.1 4.8 4.2c0 3.2-4.7 3.7-4.7 3.7h-5v-7.9zm2.4 6.4h1.6s3.2-.2 3.2-2.6c0-2.5-3.4-2.7-3.4-2.7h-1.4v5.3zm0-10h1.6s3.2-.2 3.2-2.6c0-2.5-3.4-2.7-3.4-2.7h-1.4v5.3zm-24.3-1.6v16.1s-9.5-1.7-9.5-8.1c.1-5.1 7.1-7.4 9.5-8zm0-.3c-5.7-.4-18.6 2.2-18.6 8 0 3.7 6.8 9.2 17.9 9.4.4 0 13.1-.5 12.9-13.8C34.4 3.1 25.9 1.1 23.2.7V.1C34 .7 42.6 7.2 42.6 15c0 8.3-9.6 15-21.3 15C9.5 30 0 23.3 0 15S9.5 0 21.3 0h1.1l-.1 10.8z" fill-rule="evenodd" clip-rule="evenodd"/></svg>