<?xml version="1.0" encoding="utf-8"?>
<!-- Generator: Adobe Illustrator 21.1.0, SVG Export Plug-In . SVG Version: 6.00 Build 0)  -->
<svg aria-label="Novara Media" version="1.1" id="logomark" xmlns="http://www.w3.org/2000/svg" xmlns:xlink="http://www.w3.org/1999/xlink" x="0px" y="0px"
	 viewBox="0 0 226.6 17" style="enable-background:new 0 0 226.6 17;" xml:space="preserve">
<style type="text/css">
	.st0{fill:#FFFFFF;}
</style>
<g>
	<g>
		<g>
			<path class="st0" d="M0,16.7L0,0.3l6.8,0l5.6,6.6V0.3h6.9v16.4l-7.3,0l-5.1-5.8l0,5.8L0,16.7z M6.1,8.8l6.3,7.1l6.1,0V1.1h-5.3v8
				l-6.8-8l-5.6,0l0,14.8l5.3,0L6.1,8.8z"/>
		</g>
		<g>
			<path class="st0" d="M31.7,17c-2.7,0-5.3-0.9-7.2-2.5c-1.9-1.6-3-3.8-3-6c0-2.3,1.1-4.4,3-6C26.4,0.9,29,0,31.7,0
				c2.7,0,5.3,0.9,7.2,2.5c1.9,1.6,3,3.8,3,6c0,2.3-1.1,4.4-3,6C36.9,16.1,34.4,17,31.7,17z M31.7,0.8c-2.5,0-4.9,0.8-6.7,2.3
				c-1.8,1.5-2.7,3.4-2.7,5.4c0,2,1,4,2.7,5.4c1.8,1.5,4.2,2.3,6.7,2.3c5.2,0,9.4-3.5,9.4-7.7c0-2-1-4-2.7-5.4
				C36.6,1.6,34.2,0.8,31.7,0.8z M31.7,13.6L31.7,13.6c-1,0-1.9-0.6-2.5-1.5c-0.6-0.9-1-2.2-1-3.5c0-1.3,0.3-2.6,1-3.5
				c0.7-1,1.6-1.5,2.5-1.5c0,0,0,0,0,0c1,0,1.9,0.5,2.5,1.5c0.6,0.9,1,2.2,1,3.5c0,1.3-0.4,2.6-1,3.5C33.5,13,32.6,13.6,31.7,13.6z
				 M31.7,4.2C31.7,4.2,31.7,4.2,31.7,4.2c-0.7,0-1.4,0.4-1.9,1.2c-0.5,0.8-0.9,1.9-0.9,3.1c0,1.2,0.3,2.3,0.9,3.1
				c0.5,0.8,1.2,1.2,1.9,1.2c0.7,0,1.4-0.4,1.9-1.2c0.5-0.8,0.9-1.9,0.9-3.1c0-1.2-0.3-2.3-0.9-3.1C33,4.6,32.4,4.2,31.7,4.2z"/>
		</g>
		<g>
			<path class="st0" d="M54.4,16.7l-6.2,0l-6-16.4h7l2.1,6.6l2.1-6.6l7,0L54.4,16.7z M48.7,15.9l5.1,0l5.4-14.8l-5.3,0l-2.7,8.4
				l-2.7-8.4h-5.3L48.7,15.9z"/>
		</g>
		<g>
			<path class="st0" d="M80.3,16.7h-7l-1.1-2.9H67l-1.1,2.9h-7l6-16.4h9.5L80.3,16.7z M73.9,15.9h5.3L73.8,1.1h-8.4l-5.4,14.8h5.3
				l1.1-2.9h6.4L73.9,15.9z M71.9,10.3h-4.5l2.3-6.2L71.9,10.3z M68.5,9.5h2.3l-1.1-3.1L68.5,9.5z"/>
		</g>
		<g>
			<path class="st0" d="M122.4,16.7h-7l-1.1-2.9h-5.3l-1.1,2.9h-7l6-16.4h9.5L122.4,16.7z M116,15.9h5.3l-5.4-14.8h-8.4l-5.4,14.8
				h5.3l1.1-2.9h6.4L116,15.9z M114,10.3h-4.5l2.3-6.2L114,10.3z M110.6,9.5h2.3l-1.1-3.1L110.6,9.5z"/>
		</g>
		<g>
			<path class="st0" d="M82.1,16.7v-0.4c0-5.1,0-10.4,0-15.6l0-0.4l0.4,0c0.4,0,1,0,1.5-0.1c0.2,0,0.3,0,0.5,0c0.8,0,2-0.1,6.1,0
				c2.6,0,4.5,0.4,6,1.1c1.2,0.6,2,1.4,2.5,2.5c0.5,1,0.6,1.9,0.3,2.8c-0.4,1.1-1.4,2-2.9,2.7c1.1,2.2,2.2,4.4,3.4,6.8l0.3,0.6h-0.6
				c-1.2,0-2.4,0-3.5,0c-1.2,0-2.4,0-3.5,0h-0.2L92,16.5c-0.8-1.5-1.5-3.1-2.3-4.6L89.3,11c-0.1,0-0.2,0-0.3,0c0,1.8,0,3.5,0,5.3
				l0,0.4l-2.5,0c-1.3,0-2.6,0-4,0L82.1,16.7z M88.2,10.2h0.4c0.3,0,0.6,0,0.9,0l0.2,0l0.6,1.3c0.7,1.5,1.5,2.9,2.2,4.4
				c1.1,0,2.2,0,3.3,0c1,0,1.9,0,2.9,0c-1.2-2.3-2.2-4.5-3.3-6.6l-0.2-0.4l0.4-0.2c1.5-0.7,2.5-1.5,2.8-2.4c0.2-0.7,0.2-1.4-0.2-2.2
				C96.9,1.4,93.4,1,90.5,1c-4.1,0-5.2,0-6,0c-0.2,0-0.3,0-0.5,0c-0.4,0-0.8,0-1.1,0c0,4.9,0,9.9,0,14.8c1.3,0,2.4,0,3.6,0l1.7,0
				c0-1.8,0-3.5,0-5.3V10.2z M91.3,7.6h-3.1l0-3.5h3.2v0.1c0.7,0.2,1.3,0.9,1.3,1.7C92.7,6.7,92.1,7.4,91.3,7.6L91.3,7.6z M89,6.8
				h1.7l0,0H91c0.5,0,0.9-0.4,0.9-0.9c0-0.5-0.4-0.9-0.9-0.9l-0.4,0v0H89L89,6.8z"/>
		</g>
	</g>
	<g>
		<g>
			<path class="st0" d="M226.6,16.7h-7l-1.1-2.9h-5.3l-1.1,2.9h-7l6-16.4h9.5L226.6,16.7z M220.2,15.9h5.3l-5.4-14.8h-8.4l-5.4,14.8
				h5.3l1.1-2.9h6.4L220.2,15.9z M218.2,10.3l-4.5,0l2.3-6.2L218.2,10.3z M214.8,9.6l2.3,0l-1.1-3.1L214.8,9.6z"/>
		</g>
		<g>
			<path class="st0" d="M172.8,16.7h-15.4l0.1-16.4h15.4v4.7l-8.5,0v1.6l7.2,0l0,3.9l-7.2,0l0,1.6l8.5,0V16.7z M158.2,15.9H172v-3.1
				l-8.5,0l0-3.1l7.2,0l0-2.3l-7.2,0V4.1l8.5,0V1.1h-13.8L158.2,15.9z"/>
		</g>
		<g>
			<path class="st0" d="M182.8,16.7l-6.8,0l0-16.4h6.8c3.2,0,5.9,0.6,7.8,1.9c1.1,0.7,1.9,1.5,2.4,2.6c0.6,1.1,0.9,2.4,0.9,3.8
				c0,3.2-0.8,5.2-2.5,6.4C189.8,16.1,187.1,16.7,182.8,16.7L182.8,16.7z M176.8,15.9l6,0l0,0c4.2,0,6.7-0.5,8.3-1.6
				c1.5-1.1,2.1-2.9,2.1-5.8c0-2.5-1-4.4-3-5.7c-1.8-1.1-4.3-1.7-7.4-1.7h-6L176.8,15.9z M184.2,12.8h-2.1l0-0.4V4.2h2l0.1,0
				c0.9,0.3,1.7,0.9,2.2,1.6s0.9,1.7,0.9,2.6c0,1-0.3,1.9-0.9,2.6C185.9,11.9,185.2,12.5,184.2,12.8L184.2,12.8z M182.9,12h1.1
				c1.5-0.5,2.5-1.9,2.5-3.5c0-1.6-1-3-2.5-3.5h-1.1V12z"/>
		</g>
		<g>
			<path class="st0" d="M196.2,16.7l0-16.4h6.9l0,16.4L196.2,16.7z M197,1.1l0,14.8l5.3,0l0-14.8H197z"/>
		</g>
		<g>
			<path class="st0" d="M147.2,16.7V9.4l-3.5,7.3h-4l-3.5-7.3l0,7.3l-6.9,0V0.3l10.4,0l2,4.9l2-4.9l10.4,0v16.4L147.2,16.7z
				 M140.1,15.9h3l4.1-8.4l0.8,0.2v8.2l5.3,0V1.1l-9.1,0l-2.6,6.1l-2.6-6.1l-9.1,0v14.8l5.3,0l0-8.2l0.8-0.2L140.1,15.9z"/>
		</g>
	</g>
</g>
</svg>
