<?xml version="1.0" encoding="utf-8"?>
<!-- Generator: Adobe Illustrator 15.1.0, SVG Export Plug-In . SVG Version: 6.00 Build 0)  -->
<!DOCTYPE svg PUBLIC "-//W3C//DTD SVG 1.1//EN" "http://www.w3.org/Graphics/SVG/1.1/DTD/svg11.dtd">
<svg aria-label="NM logo" version="1.1" xmlns="http://www.w3.org/2000/svg" xmlns:xlink="http://www.w3.org/1999/xlink" x="0px" y="0px"
	 width="972.454px" height="791.961px" viewBox="13.773 104.019 972.454 791.961"
	 enable-background="new 13.773 104.019 972.454 791.961" xml:space="preserve">
<g>
	<path fill="#FFFFFF" d="M595.768,104.019H404.231l0,0l0,0v310.664L217.829,104.019H35.875l0,0l0,0v633.568l0,0h44.204H227.42l0,0
		l0,0V462.987L414.65,737.588h170.702l187.23-274.6l0,0v274.6l0,0h191.545l0,0l0,0V104.019l0,0l0,0H782.18L595.768,414.685V104.019
		 M183.218,319.688v373.695H80.078V148.223h112.729l255.626,426.05v-426.05h103.133v545.16H438.016L183.218,319.688z"/>
	<g>
		<polygon fill="#FFFFFF" points="986.227,895.98 13.773,895.98 13.773,807.574 986.227,807.574 		"/>
	</g>
</g>
</svg>
