<?xml version="1.0" encoding="utf-8"?>
<!-- Generator: Adobe Illustrator 21.1.0, SVG Export Plug-In . SVG Version: 6.00 Build 0)  -->
<svg version="1.1" id="logomark" xmlns="http://www.w3.org/2000/svg" xmlns:xlink="http://www.w3.org/1999/xlink" x="0px" y="0px"
	 viewBox="0 0 236.7 17" style="enable-background:new 0 0 236.7 17;" xml:space="preserve">
<style type="text/css">
	.st0{fill:#FFFFFF;}
</style>
<g>
	<g>
		<polygon class="st0" points="13,0.3 13,7.9 6.5,0.3 0,0.3 0,16.7 6.4,16.7 6.4,9.9 12.4,16.7 19.4,16.7 19.4,0.3 		"/>
		<path class="st0" d="M32.8,0c-5.7,0-10.3,3.8-10.3,8.5c0,4.7,4.6,8.5,10.3,8.5c5.7,0,10.3-3.8,10.3-8.5C43.1,3.8,38.5,0,32.8,0z
			 M32.8,13.4c-1.8,0-3.3-2.2-3.3-4.9c0-2.7,1.5-4.9,3.3-4.9c1.8,0,3.3,2.2,3.3,4.9C36.1,11.2,34.6,13.4,32.8,13.4z"/>
		<polygon class="st0" points="55.9,0.3 53.4,8.2 50.8,0.3 44.4,0.3 50.4,16.7 53.4,16.7 56.3,16.7 62.3,0.3 		"/>
		<path class="st0" d="M77.3,0.3H68l-6,16.4h6.4l1.1-3.1h6.2l1.1,3.1h6.4L77.3,0.3z M70.9,10l1.8-4.9l1.8,4.9H70.9z"/>
		<path class="st0" d="M121.5,0.3h-9.4l-6,16.4h6.4l1.1-3.1h6.2l1.1,3.1h6.4L121.5,0.3z M115,10l1.8-4.9l1.8,4.9H115z"/>
		<path class="st0" d="M100.1,9.1c3.1-1.3,4-3.2,2.9-5.4c-0.9-1.8-2.8-3.5-8.5-3.6c-5.2-0.1-5.8,0-6.9,0.1c-0.5,0-1.1,0-1.6,0.1
			c0,5.4,0,11,0,16.3c2.3,0,4.2,0,6.4,0c0-2,0-4,0-6c0.3,0,0.6,0,1,0c1,2,2,4,3,6c2.5,0,5,0,7.4,0C102.6,14.1,101.4,11.7,100.1,9.1z
			 M95,7.1L95,7.1l-2.5,0l0-2.8H95v0c0.7,0,1.3,0.6,1.3,1.4C96.4,6.5,95.8,7.1,95,7.1z"/>
	</g>
	<g>
		<path class="st0" d="M230.7,0.3h-9.3l-6,16.4h6.4l1.1-3.1h6.2l1.1,3.1h6.4L230.7,0.3z M224.3,10l1.8-4.9l1.8,4.9L224.3,10z"/>
		<polygon class="st0" points="180.5,4.4 180.5,0.3 165.2,0.3 165.1,16.7 180.4,16.7 180.4,12.6 171.6,12.6 171.6,10.1 179.1,10.1 
			179.1,6.8 171.6,6.8 171.6,4.4 		"/>
		<path class="st0" d="M202.6,8.5c0-5.9-5.1-8.2-11.3-8.2h0h-6.7l0,16.4l6.7,0l0,0C199.9,16.7,202.6,14.6,202.6,8.5z M192.7,12.6
			H191h0V4.4h1.7c1.8,0.6,3,2.2,3,4.1C195.7,10.3,194.5,12,192.7,12.6z"/>
		<rect x="205.8" y="0.3" class="st0" width="6.4" height="16.4"/>
		<polyline class="st0" points="148.1,6 150.5,0.3 160.8,0.3 160.8,16.7 154.4,16.7 154.4,7.6 150,16.7 146.3,16.7 141.9,7.6 
			141.9,16.7 135.5,16.7 135.5,0.3 145.7,0.3 148.1,6 		"/>
	</g>
</g>
</svg>
