<?xml version="1.0" encoding="utf-8"?>
<!-- Generator: Adobe Illustrator 24.3.0, SVG Export Plug-In . SVG Version: 6.00 Build 0)  -->
<svg version="1.1" id="Layer_1" xmlns="http://www.w3.org/2000/svg" xmlns:xlink="http://www.w3.org/1999/xlink" x="0px" y="0px"
	 viewBox="0 0 3293 1629" style="enable-background:new 0 0 3293 1629;" xml:space="preserve">
<style type="text/css">
	.lt0{fill-rule:evenodd;clip-rule:evenodd;fill:#FFFFFF;fill-opacity:0.9;}
	.lt1{fill:#FFFFFF;fill-opacity:0.9;}
</style>
<g>
	<path class="lt0" d="M285.5,250h245.7l256.6,441.2V250h262.1v441.2L1306.6,250h251.2v902.2h-262.1V761.9L1039,1152.2H804.2
		L547.6,761.9v390.3H285.5V250z M482.1,558.3L834.2,1090h155.6V312.2h-142v608.1L495.7,312.2H342.8V1090h139.2V558.3z"/>
	<path class="lt1" d="M3042,1378.5H250v-127.3h2792V1378.5z"/>
	<path class="lt1" d="M1642,683.7l160.7-172.7v644.8h241V251.8h-220.9L1642,452.7V683.7z"/>
	<path class="lt0" d="M3007.8,703.8c0,249.6-202.3,451.9-451.9,451.9S2104,953.4,2104,703.8c0-249.6,202.3-451.9,451.9-451.9
		S3007.8,454.2,3007.8,703.8z M2766.8,703.8c0,116.5-94.4,210.9-210.9,210.9S2345,820.3,2345,703.8s94.4-210.9,210.9-210.9
		S2766.8,587.3,2766.8,703.8z"/>
</g>
</svg>
