<?xml version="1.0" encoding="utf-8"?>
<!-- Generator: Adobe Illustrator 24.3.0, SVG Export Plug-In . SVG Version: 6.00 Build 0)  -->
<svg version="1.1" id="Layer_1" xmlns="http://www.w3.org/2000/svg" xmlns:xlink="http://www.w3.org/1999/xlink" x="0px" y="0px"
	 viewBox="0 0 30 30" style="enable-background:new 0 0 30 30;" xml:space="preserve">
<style type="text/css">
	.st0{fill-rule:evenodd;clip-rule:evenodd;fill:#000300;}
</style>
<path class="st0" d="M11.4,29.6c8,2,16.2-2.9,18.2-10.9h0c2-8-2.9-16.2-10.9-18.2c-8-2-16.2,2.9-18.2,10.9
	C-1.6,19.4,3.3,27.5,11.4,29.6z M18.3,9.1c2.1,0.7,3.6,1.8,3.3,3.8h0c-0.2,1.5-1,2.2-2.1,2.4c1.5,0.8,2.2,1.9,1.5,4
	c-0.9,2.5-3,2.8-5.8,2.2l-0.7,2.7l-1.6-0.4l0.7-2.7c-0.4-0.1-0.9-0.2-1.3-0.3l-0.7,2.7l-1.6-0.4l0.7-2.7c-0.2,0-0.3-0.1-0.5-0.1
	c-0.2-0.1-0.5-0.1-0.7-0.2l-2.1-0.5l0.8-1.9c0,0,1.2,0.3,1.2,0.3c0.5,0.1,0.7-0.2,0.8-0.4l1.1-4.3l0.2,0c-0.1,0-0.1,0-0.2-0.1
	l0.8-3.1c0-0.3-0.1-0.8-0.8-1c0,0-1.2-0.3-1.2-0.3l0.4-1.8l2.3,0.6l0,0c0.3,0.1,0.7,0.2,1.1,0.2l0.7-2.7L16,5.6l-0.7,2.6
	c0.4,0.1,0.9,0.2,1.3,0.3L17.3,6L19,6.4L18.3,9.1z M13.1,18.9c1.3,0.4,4.3,1.1,4.7-0.7h0c0.5-1.9-2.4-2.6-3.8-2.9
	c-0.2,0-0.3-0.1-0.4-0.1l-0.9,3.6C12.9,18.8,13,18.8,13.1,18.9z M14.4,13.6c1.1,0.3,3.6,1,4-0.8c0.4-1.7-1.9-2.3-3.1-2.5
	c-0.1,0-0.2-0.1-0.3-0.1l-0.8,3.3C14.2,13.5,14.3,13.6,14.4,13.6z"/>
</svg>
