<?xml version="1.0" encoding="utf-8"?>
<!-- Generator: Adobe Illustrator 24.3.0, SVG Export Plug-In . SVG Version: 6.00 Build 0)  -->
<svg version="1.1" id="Layer_1" xmlns="http://www.w3.org/2000/svg" xmlns:xlink="http://www.w3.org/1999/xlink" x="0px" y="0px"
	 viewBox="0 0 124.2 30" style="enable-background:new 0 0 124.2 30;" xml:space="preserve">
<style type="text/css">
	.st0{fill:#8B8B8B;}
	.st1{fill:#292929;}
</style>
<path d="M46.4,6.7h-6.9c-0.2,0-0.4,0.1-0.6,0.2c-0.2,0.1-0.3,0.3-0.3,0.6l-2.8,17.4c0,0.1,0,0.2,0,0.2c0,0.1,0.1,0.2,0.1,0.2
	c0.1,0.1,0.1,0.1,0.2,0.1c0.1,0,0.2,0.1,0.2,0.1h3.3c0.2,0,0.4-0.1,0.6-0.2c0.2-0.1,0.3-0.3,0.3-0.6l0.7-4.7c0-0.2,0.1-0.4,0.3-0.6
	c0.2-0.1,0.4-0.2,0.6-0.2h2.2c4.5,0,7.1-2.2,7.8-6.5c0.3-1.9,0-3.4-0.9-4.4C50.5,7.3,48.7,6.7,46.4,6.7L46.4,6.7z M47.2,13.1
	c-0.4,2.4-2.3,2.4-4.1,2.4h-1l0.7-4.6c0-0.1,0.1-0.3,0.2-0.3s0.2-0.1,0.4-0.1h0.5c1.2,0,2.4,0,3,0.7C47.3,11.6,47.4,12.2,47.2,13.1
	L47.2,13.1z M67,13h-3.3c-0.1,0-0.3,0-0.4,0.1c-0.1,0.1-0.2,0.2-0.2,0.3L63,14.4l-0.2-0.3c-0.7-1-2.3-1.4-3.9-1.4
	c-3.6,0-6.7,2.7-7.3,6.5c-0.3,1.9,0.1,3.7,1.2,5c1,1.2,2.4,1.7,4.1,1.7c2.9,0,4.6-1.9,4.6-1.9l-0.1,0.9c0,0.1,0,0.2,0,0.2
	c0,0.1,0.1,0.2,0.1,0.2c0.1,0.1,0.1,0.1,0.2,0.1c0.1,0,0.2,0.1,0.2,0.1h3c0.2,0,0.4-0.1,0.6-0.2s0.3-0.3,0.3-0.6l1.8-11.1
	c0-0.1,0-0.2,0-0.2c0-0.1-0.1-0.2-0.1-0.2c-0.1-0.1-0.1-0.1-0.2-0.1C67.1,13,67.1,13,67,13L67,13z M62.4,19.3
	c-0.3,1.9-1.8,3.1-3.7,3.1c-1,0-1.7-0.3-2.2-0.9C56,21,55.8,20.2,56,19.3c0.3-1.8,1.8-3.1,3.7-3.1c0.9,0,1.7,0.3,2.2,0.9
	C62.3,17.6,62.5,18.4,62.4,19.3L62.4,19.3z M84.5,13h-3.3c-0.2,0-0.3,0-0.4,0.1c-0.1,0.1-0.3,0.2-0.3,0.3l-4.6,6.6l-1.9-6.4
	c-0.1-0.2-0.2-0.4-0.3-0.5C73.4,13.1,73.2,13,73,13h-3.2c-0.1,0-0.2,0-0.3,0.1c-0.1,0-0.2,0.1-0.2,0.2c-0.1,0.1-0.1,0.2-0.1,0.2
	c0,0.1,0,0.2,0,0.3l3.6,10.6l-3.4,4.8c-0.1,0.1-0.1,0.2-0.1,0.3c0,0.1,0,0.2,0.1,0.3c0,0.1,0.1,0.2,0.2,0.2c0.1,0.1,0.2,0.1,0.3,0.1
	h3.3c0.2,0,0.3,0,0.4-0.1c0.1-0.1,0.3-0.2,0.3-0.3l11-15.7c0.1-0.1,0.1-0.2,0.1-0.3c0-0.1,0-0.2-0.1-0.3c0-0.1-0.1-0.2-0.2-0.2
	C84.7,13,84.6,13,84.5,13L84.5,13z"/>
<path class="st0" d="M95.5,6.7h-6.9c-0.2,0-0.4,0.1-0.6,0.2c-0.2,0.1-0.3,0.3-0.3,0.6l-2.8,17.4c0,0.1,0,0.2,0,0.2
	c0,0.1,0.1,0.2,0.1,0.2c0.1,0.1,0.1,0.1,0.2,0.1c0.1,0,0.2,0.1,0.2,0.1h3.5c0.2,0,0.3-0.1,0.4-0.2c0.1-0.1,0.2-0.2,0.2-0.4l0.8-4.9
	c0-0.2,0.1-0.4,0.3-0.6c0.2-0.1,0.4-0.2,0.6-0.2h2.2c4.5,0,7.1-2.2,7.8-6.5c0.3-1.9,0-3.4-0.9-4.4C99.5,7.3,97.8,6.7,95.5,6.7
	L95.5,6.7z M96.2,13.1c-0.4,2.4-2.3,2.4-4.1,2.4h-1l0.7-4.6c0-0.1,0.1-0.3,0.2-0.3c0.1-0.1,0.2-0.1,0.4-0.1h0.5c1.2,0,2.4,0,3,0.7
	C96.3,11.6,96.4,12.2,96.2,13.1L96.2,13.1z M116,13h-3.3c-0.1,0-0.3,0-0.4,0.1c-0.1,0.1-0.2,0.2-0.2,0.3l-0.1,0.9l-0.2-0.3
	c-0.7-1-2.3-1.4-3.9-1.4c-3.6,0-6.7,2.7-7.3,6.5c-0.3,1.9,0.1,3.7,1.2,5c1,1.2,2.4,1.7,4.1,1.7c2.9,0,4.6-1.9,4.6-1.9l-0.1,0.9
	c0,0.1,0,0.2,0,0.2c0,0.1,0.1,0.2,0.1,0.2c0.1,0.1,0.1,0.1,0.2,0.1c0.1,0,0.2,0.1,0.2,0.1h3c0.2,0,0.4-0.1,0.6-0.2
	c0.2-0.1,0.3-0.3,0.3-0.6l1.8-11.1c0-0.1,0-0.2,0-0.2c0-0.1-0.1-0.2-0.1-0.2c-0.1-0.1-0.1-0.1-0.2-0.1C116.2,13,116.1,13,116,13
	L116,13z M111.4,19.3c-0.3,1.9-1.8,3.1-3.7,3.1c-1,0-1.7-0.3-2.2-0.9c-0.5-0.6-0.7-1.4-0.5-2.3c0.3-1.8,1.8-3.1,3.7-3.1
	c0.9,0,1.7,0.3,2.2,0.9C111.4,17.6,111.6,18.4,111.4,19.3L111.4,19.3z M119.9,7.2l-2.8,17.8c0,0.1,0,0.2,0,0.2
	c0,0.1,0.1,0.2,0.1,0.2c0.1,0.1,0.1,0.1,0.2,0.1c0.1,0,0.2,0.1,0.2,0.1h2.8c0.5,0,0.9-0.3,0.9-0.8l2.8-17.4c0-0.1,0-0.2,0-0.2
	c0-0.1-0.1-0.2-0.1-0.2c-0.1-0.1-0.1-0.1-0.2-0.1c-0.1,0-0.2-0.1-0.2-0.1h-3.2c-0.1,0-0.3,0-0.4,0.1C120,6.9,119.9,7.1,119.9,7.2
	L119.9,7.2z"/>
<path d="M7.3,29l0.5-3.3l-1.2,0H1.1L5,1.3c0-0.1,0-0.1,0.1-0.2C5.1,1,5.2,1,5.3,1h9.4c3.1,0,5.3,0.6,6.4,1.9c0.5,0.6,0.9,1.2,1,1.9
	c0.2,0.7,0.2,1.6,0,2.6l0,0.1v0.7l0.5,0.3c0.4,0.2,0.8,0.5,1.1,0.8c0.5,0.5,0.7,1.2,0.9,1.9c0.1,0.8,0.1,1.7-0.1,2.8
	c-0.2,1.2-0.6,2.3-1.2,3.2c-0.5,0.8-1.1,1.5-1.8,2c-0.7,0.5-1.5,0.9-2.5,1.1c-0.9,0.2-1.9,0.4-3.1,0.4h-0.7c-0.5,0-1,0.2-1.4,0.5
	c-0.4,0.3-0.7,0.8-0.7,1.3L13,22.8L12,28.6l0,0.2c0,0.1,0,0.1-0.1,0.1c0,0-0.1,0-0.1,0H7.3z"/>
<path class="st0" d="M23.2,7.6c0,0.2-0.1,0.4-0.1,0.5c-1.2,6.3-5.5,8.5-10.9,8.5H9.4c-0.7,0-1.2,0.5-1.3,1.1l-1.4,8.9l-0.4,2.5
	c0,0.1,0,0.2,0,0.3c0,0.1,0.1,0.2,0.1,0.3c0.1,0.1,0.1,0.1,0.2,0.2C6.7,30,6.8,30,6.9,30h4.9c0.6,0,1.1-0.4,1.2-1l0-0.2L14,23
	l0.1-0.3c0.1-0.6,0.6-1,1.2-1h0.7c4.8,0,8.5-1.9,9.6-7.4c0.5-2.3,0.2-4.2-1-5.6C24.1,8.2,23.7,7.9,23.2,7.6L23.2,7.6z"/>
<path class="st1" d="M21.9,7.1c-0.4-0.1-0.8-0.2-1.2-0.3c-0.8-0.1-1.6-0.2-2.4-0.2h-7.4c-0.3,0-0.6,0.1-0.8,0.3
	C9.8,7.1,9.7,7.4,9.7,7.7l-1.6,9.8l0,0.3c0-0.3,0.2-0.6,0.5-0.8c0.2-0.2,0.6-0.3,0.9-0.3h2.8c5.4,0,9.7-2.2,10.9-8.5
	c0-0.2,0.1-0.4,0.1-0.5c-0.3-0.2-0.7-0.3-1-0.4C22,7.2,22,7.1,21.9,7.1L21.9,7.1z"/>
<path d="M9.7,7.7c0-0.3,0.2-0.5,0.4-0.7c0.2-0.2,0.5-0.3,0.8-0.3h7.4c0.9,0,1.7,0.1,2.4,0.2c0.5,0.1,1,0.2,1.5,0.4
	c0.4,0.1,0.7,0.3,1,0.4c0.4-2.3,0-3.9-1.3-5.4C20.5,0.7,17.9,0,14.7,0H5.3C4.6,0,4,0.5,3.9,1.1L0,25.7c0,0.1,0,0.2,0,0.3
	c0,0.1,0.1,0.2,0.2,0.3c0.1,0.1,0.2,0.2,0.3,0.2c0.1,0,0.2,0.1,0.3,0.1h5.8l1.5-9.2L9.7,7.7z"/>
</svg>
