<svg xmlns="http://www.w3.org/2000/svg" width="40" height="28" fill="none" viewBox="0 0 40 28"><path fill="#fff" d="M0 4a4 4 0 0 1 4-4h32a4 4 0 0 1 4 4v19.429a4 4 0 0 1-4 4H4a4 4 0 0 1-4-4z"/><path fill="#000" fill-rule="evenodd" d="M9.54 10.21c.536.044 1.074-.273 1.41-.675.33-.413.548-.969.492-1.535-.476.023-1.064.317-1.4.73-.307.358-.57.935-.503 1.48m6.39 7.295v-8.83h3.273c1.69-.001 2.87 1.177 2.87 2.9 0 1.721-1.203 2.91-2.915 2.91h-1.874v3.02zm-4.494-7.188c-.473-.028-.905.144-1.254.282-.224.09-.414.165-.559.165-.162 0-.36-.08-.582-.169-.292-.117-.625-.25-.974-.244-.8.011-1.544.47-1.953 1.2-.839 1.462-.218 3.626.594 4.815.397.59.873 1.235 1.5 1.212.275-.01.473-.095.679-.183.236-.102.481-.207.865-.207.37 0 .604.102.83.2.214.095.42.185.725.18.65-.012 1.058-.59 1.455-1.18.429-.631.617-1.248.646-1.342l.003-.01q0-.003-.015-.008c-.143-.067-1.239-.574-1.25-1.936-.01-1.142.87-1.721 1.008-1.812l.017-.012c-.56-.838-1.433-.929-1.735-.951m13.11 7.256c.851 0 1.64-.436 1.999-1.128h.027v1.06h1.254v-4.396c0-1.274-1.007-2.096-2.557-2.096-1.438 0-2.502.833-2.54 1.977h1.22c.1-.543.598-.9 1.28-.9.829 0 1.293.39 1.293 1.11v.487l-1.69.102c-1.572.096-2.423.748-2.423 1.88 0 1.145.879 1.904 2.138 1.904m.364-1.048c-.721 0-1.18-.351-1.18-.89 0-.555.442-.877 1.287-.928l1.505-.097v.499c0 .827-.694 1.416-1.611 1.416m7.073 1.325c-.542 1.547-1.163 2.056-2.484 2.056-.1 0-.436-.01-.515-.034v-1.059c.084.012.291.023.397.023.6 0 .935-.255 1.142-.918l.123-.39-2.294-6.43h1.416l1.594 5.217h.028l1.595-5.217h1.377zm-14.7-8.02h1.562c1.175 0 1.846.634 1.846 1.75s-.671 1.756-1.852 1.756h-1.555z" clip-rule="evenodd"/></svg>