<svg width="40" height="28" viewBox="0 0 40 28" fill="none" xmlns="http://www.w3.org/2000/svg"><path d="M0 4a4 4 0 0 1 4-4h32a4 4 0 0 1 4 4v19.429a4 4 0 0 1-4 4H4a4 4 0 0 1-4-4V4Z" fill="#fff"/><path fill-rule="evenodd" clip-rule="evenodd" d="M18.893 18.011V14.56h1.782c.73 0 1.346-.245 1.849-.727l.12-.123a2.486 2.486 0 0 0-.12-3.48 2.543 2.543 0 0 0-1.85-.74h-2.86v8.522h1.079Zm0-4.499v-2.977h1.81c.388 0 .756.15 1.03.422.584.57.597 1.522.034 2.113a1.4 1.4 0 0 1-1.065.442h-1.809Zm8.782-.877c-.462-.428-1.092-.645-1.889-.645-1.025 0-1.795.38-2.304 1.135l.951.605c.348-.517.824-.775 1.427-.775.382 0 .75.143 1.038.4.282.245.442.599.442.973v.251c-.415-.23-.938-.353-1.58-.353-.75 0-1.354.176-1.803.537-.448.36-.676.836-.676 1.44-.014.551.22 1.074.636 1.428.422.38.958.57 1.588.57.743 0 1.333-.332 1.782-.998h.047v.808h1.031v-3.595c0-.754-.227-1.352-.69-1.78Zm-2.927 4.303a.886.886 0 0 1-.355-.714c0-.32.147-.585.435-.795.295-.21.664-.32 1.1-.32.602-.007 1.071.13 1.406.401 0 .463-.18.863-.536 1.203-.321.326-.757.51-1.212.51a1.305 1.305 0 0 1-.838-.285Zm5.935 3.636 3.604-8.394h-1.172l-1.668 4.187h-.02l-1.709-4.187h-1.172l2.365 5.457-1.34 2.937h1.112Z" fill="#3C4043"/><path d="M15.168 13.813c0-.333-.027-.667-.08-.993h-4.549v1.883h2.606a2.268 2.268 0 0 1-.965 1.488v1.224h1.554c.912-.85 1.434-2.107 1.434-3.602Z" fill="#4285F4"/><path d="M10.54 18.596c1.3 0 2.398-.435 3.195-1.183l-1.554-1.223c-.435.3-.991.47-1.641.47-1.26 0-2.325-.864-2.707-2.02h-1.6v1.265a4.81 4.81 0 0 0 4.307 2.691Z" fill="#34A853"/><path d="M7.834 14.64a2.993 2.993 0 0 1 0-1.875v-1.257H6.232a4.914 4.914 0 0 0 0 4.39l1.602-1.257Z" fill="#FBBC04"/><path d="M10.54 10.746a2.576 2.576 0 0 1 1.849.734l1.38-1.4a4.619 4.619 0 0 0-3.23-1.271 4.817 4.817 0 0 0-4.307 2.698l1.601 1.264c.382-1.162 1.447-2.025 2.707-2.025Z" fill="#EA4335"/></svg>