<svg width="40" height="28" viewBox="0 0 40 28" fill="none" xmlns="http://www.w3.org/2000/svg"><path d="M0 4a4 4 0 0 1 4-4h32a4 4 0 0 1 4 4v19.429a4 4 0 0 1-4 4H4a4 4 0 0 1-4-4V4Z" fill="#fff"/><path fill-rule="evenodd" clip-rule="evenodd" d="M20.285 19.608a7.715 7.715 0 0 1-5.059 1.885c-4.307 0-7.798-3.532-7.798-7.889s3.491-7.89 7.798-7.89c1.93 0 3.697.71 5.059 1.885a7.715 7.715 0 0 1 5.058-1.884c4.308 0 7.799 3.532 7.799 7.889s-3.492 7.89-7.799 7.89c-1.93 0-3.696-.71-5.058-1.886Z" fill="#ED0006"/><path fill-rule="evenodd" clip-rule="evenodd" d="M20.285 19.608a7.91 7.91 0 0 0 2.74-6.004 7.91 7.91 0 0 0-2.74-6.005 7.715 7.715 0 0 1 5.059-1.884c4.307 0 7.798 3.532 7.798 7.889s-3.491 7.89-7.798 7.89c-1.93 0-3.697-.71-5.059-1.886Z" fill="#F9A000"/><path fill-rule="evenodd" clip-rule="evenodd" d="M20.285 19.607a7.91 7.91 0 0 0 2.74-6.005 7.91 7.91 0 0 0-2.74-6.004 7.91 7.91 0 0 0-2.74 6.004 7.91 7.91 0 0 0 2.74 6.005Z" fill="#FF5E00"/></svg>