<svg width="40" height="28" viewBox="0 0 40 28" fill="none" xmlns="http://www.w3.org/2000/svg"><path d="M0 4a4 4 0 0 1 4-4h32a4 4 0 0 1 4 4v19.429a4 4 0 0 1-4 4H4a4 4 0 0 1-4-4V4Z" fill="#fff"/><path fill-rule="evenodd" clip-rule="evenodd" d="M11.315 17.422H9.537a.247.247 0 0 0-.244.208l-.719 4.56a.148.148 0 0 0 .147.17h.849a.247.247 0 0 0 .244-.208l.194-1.23a.247.247 0 0 1 .243-.209h.563c1.171 0 1.847-.566 2.024-1.69.08-.49.003-.877-.227-1.147-.253-.297-.7-.454-1.296-.454Zm.205 1.665c-.097.638-.584.638-1.056.638h-.268l.188-1.192a.148.148 0 0 1 .147-.125h.122c.322 0 .624 0 .781.183.093.11.122.272.086.496Zm5.11-.02h-.852a.148.148 0 0 0-.146.125l-.038.238-.06-.087c-.184-.267-.595-.357-1.005-.357-.94 0-1.744.713-1.9 1.713-.082.498.034.975.316 1.307.26.306.631.433 1.073.433.758 0 1.178-.487 1.178-.487l-.038.237a.148.148 0 0 0 .146.171h.767a.247.247 0 0 0 .244-.209l.46-2.913a.148.148 0 0 0-.145-.171Zm-1.187 1.657a.949.949 0 0 1-.96.812c-.248 0-.446-.079-.572-.23-.126-.148-.174-.36-.134-.597a.953.953 0 0 1 .954-.82c.242 0 .438.08.568.232.13.153.181.367.144.603Zm4.865-1.658h.856c.12 0 .19.135.121.233l-2.845 4.107a.247.247 0 0 1-.203.107h-.855a.148.148 0 0 1-.12-.235l.886-1.25-.943-2.766a.148.148 0 0 1 .14-.196h.841c.11 0 .206.072.238.177l.5 1.67 1.18-1.738a.248.248 0 0 1 .204-.109Z" fill="#253B80"/><path fill-rule="evenodd" clip-rule="evenodd" d="m29.585 22.186.73-4.643a.149.149 0 0 1 .145-.125h.822c.09 0 .16.081.146.171l-.72 4.559a.247.247 0 0 1-.244.209h-.733a.148.148 0 0 1-.146-.171Zm-5.588-4.768h-1.778a.247.247 0 0 0-.244.209l-.72 4.559a.148.148 0 0 0 .147.17h.912a.173.173 0 0 0 .17-.145l.205-1.293a.247.247 0 0 1 .244-.208h.562c1.172 0 1.847-.567 2.024-1.69.08-.491.003-.878-.227-1.148-.252-.297-.7-.454-1.295-.454Zm.205 1.665c-.097.638-.585.638-1.056.638h-.268l.188-1.191a.148.148 0 0 1 .146-.125h.123c.321 0 .624 0 .78.183.094.109.123.271.087.495Zm5.109-.02h-.851a.148.148 0 0 0-.146.125l-.038.238-.06-.086c-.184-.268-.595-.357-1.005-.357-.94 0-1.744.712-1.9 1.712-.082.498.034.975.316 1.308.26.305.631.433 1.073.433.758 0 1.178-.488 1.178-.488l-.038.237a.148.148 0 0 0 .147.172h.766a.247.247 0 0 0 .244-.21l.46-2.913a.149.149 0 0 0-.146-.171Zm-1.187 1.657a.949.949 0 0 1-.96.813c-.247 0-.445-.08-.572-.23-.126-.149-.173-.361-.134-.598a.953.953 0 0 1 .954-.82c.242 0 .439.08.568.232.13.154.182.367.144.603Z" fill="#179BD7"/><path d="m17.894 15.787.219-1.388-.487-.011H15.3l1.615-10.245a.132.132 0 0 1 .131-.112h3.92c1.302 0 2.2.271 2.67.806.219.25.359.512.427.8.07.303.072.665.003 1.106l-.006.032v.282l.22.125c.186.098.332.21.445.34.189.214.31.486.361.81.054.331.036.727-.05 1.174a4.14 4.14 0 0 1-.482 1.33 2.737 2.737 0 0 1-.763.836c-.29.207-.637.364-1.027.464-.379.099-.81.148-1.284.148h-.305a.924.924 0 0 0-.596.22.923.923 0 0 0-.311.555l-.023.125-.387 2.447-.017.09c-.005.028-.013.042-.024.052a.066.066 0 0 1-.04.014h-1.884Z" fill="#253B80"/><path d="M24.49 6.809a6.712 6.712 0 0 1-.04.23c-.518 2.654-2.286 3.57-4.545 3.57h-1.15a.557.557 0 0 0-.552.474l-.59 3.734-.166 1.059c-.028.179.11.34.29.34h2.04a.49.49 0 0 0 .485-.414l.02-.104.384-2.437.025-.133a.49.49 0 0 1 .485-.415h.305c1.976 0 3.523-.802 3.975-3.124.19-.97.091-1.78-.408-2.35a1.95 1.95 0 0 0-.559-.43Z" fill="#179BD7"/><path d="M23.95 6.596a4.07 4.07 0 0 0-.504-.112c-.31-.05-.65-.074-1.014-.074H19.36a.488.488 0 0 0-.484.415l-.654 4.14-.019.12a.559.559 0 0 1 .552-.473h1.15c2.26 0 4.028-.917 4.545-3.57a6.05 6.05 0 0 0 .04-.23 2.757 2.757 0 0 0-.54-.216Z" fill="#222D65"/><path d="M18.875 6.823a.489.489 0 0 1 .485-.414h3.072c.364 0 .704.024 1.014.074a4.644 4.644 0 0 1 .503.111l.116.036c.152.05.294.11.425.18.154-.981-.001-1.649-.532-2.254-.584-.666-1.64-.95-2.99-.95h-3.92a.56.56 0 0 0-.554.473l-1.632 10.35a.337.337 0 0 0 .332.39h2.42l.608-3.856.653-4.14Z" fill="#253B80"/></svg>