<svg width="40" height="28" viewBox="0 0 40 28" fill="none" xmlns="http://www.w3.org/2000/svg"><path d="M0 4a4 4 0 0 1 4-4h32a4 4 0 0 1 4 4v19.429a4 4 0 0 1-4 4H4a4 4 0 0 1-4-4V4Z" fill="#fff"/><path fill-rule="evenodd" clip-rule="evenodd" d="m21.492 9.303-2.031.436V8.092l2.032-.428v1.64Zm-8.257-.702-1.975.42-.008 6.468c0 1.195.898 2.076 2.097 2.076.663 0 1.15-.122 1.416-.267v-1.64c-.259.106-1.538.477-1.538-.718v-2.867h1.538v-1.72h-1.538l.008-1.752Zm21.623 5.313c0-2.067-1.004-3.698-2.923-3.698-1.926 0-3.092 1.631-3.092 3.682 0 2.431 1.376 3.659 3.351 3.659.964 0 1.692-.218 2.243-.525v-1.616c-.55.275-1.182.445-1.984.445-.785 0-1.481-.275-1.57-1.228h3.959c0-.044.002-.145.006-.262.004-.158.01-.345.01-.457Zm-4-.767c0-.912.56-1.292 1.07-1.292.493 0 1.02.38 1.02 1.292h-2.09ZM8.452 11.968c-.429 0-.688.121-.688.436 0 .344.446.495.999.683.902.306 2.088.709 2.093 2.2 0 1.446-1.157 2.278-2.841 2.278a5.624 5.624 0 0 1-2.21-.46v-1.923c.68.372 1.538.646 2.21.646.453 0 .777-.12.777-.492 0-.381-.483-.555-1.067-.765-.888-.32-2.01-.724-2.01-2.07 0-1.43 1.094-2.285 2.737-2.285a5.35 5.35 0 0 1 2.008.371v1.898a4.524 4.524 0 0 0-2.008-.517Zm8.832-1.017-.13-.598h-1.748v7.066h2.024V12.63c.477-.621 1.287-.508 1.538-.42v-1.857c-.26-.097-1.206-.274-1.684.598Zm2.177-.598h2.032v7.066H19.46v-7.066Zm4.671.493a2.29 2.29 0 0 1 1.587-.63c1.417 0 2.753 1.276 2.76 3.618 0 2.56-1.319 3.723-2.768 3.723-.712 0-1.142-.3-1.433-.51l-.008 2.286-2.024.428v-9.416h1.781l.105.5Zm.146 4.554c.194.21.478.38.955.38.745 0 1.247-.808 1.247-1.89 0-1.058-.51-1.881-1.247-1.881-.461 0-.752.161-.963.395l.008 2.996Z" fill="#6461FC"/></svg>