<svg width="40" height="28" viewBox="0 0 40 28" fill="none" xmlns="http://www.w3.org/2000/svg"><path d="M0 4a4 4 0 0 1 4-4h32a4 4 0 0 1 4 4v19.429a4 4 0 0 1-4 4H4a4 4 0 0 1-4-4V4Z" fill="#fff"/><path fill-rule="evenodd" clip-rule="evenodd" d="M12.143 18.581H9.72L7.903 11.65c-.087-.319-.27-.6-.54-.734a7.888 7.888 0 0 0-2.22-.733v-.267h3.903c.539 0 .943.4 1.01.866l.943 5 2.422-5.866h2.356l-3.634 8.666Zm4.981 0h-2.288l1.884-8.666h2.289l-1.885 8.666Zm4.845-6.265c.068-.467.472-.734.943-.734a4.265 4.265 0 0 1 2.221.4l.404-1.866a5.793 5.793 0 0 0-2.086-.401c-2.221 0-3.838 1.2-3.838 2.866 0 1.268 1.145 1.933 1.953 2.334.875.4 1.211.667 1.144 1.067 0 .6-.673.866-1.346.866-.808 0-1.616-.2-2.355-.534l-.405 1.868c.809.332 1.683.466 2.491.466 2.49.066 4.038-1.133 4.038-2.933 0-2.267-3.164-2.4-3.164-3.4Zm11.174 6.265-1.817-8.666h-1.952c-.404 0-.808.267-.943.666l-3.365 8h2.356l.47-1.266h2.895l.27 1.266h2.086ZM29.71 12.25l.673 3.266h-1.885l1.212-3.266Z" fill="#172B85"/></svg>