<?xml version="1.0" encoding="utf-8"?>
<!-- Generator: Adobe Illustrator 15.1.0, SVG Export Plug-In . SVG Version: 6.00 Build 0)  -->
<!DOCTYPE svg PUBLIC "-//W3C//DTD SVG 1.1//EN" "http://www.w3.org/Graphics/SVG/1.1/DTD/svg11.dtd">
<svg version="1.1" id="Layer_1" xmlns="http://www.w3.org/2000/svg" xmlns:xlink="http://www.w3.org/1999/xlink" x="0px" y="0px"
	 width="780.759px" height="57.127px" viewBox="0 0 780.759 57.127" enable-background="new 0 0 780.759 57.127"
	 xml:space="preserve">
<g>
	<path fill="#FFFFFF" d="M19.122,25.629v29.779H0V0.899h23.377l17.648,29.179V0.899H60.15v54.509h-23.08L19.122,25.629z"/>
	<path fill="#FFFFFF" d="M102.176,0c15.778,0,34.228,11.592,34.228,28.942c0,15.619-17.778,28.185-34.151,28.185
		c-15.998,0-34.151-11.965-34.151-28.563C68.102,11.966,86.328,0,102.176,0z M87.224,28.564c0,11.445,5.986,13.93,15.029,13.93
		c8.971,0,15.029-2.485,15.029-13.633c0-11.815-5.831-14.662-15.029-14.662C93.209,14.199,87.224,17.125,87.224,28.564z"/>
	<path fill="#FFFFFF" d="M155.85,55.408L137.457,0.899h19.196l12.114,41.045l11.886-41.045h19.199l-18.69,54.509H155.85z"/>
	<path fill="#FFFFFF" d="M220.52,44.415l-3.661,10.993h-19.35l19.361-54.509h28.231l18.841,54.509H244.52l-3.587-10.993H220.52z
		 M230.765,13.758l-7.105,21.308h14.21L230.765,13.758z"/>
	<path fill="#FFFFFF" d="M361.433,44.415l-3.661,10.993h-19.35l19.362-54.509h28.231l18.837,54.509h-19.42l-3.587-10.993H361.433z
		 M371.674,13.758l-7.102,21.308h14.207L371.674,13.758z"/>
	<path fill="#FFFFFF" d="M737.341,44.415l-3.661,10.993h-19.351l19.362-54.509h28.231l18.836,54.509H761.34l-3.588-10.993H737.341z
		 M747.581,13.758l-7.102,21.308h14.206L747.581,13.758z"/>
	<path fill="#FFFFFF" d="M310.581,40.303c0-4.557-2.093-6.503-6.951-6.503h-12.862v21.608h-19.122V0.899h45.051
		c11.736,0,14.651,8.669,14.651,14.736c0,6.646-3.066,11.058-9.193,13.453c6.95,2.99,7.251,3.738,7.549,19.81
		c0,2.398,0.672,3.518,2.395,4.492v2.018h-19.949c-1.417-2.617-1.718-4.258-1.718-9.348
		C310.431,42.017,310.581,42.628,310.581,40.303z M304.303,14.199h-13.535v10.248h13.535c4.633,0,7.912,0.921,7.923-5.431
		C312.234,13.997,309.014,14.199,304.303,14.199z"/>
	<path fill="#FFFFFF" d="M470.767,55.408h-19.122V0.899h32.564l8.757,35.461l9.572-35.461h31.602v54.509h-19.122V15.155
		l-9.646,40.253H480.56l-9.793-40.253V55.408z"/>
	<path fill="#FFFFFF" d="M566.935,42.105h37.444v13.303h-56.562V0.899h55.215v13.3h-36.097v8.387h34.004v13.291h-34.004V42.105z"/>
	<path fill="#FFFFFF" d="M615.64,0.899h29.217c8.373,0,21.439,1.869,25.104,6.283c4.337,5.159,6.657,12.562,6.657,20.93
		c0,8.453-2.32,15.854-6.657,20.94c-3.664,4.41-16.805,6.355-25.104,6.355H615.64V0.899z M644.856,41.964
		c8.449,0,12.635-1.809,12.635-13.779c0-12.028-4.186-13.986-12.635-13.986h-10.094v27.765H644.856z"/>
	<path fill="#FFFFFF" d="M705.387,55.408h-19.122V0.899h19.122V55.408z"/>
</g>
</svg>
