<?xml version="1.0" encoding="utf-8"?>
<!-- Generator: Adobe Illustrator 15.1.0, SVG Export Plug-In . SVG Version: 6.00 Build 0)  -->
<!DOCTYPE svg PUBLIC "-//W3C//DTD SVG 1.1//EN" "http://www.w3.org/Graphics/SVG/1.1/DTD/svg11.dtd">
<svg version="1.1" id="Layer_1" xmlns="http://www.w3.org/2000/svg" xmlns:xlink="http://www.w3.org/1999/xlink" x="0px" y="0px"
	 width="589.106px" height="59.013px" viewBox="0 0 589.106 59.013" enable-background="new 0 0 589.106 59.013"
	 xml:space="preserve">
<g>
	<polygon fill="#FFFFFF" points="33.899,0.864 31.899,2.864 31.899,31.174 14.817,1.857 13.089,0.864 2,0.864 0,2.864 0,55.356 
		2,57.356 12.801,57.356 14.801,55.356 14.801,26.485 32.17,56.361 33.899,57.356 44.7,57.356 46.7,55.356 46.7,2.864 44.7,0.864 	
		"/>
	<path fill="#FFFFFF" d="M80.77,0C64.753,0,53.567,12.133,53.567,29.506c0,17.373,11.215,29.506,27.274,29.506
		s27.274-11.985,27.274-29.146C108.116,12.002,97.126,0,80.77,0z M80.841,45.796c-7.577,0-12.473-6.394-12.473-16.29
		c0-9.896,4.896-16.29,12.473-16.29c7.694,0,12.473,6.352,12.473,16.578C93.314,39.365,88.302,45.796,80.841,45.796z"/>
	<polygon fill="#FFFFFF" points="155.002,0.864 144.13,0.864 142.209,2.308 132.663,35.268 122.934,2.298 121.016,0.864 
		110.143,0.864 108.248,3.503 125.961,55.996 127.856,57.356 137.001,57.356 138.893,56.006 156.895,3.513 	"/>
	<path fill="#FFFFFF" d="M183.729,0.864h-11.953l-1.885,1.331l-18.649,52.493l1.885,2.669h11.017l1.897-1.368l3.072-9.217h16.766
		l3.006,9.205l1.901,1.38h11.089l1.89-2.653L185.619,2.21L183.729,0.864z M181.602,33.771h-8.131l4.066-12.197L181.602,33.771z"/>
	<path fill="#FFFFFF" d="M253.985,49.055c-0.238-12.779-0.479-16.348-4.855-19.074c4.277-2.852,6.44-7.185,6.44-12.931
		c0-7.825-4.233-16.186-16.113-16.186h-28.155l-2,2v52.493l2,2h10.801l2-2v-18.81h10.385c3.994,0,4.697,1.375,4.697,4.264
		c0,0.901-0.025,1.314-0.054,1.783c-0.042,0.697-0.09,1.488-0.09,3.762c0,4.925,0.262,6.94,1.898,9.955l1.758,1.046h11.593l2-2
		v-1.944l-1.016-1.741C254.339,51.143,253.985,50.783,253.985,49.055z M224.103,13.865h11.033c4.295,0,5.632,0.647,5.632,4.696
		c0,4.264-1.406,4.985-5.632,4.985h-11.033V13.865z"/>
	<path fill="#FFFFFF" d="M293.671,0.864h-11.952l-1.885,1.331l-18.65,52.493l1.885,2.669h11.017l1.897-1.368l3.073-9.217h16.765
		l3.005,9.205l1.901,1.38h11.09l1.891-2.653L295.561,2.21L293.671,0.864z M291.544,33.771h-8.131l4.065-12.197L291.544,33.771z"/>
	<polygon fill="#FFFFFF" points="378.198,0.864 376.245,2.433 368.951,35.482 361.427,2.42 359.477,0.864 343.348,0.864 
		341.348,2.864 341.348,55.356 343.348,57.356 354.148,57.356 356.148,55.356 356.148,32.028 361.632,55.806 363.581,57.356 
		374.382,57.356 376.332,55.799 381.671,32.293 381.671,55.356 383.671,57.356 394.472,57.356 396.472,55.356 396.472,2.864 
		394.472,0.864 	"/>
	<polygon fill="#FFFFFF" points="422.244,44.355 422.244,34.746 445.374,34.746 447.374,32.746 447.374,23.746 445.374,21.746 
		422.244,21.746 422.244,13.865 447.391,13.865 449.391,11.865 449.391,2.864 447.391,0.864 409.443,0.864 407.443,2.864 
		407.443,55.356 409.443,57.356 448.687,57.356 450.687,55.356 450.687,46.355 448.687,44.355 	"/>
	<path fill="#FFFFFF" d="M481.373,0.864h-20.521l-2,2v52.493l2,2h20.521c8.588,0,14.17-2.11,18.083-6.823
		c4.441-5.205,6.887-12.826,6.887-21.459c0-8.556-2.442-16.173-6.869-21.439C495.531,2.889,490.118,0.864,481.373,0.864z
		 M473.652,13.865h7.721c4.365,0,10.169,1.584,10.169,15.281c0,13.633-5.804,15.209-10.169,15.209h-7.721V13.865z"/>
	<polygon fill="#FFFFFF" points="516.867,0.864 514.867,2.864 514.867,55.356 516.867,57.356 527.668,57.356 529.668,55.356 
		529.668,2.864 527.668,0.864 	"/>
	<path fill="#FFFFFF" d="M570.96,2.21l-1.891-1.347h-11.952l-1.885,1.331l-18.65,52.493l1.885,2.669h11.018l1.897-1.368l3.072-9.217
		h16.765l3.006,9.205l1.901,1.38h11.09l1.891-2.653L570.96,2.21z M566.943,33.771h-8.132l4.065-12.197L566.943,33.771z"/>
</g>
</svg>
