<?xml version="1.0" encoding="utf-8"?>
<!-- Generator: Adobe Illustrator 15.1.0, SVG Export Plug-In . SVG Version: 6.00 Build 0)  -->
<!DOCTYPE svg PUBLIC "-//W3C//DTD SVG 1.1//EN" "http://www.w3.org/Graphics/SVG/1.1/DTD/svg11.dtd">
<svg version="1.1" id="Layer_1" xmlns="http://www.w3.org/2000/svg" xmlns:xlink="http://www.w3.org/1999/xlink" x="0px" y="0px"
	 width="590.023px" height="59.013px" viewBox="0 0 590.023 59.013" enable-background="new 0 0 590.023 59.013"
	 xml:space="preserve">
<g>
	<polygon fill="#FFFFFF" points="31.899,31.174 14.239,0.863 0,0.863 0,57.356 14.801,57.356 14.801,26.485 32.748,57.356 
		46.7,57.356 46.7,0.863 31.899,0.863 	"/>
	<path fill="#FFFFFF" d="M80.77,0C64.753,0,53.567,12.133,53.567,29.506s11.215,29.507,27.274,29.507s27.274-11.985,27.274-29.146
		C108.116,12.002,97.126,0,80.77,0z M80.841,45.796c-7.577,0-12.473-6.395-12.473-16.29s4.896-16.289,12.473-16.289
		c7.694,0,12.473,6.353,12.473,16.578C93.314,39.365,88.302,45.796,80.841,45.796z"/>
	<polygon fill="#FFFFFF" points="142.627,0.863 132.663,35.268 122.511,0.863 107.357,0.863 126.42,57.356 138.429,57.356 
		157.803,0.863 	"/>
	<path fill="#FFFFFF" d="M170.364,0.863l-20.07,56.493h15.291l3.528-10.585h16.766l3.457,10.585h15.347L185.154,0.863H170.364z
		 M181.602,33.771h-8.131l4.066-12.197L181.602,33.771z"/>
	<path fill="#FFFFFF" d="M253.985,49.055c-0.238-12.779-0.479-16.348-4.855-19.074c4.277-2.852,6.44-7.186,6.44-12.932
		c0-7.824-4.233-16.186-16.113-16.186h-30.155v56.493h14.801v-20.81h10.385c3.994,0,4.697,1.375,4.697,4.264
		c0,0.901-0.025,1.313-0.054,1.782c-0.042,0.698-0.09,1.489-0.09,3.763c0,4.924,0.262,6.939,1.898,9.955l0.568,1.046h14.783v-5.111
		l-1.016-0.574C254.338,51.143,253.985,50.783,253.985,49.055z M224.103,13.865h11.033c4.295,0,5.632,0.647,5.632,4.695
		c0,4.265-1.406,4.985-5.632,4.985h-11.033V13.865z"/>
	<path fill="#FFFFFF" d="M280.307,0.863l-20.071,56.493h15.291l3.529-10.585h16.765l3.456,10.585h15.349L295.096,0.863H280.307z
		 M291.544,33.771h-8.131l4.065-12.197L291.544,33.771z"/>
	<polygon fill="#FFFFFF" points="352.148,0.863 341.348,0.863 341.348,57.356 356.148,57.356 356.148,32.028 361.99,57.356 
		375.979,57.356 381.671,32.293 381.671,57.356 396.472,57.356 396.472,0.863 385.671,0.863 376.592,0.863 368.951,35.482 
		361.072,0.863 	"/>
	<polygon fill="#FFFFFF" points="422.244,34.746 447.374,34.746 447.374,21.746 422.244,21.746 422.244,13.865 449.391,13.865 
		449.391,0.863 407.443,0.863 407.443,57.356 450.687,57.356 450.687,44.355 422.244,44.355 	"/>
	<path fill="#FFFFFF" d="M481.373,0.863h-22.521v56.493h22.521c8.588,0,14.17-2.11,18.083-6.822
		c4.441-5.206,6.887-12.827,6.887-21.46c0-8.556-2.442-16.173-6.87-21.44C495.531,2.889,490.118,0.863,481.373,0.863z
		 M473.652,13.865h7.721c4.365,0,10.169,1.584,10.169,15.281c0,13.633-5.804,15.209-10.169,15.209h-7.721V13.865z"/>
	<rect x="514.867" y="0.863" fill="#FFFFFF" width="14.801" height="56.493"/>
	<path fill="#FFFFFF" d="M570.494,0.863h-14.789l-20.071,56.493h15.292l3.528-10.585h16.765l3.456,10.585h15.349L570.494,0.863z
		 M566.943,33.771h-8.132l4.065-12.197L566.943,33.771z"/>
</g>
</svg>
