<svg width="719" height="126" viewBox="0 0 719 126" fill="none" xmlns="http://www.w3.org/2000/svg">
<path d="M564.796 20.5121C563.44 21.9813 562.762 24.5242 562.762 28.1406V33.3958H579.375V49.5004H562.762V84.6537H554.308V107.771C554.308 109.724 554.671 111.315 555.397 112.543C556.178 113.771 557.378 114.692 558.997 115.306C560.337 115.809 562.123 116.227 564.356 116.562C566.589 116.841 568.514 117.037 570.133 117.149V122.675H526.594V117.149C527.878 117.037 529.19 116.925 530.529 116.814C531.925 116.702 533.125 116.479 534.13 116.144C535.693 115.641 536.837 114.776 537.562 113.548C538.344 112.264 538.735 110.618 538.735 108.608V49.5004H524.28V33.3958H538.69V26.6149C538.69 18.8169 541.119 12.4316 545.979 7.45897C550.839 2.48632 558.185 0 568.017 0C570.164 0 572.311 0.113016 574.459 0.339049C576.606 0.452062 578.697 0.565075 580.731 0.678088V18.6474C577.906 18.3084 574.967 18.1388 571.916 18.1388C568.638 18.1388 566.265 18.9299 564.796 20.5121Z" fill="#FCFFFF"/>
<path d="M35.2606 34.5825C30.4009 36.8428 26.4454 40.5157 23.394 45.6014H22.8855V33.3958H0V84.6537H15.0131V108.608C15.0131 110.618 14.6224 112.264 13.8409 113.548C13.1152 114.776 11.9709 115.641 10.408 116.144C9.40324 116.479 8.20311 116.702 6.80762 116.814C5.46795 116.925 4.15619 117.037 2.87234 117.149V122.675H43.3137V117.149C41.8623 117.037 40.4389 116.841 39.0435 116.562C37.7038 116.283 36.4478 115.865 35.2756 115.306C33.7127 114.637 32.5405 113.688 31.759 112.46C30.9775 111.232 30.5868 109.669 30.5868 107.771V84.6537H24.0721V75.0982C24.0721 66.17 25.5413 59.7847 28.4797 55.9422C31.4181 51.9867 36.1647 50.0089 42.7195 50.0089C48.4833 50.0089 52.4953 51.8172 54.7556 55.4336C57.0159 58.9371 58.146 64.3053 58.146 71.5382V84.6537H66.3932L66.2555 108.608C66.2555 110.618 65.8648 112.264 65.0833 113.548C64.3576 114.776 63.2133 115.641 61.6504 116.144C60.6456 116.479 59.3618 116.702 57.7988 116.814C56.2917 116.925 54.8962 117.037 53.6124 117.149V122.675H94.0537V117.149C92.3233 117.037 90.9557 116.869 89.9509 116.646C89.002 116.423 87.8577 116.032 86.518 115.474C84.8993 114.804 83.755 113.883 83.0851 112.711C82.4153 111.483 82.0804 109.892 82.0804 107.938L82.2181 84.6537V67.1307C82.2181 61.706 81.7095 56.7898 80.6924 52.3823C79.7883 47.8617 78.1496 44.0757 75.7763 41.0243C73.403 37.8599 70.1255 35.4301 65.944 33.7348C61.8755 31.9266 56.6203 31.0225 50.1785 31.0225C45.0928 31.0225 40.1202 32.2092 35.2606 34.5825Z" fill="#FCFFFF"/>
<path fill-rule="evenodd" clip-rule="evenodd" d="M100.34 99.9002C98.5319 95.2846 97.4944 90.2024 97.2276 84.6537H88.0275C87.7454 82.2922 87.6044 79.8416 87.6044 77.302C87.6044 70.2951 88.678 63.9662 90.8253 58.3155C92.9726 52.5518 96.024 47.6922 99.9795 43.7366C103.935 39.6681 108.682 36.5602 114.219 34.4129C119.757 32.1526 125.973 31.0225 132.867 31.0225C139.761 31.0225 145.976 32.1526 151.514 34.4129C157.165 36.5602 161.968 39.6681 165.923 43.7366C169.879 47.6922 172.93 52.5518 175.078 58.3155C176.628 62.3943 177.463 65.3701 177.907 69.7188C178.206 71.56 178.27 73.4999 178.267 75.4998C178.267 76.2202 178.258 77.0785 178.239 77.9922C178.225 78.8961 178.21 79.8085 178.21 80.7262C178.21 86.5314 176.869 92.0855 175.027 97.7233C173.185 103.305 170.561 108.05 167.156 111.957C163.305 116.423 158.839 119.744 153.759 121.921C148.68 124.098 142.986 125.187 136.679 125.187C131.432 125.187 126.436 124.21 121.691 122.256C116.946 120.246 112.732 117.344 109.048 113.548C105.42 109.808 102.517 105.259 100.34 99.9002ZM112.384 68.6537C112.478 68.088 112.581 67.5238 112.694 66.9611C113.372 63.5707 114.502 60.5758 116.084 57.9765C117.779 55.3771 119.983 53.2864 122.695 51.7042C125.408 50.0089 128.798 49.1613 132.867 49.1613C136.935 49.1613 140.326 50.0089 143.038 51.7042C145.863 53.2864 148.067 55.3771 149.649 57.9765C151.345 60.5758 152.531 63.5707 153.209 66.9611C153.887 70.3516 154.226 73.7985 154.226 77.302C154.226 79.7809 154.057 82.2314 153.717 84.6537H160.38C159.972 94.6873 157.96 102.7 154.346 108.692C150.271 115.446 144.745 118.823 137.767 118.823C133.525 118.823 129.952 117.818 127.05 115.809C124.203 113.743 121.831 110.925 119.933 107.352C118.035 103.78 116.639 99.7328 115.746 95.2114C114.909 90.6342 114.49 85.6662 114.49 80.3076C114.49 76.5421 114.8 72.6575 115.42 68.6537H112.384Z" fill="#FCFFFF"/>
<path d="M224.601 101.91C226.548 97.2583 228.967 91.5063 231.858 84.6537H222.198L238.026 33.3958H261.928L244.578 84.6537H238.655C235.948 90.9206 233.161 97.4262 230.295 104.17C229.178 106.738 227.978 109.78 226.694 113.297C225.466 116.814 224.322 120.191 223.262 123.428H216.731C211.428 110.311 206.544 98.3652 202.078 87.592C201.675 86.6146 201.271 85.6352 200.865 84.6537H193.021L175.472 33.3958H197L217.443 84.6537C220.262 91.5038 222.648 97.2558 224.601 101.91Z" fill="#FCFFFF"/>
<path fill-rule="evenodd" clip-rule="evenodd" d="M260.648 84.6537L272.178 84.7921C270.192 85.985 268.569 87.3369 267.31 88.848C265.524 90.8575 264.184 93.1182 263.291 95.63C262.398 98.1419 261.951 100.989 261.951 104.17C261.951 110.311 263.933 115.279 267.896 119.074C271.915 122.87 277.023 124.768 283.219 124.768C289.08 124.768 294.075 123.707 298.206 121.586C302.393 119.465 306.3 116.395 309.928 112.376H310.431C311.156 116.283 312.803 119.27 315.371 121.335C317.994 123.344 321.483 124.349 325.837 124.349C328.349 124.349 330.581 124.042 332.535 123.428C334.545 122.87 336.861 122.116 339.485 121.168V115.809C337.587 115.809 335.717 115.781 333.875 115.725C332.089 115.669 330.777 115.39 329.94 114.888C328.377 113.995 327.204 112.906 326.423 111.622C325.697 110.339 325.334 108.608 325.334 106.431C325.334 99.1188 325.418 92.3925 325.586 86.2523C325.6 85.7259 325.613 85.1931 325.626 84.6537H340.338V55.9422C340.338 50.6305 339.151 46.3925 336.778 43.2281C334.404 39.9507 331.353 37.4078 327.624 35.5996C323.894 33.7914 319.769 32.6047 315.248 32.0396C310.728 31.3615 306.264 31.0225 301.856 31.0225C296.997 31.0225 292.137 31.5311 287.277 32.5482C282.531 33.4523 278.236 35.0345 274.394 37.2948C270.551 39.5551 267.387 42.55 264.9 46.2795C262.414 50.0089 261.001 54.6991 260.662 60.3498H284.734C285.187 55.6032 286.769 52.2127 289.481 50.1785C292.193 48.1442 295.923 47.1271 300.67 47.1271C302.817 47.1271 304.795 47.2966 306.603 47.6356C308.524 47.8617 310.163 48.4267 311.519 49.3309C312.988 50.122 314.118 51.3086 314.909 52.8908C315.813 54.36 316.266 56.3943 316.266 58.9936C316.379 61.4799 315.644 63.4012 314.062 64.7574C312.48 66.0005 310.332 66.9611 307.62 67.6392C304.908 68.3173 301.8 68.8259 298.296 69.1649C294.793 69.504 291.233 69.956 287.616 70.5211C284 71.0862 280.383 71.8773 276.767 72.8944C273.263 73.7985 270.099 75.2112 267.274 77.1324C264.638 78.9993 262.429 81.5064 260.648 84.6537ZM287.824 86.0849C288.768 85.4665 289.785 84.9687 290.844 84.5368C292.653 83.9717 294.454 83.5743 296.262 83.2352C298.183 82.8962 300.104 82.6137 302.026 82.3876C303.947 82.1616 305.755 81.8791 307.45 81.54C308.413 81.3596 309.327 81.1631 310.194 80.9506L309.761 105.845C307.695 108.469 305.156 110.757 302.141 112.711C299.127 114.609 295.638 115.558 291.675 115.558C287.935 115.558 284.837 114.469 282.381 112.292C279.981 110.115 278.781 106.71 278.781 102.077C278.781 98.5048 279.59 95.4347 281.209 92.867C282.828 90.2434 285.033 87.9827 287.824 86.0849Z" fill="#FCFFFF"/>
<path d="M351.8 113.548C352.581 112.264 352.972 110.618 352.972 108.608V84.6537H348.851V33.3958H371.736V49.6699H372.075C373.205 46.9576 374.731 44.4712 376.652 42.2109C378.574 39.8376 380.777 37.8599 383.264 36.2777C385.75 34.5825 388.406 33.2828 391.231 32.3787C394.057 31.4746 396.995 31.0225 400.046 31.0225C401.629 31.0225 403.38 31.305 405.302 31.8701V54.247C404.171 54.021 402.815 53.8514 401.233 53.7384C399.651 53.5124 398.125 53.3994 396.656 53.3994C392.248 53.3994 388.519 54.134 385.468 55.6032C382.416 57.0724 379.93 59.1066 378.009 61.706C376.2 64.1923 374.901 67.1307 374.11 70.5211C373.318 73.9115 372.923 77.5845 372.923 81.54V84.6537H368.546V107.771C368.546 109.724 368.908 111.315 369.634 112.543C370.415 113.771 371.616 114.692 373.234 115.306C374.63 115.865 376.416 116.283 378.593 116.562C380.826 116.841 382.752 117.037 384.37 117.149V122.675H340.831V117.149C342.115 117.037 343.427 116.925 344.766 116.814C346.162 116.702 347.362 116.479 348.367 116.144C349.93 115.641 351.074 114.776 351.8 113.548Z" fill="#FCFFFF"/>
<path fill-rule="evenodd" clip-rule="evenodd" d="M481.361 43.2281C483.735 46.3925 484.921 50.6305 484.921 55.9422V84.6537H470.365C470.352 85.1931 470.338 85.7259 470.324 86.2523C470.156 92.3925 470.072 99.1188 470.072 106.431C470.072 108.608 470.435 110.339 471.161 111.622C471.942 112.906 473.115 113.995 474.678 114.888C475.515 115.39 476.827 115.669 478.613 115.725C480.455 115.781 482.325 115.809 484.223 115.809V121.168C481.599 122.116 479.283 122.87 477.273 123.428C475.32 124.042 473.087 124.349 470.575 124.349C466.221 124.349 462.732 123.344 460.109 121.335C457.541 119.27 455.894 116.283 455.169 112.376H454.666C451.038 116.395 447.131 119.465 442.944 121.586C438.814 123.707 433.818 124.768 427.957 124.768C421.761 124.768 416.653 122.87 412.634 119.074C408.671 115.279 406.689 110.311 406.689 104.17C406.689 100.989 407.136 98.1419 408.029 95.63C408.922 93.1182 410.262 90.8575 412.048 88.848C413.344 87.2927 415.025 85.906 417.092 84.6878L405.231 84.6537C407.013 81.5064 409.222 78.9993 411.857 77.1324C414.683 75.2112 417.847 73.7985 421.351 72.8944C424.967 71.8773 428.583 71.0862 432.2 70.5211C435.816 69.956 439.376 69.504 442.88 69.1649C446.383 68.8259 449.491 68.3173 452.204 67.6392C454.916 66.9611 457.063 66.0005 458.645 64.7574C460.228 63.4012 460.962 61.4799 460.849 58.9936C460.849 56.3943 460.397 54.36 459.493 52.8908C458.702 51.3086 457.572 50.122 456.103 49.3309C454.746 48.4267 453.108 47.8617 451.186 47.6356C449.378 47.2966 447.4 47.1271 445.253 47.1271C440.507 47.1271 436.777 48.1442 434.065 50.1785C431.352 52.2127 429.77 55.6032 429.318 60.3498H405.246C405.585 54.6991 406.998 50.0089 409.484 46.2795C411.97 42.55 415.135 39.5551 418.977 37.2948C422.82 35.0345 427.114 33.4523 431.861 32.5482C436.721 31.5311 441.58 31.0225 446.44 31.0225C450.847 31.0225 455.311 31.3615 459.832 32.0396C464.353 32.6047 468.478 33.7914 472.207 35.5996C475.937 37.4078 478.988 39.9507 481.361 43.2281ZM435.421 84.5914C435.359 84.6119 435.061 84.7181 435 84.7392C434.133 85.1502 433.311 85.5945 432.562 86.0849C429.771 87.9827 427.566 90.2434 425.947 92.867C424.328 95.4347 423.519 98.5048 423.519 102.077C423.519 106.71 424.719 110.115 427.119 112.292C429.575 114.469 432.673 115.558 436.413 115.558C440.376 115.558 443.865 114.609 446.879 112.711C449.894 110.757 452.433 108.469 454.499 105.845L454.932 80.9123C454.02 81.1395 453.054 81.3487 452.034 81.54C450.339 81.8791 448.531 82.1616 446.609 82.3876C444.688 82.6137 442.767 82.8962 440.846 83.2352C439.037 83.5743 437.229 84.0263 435.421 84.5914Z" fill="#FCFFFF"/>
<path d="M605.59 112.376C604.808 111.092 604.417 109.501 604.417 107.603V70.1821C604.417 65.8875 605.087 62.4406 606.33 59.8412C607.573 57.1289 609.042 55.0946 610.738 53.7384C612.546 52.2692 614.354 51.3086 616.162 50.8566C618.084 50.2915 619.609 50.0089 620.74 50.0089C624.582 50.0089 627.464 50.687 629.385 52.0432C631.419 53.2864 632.832 54.9816 633.623 57.1289C634.527 59.2761 635.036 61.6495 635.149 64.2488C635.262 66.7351 635.318 69.2779 635.318 71.8773V84.6537H639.249V108.608C639.249 110.618 638.858 112.264 638.077 113.548C637.351 114.776 636.207 115.641 634.644 116.144C633.639 116.479 632.523 116.702 631.295 116.814C630.122 116.925 628.894 117.037 627.611 117.149V122.675H667.047V117.149C665.372 117.037 664.005 116.869 662.944 116.646C661.94 116.367 660.795 115.976 659.511 115.474C657.893 114.804 656.748 113.855 656.078 112.627C655.409 111.343 655.074 109.724 655.074 107.771V84.6537H659.391V72.2163C659.391 69.504 659.56 66.8481 659.899 64.2488C660.351 61.5364 661.142 59.1631 662.272 57.1289C663.516 54.9816 665.154 53.2864 667.188 52.0432C669.336 50.687 672.105 50.0089 675.495 50.0089C678.885 50.0089 681.541 50.574 683.463 51.7042C685.497 52.8343 687.023 54.36 688.04 56.2813C689.057 58.2025 689.678 60.4628 689.904 63.0621C689.954 63.6315 690.009 64.2089 690.065 64.7945L690.065 64.7969V64.7986C690.264 66.8851 690.473 69.0758 690.473 71.3687V108.608C690.473 110.618 690.083 112.264 689.301 113.548C688.575 114.776 687.431 115.641 685.868 116.144C684.863 116.479 683.691 116.702 682.352 116.814L678.5 117.149V122.675H718.774V117.149C717.211 117.037 715.788 116.869 714.504 116.646C713.276 116.367 712.02 115.976 710.736 115.474C709.117 114.804 707.973 113.855 707.303 112.627C706.633 111.343 706.298 109.724 706.298 107.771V84.6537H714.316V62.384C714.316 56.7333 713.524 51.9302 711.942 47.9747C710.36 43.9062 708.156 40.6287 705.331 38.1424C702.506 35.6561 699.115 33.8479 695.16 32.7177C691.204 31.5876 686.91 31.0225 682.276 31.0225C676.173 31.0225 670.861 32.4917 666.341 35.4301C661.933 38.3685 658.43 41.7589 655.831 45.6014C653.457 40.1767 649.954 36.3907 645.32 34.2434C640.8 32.0961 635.77 31.0225 630.233 31.0225C624.469 31.0225 619.327 32.2657 614.806 34.752C610.399 37.2383 606.613 40.7418 603.448 45.2623H603.109V33.3958H580.393V84.6537H588.844V108.608C588.844 110.618 588.453 112.264 587.672 113.548C586.946 114.776 585.802 115.641 584.239 116.144C583.234 116.479 582.034 116.702 580.638 116.814C579.299 116.925 577.987 117.037 576.703 117.149V122.675H616.809V117.149C615.302 117.037 613.935 116.841 612.707 116.562C611.479 116.283 610.279 115.865 609.106 115.306C607.543 114.637 606.371 113.66 605.59 112.376Z" fill="#FCFFFF"/>
</svg>
