<svg width="1772" height="341" viewBox="0 0 1772 341" fill="none" xmlns="http://www.w3.org/2000/svg">
<mask id="mask0_2434_1970" style="mask-type:alpha" maskUnits="userSpaceOnUse" x="0" y="0" width="1772" height="341">
<rect width="1772" height="341" fill="#E63D00"/>
</mask>
<g mask="url(#mask0_2434_1970)">
<rect x="-10" y="-97.6406" width="829.009" height="234.467" fill="#B1B1FF" stroke="#0E0E0E" stroke-width="3"/>
<rect x="27.166" y="136.777" width="352.712" height="352.712" rx="66.9907" transform="rotate(-45 27.166 136.777)" fill="#0E0E0E"/>
<rect x="-10" y="136.828" width="293.084" height="517.317" fill="#B1B1FF" stroke="#0E0E0E" stroke-width="3"/>
<rect x="283.084" y="136.828" width="212.137" height="357.283" fill="#B1B1FF" stroke="#0E0E0E" stroke-width="3"/>
<rect x="819.01" y="-186.961" width="558.255" height="681.072" fill="#B1B1FF" stroke="#0E0E0E" stroke-width="3"/>
<rect x="1377.26" y="147.992" width="404.735" height="346.118" fill="#B1B1FF" stroke="#0E0E0E" stroke-width="3"/>
<rect x="330.536" y="159.16" width="312.623" height="312.623" rx="156.312" fill="#0E0E0E"/>
<rect x="1377.26" y="-354.438" width="404.735" height="502.43" fill="#E63D00" stroke="#0E0E0E" stroke-width="3"/>
<rect x="495.222" y="136.828" width="323.788" height="357.283" fill="#9A8800" stroke="#0E0E0E" stroke-width="3"/>
<path d="M1596.83 -106.703L1596.99 -106.78L1597.15 -106.856L1597.31 -106.929L1597.47 -107.001L1597.63 -107.072L1597.8 -107.141L1597.97 -107.208L1598.13 -107.273L1598.3 -107.337L1598.48 -107.399L1598.65 -107.459L1598.82 -107.517L1599 -107.573L1599.17 -107.628L1599.35 -107.681L1599.53 -107.732L1599.71 -107.781L1599.89 -107.828L1600.08 -107.873L1600.26 -107.916L1600.45 -107.957L1600.63 -107.996L1600.82 -108.034L1601.01 -108.069L1601.2 -108.102L1601.39 -108.133L1601.59 -108.162L1601.78 -108.188L1601.97 -108.213L1602.17 -108.236L1602.36 -108.256L1602.56 -108.274L1602.76 -108.29L1602.96 -108.304L1603.16 -108.315L1603.36 -108.324L1603.56 -108.331L1603.76 -108.336L1603.97 -108.339L1604.17 -108.339L1604.38 -108.336L1604.58 -108.332L1604.79 -108.325L1604.99 -108.316L1605.2 -108.304L1605.41 -108.29L1605.62 -108.274L1605.82 -108.255L1606.03 -108.234L1606.24 -108.21L1606.45 -108.184L1606.66 -108.155L1606.88 -108.124L1607.09 -108.09L1607.3 -108.054L1607.51 -108.016L1607.72 -107.975L1607.94 -107.931L1608.15 -107.885L1608.36 -107.836L1608.57 -107.785L1608.79 -107.731L1609 -107.675L1609.21 -107.616L1609.43 -107.555L1609.64 -107.491L1609.85 -107.424L1610.07 -107.355L1610.28 -107.283L1610.49 -107.209L1610.71 -107.132L1610.92 -107.052L1611.13 -106.97L1611.34 -106.885L1611.55 -106.798L1611.77 -106.708L1611.98 -106.615L1612.19 -106.52L1612.4 -106.422L1612.61 -106.321L1612.82 -106.218L1613.03 -106.112L1613.23 -106.004L1613.44 -105.893L1613.65 -105.779L1613.85 -105.662L1614.06 -105.543L1614.27 -105.422L1614.47 -105.298L1614.67 -105.171L1614.88 -105.041L1615.08 -104.909L1615.28 -104.775L1615.48 -104.637L1615.68 -104.497L1615.88 -104.355L1616.07 -104.21L1616.27 -104.062L1616.46 -103.912L1616.66 -103.759L1616.85 -103.604L1617.04 -103.446L1617.23 -103.285L1617.42 -103.122L1617.61 -102.957L1617.8 -102.789L1617.98 -102.618L1618.17 -102.445L1618.35 -102.269L1618.53 -102.091L1618.71 -101.911L1618.89 -101.728L1619.07 -101.542L1619.24 -101.354L1619.41 -101.164L1619.59 -100.971L1619.76 -100.776L1619.93 -100.578L1620.09 -100.378L1620.26 -100.176L1620.42 -99.9713L1620.58 -99.7643L1620.74 -99.5549L1620.9 -99.3433L1621.06 -99.1294L1621.21 -98.9132L1621.36 -98.6948L1621.51 -98.4741L1621.66 -98.2512L1621.81 -98.0261L1621.95 -97.7989L1622.09 -97.5694L1622.23 -97.3379L1622.37 -97.1041L1622.51 -96.8683L1622.64 -96.6304L1622.77 -96.3905L1622.9 -96.1485L1623.02 -95.9045L1623.15 -95.6584L1623.27 -95.4104L1623.39 -95.1605L1623.51 -94.9086L1623.62 -94.6547L1623.73 -94.399L1623.84 -94.1415L1623.95 -93.8821L1624.05 -93.6208L1624.15 -93.3578L1624.25 -93.0931L1624.35 -92.8265L1624.44 -92.5583L1624.53 -92.2884L1624.62 -92.0168L1624.71 -91.7435L1624.79 -91.4687L1624.87 -91.1923L1624.95 -90.9143L1625.02 -90.6348L1625.1 -90.3538L1625.16 -90.0713L1625.23 -89.7874L1625.29 -89.5021L1625.35 -89.2153L1625.41 -88.9273L1625.46 -88.6379L1625.52 -88.3472L1625.56 -88.0552L1625.61 -87.762L1625.65 -87.4677L1625.69 -87.1721L1625.73 -86.8754L1625.76 -86.5776L1625.79 -86.2787L1625.81 -85.9788L1625.84 -85.6779L1625.86 -85.376L1625.87 -85.0731L1625.89 -84.7694L1625.9 -84.4648L1625.91 -84.1593L1625.91 -83.853L1625.91 -83.5459L1625.91 -83.2381L1625.9 -82.9296L1625.89 -82.6205L1625.88 -82.3107L1625.86 -82.0003L1625.84 -81.6893L1625.82 -81.3778L1625.79 -81.0658L1625.76 -80.7534L1625.73 -80.4406L1625.69 -80.1273L1625.65 -79.8137L1625.61 -79.4999L1625.56 -79.1857L1625.51 -78.8713L1625.46 -78.5567L1625.4 -78.242L1625.34 -77.9271L1625.27 -77.6122L1625.21 -77.2972L1625.13 -76.9822L1625.06 -76.6673L1624.98 -76.3524L1624.9 -76.0376L1624.81 -75.723L1624.72 -75.4085L1624.63 -75.0943L1624.53 -74.7804L1624.43 -74.4667L1624.33 -74.1535L1624.22 -73.8406L1624.11 -73.5281L1624 -73.216L1623.88 -72.9045L1623.76 -72.5936L1623.63 -72.2832L1623.5 -71.9734L1623.37 -71.6643L1623.23 -71.3559L1623.09 -71.0483L1622.95 -70.7414L1622.8 -70.4354L1622.65 -70.1302L1622.5 -69.8259L1622.34 -69.5226L1622.18 -69.2203L1622.02 -68.919L1621.85 -68.6187L1621.68 -68.3196L1621.5 -68.0216L1621.32 -67.7248L1621.14 -67.4292L1620.95 -67.1349L1620.76 -66.8419L1620.57 -66.5503L1620.38 -66.26L1620.18 -65.9712L1619.97 -65.6838L1619.76 -65.398L1619.55 -65.1137L1619.34 -64.831L1619.12 -64.5499L1618.9 -64.2705L1618.68 -63.9928L1618.45 -63.7169L1618.22 -63.4427L1617.98 -63.1704L1617.75 -62.9L1617.51 -62.6314L1617.26 -62.3649L1617.01 -62.1003L1616.76 -61.8377L1616.51 -61.5772L1616.25 -61.3188L1615.99 -61.0625L1615.72 -60.8085L1615.46 -60.5566L1615.19 -60.3071L1614.91 -60.0598L1614.63 -59.8148L1614.35 -59.5722L1614.07 -59.3321L1613.78 -59.0944L1613.49 -58.8591L1613.2 -58.6265L1612.91 -58.3963L1612.61 -58.1688L1612.31 -57.9439L1612 -57.7217L1611.69 -57.5021L1611.38 -57.2854L1611.07 -57.0714L1610.75 -56.8602L1610.43 -56.6519L1610.11 -56.4465L1609.79 -56.2439L1609.46 -56.0444L1609.13 -55.8478L1608.8 -55.6543L1608.46 -55.4638L1608.12 -55.2764L1607.78 -55.0922L1607.44 -54.9111L1607.09 -54.7332L1606.74 -54.5585L1606.39 -54.3871L1606.04 -54.219L1605.68 -54.0542L1605.32 -53.8928L1604.96 -53.7347L1604.6 -53.5801L1604.23 -53.4289L1603.87 -53.2812L1603.5 -53.137L1603.12 -52.9963L1602.75 -52.8593L1602.37 -52.7258L1601.99 -52.5959L1601.61 -52.4697L1601.23 -52.3471L1600.84 -52.2283L1600.46 -52.1132L1600.07 -52.0019L1599.68 -51.8943L1599.29 -51.7906L1598.89 -51.6907L1598.49 -51.5947L1598.1 -51.5026L1597.7 -51.4144L1597.3 -51.3302L1596.89 -51.2499L1596.49 -51.1736L1596.08 -51.1013L1595.68 -51.033L1595.27 -50.9688L1594.86 -50.9087L1594.44 -50.8527L1594.03 -50.8008L1593.62 -50.753L1593.2 -50.7095L1592.78 -50.67L1592.37 -50.6348L1591.95 -50.6039L1591.53 -50.5771L1591.11 -50.5546L1590.68 -50.5364L1590.26 -50.5225L1589.84 -50.5129L1589.41 -50.5076L1588.99 -50.5067L1588.56 -50.5101L1588.13 -50.5179L1587.71 -50.5301L1587.28 -50.5467L1586.85 -50.5677L1586.42 -50.5931L1585.99 -50.623L1585.56 -50.6573L1585.13 -50.6961L1584.7 -50.7393L1584.27 -50.787L1583.83 -50.8393L1583.4 -50.896L1582.97 -50.9573L1582.54 -51.023L1582.11 -51.0933L1581.67 -51.1682L1581.24 -51.2476L1580.81 -51.3315L1580.38 -51.42L1579.95 -51.513L1579.51 -51.6107L1579.08 -51.7129L1578.65 -51.8196L1578.22 -51.931L1577.79 -52.0469L1577.36 -52.1675L1576.93 -52.2926L1576.51 -52.4223L1576.08 -52.5566L1575.65 -52.6954L1575.22 -52.8389L1574.8 -52.987L1574.37 -53.1396L1573.95 -53.2968L1573.53 -53.4587L1573.11 -53.6251L1572.68 -53.796L1572.27 -53.9716L1571.85 -54.1517L1571.43 -54.3364L1571.01 -54.5256L1570.6 -54.7194L1570.18 -54.9178L1569.77 -55.1206L1569.36 -55.3281L1568.95 -55.54L1568.54 -55.7564L1568.14 -55.9774L1567.73 -56.2028L1567.33 -56.4327L1566.93 -56.6671L1566.53 -56.906L1566.13 -57.1493L1565.74 -57.397L1565.35 -57.6492L1564.95 -57.9058L1564.56 -58.1668L1564.18 -58.4321L1563.79 -58.7018L1563.41 -58.9759L1563.03 -59.2543L1562.65 -59.537L1562.27 -59.824L1561.9 -60.1153L1561.53 -60.4108L1561.16 -60.7106L1560.79 -61.0146L1560.43 -61.3228L1560.07 -61.6352L1559.71 -61.9518L1559.35 -62.2725L1559 -62.5973L1558.65 -62.9261L1558.31 -63.2591L1557.96 -63.5961L1557.62 -63.9371L1557.28 -64.2822L1556.95 -64.6312L1556.61 -64.9841L1556.29 -65.3409L1555.96 -65.7017L1555.64 -66.0662L1555.32 -66.4347L1555 -66.8069L1554.69 -67.1829L1554.38 -67.5627L1554.08 -67.9461L1553.77 -68.3333L1553.48 -68.7241L1553.18 -69.1185L1552.89 -69.5165L1552.6 -69.9181L1552.32 -70.3232L1552.04 -70.7318L1551.76 -71.1438L1551.49 -71.5592L1551.22 -71.9781L1550.96 -72.4002L1550.7 -72.8257L1550.44 -73.2545L1550.19 -73.6865L1549.94 -74.1217L1549.7 -74.5601L1549.46 -75.0016L1549.22 -75.4462L1548.99 -75.8938L1548.76 -76.3444L1548.54 -76.798L1548.32 -77.2546L1548.11 -77.714L1547.9 -78.1762L1547.69 -78.6413L1547.49 -79.1091L1547.3 -79.5796L1547.1 -80.0528L1546.92 -80.5286L1546.74 -81.007L1546.56 -81.4879L1546.39 -81.9714L1546.22 -82.4572L1546.05 -82.9455L1545.9 -83.4361L1545.74 -83.9291L1545.59 -84.4243L1545.45 -84.9217L1545.31 -85.4213L1545.18 -85.923L1545.05 -86.4268L1544.93 -86.9326L1544.81 -87.4403L1544.69 -87.95L1544.58 -88.4616L1544.48 -88.975L1544.38 -89.4901L1544.29 -90.007L1544.2 -90.5255L1544.12 -91.0457L1544.04 -91.5674L1543.97 -92.0907L1543.9 -92.6154L1543.84 -93.1415L1543.79 -93.6689L1543.74 -94.1977L1543.69 -94.7277L1543.65 -95.2589L1543.62 -95.7913L1543.59 -96.3247L1543.57 -96.8592L1543.55 -97.3946L1543.54 -97.931L1543.53 -98.4682L1543.53 -99.0062L1543.53 -99.545L1543.54 -100.084L1543.56 -100.625L1543.58 -101.165L1543.61 -101.707L1543.64 -102.248L1543.68 -102.79L1543.72 -103.333L1543.77 -103.876L1543.82 -104.419L1543.88 -104.962L1543.95 -105.505L1544.02 -106.048L1544.1 -106.592L1544.18 -107.135L1544.27 -107.678L1544.37 -108.221L1544.47 -108.764L1544.58 -109.307L1544.69 -109.849L1544.81 -110.391L1544.93 -110.932L1545.06 -111.473L1545.19 -112.013L1545.34 -112.553L1545.48 -113.091L1545.63 -113.629L1545.79 -114.167L1545.96 -114.703L1546.13 -115.238L1546.3 -115.773L1546.48 -116.306L1546.67 -116.838L1546.86 -117.369L1547.06 -117.899L1547.27 -118.428L1547.48 -118.955L1547.69 -119.48L1547.91 -120.005L1548.14 -120.527L1548.37 -121.048L1548.61 -121.568L1548.85 -122.085L1549.1 -122.601L1549.36 -123.115L1549.62 -123.627L1549.89 -124.137L1550.16 -124.645L1550.44 -125.151L1550.72 -125.655L1551.01 -126.157L1551.3 -126.656L1551.6 -127.153L1551.91 -127.648L1552.22 -128.14L1552.54 -128.63L1552.86 -129.117L1553.19 -129.601L1553.52 -130.083L1553.86 -130.562L1554.2 -131.038L1554.55 -131.512L1554.9 -131.982L1555.26 -132.45L1555.63 -132.914L1556 -133.376L1556.37 -133.834L1556.75 -134.289L1557.14 -134.741L1557.53 -135.189L1557.92 -135.634L1558.33 -136.076L1558.73 -136.514L1559.14 -136.949L1559.56 -137.38L1559.98 -137.807L1560.41 -138.231L1560.84 -138.651L1561.27 -139.067L1561.71 -139.479L1562.16 -139.888L1562.61 -140.292L1563.06 -140.692L1563.52 -141.088L1563.98 -141.481L1564.45 -141.868L1564.93 -142.252L1565.4 -142.631L1565.89 -143.006L1566.37 -143.377L1566.86 -143.743L1567.36 -144.105L1567.86 -144.462L1568.36 -144.815L1568.87 -145.162L1569.38 -145.506L1569.9 -145.844L1570.42 -146.178L1570.94 -146.507L1571.47 -146.831L1572.01 -147.15L1572.54 -147.464L1573.08 -147.773L1573.63 -148.077L1574.18 -148.376L1574.73 -148.669L1575.28 -148.958L1575.84 -149.241L1576.4 -149.519L1576.97 -149.792L1577.54 -150.059L1578.11 -150.321L1578.69 -150.577L1579.27 -150.828L1579.85 -151.074L1580.44 -151.314L1581.03 -151.548L1581.62 -151.776L1582.22 -151.999L1582.82 -152.216L1583.42 -152.428L1584.02 -152.633L1584.63 -152.833L1585.24 -153.027L1585.85 -153.215L1586.47 -153.397L1587.08 -153.573L1587.7 -153.743L1588.33 -153.907L1588.95 -154.065L1589.58 -154.217L1590.21 -154.363L1590.84 -154.503L1591.48 -154.636L1592.11 -154.763L1592.75 -154.884L1593.39 -154.999L1594.03 -155.107L1594.68 -155.209L1595.32 -155.305L1595.97 -155.394L1596.62 -155.477L1597.27 -155.554L1597.93 -155.624L1598.58 -155.688L1599.23 -155.745L1599.89 -155.795L1600.55 -155.839L1601.21 -155.877L1601.87 -155.908L1602.53 -155.932L1603.19 -155.95L1603.86 -155.961L1604.52 -155.965L1605.18 -155.963L1605.85 -155.954L1606.52 -155.938L1607.18 -155.916L1607.85 -155.887L1608.52 -155.851L1609.19 -155.809L1609.85 -155.76L1610.52 -155.704L1611.19 -155.641L1611.86 -155.571L1612.53 -155.495L1613.2 -155.412L1613.87 -155.322L1614.54 -155.225L1615.21 -155.121L1615.87 -155.011L1616.54 -154.894L1617.21 -154.77L1617.88 -154.639L1618.54 -154.501L1619.21 -154.357L1619.87 -154.205L1620.54 -154.047L1621.2 -153.882L1621.86 -153.71L1622.52 -153.532L1623.18 -153.346L1623.84 -153.154L1624.5 -152.955L1625.15 -152.749L1625.81 -152.536L1626.46 -152.316L1627.11 -152.09L1627.76 -151.857L1628.41 -151.617L1629.06 -151.37L1629.7 -151.117L1630.34 -150.857L1630.99 -150.59L1631.62 -150.317L1632.26 -150.036L1632.89 -149.75L1633.53 -149.456L1634.16 -149.156L1634.78 -148.849L1635.41 -148.535L1636.03 -148.215L1636.65 -147.889L1637.27 -147.555L1637.88 -147.216L1638.49 -146.869L1639.1 -146.517L1639.71 -146.157L1640.31 -145.792L1640.91 -145.42L1641.51 -145.041L1642.1 -144.656L1642.69 -144.265L1643.28 -143.868L1643.86 -143.464L1644.44 -143.054L1645.01 -142.637L1645.59 -142.215L1646.15 -141.786L1646.72 -141.351L1647.28 -140.91L1647.84 -140.463L1648.39 -140.01L1648.94 -139.551L1649.48 -139.086L1650.02 -138.615L1650.56 -138.139L1651.09 -137.656L1651.62 -137.167L1652.14 -136.673L1652.66 -136.173L1653.17 -135.667L1653.68 -135.156L1654.19 -134.639L1654.69 -134.116L1655.18 -133.588L1655.67 -133.054L1656.16 -132.515L1656.63 -131.971L1657.11 -131.421L1657.58 -130.865L1658.04 -130.305L1658.5 -129.739L1658.96 -129.169L1659.41 -128.593L1659.85 -128.012L1660.29 -127.425L1660.72 -126.834L1661.14 -126.238L1661.56 -125.638L1661.98 -125.032L1662.39 -124.422L1662.79 -123.807L1663.19 -123.187L1663.58 -122.563L1663.97 -121.934L1664.35 -121.3L1664.72 -120.662L1665.09 -120.02L1665.45 -119.374L1665.8 -118.723L1666.15 -118.068L1666.49 -117.409L1666.83 -116.746L1667.16 -116.079L1667.48 -115.408L1667.79 -114.733L1668.1 -114.054L1668.41 -113.371L1668.7 -112.685L1668.99 -111.995L1669.28 -111.301L1669.55 -110.604L1669.82 -109.904L1670.08 -109.2L1670.34 -108.493L1670.59 -107.783L1670.83 -107.069L1671.06 -106.352L1671.29 -105.633L1671.51 -104.91L1671.72 -104.184L1671.93 -103.456L1672.12 -102.725L1672.31 -101.991L1672.5 -101.254L1672.67 -100.515L1672.84 -99.7739L1673 -99.03L1673.16 -98.2837L1673.3 -97.5352L1673.44 -96.7845L1673.57 -96.0317L1673.7 -95.2769L1673.81 -94.5201L1673.92 -93.7614L1674.02 -93.0009L1674.12 -92.2387L1674.2 -91.4748L1674.28 -90.7093L1674.35 -89.9423L1674.41 -89.1739L1674.47 -88.4042L1674.51 -87.6331L1674.55 -86.8609L1674.58 -86.0875L1674.61 -85.3131L1674.62 -84.5378L1674.63 -83.7615L1674.63 -82.9845L1674.62 -82.2067L1674.6 -81.4282L1674.58 -80.6493L1674.55 -79.8698L1674.5 -79.0899L1674.46 -78.3097L1674.4 -77.5292L1674.34 -76.7486L1674.26 -75.9679L1674.18 -75.1872L1674.09 -74.4065L1674 -73.6261L1673.89 -72.8458L1673.78 -72.0659L1673.66 -71.2864L1673.53 -70.5074L1673.39 -69.7289L1673.25 -68.9511L1673.09 -68.1741L1672.93 -67.3978L1672.76 -66.6224L1672.58 -65.848L1672.4 -65.0747L1672.2 -64.3025L1672 -63.5316L1671.79 -62.7619L1671.57 -61.9937L1671.35 -61.2269L1671.11 -60.4617L1670.87 -59.6981L1670.62 -58.9362L1670.36 -58.1761L1670.1 -57.4179L1669.82 -56.6617L1669.54 -55.9076L1669.25 -55.1555L1668.95 -54.4057L1668.65 -53.6582L1668.33 -52.913L1668.01 -52.1703L1667.68 -51.4302L1667.34 -50.6927L1667 -49.9579L1666.65 -49.2258L1666.28 -48.4967L1665.92 -47.7704L1665.54 -47.0472L1665.15 -46.3272L1664.76 -45.6103L1664.36 -44.8966L1663.96 -44.1864L1663.54 -43.4795L1663.12 -42.7762L1662.69 -42.0765L1662.25 -41.3804L1661.81 -40.6881L1661.35 -39.9996L1660.89 -39.315L1660.43 -38.6344L1659.95 -37.9578L1659.47 -37.2854L1658.98 -36.6173L1658.48 -35.9534L1657.98 -35.2938L1657.47 -34.6388L1656.95 -33.9882L1656.42 -33.3422L1655.89 -32.701L1655.35 -32.0644L1654.81 -31.4327L1654.25 -30.8059L1653.69 -30.1841L1653.13 -29.5673L1652.55 -28.9556L1651.97 -28.3491L1651.38 -27.7479L1650.79 -27.152L1650.19 -26.5615L1649.58 -25.9765L1648.97 -25.3971L1648.35 -24.8233L1647.72 -24.2551L1647.09 -23.6928L1646.45 -23.1362L1645.81 -22.5855L1645.15 -22.0408L1644.5 -21.5022L1643.83 -20.9696L1643.16 -20.4432L1642.49 -19.923L1641.81 -19.4091L1641.12 -18.9016L1640.43 -18.4005L1639.73 -17.9059L1639.02 -17.4178L1638.31 -16.9363L1637.6 -16.4615L1636.88 -15.9935L1636.15 -15.5322L1635.42 -15.0778L1634.68 -14.6303L1633.94 -14.1898L1633.19 -13.7563L1632.44 -13.3299L1631.68 -12.9106L1630.92 -12.4985L1630.15 -12.0937L1629.38 -11.6962L1628.6 -11.3061L1627.82 -10.9234L1627.04 -10.5481L1626.25 -10.1804L1625.45 -9.82022L1624.65 -9.46769L1623.85 -9.12284L1623.04 -8.78571L1622.23 -8.45635L1621.41 -8.13482L1620.59 -7.82115L1619.77 -7.51539L1618.94 -7.2176L1618.11 -6.9278L1617.28 -6.64606L1616.44 -6.3724L1615.6 -6.10688L1614.75 -5.84953L1613.9 -5.6004L1613.05 -5.35953L1612.2 -5.12695L1611.34 -4.9027L1610.48 -4.68683L1609.61 -4.47937L1608.75 -4.28035L1607.88 -4.08981L1607 -3.90778L1606.13 -3.73431L1605.25 -3.56942L1604.37 -3.41313L1603.49 -3.26549L1602.61 -3.12653L1601.72 -2.99627L1600.83 -2.87475L1599.94 -2.76198L1599.05 -2.658L1598.15 -2.56283L1597.26 -2.4765L1596.36 -2.39903L1595.46 -2.33045L1594.56 -2.27078L1593.66 -2.22003L1592.76 -2.17823L1591.85 -2.14541L1590.95 -2.12156L1590.04 -2.10673L1589.13 -2.10092L1588.23 -2.10415L1587.32 -2.11643L1586.41 -2.13779L1585.5 -2.16822L1584.59 -2.20775L1583.68 -2.25638L1582.77 -2.31413L1581.86 -2.381L1580.94 -2.45701L1580.03 -2.54216L1579.12 -2.63646L1578.21 -2.73992L1577.3 -2.85253L1576.39 -2.97431L1575.48 -3.10525L1574.57 -3.24536L1573.67 -3.39464L1572.76 -3.5531L1571.85 -3.72072L1570.95 -3.8975L1570.04 -4.08345L1569.14 -4.27857L1568.24 -4.48284L1567.34 -4.69625L1566.44 -4.91881L1565.54 -5.15051L1564.65 -5.39134L1563.75 -5.64128L1562.86 -5.90033L1561.97 -6.16848L1561.08 -6.44571L1560.19 -6.73201L1559.31 -7.02737L1558.43 -7.33176L1557.55 -7.64519L1556.67 -7.96762L1555.8 -8.29904L1554.93 -8.63942L1554.06 -8.98876L1553.19 -9.34703L1552.33 -9.71421L1551.47 -10.0903L1550.62 -10.4752L1549.76 -10.8689L1548.91 -11.2715L1548.07 -11.6828L1547.22 -12.1029L1546.38 -12.5318L1545.55 -12.9693L1544.72 -13.4155L1543.89 -13.8703L1543.06 -14.3337L1542.24 -14.8057L1541.43 -15.2862L1540.62 -15.7752L1539.81 -16.2727L1539.01 -16.7786L1538.21 -17.2929L1537.42 -17.8155L1536.63 -18.3465L1535.84 -18.8857L1535.07 -19.4331L1534.29 -19.9887L1533.52 -20.5524L1532.76 -21.1243L1532 -21.7042L1531.25 -22.292L1530.5 -22.8879L1529.76 -23.4916L1529.02 -24.1032L1528.29 -24.7226L1527.56 -25.3498L1526.84 -25.9846L1526.13 -26.6271L1525.42 -27.2772L1524.72 -27.9349L1524.03 -28.6L1523.34 -29.2725L1522.66 -29.9525L1521.98 -30.6397L1521.31 -31.3342L1520.65 -32.0359L1519.99 -32.7447L1519.34 -33.4606L1518.7 -34.1836L1518.06 -34.9134L1517.43 -35.6502L1516.81 -36.3937L1516.19 -37.1441L1515.59 -37.9011L1514.99 -38.6647L1514.39 -39.4349L1513.81 -40.2115L1513.23 -40.9946L1512.66 -41.7841L1512.09 -42.5798L1511.54 -43.3817L1510.99 -44.1897L1510.45 -45.0038L1509.92 -45.8239L1509.4 -46.6499L1508.88 -47.4817L1508.37 -48.3193L1507.87 -49.1625L1507.38 -50.0114L1506.9 -50.8658L1506.42 -51.7256L1505.95 -52.5908L1505.5 -53.4613L1505.05 -54.3369L1504.61 -55.2177L1504.17 -56.1036L1503.75 -56.9944L1503.33 -57.8901L1502.93 -58.7905L1502.53 -59.6957L1502.14 -60.6055L1501.76 -61.5198L1501.39 -62.4386L1501.03 -63.3617L1500.68 -64.2891L1500.34 -65.2207L1500 -66.1564L1499.68 -67.0961L1499.36 -68.0396L1499.06 -68.9871L1498.76 -69.9382L1498.48 -70.893L1498.2 -71.8513L1497.93 -72.8131L1497.67 -73.7783L1497.42 -74.7467L1497.19 -75.7183L1496.96 -76.693L1496.74 -77.6707L1496.53 -78.6512L1496.33 -79.6346L1496.14 -80.6206L1495.96 -81.6092L1495.79 -82.6004L1495.63 -83.5939L1495.48 -84.5898L1495.34 -85.5878L1495.21 -86.588L1495.09 -87.5902L1494.98 -88.5943L1494.88 -89.6002L1494.79 -90.6078L1494.71 -91.617L1494.64 -92.6278L1494.58 -93.6399L1494.54 -94.6534L1494.5 -95.668L1494.47 -96.6837L1494.45 -97.7005L1494.45 -98.7181L1494.45 -99.7366L1494.46 -100.756L1494.49 -101.775L1494.52 -102.796L1494.57 -103.816L1494.62 -104.837L1494.69 -105.858L1494.76 -106.879L1494.85 -107.9L1494.95 -108.921L1495.05 -109.942L1495.17 -110.962L1495.3 -111.982L1495.44 -113.001L1495.59 -114.02L1495.75 -115.038L1495.92 -116.055L1496.1 -117.071L1496.29 -118.086L1496.49 -119.1L1496.7 -120.112L1496.93 -121.123L1497.16 -122.133L1497.4 -123.141L1497.66 -124.147L1497.92 -125.151L1498.19 -126.154L1498.48 -127.154L1498.77 -128.152L1499.08 -129.148L1499.4 -130.142L1499.72 -131.133L1500.06 -132.122L1500.41 -133.108L1500.76 -134.091L1501.13 -135.071L1501.51 -136.049L1501.9 -137.023L1502.3 -137.994L1502.71 -138.962L1503.12 -139.926L1503.55 -140.887L1503.99 -141.844L1504.44 -142.798L1504.9 -143.748L1505.37 -144.694L1505.85 -145.635L1506.33 -146.573L1506.83 -147.507L1507.34 -148.436L1507.86 -149.36L1508.39 -150.281L1508.93 -151.196L1509.47 -152.107L1510.03 -153.013L1510.6 -153.914L1511.17 -154.81L1511.76 -155.701L1512.35 -156.587L1512.96 -157.468L1513.57 -158.343L1514.19 -159.212L1514.83 -160.076L1515.47 -160.934L1516.12 -161.787L1516.78 -162.633L1517.45 -163.474L1518.13 -164.308L1518.81 -165.136L1519.51 -165.958L1520.21 -166.774L1520.93 -167.583L1521.65 -168.386L1522.38 -169.182L1523.12 -169.971L1523.87 -170.753L1524.62 -171.529L1525.39 -172.297L1526.16 -173.058L1526.94 -173.813L1527.73 -174.559L1528.53 -175.299L1529.34 -176.031L1530.15 -176.756L1530.97 -177.473L1531.8 -178.182L1532.64 -178.883L1533.48 -179.577L1534.34 -180.263L1535.2 -180.941L1536.06 -181.61L1536.94 -182.271L1537.82 -182.925L1538.71 -183.569L1539.61 -184.206L1540.51 -184.834L1541.42 -185.453L1542.34 -186.064L1543.26 -186.665L1544.19 -187.259L1545.13 -187.843L1546.08 -188.418L1547.03 -188.985L1547.98 -189.542L1548.95 -190.09L1549.92 -190.629L1550.89 -191.158L1551.87 -191.678L1552.86 -192.189L1553.86 -192.69L1554.86 -193.182L1555.86 -193.664L1556.87 -194.137L1557.89 -194.6L1558.91 -195.052L1559.93 -195.495L1560.97 -195.929L1562 -196.352L1563.05 -196.765L1564.09 -197.168L1565.14 -197.561L1566.2 -197.943L1567.26 -198.316L1568.33 -198.678L1569.4 -199.03L1570.47 -199.371L1571.55 -199.702L1572.63 -200.022L1573.72 -200.332L1574.8 -200.631L1575.9 -200.92L1577 -201.198L1578.1 -201.465L1579.2 -201.722L1580.31 -201.967L1581.42 -202.202L1582.53 -202.426L1583.65 -202.639L1584.77 -202.841L1585.89 -203.032L1587.02 -203.212L1588.14 -203.38L1589.27 -203.538L1590.41 -203.685L1591.54 -203.82L1592.68 -203.944L1593.82 -204.057L1594.96 -204.159L1596.1 -204.25L1597.24 -204.329L1598.39 -204.397L1599.54 -204.453L1600.69 -204.499L1601.83 -204.532L1602.99 -204.555L1604.14 -204.566L1605.29 -204.565L1606.44 -204.553L1607.6 -204.53L1608.75 -204.495L1609.9 -204.449L1611.06 -204.391L1612.21 -204.322L1613.37 -204.241L1614.52 -204.148L1615.68 -204.044L1616.83 -203.929L1617.99 -203.802L1619.14 -203.663L1620.29 -203.513L1621.44 -203.351L1622.59 -203.178L1623.74 -202.993L1624.89 -202.797L1626.04 -202.589L1627.19 -202.37L1628.33 -202.139L1629.47 -201.896L1630.61 -201.642L1631.75 -201.377L1632.89 -201.1L1634.02 -200.812L1635.16 -200.512L1636.29 -200.2L1637.42 -199.878L1638.54 -199.544L1639.66 -199.198L1640.78 -198.841L1641.9 -198.473L1643.01 -198.093L1644.13 -197.703L1645.23 -197.3L1646.34 -196.887L1647.44 -196.462L1648.53 -196.027L1649.63 -195.58L1650.72 -195.121L1651.8 -194.652L1652.88 -194.172L1653.96 -193.681L1655.03 -193.178L1656.1 -192.665L1657.16 -192.141L1658.22 -191.606L1659.28 -191.06L1660.33 -190.503L1661.37 -189.935L1662.41 -189.357L1663.44 -188.768L1664.47 -188.169L1665.49 -187.559L1666.51 -186.938L1667.52 -186.307L1668.53 -185.665L1669.53 -185.013L1670.52 -184.351L1671.51 -183.678L1672.49 -182.996L1673.47 -182.303L1674.44 -181.6L1675.4 -180.887L1676.35 -180.163L1677.3 -179.43L1678.24 -178.688L1679.18 -177.935L1680.11 -177.172L1681.03 -176.4L1681.94 -175.619L1682.85 -174.827L1683.74 -174.027L1684.63 -173.217L1685.52 -172.397L1686.39 -171.568L1687.26 -170.73L1688.12 -169.883L1688.97 -169.027L1689.81 -168.162L1690.65 -167.288L1691.47 -166.406L1692.29 -165.514L1693.1 -164.614L1693.9 -163.705L1694.69 -162.788L1695.48 -161.863L1696.25 -160.929L1697.02 -159.987L1697.77 -159.036L1698.52 -158.078L1699.26 -157.111L1699.99 -156.137L1700.7 -155.155L1701.41 -154.165L1702.11 -153.168L1702.8 -152.163L1703.48 -151.15L1704.15 -150.131L1704.81 -149.104L1705.46 -148.07L1706.1 -147.028L1706.73 -145.98L1707.35 -144.925L1707.96 -143.863L1708.56 -142.795L1709.15 -141.72L1709.72 -140.638L1710.29 -139.55L1710.85 -138.456L1711.39 -137.356L1711.93 -136.249L1712.45 -135.137L1712.96 -134.019L1713.46 -132.895L1713.95 -131.765L1714.43 -130.63L1714.9 -129.49L1715.36 -128.344L1715.8 -127.193L1716.24 -126.037L1716.66 -124.876L1717.07 -123.71L1717.47 -122.539L1717.86 -121.364L1718.23 -120.184L1718.6 -119L1718.95 -117.811L1719.29 -116.618L1719.62 -115.422L1719.93 -114.221L1720.24 -113.016L1720.53 -111.808L1720.81 -110.596L1721.08 -109.381L1721.33 -108.162L1721.58 -106.94L1721.81 -105.715L1722.03 -104.487L1722.23 -103.256L1722.43 -102.022L1722.61 -100.786L1722.78 -99.547L1722.93 -98.3057L1723.08 -97.0622L1723.21 -95.8166L1723.33 -94.5689L1723.44 -93.3194L1723.53 -92.068L1723.61 -90.8151L1723.68 -89.5606L1723.74 -88.3047L1723.78 -87.0476L1723.81 -85.7893L1723.83 -84.53L1723.83 -83.2698L1723.82 -82.0089L1723.8 -80.7473L1723.77 -79.4852L1723.72 -78.2227L1723.66 -76.96L1723.59 -75.6972L1723.51 -74.4344L1723.41 -73.1717L1723.3 -71.9092L1723.18 -70.6472L1723.04 -69.3857L1722.89 -68.1248L1722.73 -66.8647L1722.55 -65.6055L1722.36 -64.3474L1722.16 -63.0904L1721.95 -61.8347L1721.72 -60.5804L1721.48 -59.3277L1721.23 -58.0766L1720.97 -56.8274L1720.69 -55.5801L1720.4 -54.3349L1720.09 -53.0918L1719.78 -51.8511L1719.45 -50.6129L1719.1 -49.3772L1718.75 -48.1443L1718.38 -46.9141L1718 -45.687L1717.61 -44.4629L1717.2 -43.2421L1716.79 -42.0246L1716.35 -40.8106L1715.91 -39.6002L1715.46 -38.3936L1714.99 -37.1908L1714.51 -35.992L1714.01 -34.7973L1713.51 -33.6068L1712.99 -32.4207L1712.46 -31.2391L1711.92 -30.0621L1711.36 -28.8899L1710.79 -27.7225L1710.21 -26.5601L1709.62 -25.4029L1709.02 -24.2509L1708.4 -23.1042L1707.78 -21.963L1707.14 -20.8274L1706.49 -19.6976L1705.82 -18.5736L1705.15 -17.4556L1704.46 -16.3437L1703.76 -15.2379L1703.05 -14.1386L1702.33 -13.0456L1701.6 -11.9593L1700.85 -10.8796L1700.1 -9.8067L1699.33 -8.74075L1698.55 -7.68183L1697.76 -6.63007L1696.96 -5.58558L1696.15 -4.54847L1695.33 -3.51886L1694.49 -2.49686L1693.65 -1.48258L1692.79 -0.476135L1691.93 0.52236L1691.05 1.5128L1690.16 2.49507L1689.27 3.46907L1688.36 4.43468L1687.44 5.3918L1686.51 6.34032L1685.57 7.28013L1684.63 8.21113L1683.67 9.13322L1682.7 10.0463L1681.72 10.9502L1680.73 11.8449L1679.74 12.7303L1678.73 13.6063L1677.71 14.4727L1676.69 15.3295L1675.65 16.1766L1674.61 17.0139L1673.55 17.8412L1672.49 18.6585L1671.42 19.4658L1670.34 20.2628L1669.25 21.0495L1668.16 21.8258L1667.05 22.5917L1665.94 23.347L1664.81 24.0916L1663.68 24.8255L1662.55 25.5486L1661.4 26.2607L1660.25 26.9619L1659.08 27.6519L1657.91 28.3308L1656.74 28.9985L1655.55 29.6548L1654.36 30.2997L1653.16 30.9331L1651.96 31.555L1650.74 32.1652L1649.52 32.7637L1648.3 33.3504L1647.07 33.9252L1645.83 34.4881L1644.58 35.039L1643.33 35.5778L1642.07 36.1045L1640.81 36.6189L1639.54 37.1211L1638.26 37.6109L1636.98 38.0884L1635.69 38.5533L1634.4 39.0058L1633.1 39.4456L1631.8 39.8728L1630.49 40.2873L1629.18 40.689L1627.86 41.0779L1626.54 41.4539L1625.21 41.817L1623.88 42.1671L1622.55 42.5042L1621.21 42.8282L1619.86 43.1391L1618.52 43.4368L1617.16 43.7213L1615.81 43.9926L1614.45 44.2505L1613.09 44.4951L1611.73 44.7263L1610.36 44.9441L1608.99 45.1484L1607.62 45.3392L1606.24 45.5165L1604.86 45.6803L1603.48 45.8304L1602.1 45.967L1600.71 46.0898L1599.33 46.199L1597.94 46.2945L1596.55 46.3762L1595.15 46.4442L1593.76 46.4984L1592.37 46.5388L1590.97 46.5654L1589.57 46.5781L1588.18 46.577L1586.78 46.562L1585.38 46.5332L1583.98 46.4904L1582.58 46.4337L1581.18 46.3631L1579.78 46.2786L1578.38 46.1801L1576.98 46.0677L1575.58 45.9414L1574.18 45.8011L1572.79 45.6469L1571.39 45.4787L1569.99 45.2966L1568.6 45.1005L1567.2 44.8905L1565.81 44.6666L1564.42 44.4287L1563.03 44.1769L1561.65 43.9112L1560.26 43.6316L1558.88 43.3382L1557.5 43.0308L1556.12 42.7097L1554.75 42.3746L1553.37 42.0258L1552 41.6632L1550.64 41.2867L1549.27 40.8966L1547.91 40.4927L1546.56 40.0751L1545.2 39.6438L1543.85 39.1989L1542.51 38.7404L1541.16 38.2683L1539.83 37.7826L1538.49 37.2834L1537.16 36.7708L1535.84 36.2447L1534.52 35.7052L1533.2 35.1523L1531.89 34.5861L1530.59 34.0066L1529.29 33.4139L1527.99 32.808L1526.71 32.1889L1525.42 31.5567L1524.14 30.9115L1522.87 30.2533L1521.61 29.5822L1520.35 28.8982L1519.1 28.2013L1517.85 27.4916L1516.61 26.7693L1515.38 26.0342L1514.15 25.2866L1512.93 24.5265L1511.72 23.7538L1510.51 22.9688L1509.31 22.1714L1508.12 21.3617L1506.94 20.5398L1505.77 19.7058L1504.6 18.8597L1503.44 18.0016L1502.29 17.1317L1501.15 16.2498L1500.01 15.3562L1498.89 14.4509L1497.77 13.534L1496.66 12.6055L1495.56 11.6657L1494.47 10.7144L1493.39 9.75184L1492.32 8.7781L1491.26 7.79325L1490.2 6.79737L1489.16 5.79056L1488.13 4.77291L1487.1 3.7445L1486.09 2.70543L1485.08 1.6558L1484.09 0.595688L1483.11 -0.474793L1482.13 -1.55555L1481.17 -2.6465L1480.22 -3.74752L1479.28 -4.85852L1478.35 -5.9794L1477.43 -7.11005L1476.52 -8.25038L1475.62 -9.40028L1474.73 -10.5596L1473.86 -11.7283L1473 -12.9063L1472.14 -14.0934L1471.3 -15.2895L1470.47 -16.4945L1469.66 -17.7083L1468.85 -18.9308L1468.06 -20.1619L1467.28 -21.4015L1466.51 -22.6493L1465.75 -23.9054L1465.01 -25.1697L1464.28 -26.4419L1463.56 -27.7219L1462.85 -29.0097L1462.16 -30.3052L1461.48 -31.6081L1460.81 -32.9184L1460.16 -34.2359L1459.52 -35.5606L1458.89 -36.8923L1458.27 -38.2308L1457.67 -39.5761L1457.08 -40.928L1456.51 -42.2864L1455.94 -43.6512L1455.4 -45.0221L1454.86 -46.3992L1454.34 -47.7822L1453.83 -49.171L1453.34 -50.5655L1452.86 -51.9656L1452.4 -53.3711L1451.95 -54.7819L1451.51 -56.1978L1451.09 -57.6187L1450.68 -59.0445L1450.28 -60.475L1449.9 -61.9102L1449.54 -63.3497L1449.18 -64.7936L1448.85 -66.2416L1448.53 -67.6937L1448.22 -69.1496L1447.92 -70.6093L1447.65 -72.0726L1447.38 -73.5393L1447.13 -75.0093L1446.9 -76.4825L1446.68 -77.9587L1446.48 -79.4378L1446.29 -80.9196L1446.11 -82.4039L1445.95 -83.8907L1445.81 -85.3798L1445.68 -86.871L1445.56 -88.3642L1445.46 -89.8592L1445.38 -91.3559L1445.31 -92.8542L1445.26 -94.3538L1445.22 -95.8547L1445.19 -97.3566L1445.19 -98.8595L1445.19 -100.363L1445.22 -101.867L1445.25 -103.372L1445.31 -104.877L1445.37 -106.383L1445.46 -107.888L1445.56 -109.393L1445.67 -110.898L1445.8 -112.402L1445.94 -113.906L1446.1 -115.409L1446.28 -116.912L1446.47 -118.413L1446.68 -119.913L1446.9 -121.411L1447.13 -122.909L1447.39 -124.404L1447.65 -125.898L1447.93 -127.39L1448.23 -128.879L1448.55 -130.367L1448.87 -131.851L1449.22 -133.334L1449.58 -134.813L1449.95 -136.29L1450.34 -137.764L1450.74 -139.234L1451.16 -140.702L1451.6 -142.165L1452.04 -143.626L1452.51 -145.082L1452.99 -146.534L1453.48 -147.982L1453.99 -149.427L1454.52 -150.866L1455.05 -152.301L1455.61 -153.732L1456.18 -155.157L1456.76 -156.578L1457.36 -157.993L1457.97 -159.404L1458.6 -160.808L1459.24 -162.207L1459.9 -163.601L1460.57 -164.988L1461.25 -166.37L1461.95 -167.745L1462.66 -169.114L1463.39 -170.477L1464.13 -171.833L1464.89 -173.182L1465.66 -174.525L1466.44 -175.86L1467.24 -177.188L1468.05 -178.509L1468.88 -179.823L1469.72 -181.128L1470.57 -182.426L1471.44 -183.717L1472.32 -184.999L1473.21 -186.273L1474.12 -187.539L1475.04 -188.796L1475.97 -190.045L1476.91 -191.285L1477.87 -192.516L1478.85 -193.739L1479.83 -194.952L1480.83 -196.156L1481.84 -197.351L1482.86 -198.536L1483.9 -199.711L1484.94 -200.877L1486 -202.033L1487.08 -203.179L1488.16 -204.315L1489.26 -205.441L1490.36 -206.556L1491.48 -207.661L1492.62 -208.755L1493.76 -209.838L1494.91 -210.911L1496.08 -211.972L1497.26 -213.023L1498.45 -214.062L1499.65 -215.09L1500.86 -216.106L1502.08 -217.111L1503.31 -218.105L1504.55 -219.086L1505.81 -220.056L1507.07 -221.013L1508.34 -221.959L1509.63 -222.892L1510.92 -223.813L1512.23 -224.722L1513.54 -225.618L1514.86 -226.501L1516.2 -227.372L1517.54 -228.23L1518.89 -229.074L1520.25 -229.906L1521.62 -230.725L1523 -231.53L1524.39 -232.323L1525.79 -233.101L1527.19 -233.867L1528.6 -234.618L1530.03 -235.356L1531.46 -236.08L1532.89 -236.791L1534.34 -237.487L1535.79 -238.17L1537.25 -238.838L1538.72 -239.492L1540.2 -240.132L1541.68 -240.757L1543.17 -241.368L1544.66 -241.965L1546.17 -242.547L1547.68 -243.114L1549.19 -243.667L1550.72 -244.204L1552.24 -244.727L1553.78 -245.235L1555.32 -245.728L1556.86 -246.206L1558.42 -246.669L1559.97 -247.117L1561.53 -247.549L1563.1 -247.966L1564.67 -248.368L1566.25 -248.754L1567.83 -249.125L1569.42 -249.481L1571.01 -249.82L1572.6 -250.144L1574.2 -250.453L1575.8 -250.746L1577.41 -251.023L1579.02 -251.284L1580.63 -251.529L1582.24 -251.759L1583.86 -251.973L1585.48 -252.17L1587.11 -252.352L1588.74 -252.517L1590.36 -252.667L1592 -252.8L1593.63 -252.918L1595.26 -253.019" stroke="#0E0E0E" stroke-width="3" stroke-linecap="round"/>
<path fill-rule="evenodd" clip-rule="evenodd" d="M675.778 229.21C667.69 215.201 647.47 215.201 639.382 229.21L552.032 380.505C543.944 394.513 554.054 412.024 570.23 412.024H744.93C761.106 412.024 771.216 394.513 763.128 380.505L675.778 229.21ZM656.862 394.434C686.208 394.434 709.997 370.644 709.997 341.299C709.997 311.953 686.208 288.164 656.862 288.164C627.517 288.164 603.728 311.953 603.728 341.299C603.728 370.644 627.517 394.434 656.862 394.434Z" fill="#0E0E0E"/>
<path d="M1255.94 327.633L1272.21 311.36C1276.64 306.933 1276.64 299.755 1272.21 295.327L1189.63 212.747C1185.2 208.32 1178.03 208.32 1173.6 212.747L1157.33 229.019C1152.9 233.447 1152.9 240.625 1157.33 245.052L1239.91 327.633C1244.33 332.06 1251.51 332.06 1255.94 327.633Z" fill="#0E0E0E"/>
<path d="M1147.78 383.23L1170.01 377.274C1176.06 375.654 1179.65 369.437 1178.02 363.389L1147.8 250.582C1146.18 244.534 1139.96 240.945 1133.91 242.566L1111.68 248.522C1105.64 250.143 1102.05 256.359 1103.67 262.407L1133.89 375.214C1135.52 381.262 1141.73 384.851 1147.78 383.23Z" fill="#0E0E0E"/>
<path d="M1026.29 377.293L1048.52 383.249C1054.56 384.87 1060.78 381.281 1062.4 375.233L1092.63 262.426C1094.25 256.378 1090.66 250.162 1084.61 248.541L1062.38 242.585C1056.33 240.965 1050.12 244.554 1048.5 250.602L1018.27 363.408C1016.65 369.456 1020.24 375.673 1026.29 377.293Z" fill="#0E0E0E"/>
<path d="M924.059 311.399L940.331 327.671C944.759 332.098 951.937 332.098 956.364 327.671L1038.94 245.091C1043.37 240.663 1043.37 233.485 1038.94 229.058L1022.67 212.786C1018.24 208.358 1011.07 208.358 1006.64 212.786L924.059 295.366C919.631 299.793 919.631 306.971 924.059 311.399Z" fill="#0E0E0E"/>
<path d="M868.486 203.215L874.442 225.444C876.062 231.492 882.279 235.081 888.327 233.46L1001.13 203.234C1007.18 201.613 1010.77 195.397 1009.15 189.349L1003.19 167.12C1001.57 161.073 995.357 157.483 989.309 159.104L876.502 189.33C870.454 190.951 866.865 197.167 868.486 203.215Z" fill="#0E0E0E"/>
<path d="M874.422 81.731L868.465 103.959C866.845 110.007 870.434 116.224 876.482 117.844L989.289 148.071C995.337 149.691 1001.55 146.102 1003.17 140.054L1009.13 117.826C1010.75 111.778 1007.16 105.562 1001.11 103.941L888.306 73.7146C882.259 72.094 876.042 75.6831 874.422 81.731Z" fill="#0E0E0E"/>
<path d="M940.319 -20.4959L924.047 -4.22348C919.619 0.203882 919.619 7.38207 924.047 11.8094L1006.63 94.3897C1011.05 98.8171 1018.23 98.817 1022.66 94.3897L1038.93 78.1173C1043.36 73.6899 1043.36 66.5118 1038.93 62.0844L956.352 -20.4959C951.925 -24.9232 944.746 -24.9232 940.319 -20.4959Z" fill="#0E0E0E"/>
<path d="M1048.5 -76.0856L1026.27 -70.1295C1020.22 -68.509 1016.63 -62.2925 1018.25 -56.2446L1048.48 56.5621C1050.1 62.61 1056.32 66.1991 1062.36 64.5785L1084.59 58.6224C1090.64 57.0019 1094.23 50.7854 1092.61 44.7375L1062.38 -68.0692C1060.76 -74.1171 1054.54 -77.7062 1048.5 -76.0856Z" fill="#0E0E0E"/>
<path d="M1169.96 -70.137L1147.73 -76.0931C1141.69 -77.7136 1135.47 -74.1246 1133.85 -68.0767L1103.62 44.73C1102 50.7779 1105.59 56.9944 1111.64 58.6149L1133.87 64.571C1139.92 66.1916 1146.13 62.6025 1147.75 56.5546L1177.98 -56.2521C1179.6 -62.3 1176.01 -68.5165 1169.96 -70.137Z" fill="#0E0E0E"/>
<path d="M1272.21 -4.24243L1255.94 -20.5148C1251.51 -24.9422 1244.33 -24.9422 1239.9 -20.5148L1157.32 62.0655C1152.89 66.4928 1152.89 73.671 1157.32 78.0984L1173.59 94.3707C1178.02 98.7981 1185.2 98.7981 1189.63 94.3707L1272.21 11.7905C1276.64 7.36311 1276.64 0.184934 1272.21 -4.24243Z" fill="#0E0E0E"/>
<path d="M1327.78 103.937L1321.83 81.7085C1320.21 75.6606 1313.99 72.0715 1307.94 73.692L1195.14 103.919C1189.09 105.539 1185.5 111.756 1187.12 117.803L1193.07 140.032C1194.7 146.08 1200.91 149.669 1206.96 148.048L1319.77 117.822C1325.81 116.201 1329.4 109.985 1327.78 103.937Z" fill="#0E0E0E"/>
<path d="M1321.83 225.421L1327.79 203.193C1329.41 197.145 1325.82 190.928 1319.77 189.308L1206.97 159.081C1200.92 157.461 1194.7 161.05 1193.08 167.098L1187.13 189.326C1185.51 195.374 1189.09 201.591 1195.14 203.211L1307.95 233.438C1314 235.058 1320.21 231.469 1321.83 225.421Z" fill="#0E0E0E"/>
<path fill-rule="evenodd" clip-rule="evenodd" d="M1503.07 403.824C1548.4 448.353 1621.25 447.705 1665.78 402.376C1701.78 365.72 1708.25 311.07 1685.44 267.951L1583.7 321.747L1635.68 219.068C1592.16 197.025 1537.63 204.463 1501.62 241.119C1457.09 286.449 1457.74 359.294 1503.07 403.824Z" fill="#0E0E0E"/>
<path d="M234.817 622.707C234.83 625.687 232.418 628.109 229.438 628.109H200.748C197.786 628.109 195.381 625.714 195.369 622.752L195.161 572.947C195.15 570.396 193.785 568.042 191.575 566.766L37.9836 478.09C36.9114 477.471 36.0855 476.501 35.6454 475.344L27.5713 454.118C26.3597 450.933 28.3774 447.438 31.7416 446.895L54.1606 443.275C55.3828 443.077 56.6357 443.307 57.7079 443.926L189.547 520.044C191.944 521.428 194.938 519.691 194.927 516.923L193.606 200.763C193.601 199.517 194.028 198.308 194.815 197.342L209.152 179.747C211.305 177.105 215.34 177.105 217.493 179.747L231.846 197.362C232.623 198.316 233.05 199.507 233.055 200.738L234.817 622.707Z" fill="#0E0E0E"/>
</g>
</svg>
