<svg width="350" height="508" viewBox="0 0 350 508" fill="none" xmlns="http://www.w3.org/2000/svg">
<g clip-path="url(#clip0_3577_968)">
<path d="M332.427 22.213C343.361 41.151 346.782 59.7938 338.111 82.7977C329.423 105.845 308.588 133.296 270.9 169.778C261.615 178.767 251.223 186.677 239.519 192.091C202.936 209.012 162.758 215.501 129.048 213.104C112.193 211.905 96.9682 208.486 84.6241 203.05C72.2777 197.613 62.8383 190.17 57.508 180.937C45.8737 160.786 37.7744 141.291 41.989 121.385C46.2017 101.488 62.7503 81.0462 100.771 59.095C138.786 37.1469 190.978 17.8997 236.565 9.17831C259.36 4.8174 280.479 3.09315 297.337 4.96644C314.215 6.84188 326.708 12.3085 332.427 22.213Z" fill="#E6F0DF" stroke="#071C00" stroke-width="0.826474"/>
<mask id="mask0_3577_968" style="mask-type:alpha" maskUnits="userSpaceOnUse" x="40" y="3" width="304" height="211">
<path d="M332.427 22.213C343.361 41.151 346.782 59.7938 338.111 82.7977C329.423 105.845 308.588 133.296 270.9 169.778C261.615 178.767 251.223 186.677 239.519 192.091C202.936 209.012 162.758 215.501 129.048 213.104C112.193 211.905 96.9682 208.486 84.6241 203.05C72.2777 197.613 62.8383 190.17 57.508 180.937C45.8737 160.786 37.7744 141.291 41.989 121.385C46.2017 101.488 62.7503 81.0462 100.771 59.095C138.786 37.1469 190.978 17.8997 236.565 9.17831C259.36 4.8174 280.479 3.09315 297.337 4.96644C314.215 6.84188 326.708 12.3085 332.427 22.213Z" fill="#E6F0DF" stroke="#071C00" stroke-width="0.826474"/>
</mask>
<g mask="url(#mask0_3577_968)">
<path d="M103.28 167.111L96.6248 85.2626L116.996 83.6062C124.029 83.0343 129.994 83.5868 134.89 85.2636C139.898 86.8093 144.01 89.3433 147.226 92.8657C150.442 96.388 152.873 100.768 154.519 106.004C156.277 111.11 157.422 116.937 157.955 123.484C158.536 130.639 158.12 136.775 156.705 141.895C155.291 147.014 153.196 151.273 150.421 154.673C147.636 157.951 144.358 160.414 140.586 162.063C136.814 163.713 132.867 164.705 128.744 165.04L103.28 167.111ZM66.1166 63.5757L76.6764 193.442L132.697 188.886C142.64 188.078 151.116 185.741 158.125 181.875C165.246 177.879 170.995 172.773 175.372 166.558C179.87 160.334 183.006 153.122 184.781 144.921C186.555 136.721 187.058 127.892 186.289 118.434C185.411 107.642 183.131 98.3681 179.449 90.6117C175.888 82.8454 171.223 76.5115 165.454 71.61C159.806 66.6987 153.236 63.205 145.744 61.1289C138.373 59.043 130.504 58.3402 122.137 59.0205L66.1166 63.5757ZM220.59 134.503C220.284 130.744 220.347 127.016 220.779 123.319C221.211 119.622 222.162 116.311 223.633 113.384C225.225 110.447 227.407 108.011 230.179 106.077C232.941 104.022 236.505 102.816 240.87 102.461C245.236 102.106 248.947 102.72 252.005 104.302C255.175 105.753 257.722 107.804 259.646 110.455C261.692 113.096 263.226 116.206 264.249 119.785C265.273 123.363 265.937 127.032 266.243 130.791C266.549 134.55 266.485 138.278 266.054 141.975C265.612 145.55 264.6 148.867 263.018 151.925C261.547 154.852 259.365 157.287 256.472 159.232C253.7 161.166 250.131 162.31 245.766 162.665C241.4 163.02 237.694 162.467 234.645 161.006C231.597 159.545 229.05 157.494 227.005 154.853C225.071 152.081 223.597 148.967 222.583 145.509C221.56 141.931 220.895 138.262 220.59 134.503ZM194.762 136.603C195.373 144.121 197.077 150.818 199.874 156.693C202.671 162.569 206.369 167.517 210.968 171.537C215.557 175.436 220.916 178.295 227.045 180.116C233.174 181.937 239.937 182.547 247.333 181.945C254.73 181.344 261.305 179.65 267.06 176.862C272.935 174.066 277.822 170.373 281.721 165.784C285.61 161.073 288.46 155.593 290.271 149.343C292.082 143.093 292.682 136.209 292.071 128.691C291.459 121.173 289.755 114.476 286.958 108.601C284.152 102.604 280.454 97.656 275.865 93.7571C271.266 89.7369 265.841 86.8214 259.591 85.0105C253.452 83.0685 246.684 82.3982 239.288 82.9997C231.891 83.6011 225.321 85.356 219.576 88.2642C213.822 91.0513 209 94.7999 205.111 99.5103C201.212 104.099 198.362 109.58 196.561 115.951C194.751 122.201 194.151 129.085 194.762 136.603ZM323.13 64.0984L321.399 42.8179L295.572 44.918L297.302 66.1986L323.13 64.0984ZM298.485 80.7494L306.132 174.784L331.959 172.684L324.313 78.6492L298.485 80.7494ZM337.375 77.5872L345.021 171.622L370.849 169.522L366.841 120.231C366.062 110.651 367.081 103.672 369.898 99.2932C372.706 94.7929 377.626 92.2568 384.659 91.6849C390.843 91.182 395.305 92.7721 398.046 96.4552C400.777 100.017 402.458 105.678 403.089 113.438L407.407 166.549L433.235 164.449L428.532 106.609C428.059 100.789 427.084 95.5587 425.608 90.9184C424.244 86.147 422.155 82.2279 419.343 79.161C416.52 75.9729 412.792 73.6518 408.157 72.1977C403.634 70.6126 397.917 70.101 391.006 70.663C385.549 71.1067 380.317 72.8137 375.31 75.7841C370.293 78.6332 366.37 82.9191 363.54 88.6419L362.994 88.6863L361.929 75.5906L337.375 77.5872ZM487.592 137.692C483.591 138.017 480.187 137.44 477.381 135.959C474.576 134.478 472.216 132.473 470.301 129.944C468.508 127.404 467.114 124.527 466.121 121.312C465.238 117.966 464.659 114.596 464.383 111.201C464.097 107.684 464.19 104.32 464.661 101.108C465.243 97.7654 466.285 94.8123 467.785 92.2491C469.397 89.5549 471.417 87.3766 473.845 85.7145C476.394 84.0425 479.488 83.0586 483.126 82.7628C487.37 82.4177 490.95 82.92 493.867 84.2695C496.784 85.6191 499.2 87.5587 501.115 90.0883C503.029 92.6179 504.493 95.6114 505.507 99.0686C506.51 102.405 507.17 106.013 507.485 109.893C507.761 113.288 507.542 116.602 506.829 119.833C506.226 122.934 505.115 125.77 503.493 128.343C501.871 130.916 499.725 133.044 497.054 134.726C494.384 136.408 491.23 137.396 487.592 137.692ZM535.471 150.094L528.313 62.0614L503.758 64.058L504.779 76.608L504.415 76.6376C500.819 71.4374 496.562 67.8776 491.646 65.9583C486.851 64.0291 481.361 63.3159 475.177 63.8188C468.629 64.3512 462.912 66.0977 458.027 69.0581C453.262 72.0088 449.36 75.8048 446.32 80.4461C443.27 84.9662 441.067 90.1497 439.711 95.9966C438.467 101.712 438.092 107.602 438.585 113.665C439.107 120.091 440.333 126.156 442.261 131.858C444.301 137.428 447.135 142.263 450.764 146.362C454.383 150.34 458.843 153.395 464.142 155.528C469.432 157.539 475.594 158.258 482.627 157.686C488.326 157.223 493.628 155.632 498.533 152.914C503.55 150.065 507.251 146.041 509.636 140.843L509.999 140.813L511.005 153.182C511.669 159.841 510.48 165.491 507.44 170.133C504.521 174.764 499.424 177.375 492.149 177.967C487.541 178.342 483.4 177.702 479.726 176.048C476.061 174.515 473.426 171.373 471.819 166.621L446.173 168.706C446.97 174.012 448.795 178.441 451.647 181.993C454.63 185.656 458.161 188.542 462.238 190.652C466.437 192.752 470.945 194.155 475.763 194.862C480.712 195.68 485.49 195.902 490.098 195.527C500.89 194.65 509.381 192.495 515.57 189.062C521.76 185.629 526.38 181.653 529.431 177.133C532.491 172.734 534.308 168.07 534.884 163.141C535.581 158.202 535.777 153.853 535.471 150.094Z" fill="#071C00"/>
</g>
<path d="M283.2 394.386C286.081 399.377 287.131 403.681 286.674 407.481C286.216 411.277 284.247 414.632 280.965 417.717C274.377 423.908 262.604 428.911 247.628 434.054C241.141 436.282 234.064 438.533 226.568 440.917C199.53 449.517 167.049 459.847 137.215 477.071C99.195 499.022 73.2171 503.133 53.8796 496.833C34.5336 490.53 21.6999 473.768 10.0656 453.617C4.32369 443.672 4.22085 431.688 8.53693 418.568C12.854 405.446 21.5807 391.228 33.4293 376.874C57.1247 348.166 93.2408 318.99 131.265 297.037C150.208 286.101 167.69 284.202 183.625 288.106C199.575 292.013 214.014 301.742 226.834 314.127C250.197 336.697 268.098 367.997 279.908 388.648C281.064 390.669 282.161 392.588 283.2 394.386Z" fill="#E6F0DF" stroke="#071C00" stroke-width="0.826474"/>
<mask id="mask1_3577_968" style="mask-type:alpha" maskUnits="userSpaceOnUse" x="5" y="285" width="283" height="215">
<path d="M283.201 394.386C286.082 399.377 287.132 403.681 286.674 407.481C286.217 411.277 284.248 414.632 280.966 417.717C274.378 423.908 262.605 428.911 247.629 434.054C241.142 436.282 234.065 438.533 226.569 440.917C199.53 449.517 167.049 459.847 137.216 477.071C99.196 499.022 73.2181 503.133 53.8806 496.833C34.5346 490.53 21.7009 473.768 10.0666 453.617C4.32467 443.672 4.22183 431.688 8.5379 418.568C12.8549 405.446 21.5817 391.228 33.4303 376.874C57.1257 348.166 93.2418 318.99 131.266 297.037C150.209 286.101 167.691 284.202 183.626 288.106C199.576 292.013 214.015 301.742 226.835 314.127C250.198 336.697 268.099 367.997 279.909 388.648C281.065 390.669 282.162 392.588 283.201 394.386Z" fill="#E6F0DF" stroke="#071C00" stroke-width="0.826474"/>
</mask>
<g mask="url(#mask1_3577_968)">
<path d="M-161.163 402.791L-167.819 320.942L-147.447 319.286C-140.415 318.714 -134.45 319.266 -129.553 320.943C-124.545 322.489 -120.433 325.023 -117.217 328.545C-114.002 332.068 -111.571 336.447 -109.924 341.684C-108.166 346.789 -107.021 352.616 -106.489 359.164C-105.907 366.318 -106.323 372.455 -107.738 377.574C-109.153 382.694 -111.248 386.953 -114.023 390.352C-116.808 393.63 -120.086 396.094 -123.858 397.743C-127.629 399.393 -131.577 400.385 -135.699 400.72L-161.163 402.791ZM-198.327 299.255L-187.767 429.121L-131.746 424.566C-121.803 423.758 -113.327 421.421 -106.318 417.555C-99.1974 413.559 -93.4486 408.453 -89.0716 402.238C-84.5734 396.014 -81.437 388.801 -79.6627 380.601C-77.8883 372.401 -77.3856 363.572 -78.1547 354.114C-79.0322 343.322 -81.312 334.048 -84.9942 326.291C-88.5551 318.525 -93.2201 312.191 -98.9892 307.29C-104.637 302.378 -111.207 298.885 -118.7 296.809C-126.071 294.723 -133.939 294.02 -142.306 294.7L-198.327 299.255ZM-43.8536 370.183C-44.1593 366.424 -44.0963 362.696 -43.6645 358.999C-43.2328 355.302 -42.2815 351.99 -40.8107 349.063C-39.2186 346.126 -37.0365 343.691 -34.2644 341.757C-31.5021 339.701 -27.9383 338.496 -23.5731 338.141C-19.2079 337.786 -15.4962 338.4 -12.4381 339.982C-9.26869 341.433 -6.72178 343.484 -4.79741 346.135C-2.75178 348.776 -1.2173 351.886 -0.19397 355.464C0.829365 359.043 1.49386 362.712 1.79951 366.471C2.10516 370.229 2.04212 373.957 1.61037 377.654C1.16876 381.23 0.156853 384.547 -1.42537 387.605C-2.89618 390.532 -5.07828 392.967 -7.97167 394.911C-10.7438 396.846 -14.3125 397.99 -18.6777 398.345C-23.043 398.7 -26.7497 398.147 -29.7979 396.686C-32.8461 395.225 -35.393 393.174 -37.4386 390.533C-39.3728 387.761 -40.8467 384.646 -41.8602 381.189C-42.8835 377.61 -43.548 373.942 -43.8536 370.183ZM-69.6813 372.283C-69.07 379.801 -67.3659 386.497 -64.5691 392.373C-61.7722 398.248 -58.0743 403.196 -53.4754 407.216C-48.8863 411.115 -43.5273 413.975 -37.3984 415.796C-31.2695 417.617 -24.5067 418.226 -17.11 417.625C-9.71335 417.023 -3.1379 415.329 2.61635 412.542C8.49185 409.745 13.379 406.052 17.2779 401.463C21.167 396.753 24.0169 391.273 25.8278 385.023C27.6387 378.772 28.2385 371.888 27.6272 364.37C27.0159 356.852 25.3118 350.156 22.5149 344.28C19.7082 338.283 16.0103 333.336 11.4212 329.437C6.82229 325.417 1.39774 322.501 -4.85244 320.69C-10.9912 318.748 -17.7589 318.078 -25.1556 318.679C-32.5522 319.281 -39.1228 321.036 -44.8672 323.944C-50.6214 326.731 -55.443 330.48 -59.3321 335.19C-63.231 339.779 -66.0809 345.259 -67.882 351.631C-69.6928 357.881 -70.2926 364.765 -69.6813 372.283ZM58.6864 299.778L56.956 278.498L31.1283 280.598L32.8587 301.878L58.6864 299.778ZM34.0419 316.429L41.6882 410.464L67.5159 408.364L59.8696 314.329L34.0419 316.429ZM72.9312 313.267L80.5775 407.301L106.405 405.201L102.397 355.91C101.618 346.331 102.638 339.352 105.455 334.973C108.263 330.473 113.183 327.936 120.216 327.365C126.4 326.862 130.862 328.452 133.603 332.135C136.334 335.697 138.014 341.358 138.645 349.118L142.964 402.229L168.792 400.128L164.089 342.289C163.615 336.469 162.641 331.238 161.165 326.598C159.801 321.827 157.712 317.908 154.899 314.841C152.077 311.653 148.348 309.331 143.714 307.877C139.191 306.292 133.474 305.781 126.562 306.343C121.106 306.786 115.874 308.493 110.867 311.464C105.85 314.313 101.926 318.599 99.0962 324.322L98.5506 324.366L97.4857 311.27L72.9312 313.267ZM223.149 373.372C219.147 373.697 215.744 373.12 212.938 371.639C210.132 370.158 207.772 368.153 205.858 365.623C204.064 363.084 202.671 360.207 201.677 356.992C200.795 353.646 200.216 350.276 199.94 346.88C199.654 343.364 199.746 340 200.217 336.788C200.8 333.445 201.841 330.492 203.342 327.929C204.954 325.235 206.974 323.056 209.402 321.394C211.951 319.722 215.045 318.738 218.682 318.443C222.926 318.097 226.507 318.6 229.424 319.949C232.341 321.299 234.757 323.238 236.671 325.768C238.586 328.298 240.05 331.291 241.063 334.748C242.067 338.084 242.726 341.692 243.042 345.573C243.318 348.968 243.099 352.281 242.385 355.513C241.783 358.613 240.671 361.45 239.049 364.023C237.428 366.596 235.282 368.723 232.611 370.405C229.941 372.087 226.786 373.076 223.149 373.372ZM271.028 385.773L263.869 297.741L239.315 299.738L240.335 312.288L239.972 312.317C236.375 307.117 232.119 303.557 227.203 301.638C222.407 299.709 216.918 298.996 210.734 299.498C204.186 300.031 198.469 301.777 193.583 304.738C188.819 307.688 184.917 311.484 181.876 316.126C178.826 320.646 176.623 325.829 175.268 331.676C174.024 337.392 173.648 343.281 174.141 349.344C174.664 355.771 175.889 361.835 177.818 367.537C179.858 373.108 182.692 377.943 186.321 382.042C189.94 386.02 194.399 389.075 199.699 391.207C204.989 393.218 211.15 393.938 218.183 393.366C223.882 392.903 229.185 391.312 234.09 388.594C239.107 385.745 242.808 381.721 245.192 376.523L245.556 376.493L246.562 388.861C247.225 395.521 246.037 401.171 242.997 405.812C240.078 410.444 234.981 413.055 227.705 413.647C223.097 414.021 218.956 413.382 215.282 411.728C211.618 410.195 208.982 407.052 207.375 402.301L181.73 404.386C182.527 409.692 184.352 414.121 187.204 417.672C190.187 421.336 193.717 424.222 197.795 426.332C201.993 428.432 206.502 429.835 211.319 430.542C216.268 431.36 221.047 431.582 225.654 431.207C236.446 430.329 244.937 428.174 251.127 424.741C257.317 421.309 261.937 417.332 264.987 412.812C268.047 408.414 269.865 403.75 270.441 398.82C271.138 393.881 271.333 389.532 271.028 385.773Z" fill="#071C00"/>
</g>
<circle cx="129" cy="254" r="39.5868" fill="#E6F0DF" stroke="#071C00" stroke-width="0.826474"/>
</g>
<defs>
<clipPath id="clip0_3577_968">
<rect width="350" height="508" fill="white"/>
</clipPath>
</defs>
</svg>
