<svg width="412" height="597" viewBox="0 0 412 597" fill="none" xmlns="http://www.w3.org/2000/svg">
<path d="M360.427 73.213C371.361 92.151 374.782 110.794 366.111 133.798C357.423 156.845 336.588 184.296 298.9 220.778C289.615 229.767 279.223 237.677 267.519 243.091C230.936 260.012 190.758 266.501 157.048 264.104C140.193 262.905 124.968 259.486 112.624 254.05C100.278 248.613 90.8383 241.17 85.508 231.937C73.8737 211.786 65.7744 192.291 69.989 172.385C74.2017 152.488 90.7503 132.046 128.771 110.095C166.786 88.1469 218.978 68.8997 264.565 60.1783C287.36 55.8174 308.479 54.0932 325.337 55.9664C342.215 57.8419 354.708 63.3085 360.427 73.213Z" fill="#E6F0DF" stroke="#071C00" stroke-width="0.826474"/>
<mask id="mask0_3883_1101" style="mask-type:alpha" maskUnits="userSpaceOnUse" x="68" y="54" width="304" height="211">
<path d="M360.427 73.213C371.361 92.151 374.782 110.794 366.111 133.798C357.423 156.845 336.588 184.296 298.9 220.778C289.615 229.767 279.223 237.677 267.519 243.091C230.936 260.012 190.758 266.501 157.048 264.104C140.193 262.905 124.968 259.486 112.624 254.05C100.278 248.613 90.8383 241.17 85.508 231.937C73.8737 211.786 65.7744 192.291 69.989 172.385C74.2017 152.488 90.7503 132.046 128.771 110.095C166.786 88.1469 218.978 68.8997 264.565 60.1783C287.36 55.8174 308.479 54.0932 325.337 55.9664C342.215 57.8419 354.708 63.3085 360.427 73.213Z" fill="#E6F0DF" stroke="#071C00" stroke-width="0.826474"/>
</mask>
<g mask="url(#mask0_3883_1101)">
</g>
<path d="M311.2 445.386C314.081 450.377 315.131 454.681 314.674 458.481C314.216 462.277 312.247 465.632 308.965 468.717C302.377 474.908 290.604 479.911 275.628 485.054C269.141 487.282 262.064 489.533 254.568 491.917C227.53 500.517 195.049 510.847 165.215 528.071C127.195 550.022 101.217 554.133 81.8796 547.833C62.5336 541.53 49.6999 524.768 38.0656 504.617C32.3237 494.672 32.2209 482.688 36.5369 469.568C40.854 456.446 49.5807 442.228 61.4293 427.874C85.1247 399.166 121.241 369.99 159.265 348.037C178.208 337.101 195.69 335.202 211.625 339.106C227.575 343.013 242.014 352.742 254.834 365.127C278.197 387.697 296.098 418.997 307.908 439.648C309.064 441.669 310.161 443.588 311.2 445.386Z" fill="#E6F0DF" stroke="#071C00" stroke-width="0.826474"/>
<mask id="mask1_3883_1101" style="mask-type:alpha" maskUnits="userSpaceOnUse" x="33" y="336" width="283" height="215">
<path d="M311.201 445.386C314.082 450.377 315.132 454.681 314.674 458.481C314.217 462.277 312.248 465.632 308.966 468.717C302.378 474.908 290.605 479.911 275.629 485.054C269.142 487.282 262.065 489.533 254.569 491.917C227.53 500.517 195.049 510.847 165.216 528.071C127.196 550.022 101.218 554.133 81.8806 547.833C62.5346 541.53 49.7009 524.768 38.0666 504.617C32.3247 494.672 32.2218 482.688 36.5379 469.568C40.8549 456.446 49.5817 442.228 61.4303 427.874C85.1257 399.166 121.242 369.99 159.266 348.037C178.209 337.101 195.691 335.202 211.626 339.106C227.576 343.013 242.015 352.742 254.835 365.127C278.198 387.697 296.099 418.997 307.909 439.648C309.065 441.669 310.162 443.588 311.201 445.386Z" fill="#E6F0DF" stroke="#071C00" stroke-width="0.826474"/>
</mask>
<g mask="url(#mask1_3883_1101)">
</g>
<circle cx="157" cy="305" r="39.5868" fill="#E63D00" stroke="#071C00" stroke-width="0.826474"/>
</svg>
