<svg width="410" height="555" viewBox="0 0 410 555" fill="none" xmlns="http://www.w3.org/2000/svg">
<path d="M367.427 73.2129C373.145 83.1174 371.632 96.6705 364.818 112.225C358.011 127.761 345.959 145.188 330.784 162.749C300.438 197.868 257.673 233.444 219.658 255.392C181.637 277.343 155.66 281.453 136.322 275.153C116.976 268.85 104.142 252.088 92.5081 231.937C80.8738 211.786 72.7745 192.291 76.989 172.385C81.2018 152.488 97.7503 132.046 135.771 110.095C173.786 88.1468 225.978 68.8997 271.565 60.1783C294.36 55.8174 315.479 54.0931 332.337 55.9664C349.215 57.8419 361.708 63.3085 367.427 73.2129Z" fill="#E6F0DF" stroke="#071C00" stroke-width="0.826474"/>
<mask id="mask0_3883_1099" style="mask-type:alpha" maskUnits="userSpaceOnUse" x="75" y="54" width="297" height="225">
<path d="M366.919 73.5063C372.493 83.1614 371.073 96.4848 364.28 111.989C357.507 127.45 345.495 144.827 330.34 162.365C300.035 197.437 257.321 232.97 219.365 254.884C181.396 276.805 155.604 280.818 136.504 274.595C117.383 268.366 104.643 251.782 93.0162 231.644C81.3892 211.505 73.3975 192.181 77.5631 172.507C81.7242 152.854 98.0958 132.524 136.064 110.603C174.02 88.6893 226.149 69.4642 271.676 60.7546C294.442 56.3992 315.496 54.6854 332.272 56.5496C349.096 58.419 361.344 63.8513 366.919 73.5063Z" fill="#FCFFFF" stroke="black" stroke-width="2"/>
</mask>
<g mask="url(#mask0_3883_1099)">
</g>
<rect x="350.709" y="415.323" width="285.888" height="207.072" rx="103.536" transform="rotate(151.375 350.709 415.323)" fill="#E63D00" stroke="#071C00" stroke-width="0.826474"/>
<mask id="mask1_3883_1099" style="mask-type:alpha" maskUnits="userSpaceOnUse" x="37" y="272" width="278" height="246">
<rect x="349.913" y="417.089" width="284.714" height="205.898" rx="102.949" transform="rotate(151.375 349.913 417.089)" fill="#FCFFFF" stroke="black" stroke-width="2"/>
</mask>
<g mask="url(#mask1_3883_1099)">
</g>
</svg>
