<svg width="386" height="459" viewBox="0 0 386 459" fill="none" xmlns="http://www.w3.org/2000/svg">
<g clip-path="url(#clip0_3577_977)">
<path d="M215.584 294.462C212.957 291.835 213.011 287.283 214.525 282.541C216.028 277.833 218.916 273.131 221.654 270.393C227.07 264.978 235.878 265 241.328 270.45C246.778 275.9 246.8 284.708 241.385 290.124C238.67 292.838 233.559 295.298 228.411 296.376C225.844 296.914 223.292 297.102 221.048 296.817C218.803 296.532 216.9 295.778 215.584 294.462Z" fill="#E6F0DF" stroke="#071C00" stroke-width="0.826474"/>
<path d="M310.744 417.879C306.205 428.414 294.335 435.295 277.633 439.092C260.951 442.884 239.56 443.572 216.171 441.82C169.395 438.315 114.724 425.059 73.9457 407.491C33.1611 389.92 14.0934 371.406 7.46519 352.028C0.834513 332.644 6.60379 312.265 15.8391 290.828C25.0744 269.392 35.9218 251.2 54.5643 242.704C73.1998 234.21 99.7529 235.35 140.537 252.921C181.316 270.489 228.503 301.115 263.181 332.703C280.52 348.497 294.713 364.515 303.417 379.244C312.13 393.99 315.283 407.343 310.744 417.879Z" fill="#E6F0DF" stroke="#071C00" stroke-width="0.826474"/>
<mask id="mask0_3577_977" style="mask-type:alpha" maskUnits="userSpaceOnUse" x="4" y="237" width="310" height="207">
<path d="M310.205 417.647C305.781 427.916 294.153 434.735 277.503 438.52C260.9 442.294 239.575 442.985 216.215 441.235C169.501 437.735 114.894 424.494 74.1778 406.952C33.4473 389.405 14.5681 370.981 8.02038 351.839C1.46663 332.679 7.1487 312.483 16.378 291.06C25.6073 269.638 36.3815 251.636 54.8076 243.238C73.217 234.847 99.5748 235.912 140.305 253.46C181.022 271.001 228.154 301.591 262.786 333.137C280.104 348.911 294.25 364.884 302.911 379.542C311.598 394.243 314.629 407.377 310.205 417.647Z" fill="#FCFFFF" stroke="black" stroke-width="2"/>
</mask>
<g mask="url(#mask0_3577_977)">
<path d="M-16.2456 361.358L-43.9668 360.398C-44.3663 368.418 -43.1474 375.399 -40.3099 381.341C-37.4725 387.282 -33.5657 392.226 -28.5898 396.172C-23.4922 400.122 -17.6294 403.064 -11.0012 404.998C-4.25566 407.057 2.70383 408.211 9.87729 408.46C18.7529 408.767 26.5701 408.003 33.3288 406.168C40.2091 404.337 45.9617 401.675 50.5867 398.184C55.3374 394.575 58.9563 390.257 61.4433 385.23C63.9303 380.204 65.2769 374.712 65.4833 368.754C65.736 361.459 64.3617 355.447 61.3606 350.717C58.4852 345.87 54.9683 341.975 50.8097 339.031C46.6511 336.087 42.4044 333.931 38.0695 332.564C33.8604 331.079 30.5484 330.051 28.1335 329.481C20.059 327.132 13.4916 325.2 8.43145 323.686C3.49283 322.176 -0.412329 320.701 -3.28402 319.263C-6.03413 317.828 -7.86814 316.304 -8.78606 314.69C-9.70399 313.076 -10.1187 310.992 -10.0303 308.439C-9.93342 305.642 -9.24549 303.353 -7.96647 301.571C-6.68746 299.79 -5.11502 298.323 -3.24914 297.17C-1.26168 296.021 0.895518 295.244 3.22246 294.838C5.5494 294.431 7.86792 294.268 10.178 294.348C13.704 294.47 16.9154 294.886 19.8124 295.595C22.8309 296.308 25.47 297.434 27.7295 298.973C29.9891 300.512 31.7433 302.582 32.9923 305.181C34.3629 307.785 35.1024 311.037 35.2108 314.936L62.9319 315.896C63.193 308.358 61.9551 301.924 59.2182 296.595C56.6071 291.148 52.9288 286.639 48.1834 283.066C43.4379 279.493 37.9293 276.868 31.6575 275.19C25.5114 273.394 19.0341 272.379 12.2253 272.143C6.38932 271.941 0.525908 272.529 -5.36487 273.907C-11.2557 275.286 -16.568 277.536 -21.3019 280.659C-26.0358 283.782 -29.9481 287.785 -33.0388 292.669C-36.0037 297.435 -37.6019 303.162 -37.8336 309.849C-38.0399 315.807 -37.1226 320.951 -35.0814 325.283C-32.9145 329.496 -30.0558 333.065 -26.5051 335.987C-22.9544 338.91 -18.9006 341.364 -14.3436 343.347C-9.78235 345.21 -5.09111 346.833 -0.269865 348.217C4.42559 349.719 9.06446 351.097 13.6467 352.351C18.229 353.605 22.3187 355.025 25.9157 356.611C29.5126 358.196 32.3675 360.121 34.4802 362.385C36.7145 364.654 37.7706 367.551 37.6484 371.077C37.5347 374.359 36.5889 377.066 34.8109 379.195C33.0371 381.203 30.8525 382.771 28.2572 383.898C25.6618 385.026 22.8967 385.782 19.9618 386.167C17.0311 386.431 14.2892 386.519 11.7359 386.43C7.96682 386.3 4.33404 385.748 0.837585 384.774C-2.65466 383.68 -5.70662 382.174 -8.3183 380.258C-10.8042 378.224 -12.7848 375.66 -14.2601 372.565C-15.7354 369.471 -16.3972 365.735 -16.2456 361.358ZM136.6 352.593L94.4714 351.134C94.6562 349.314 95.0925 347.26 95.7805 344.971C96.59 342.686 97.8209 340.537 99.473 338.525C101.247 336.517 103.494 334.891 106.215 333.646C109.062 332.284 112.553 331.674 116.687 331.818C123.009 332.037 127.631 333.901 130.553 337.411C133.596 340.924 135.612 345.985 136.6 352.593ZM93.9029 367.547L161.929 369.904C162.668 362.626 162.302 355.613 160.832 348.867C159.361 342.121 156.771 336.067 153.062 330.704C149.474 325.345 144.753 321.043 138.901 317.797C133.053 314.429 126.117 312.607 118.092 312.329C110.919 312.08 104.309 313.129 98.2629 315.476C92.3384 317.827 87.1705 321.179 82.7593 325.53C78.3522 329.759 74.8884 334.874 72.3677 340.873C69.847 346.872 68.4645 353.398 68.2203 360.45C67.9676 367.745 68.8302 374.47 70.8082 380.625C72.9077 386.784 75.9486 392.124 79.9308 396.644C83.913 401.164 88.8409 404.743 94.7143 407.381C100.592 409.898 107.239 411.284 114.656 411.541C125.355 411.912 134.558 409.796 142.265 405.194C149.971 400.592 155.844 392.7 159.883 381.519L137.086 380.729C136.134 383.618 133.727 386.334 129.866 388.879C126.008 391.301 121.465 392.422 116.237 392.241C108.942 391.988 103.414 389.91 99.6543 386.006C95.8942 382.102 93.9771 375.949 93.9029 367.547ZM194.37 362.263L158.73 410.694L187.728 411.699L208.454 382.654L227.121 413.063L256.666 414.087L223.57 362.727L256.102 319.665L227.469 318.674L210.203 342.726L194.459 317.53L164.914 316.507L194.37 362.263Z" fill="#071C00"/>
</g>
<rect x="-0.29029" y="0.502879" width="241.926" height="287.387" rx="111.161" transform="matrix(0.265067 0.96423 -0.967545 0.252698 337.133 -11.3443)" fill="#E6F0DF" stroke="#071C00" stroke-width="0.826474"/>
<mask id="mask1_3577_977" style="mask-type:alpha" maskUnits="userSpaceOnUse" x="83" y="12" width="293" height="259">
<rect x="-0.702478" y="1.21693" width="240.753" height="286.214" rx="110.574" transform="matrix(0.265067 0.96423 -0.967545 0.252698 337.521 -10.4132)" fill="#FCFFFF" stroke="black" stroke-width="2"/>
</mask>
<g mask="url(#mask1_3577_977)">
<path d="M10.6574 11.5162L-47.7858 127.968L35.3975 167.631L46.2022 146.102L-11.1202 118.77L36.5184 23.8469L10.6574 11.5162ZM123.82 146.323L85.77 128.181C86.6984 126.602 87.9555 124.911 89.5414 123.107C91.2371 121.355 93.2625 119.895 95.6178 118.727C98.0828 117.612 100.823 117.032 103.84 116.988C107.02 116.888 110.477 117.728 114.211 119.508C119.921 122.23 123.385 125.769 124.602 130.122C125.93 134.528 125.669 139.928 123.82 146.323ZM78.4033 142.86L139.844 172.155C143.557 165.84 146.146 159.327 147.61 152.613C149.073 145.9 149.222 139.368 148.054 133.017C146.996 126.718 144.459 120.927 140.443 115.643C136.48 110.25 130.876 105.826 123.628 102.37C117.149 99.2812 110.646 97.5955 104.119 97.3132C97.7024 97.0833 91.5627 98.0636 85.7002 100.254C79.8922 102.336 74.5808 105.598 69.7659 110.039C64.951 114.481 60.9611 119.855 57.7961 126.162C54.522 132.686 52.509 139.137 51.7572 145.516C51.1152 151.948 51.6788 158.011 53.4479 163.705C55.2171 169.4 58.2464 174.617 62.5359 179.358C66.8799 183.989 72.4012 187.902 79.0998 191.096C88.7633 195.703 98.0907 197.456 107.082 196.353C116.073 195.25 124.753 190.428 133.123 181.886L112.533 172.069C110.454 174.312 107.113 175.818 102.508 176.587C97.9579 177.247 93.3218 176.451 88.5998 174.2C82.0111 171.058 77.8055 166.965 75.9831 161.918C74.1607 156.872 74.9674 150.519 78.4033 142.86ZM168.441 145.769L133.898 214.596L157.289 225.749L191.831 156.922L207.973 164.619L215.749 149.124L199.607 141.427L202.144 136.371C203.89 132.892 205.777 130.76 207.804 129.974C209.996 129.133 212.684 129.471 215.868 130.99C218.833 132.403 221.607 133.928 224.188 135.563L232.865 118.275C230.943 117.223 228.966 116.146 226.934 115.042C224.956 113.83 222.925 112.727 220.838 111.732C211.284 107.176 202.946 106.165 195.823 108.698C188.7 111.231 183.256 116.248 179.491 123.751L176.217 130.275L162.215 123.599L154.439 139.093L168.441 145.769ZM249.024 164.99L261.711 139.71L238.321 128.557L225.634 153.837L211.468 147.083L203.692 162.577L217.858 169.331L192.892 219.076C190.764 223.317 189.759 227.082 189.877 230.373C189.995 233.663 190.907 236.591 192.614 239.156C194.43 241.774 196.821 244.059 199.788 246.013C202.809 248.127 206.132 250.048 209.756 251.776C212.062 252.876 214.45 253.947 216.92 254.99C219.391 256.034 221.696 256.863 223.837 257.48L232.84 239.539C231.633 239.233 230.398 238.846 229.136 238.379C227.873 237.912 226.583 237.364 225.265 236.735C221.312 234.85 219.004 232.941 218.341 231.008C217.678 229.075 218.329 226.152 220.293 222.237L241.248 180.484L258.379 188.652L266.155 173.158L249.024 164.99Z" fill="#071C00"/>
</g>
</g>
<defs>
<clipPath id="clip0_3577_977">
<rect width="386" height="459" fill="white"/>
</clipPath>
</defs>
</svg>
