<svg width="420" height="508" viewBox="0 0 420 508" fill="none" xmlns="http://www.w3.org/2000/svg">
<path d="M233.584 306.462C230.957 303.835 231.011 299.283 232.525 294.541C234.028 289.833 236.916 285.131 239.654 282.393C245.07 276.978 253.878 277 259.328 282.45C264.778 287.9 264.8 296.708 259.385 302.124C256.67 304.838 251.559 307.298 246.411 308.376C243.844 308.914 241.292 309.102 239.048 308.817C236.803 308.532 234.9 307.778 233.584 306.462Z" fill="#E63D00" stroke="#071C00" stroke-width="0.826474"/>
<path d="M328.744 429.879C324.205 440.414 312.335 447.295 295.633 451.092C278.951 454.884 257.56 455.572 234.171 453.82C187.395 450.315 132.724 437.059 91.9457 419.491C51.1611 401.92 32.0934 383.406 25.4652 364.028C18.8345 344.644 24.6038 324.265 33.8391 302.828C43.0744 281.392 53.9218 263.2 72.5643 254.704C91.1998 246.21 117.753 247.35 158.537 264.921C199.316 282.489 246.503 313.115 281.181 344.703C298.52 360.497 312.713 376.515 321.417 391.244C330.13 405.99 333.283 419.343 328.744 429.879Z" fill="#E6F0DF" stroke="#071C00" stroke-width="0.826474"/>
<mask id="mask0_3883_1103" style="mask-type:alpha" maskUnits="userSpaceOnUse" x="22" y="249" width="310" height="207">
<path d="M328.205 429.647C323.781 439.916 312.153 446.735 295.503 450.52C278.9 454.294 257.575 454.985 234.215 453.235C187.501 449.735 132.894 436.494 92.1778 418.952C51.4473 401.405 32.5681 382.981 26.0204 363.839C19.4666 344.679 25.1487 324.483 34.378 303.06C43.6073 281.638 54.3815 263.636 72.8076 255.238C91.217 246.847 117.575 247.912 158.305 265.46C199.022 283.001 246.154 313.591 280.786 345.137C298.104 360.911 312.25 376.884 320.911 391.542C329.598 406.243 332.629 419.377 328.205 429.647Z" fill="#FCFFFF" stroke="black" stroke-width="2"/>
</mask>
<g mask="url(#mask0_3883_1103)">
</g>
<rect x="-0.29029" y="0.502879" width="241.926" height="287.387" rx="111.161" transform="matrix(0.265067 0.96423 -0.967545 0.252698 355.133 0.655709)" fill="#E6F0DF" stroke="#071C00" stroke-width="0.826474"/>
<mask id="mask1_3883_1103" style="mask-type:alpha" maskUnits="userSpaceOnUse" x="101" y="24" width="293" height="259">
<rect x="-0.702478" y="1.21693" width="240.753" height="286.214" rx="110.574" transform="matrix(0.265067 0.96423 -0.967545 0.252698 355.521 1.58676)" fill="#FCFFFF" stroke="black" stroke-width="2"/>
</mask>
<g mask="url(#mask1_3883_1103)">
</g>
</svg>
