<svg width="314" height="459" viewBox="0 0 314 459" fill="none" xmlns="http://www.w3.org/2000/svg">
<g clip-path="url(#clip0_3577_967)">
<rect x="313.709" y="352.323" width="285.888" height="207.072" rx="103.536" transform="rotate(151.375 313.709 352.323)" fill="#E6F0DF" stroke="#071C00" stroke-width="0.826474"/>
<mask id="mask0_3577_967" style="mask-type:alpha" maskUnits="userSpaceOnUse" x="0" y="207" width="278" height="246">
<rect x="312.913" y="352.089" width="284.714" height="205.898" rx="102.949" transform="rotate(151.375 312.913 352.089)" fill="#FCFFFF" stroke="black" stroke-width="2"/>
</mask>
<g mask="url(#mask0_3577_967)">
<path d="M34.7887 397.45L10.767 411.319C14.6764 418.334 19.4079 423.609 24.9616 427.146C30.5153 430.682 36.4475 432.806 42.7583 433.517C49.1743 434.168 55.7055 433.558 62.3518 431.687C69.1643 429.861 75.6786 427.154 81.8947 423.565C89.5858 419.124 95.8117 414.336 100.572 409.199C105.438 404.002 108.908 398.697 110.981 393.286C113.099 387.708 113.882 382.129 113.329 376.548C112.776 370.968 111.009 365.596 108.028 360.433C104.379 354.112 100.028 349.74 94.9776 347.318C89.9713 344.73 84.9249 343.289 79.8383 342.994C74.7517 342.7 70.0079 343.121 65.6067 344.257C61.2501 345.227 57.8965 346.11 55.546 346.905C47.453 349.19 40.8593 351.03 35.7652 352.426C30.7764 353.761 26.6832 354.579 23.4854 354.88C20.3931 355.12 18.0301 354.798 16.3965 353.915C14.7628 353.032 13.3073 351.484 12.0299 349.272C10.6309 346.849 10.0019 344.543 10.1431 342.354C10.2842 340.165 10.8409 338.088 11.8129 336.122C12.8904 334.095 14.3083 332.293 16.0668 330.716C17.8253 329.139 19.7055 327.772 21.7073 326.617C24.7626 324.853 27.7067 323.504 30.5394 322.571C33.4775 321.577 36.3125 321.134 39.0442 321.243C41.7759 321.351 44.36 322.177 46.7963 323.721C49.338 325.203 51.6875 327.57 53.8447 330.819L77.8663 316.951C74.095 310.418 69.6372 305.617 64.4929 302.546C59.3933 299.31 53.8847 297.433 47.9671 296.916C42.0496 296.399 35.9866 297.09 29.778 298.989C23.614 300.722 17.582 303.291 11.6819 306.697C6.62474 309.617 1.96294 313.222 -2.30348 317.511C-6.56989 321.801 -9.88372 326.523 -12.245 331.68C-14.6062 336.836 -15.8041 342.304 -15.8387 348.083C-15.8288 353.697 -14.1511 359.401 -10.8055 365.195C-7.82494 370.358 -4.32192 374.235 -0.296485 376.828C3.77349 379.254 8.08837 380.767 12.6482 381.365C17.208 381.964 21.9459 381.897 26.8619 381.166C31.7171 380.33 36.556 379.222 41.3786 377.842C46.1567 376.629 50.8213 375.34 55.3723 373.977C59.9234 372.614 64.1442 371.652 68.0349 371.091C71.9256 370.531 75.3666 370.651 78.358 371.453C81.4547 372.194 83.8851 374.092 85.6491 377.147C87.2915 379.992 87.9226 382.788 87.5425 385.536C87.1016 388.179 86.079 390.666 84.4748 392.997C82.8705 395.327 80.9258 397.434 78.6405 399.315C76.2944 401.091 74.0151 402.618 71.8026 403.895C68.5365 405.781 65.1628 407.237 61.6816 408.263C58.1396 409.184 54.7535 409.524 51.5232 409.282C48.3374 408.873 45.2993 407.748 42.409 405.905C39.5186 404.061 36.9785 401.243 34.7887 397.45ZM158.209 309.969L121.702 331.046C120.895 329.404 120.177 327.431 119.548 325.125C119.025 322.758 118.931 320.284 119.266 317.702C119.707 315.059 120.752 312.489 122.401 309.992C124.094 307.329 126.732 304.963 130.314 302.895C135.793 299.732 140.701 298.865 145.038 300.294C149.48 301.663 153.871 304.888 158.209 309.969ZM129.914 345.269L188.862 311.235C185.634 304.671 181.609 298.917 176.789 293.974C171.968 289.031 166.564 285.267 160.577 282.683C154.696 280.038 148.413 278.889 141.73 279.236C134.986 279.477 128.137 281.605 121.183 285.62C114.967 289.209 109.916 293.6 106.031 298.793C102.252 303.925 99.6432 309.505 98.2063 315.532C96.7086 321.454 96.4796 327.627 97.5192 334.051C98.5588 340.474 100.843 346.741 104.371 352.852C108.02 359.174 112.314 364.421 117.252 368.594C122.295 372.706 127.703 375.624 133.475 377.349C139.247 379.074 145.322 379.5 151.702 378.626C158.02 377.647 164.392 375.303 170.819 371.592C180.091 366.239 186.776 359.57 190.875 351.584C194.974 343.599 195.776 333.794 193.279 322.171L173.525 333.576C174.247 336.531 173.644 340.11 171.716 344.313C169.728 348.411 166.468 351.768 161.938 354.384C155.616 358.034 149.827 359.199 144.57 357.879C139.313 356.56 134.427 352.356 129.914 345.269ZM210.751 288.483L206.174 348.441L231.302 333.933L233.498 298.319L265.438 314.225L291.04 299.443L235.763 273.41L240.549 219.654L215.737 233.979L213.831 263.526L187.132 250.494L161.53 265.276L210.751 288.483Z" fill="#071C00"/>
</g>
<path d="M300.427 23.2129C306.145 33.1174 304.632 46.6705 297.818 62.2245C291.011 77.7606 278.959 95.188 263.784 112.749C233.438 147.868 190.673 183.444 152.658 205.392C114.637 227.343 88.6596 231.453 69.3221 225.153C49.9761 218.85 37.1424 202.088 25.5081 181.937C13.8738 161.786 5.77446 142.291 9.98904 122.385C14.2018 102.488 30.7503 82.0462 68.7709 60.095C106.786 38.1468 158.978 18.8997 204.565 10.1783C227.36 5.81738 248.479 4.09314 265.337 5.96642C282.215 7.84187 294.708 13.3085 300.427 23.2129Z" fill="#E6F0DF" stroke="#071C00" stroke-width="0.826474"/>
<mask id="mask1_3577_967" style="mask-type:alpha" maskUnits="userSpaceOnUse" x="8" y="4" width="297" height="225">
<path d="M299.919 23.5063C305.493 33.1614 304.073 46.4848 297.28 61.989C290.507 77.4499 278.495 94.8268 263.34 112.365C233.035 147.437 190.321 182.97 152.365 204.884C114.396 226.805 88.6043 230.818 69.5039 224.595C50.3828 218.366 37.6432 201.782 26.0162 181.644C14.3892 161.505 6.3975 142.181 10.5631 122.507C14.7242 102.854 31.0958 82.5243 69.0643 60.6032C107.02 38.6893 159.149 19.4642 204.676 10.7546C227.442 6.39925 248.496 4.68538 265.272 6.54959C282.096 8.41903 294.344 13.8513 299.919 23.5063Z" fill="#FCFFFF" stroke="black" stroke-width="2"/>
</mask>
<g mask="url(#mask1_3577_967)">
<path d="M26.198 45.4277L36.7579 175.294L128.61 167.825L126.658 143.816L63.3616 148.963L54.754 43.1057L26.198 45.4277ZM193.223 105.081L151.207 108.498C151.181 106.669 151.377 104.578 151.796 102.225C152.336 99.862 153.311 97.5857 154.719 95.3961C156.249 93.1967 158.294 91.3217 160.853 89.7709C163.524 88.0891 166.92 87.0805 171.043 86.7453C177.348 86.2326 182.155 87.5506 185.462 90.6993C188.891 93.8381 191.478 98.6322 193.223 105.081ZM152.539 124.867L220.382 119.351C220.275 112.036 219.102 105.113 216.862 98.5821C214.622 92.051 211.35 86.3362 207.046 81.4377C202.863 76.5293 197.677 72.8009 191.489 70.2526C185.291 67.5831 178.191 66.5737 170.188 67.2244C163.034 67.8062 156.59 69.6118 150.855 72.6413C145.242 75.661 140.496 79.5866 136.616 84.4182C132.727 89.1285 129.877 94.6088 128.067 100.859C126.256 107.109 125.636 113.751 126.208 120.784C126.8 128.059 128.433 134.639 131.109 140.525C133.906 146.4 137.543 151.353 142.021 155.383C146.498 159.413 151.806 162.399 157.945 164.341C164.074 166.162 170.837 166.771 178.234 166.17C188.904 165.302 197.801 162.138 204.925 156.676C212.048 151.214 216.97 142.697 219.691 131.125L196.956 132.973C196.343 135.953 194.266 138.929 190.724 141.902C187.172 144.754 182.789 146.392 177.575 146.816C170.3 147.408 164.569 145.982 160.383 142.538C156.198 139.095 153.583 133.205 152.539 124.867ZM231.134 82.2252L237.376 158.981L263.203 156.881L256.962 80.1251L274.787 78.6757L273.382 61.3966L255.557 62.846L255.099 57.2076C254.783 53.3274 255.289 50.5399 256.616 48.8453C258.054 47.0195 260.531 45.9637 264.048 45.6777C267.322 45.4115 270.489 45.337 273.55 45.4543L271.983 26.1745C269.79 26.2307 267.537 26.2919 265.223 26.3579C262.9 26.3028 260.586 26.3688 258.282 26.5562C247.733 27.414 240.068 30.7225 235.288 36.4818C230.507 42.241 228.458 49.304 229.138 57.6708L229.729 64.9462L214.269 66.2033L215.674 83.4824L231.134 82.2252ZM310.124 58.409L307.832 30.2168L282.004 32.317L284.296 60.5091L268.654 61.7811L270.059 79.0601L285.701 77.7882L290.212 133.263C290.597 137.992 291.696 141.748 293.508 144.53C295.321 147.312 297.626 149.382 300.422 150.742C303.339 152.091 306.575 152.866 310.131 153.065C313.818 153.375 317.662 153.368 321.664 153.042C324.21 152.835 326.812 152.563 329.47 152.225C332.128 151.886 334.533 151.447 336.686 150.905L335.059 130.898C333.867 131.239 332.608 131.525 331.284 131.754C329.96 131.984 328.571 132.158 327.116 132.276C322.75 132.631 319.781 132.14 318.208 130.804C316.634 129.467 315.67 126.616 315.315 122.251L311.529 75.6881L330.445 74.15L329.04 56.8709L310.124 58.409Z" fill="#071C00"/>
</g>
</g>
<defs>
<clipPath id="clip0_3577_967">
<rect width="314" height="459" fill="white"/>
</clipPath>
</defs>
</svg>
