<svg width="1792" height="441" viewBox="0 0 1792 441" fill="none" xmlns="http://www.w3.org/2000/svg">
<g clip-path="url(#clip0_389_319)">
<rect width="1792" height="441" fill="white"/>
<rect y="-8" width="1792" height="449" fill="#EBB800"/>
<path fill-rule="evenodd" clip-rule="evenodd" d="M1474.34 -301.304L1403.55 -260.431L1546.02 -13.6588L1616.57 -54.3868L1474.34 -301.304Z" fill="#E63D00"/>
<path d="M1111.83 660.23L1799.5 263.206L1708.03 104.41M1111.83 660.23L424.167 1057.25L332.282 898.103M1111.83 660.23L604.587 -219.378M604.587 -219.378L-83.5252 177.904L7.45687 335.489M604.587 -219.378L1292.7 -616.66L1383.52 -458.982M1474.34 -301.304L1403.55 -260.431L1546.02 -13.6588L1616.57 -54.3868M1474.34 -301.304L1616.57 -54.3868M1474.34 -301.304L1383.52 -458.982M1616.57 -54.3868L1708.03 104.41M1383.52 -458.982L1160.95 -330.478L1487.06 234.372L1708.03 104.41M98.4389 493.075L170.001 451.758L311.959 697.636L240.397 738.953M98.4389 493.075L240.397 738.953M98.4389 493.075L7.45687 335.489M240.397 738.953L332.282 898.103M332.282 898.103L555.018 769.506L230.193 206.892L7.45687 335.489" stroke="#FCFFFF" stroke-width="5"/>
<path d="M784.099 92.8521C713.373 133.686 689.214 224.25 730.139 295.133C771.063 366.016 861.573 390.376 932.299 349.542C1003.03 308.709 1027.18 218.145 986.26 147.261C945.335 76.3784 854.825 52.0185 784.099 92.8521Z" stroke="#FCFFFF" stroke-width="5"/>
<path d="M452.926 594.437C472.62 552.246 472.114 501.487 447.103 458.166C422.091 414.844 378.386 389.027 332 384.986" stroke="#FCFFFF" stroke-width="5"/>
<path d="M1384.64 56.5129C1338.25 52.4727 1294.55 26.6555 1269.53 -16.6663C1244.52 -59.9881 1244.02 -110.746 1263.71 -152.937" stroke="#FCFFFF" stroke-width="5"/>
<path d="M1787.43 242.858C1776.42 249.21 1772.8 263.533 1779.33 274.849" stroke="#FCFFFF" stroke-width="5"/>
<ellipse cx="858.196" cy="221.196" rx="23.4903" ry="22.7994" transform="rotate(150 858.196 221.196)" fill="#FCFFFF" stroke="#FCFFFF" stroke-width="5"/>
<path d="M377.563 306.485C377.726 305.114 376.747 303.87 375.376 303.707L353.034 301.045C351.663 300.881 350.419 301.86 350.256 303.231C350.093 304.602 351.072 305.846 352.443 306.009L372.302 308.376L369.936 328.236C369.772 329.607 370.751 330.85 372.122 331.014C373.493 331.177 374.737 330.198 374.9 328.827L377.563 306.485ZM-110.758 154.135C-111.396 152.91 -112.905 152.435 -114.13 153.072C-115.355 153.71 -115.83 155.219 -115.193 156.444L-110.758 154.135ZM373.534 304.225C279.021 378.611 185.705 394.013 102.313 364.631C18.7769 335.199 -55.2988 260.655 -110.758 154.135L-115.193 156.444C-59.3883 263.627 15.5051 339.348 100.652 369.347C185.942 399.397 281.022 383.398 376.627 308.154L373.534 304.225Z" fill="#FCFFFF"/>
<path d="M587.762 147.949C587.686 149.327 588.743 150.506 590.121 150.582L612.587 151.817C613.966 151.893 615.145 150.837 615.221 149.458C615.296 148.079 614.24 146.9 612.862 146.825L592.892 145.727L593.989 125.757C594.065 124.378 593.009 123.199 591.63 123.124C590.252 123.048 589.073 124.104 588.997 125.483L587.762 147.949ZM1836.5 -135.084C1837.63 -134.28 1839.19 -134.537 1839.99 -135.66C1840.8 -136.782 1840.54 -138.344 1839.42 -139.148L1836.5 -135.084ZM591.926 149.948C1070.32 -278.598 1547.22 -342.448 1836.5 -135.084L1839.42 -139.148C1547.31 -348.535 1067.72 -282.983 588.59 146.224L591.926 149.948Z" fill="#FCFFFF"/>
<path d="M1075.66 306.238C1076.33 305.032 1077.85 304.6 1079.06 305.272L1098.71 316.231C1099.92 316.903 1100.35 318.426 1099.68 319.632C1099 320.838 1097.48 321.27 1096.28 320.597L1078.81 310.857L1069.07 328.324C1068.39 329.53 1066.87 329.963 1065.67 329.29C1064.46 328.618 1064.03 327.095 1064.7 325.889L1075.66 306.238ZM1853.17 434.339C1854.33 433.59 1855.87 433.922 1856.62 435.081C1857.37 436.24 1857.04 437.788 1855.88 438.538L1853.17 434.339ZM1080.25 306.773C1104.93 393.706 1143.66 459.202 1193.21 505.073C1242.75 550.931 1303.23 577.292 1371.64 585.769C1508.58 602.737 1677.36 548.049 1853.17 434.339L1855.88 438.538C1679.63 552.536 1509.64 607.907 1371.03 590.731C1301.67 582.137 1240.19 555.376 1189.82 508.742C1139.45 462.121 1100.32 395.755 1075.44 308.139L1080.25 306.773Z" fill="#FCFFFF"/>
</g>
<defs>
<clipPath id="clip0_389_319">
<rect width="1792" height="441" fill="white"/>
</clipPath>
</defs>
</svg>
