<svg width="1410" height="230" viewBox="0 0 1410 230" fill="none" xmlns="http://www.w3.org/2000/svg"><path stroke="#000" stroke-dasharray="8 8" d="M.5.5h1409v229H.5z"/><path fill="#fff" d="M0 0h982v230H0z"/><path fill="#FF458D" fill-opacity=".8" d="M0 0h982v230H0z"/><path fill="#FF1941" d="M1268 0H982v230h286z"/><path d="M387.581 75.8c0 3.6 1.28 6.36 3.84 8.28 2.56 1.84 5.56 2.76 9 2.76 3.6 0 6.6-.92 9-2.76 2.4-1.92 3.6-4.68 3.6-8.28 0-1.12-.16-2.32-.48-3.6-.32-1.36-.96-2.64-1.92-3.84-.88-1.2-2.16-2.2-3.84-3-1.6-.8-3.72-1.2-6.36-1.2-1.68 0-3.32.28-4.92.84-1.52.48-2.88 1.2-4.08 2.16-1.2.96-2.16 2.16-2.88 3.6-.64 1.44-.96 3.12-.96 5.04Zm-15.48-1.56c0-3.76.84-7.08 2.52-9.96 1.68-2.88 3.84-5.28 6.48-7.2 2.72-1.92 5.76-3.36 9.12-4.32 3.36-.96 6.76-1.44 10.2-1.44 5.2 0 9.6.8 13.2 2.4 3.6 1.6 6.48 3.56 8.64 5.88 2.24 2.24 3.84 4.68 4.8 7.32.96 2.56 1.44 4.88 1.44 6.96 0 4.16-1.04 7.8-3.12 10.92-2 3.12-5.04 5.36-9.12 6.72v.24c5.04 1.12 8.92 3.52 11.64 7.2 2.72 3.6 4.08 8.04 4.08 13.32 0 4.48-.92 8.36-2.76 11.64-1.76 3.28-4.12 6-7.08 8.16s-6.32 3.8-10.08 4.92c-3.76 1.04-7.6 1.56-11.52 1.56-4.08 0-8.04-.52-11.88-1.56-3.76-.96-7.16-2.52-10.2-4.68-2.96-2.16-5.36-4.88-7.2-8.16-1.76-3.28-2.64-7.2-2.64-11.76 0-5.36 1.36-9.84 4.08-13.44 2.8-3.6 6.72-6 11.76-7.2v-.24c-4.08-1.12-7.16-3.24-9.24-6.36s-3.12-6.76-3.12-10.92Zm13.56 37.32c0 2.16.4 4.12 1.2 5.88.8 1.76 1.84 3.28 3.12 4.56 1.36 1.2 2.96 2.16 4.8 2.88 1.84.64 3.76.96 5.76.96 2.08 0 3.96-.32 5.64-.96 1.76-.72 3.28-1.68 4.56-2.88 1.36-1.28 2.4-2.8 3.12-4.56.72-1.76 1.08-3.68 1.08-5.76 0-2-.4-3.8-1.2-5.4-.72-1.68-1.76-3.12-3.12-4.32-1.28-1.2-2.8-2.12-4.56-2.76-1.68-.64-3.52-.96-5.52-.96-4.16 0-7.68 1.16-10.56 3.48-2.88 2.24-4.32 5.52-4.32 9.84Zm85.399-37.2h-.36l-21.72 29.16h22.08V74.36Zm0 43.2h-35.52v-15.6L472.02 53h15.24v50.52h11.16v14.04h-11.16V137h-16.2v-19.44Zm107.6-2.4c0 1.28.04 2.76.12 4.44.08 1.68.36 3.28.84 4.8a9.372 9.372 0 0 0 2.28 3.72c1.04 1.04 2.52 1.56 4.44 1.56 1.84 0 3.28-.52 4.32-1.56a8.798 8.798 0 0 0 2.4-3.72c.56-1.52.88-3.08.96-4.68.16-1.68.24-3.16.24-4.44 0-1.2-.08-2.6-.24-4.2-.08-1.68-.36-3.24-.84-4.68-.48-1.52-1.24-2.8-2.28-3.84-.96-1.12-2.32-1.68-4.08-1.68-1.92 0-3.44.48-4.56 1.44-1.04.96-1.84 2.16-2.4 3.6-.56 1.44-.92 3-1.08 4.68-.08 1.68-.12 3.2-.12 4.56Zm-12.24-.12c0-3.28.4-6.32 1.2-9.12.8-2.8 2.04-5.24 3.72-7.32 1.68-2.08 3.8-3.72 6.36-4.92 2.56-1.2 5.6-1.8 9.12-1.8 3.76 0 6.88.64 9.36 1.92 2.48 1.2 4.48 2.88 6 5.04 1.6 2.08 2.72 4.56 3.36 7.44.64 2.88.96 5.96.96 9.24 0 3.28-.4 6.32-1.2 9.12-.8 2.8-2.04 5.24-3.72 7.32-1.6 2.08-3.68 3.72-6.24 4.92-2.56 1.12-5.6 1.68-9.12 1.68-3.68 0-6.8-.6-9.36-1.8-2.48-1.2-4.52-2.84-6.12-4.92-1.52-2.16-2.64-4.68-3.36-7.56-.64-2.88-.96-5.96-.96-9.24Zm9.24-64.68h10.2l-49.44 89.16h-10.44l49.68-89.16Zm-58.92 24.96c0 1.28.04 2.72.12 4.32.08 1.6.36 3.12.84 4.56a8.52 8.52 0 0 0 2.28 3.48c1.04.96 2.52 1.44 4.44 1.44 1.84 0 3.28-.48 4.32-1.44a8.042 8.042 0 0 0 2.4-3.48c.56-1.44.88-2.92.96-4.44.16-1.6.24-3.04.24-4.32 0-1.2-.08-2.64-.24-4.32-.08-1.76-.36-3.44-.84-5.04s-1.24-2.96-2.28-4.08c-.96-1.12-2.32-1.68-4.08-1.68-1.92 0-3.44.52-4.56 1.56-1.04 1.04-1.84 2.32-2.4 3.84-.56 1.52-.92 3.16-1.08 4.92-.08 1.76-.12 3.32-.12 4.68Zm-12.24-.24c0-3.28.4-6.36 1.2-9.24.8-2.88 2.04-5.4 3.72-7.56 1.68-2.16 3.8-3.84 6.36-5.04 2.56-1.28 5.6-1.92 9.12-1.92 3.76 0 6.88.64 9.36 1.92 2.48 1.28 4.48 3.04 6 5.28 1.6 2.16 2.72 4.72 3.36 7.68.64 2.96.96 6.08.96 9.36 0 3.28-.4 6.32-1.2 9.12-.8 2.72-2.04 5.08-3.72 7.08-1.6 2-3.68 3.56-6.24 4.68-2.56 1.12-5.6 1.68-9.12 1.68-3.68 0-6.8-.56-9.36-1.68-2.48-1.2-4.52-2.8-6.12-4.8-1.52-2.08-2.64-4.52-3.36-7.32-.64-2.88-.96-5.96-.96-9.24Zm-107.435 96.18c0 .48.087.887.26 1.22.174.333.4.607.68.82.294.2.634.353 1.02.46.387.093.787.14 1.2.14.28 0 .58-.02.9-.06.32-.053.62-.147.9-.28a2 2 0 0 0 .7-.54c.187-.24.28-.54.28-.9 0-.387-.126-.7-.38-.94-.24-.24-.56-.44-.96-.6-.4-.16-.853-.3-1.36-.42-.506-.12-1.02-.253-1.54-.4a14.996 14.996 0 0 1-1.56-.48 5.6 5.6 0 0 1-1.36-.76 3.697 3.697 0 0 1-.98-1.14c-.24-.467-.36-1.027-.36-1.68 0-.733.154-1.367.46-1.9.32-.547.734-1 1.24-1.36a5.357 5.357 0 0 1 1.72-.8 7.33 7.33 0 0 1 1.92-.26c.747 0 1.46.087 2.14.26.694.16 1.307.427 1.84.8.534.373.954.853 1.26 1.44.32.573.48 1.273.48 2.1h-3.04c-.026-.427-.12-.78-.28-1.06a1.68 1.68 0 0 0-.6-.66 2.578 2.578 0 0 0-.88-.34 5.18 5.18 0 0 0-1.06-.1 3.71 3.71 0 0 0-.76.08 2.151 2.151 0 0 0-.7.28c-.2.133-.366.3-.5.5-.133.2-.2.453-.2.76 0 .28.054.507.16.68.107.173.314.333.62.48.32.147.754.293 1.3.44.56.147 1.287.333 2.18.56.267.053.634.153 1.1.3.48.133.954.353 1.42.66.467.307.867.72 1.2 1.24.347.507.52 1.16.52 1.96 0 .653-.126 1.26-.38 1.82a3.988 3.988 0 0 1-1.14 1.46c-.493.4-1.113.713-1.86.94-.733.227-1.586.34-2.56.34-.786 0-1.553-.1-2.3-.3a5.755 5.755 0 0 1-1.96-.9 4.542 4.542 0 0 1-1.34-1.58c-.333-.64-.493-1.4-.48-2.28h3.04Zm20.049 4.74h-2.7v-1.44h-.06c-.36.6-.827 1.033-1.4 1.3a4.13 4.13 0 0 1-1.76.4c-.76 0-1.387-.1-1.88-.3-.48-.2-.86-.48-1.14-.84a3.52 3.52 0 0 1-.6-1.34 8.962 8.962 0 0 1-.16-1.76v-6.36h2.84v5.84c0 .853.133 1.493.4 1.92.266.413.74.62 1.42.62.773 0 1.333-.227 1.68-.68.346-.467.52-1.227.52-2.28v-5.42h2.84V176Zm7.175-1.86c.467 0 .853-.093 1.16-.28a2.2 2.2 0 0 0 .76-.72c.2-.307.34-.66.42-1.06.08-.4.12-.807.12-1.22 0-.413-.047-.82-.14-1.22-.08-.4-.22-.753-.42-1.06-.2-.32-.46-.573-.78-.76-.307-.2-.687-.3-1.14-.3-.467 0-.86.1-1.18.3-.307.187-.56.433-.76.74a3.24 3.24 0 0 0-.4 1.06 6.306 6.306 0 0 0 0 2.46c.093.4.233.753.42 1.06.2.293.46.533.78.72.32.187.707.28 1.16.28Zm-5.22-8.48h2.7v1.32h.04c.347-.56.787-.967 1.32-1.22a4.053 4.053 0 0 1 1.76-.38c.813 0 1.513.153 2.1.46a4.336 4.336 0 0 1 1.46 1.22c.387.507.673 1.1.86 1.78.187.667.28 1.367.28 2.1 0 .693-.093 1.36-.28 2a4.986 4.986 0 0 1-.86 1.7 4.087 4.087 0 0 1-1.42 1.18c-.56.293-1.22.44-1.98.44-.64 0-1.233-.127-1.78-.38a3.453 3.453 0 0 1-1.32-1.16h-.04v4.9h-2.84v-13.96Zm17.247 8.48c.466 0 .853-.093 1.16-.28a2.2 2.2 0 0 0 .76-.72c.2-.307.34-.66.42-1.06.08-.4.12-.807.12-1.22 0-.413-.047-.82-.14-1.22-.08-.4-.22-.753-.42-1.06-.2-.32-.46-.573-.78-.76-.307-.2-.687-.3-1.14-.3-.467 0-.86.1-1.18.3-.307.187-.56.433-.76.74a3.24 3.24 0 0 0-.4 1.06 6.306 6.306 0 0 0 0 2.46c.093.4.233.753.42 1.06.2.293.46.533.78.72.32.187.706.28 1.16.28Zm-5.22-8.48h2.7v1.32h.04c.346-.56.786-.967 1.32-1.22a4.053 4.053 0 0 1 1.76-.38c.813 0 1.513.153 2.1.46a4.345 4.345 0 0 1 1.46 1.22c.386.507.673 1.1.86 1.78.186.667.28 1.367.28 2.1 0 .693-.094 1.36-.28 2a5.004 5.004 0 0 1-.86 1.7 4.096 4.096 0 0 1-1.42 1.18c-.56.293-1.22.44-1.98.44-.64 0-1.234-.127-1.78-.38a3.439 3.439 0 0 1-1.32-1.16h-.04v4.9h-2.84v-13.96Zm14.546 5.18c0 .413.04.82.12 1.22.08.387.214.74.4 1.06.2.307.46.553.78.74.32.187.72.28 1.2.28s.88-.093 1.2-.28c.334-.187.594-.433.78-.74.2-.32.34-.673.42-1.06a6.208 6.208 0 0 0 0-2.44c-.08-.4-.22-.753-.42-1.06a2.075 2.075 0 0 0-.78-.74c-.32-.2-.72-.3-1.2-.3s-.88.1-1.2.3c-.32.187-.58.433-.78.74-.186.307-.32.66-.4 1.06-.08.4-.12.807-.12 1.22Zm-2.84 0c0-.827.127-1.573.38-2.24a4.748 4.748 0 0 1 1.08-1.72 4.66 4.66 0 0 1 1.68-1.1c.654-.267 1.387-.4 2.2-.4.814 0 1.547.133 2.2.4.667.253 1.234.62 1.7 1.1.467.467.827 1.04 1.08 1.72.254.667.38 1.413.38 2.24 0 .827-.126 1.573-.38 2.24a4.95 4.95 0 0 1-1.08 1.72 4.74 4.74 0 0 1-1.7 1.08c-.653.253-1.386.38-2.2.38-.813 0-1.546-.127-2.2-.38a4.79 4.79 0 0 1-1.68-1.08 4.98 4.98 0 0 1-1.08-1.72c-.253-.667-.38-1.413-.38-2.24Zm12.347-5.18h2.7v1.92h.04c.133-.32.313-.613.54-.88.226-.28.486-.513.78-.7.293-.2.606-.353.94-.46a3.38 3.38 0 0 1 1.04-.16c.186 0 .393.033.62.1v2.64a3.815 3.815 0 0 0-.48-.06 3.778 3.778 0 0 0-.54-.04c-.52 0-.96.087-1.32.26a2.32 2.32 0 0 0-.88.72c-.214.293-.367.64-.46 1.04-.094.4-.14.833-.14 1.3V176h-2.84v-10.34Zm11.173 0h2.08v1.9h-2.08v5.12c0 .48.08.8.24.96.16.16.48.24.96.24.16 0 .314-.007.46-.02a3.79 3.79 0 0 0 .42-.06v2.2c-.24.04-.506.067-.8.08-.293.013-.58.02-.86.02-.44 0-.86-.033-1.26-.1a2.903 2.903 0 0 1-1.04-.34 1.88 1.88 0 0 1-.7-.74c-.173-.32-.26-.74-.26-1.26v-6.1h-1.72v-1.9h1.72v-3.1h2.84v3.1Zm10.191 4.06c-.133-.72-.373-1.267-.72-1.64-.333-.373-.846-.56-1.54-.56-.453 0-.833.08-1.14.24a2.185 2.185 0 0 0-.72.56c-.173.227-.3.467-.38.72-.066.253-.106.48-.12.68h4.62Zm-4.62 1.8c.04.92.274 1.587.7 2 .427.413 1.04.62 1.84.62.574 0 1.067-.14 1.48-.42.414-.293.667-.6.76-.92h2.5c-.4 1.24-1.013 2.127-1.84 2.66-.826.533-1.826.8-3 .8-.813 0-1.546-.127-2.2-.38a4.696 4.696 0 0 1-1.66-1.12 5.134 5.134 0 0 1-1.06-1.72c-.24-.667-.36-1.4-.36-2.2 0-.773.127-1.493.38-2.16a4.98 4.98 0 0 1 1.08-1.72 5.046 5.046 0 0 1 1.66-1.16 5.432 5.432 0 0 1 2.16-.42c.88 0 1.647.173 2.3.52a4.4 4.4 0 0 1 1.6 1.36c.427.573.734 1.227.92 1.96.187.733.254 1.5.2 2.3h-7.46Zm8.945-5.86h2.7v1.92h.04c.133-.32.313-.613.54-.88.226-.28.486-.513.78-.7.293-.2.606-.353.94-.46a3.38 3.38 0 0 1 1.04-.16c.186 0 .393.033.62.1v2.64a3.815 3.815 0 0 0-.48-.06 3.778 3.778 0 0 0-.54-.04c-.52 0-.96.087-1.32.26a2.32 2.32 0 0 0-.88.72c-.214.293-.367.64-.46 1.04-.094.4-.14.833-.14 1.3V176h-2.84v-10.34Zm16.38 7.7h2.8c.453 0 .893-.073 1.32-.22a2.975 2.975 0 0 0 1.14-.72c.333-.347.6-.793.8-1.34.2-.547.3-1.213.3-2 0-.72-.074-1.367-.22-1.94-.134-.587-.36-1.087-.68-1.5a2.978 2.978 0 0 0-1.28-.94c-.52-.227-1.167-.34-1.94-.34h-2.24v9Zm-3.14-11.64h6.16c.92 0 1.773.147 2.56.44a5.47 5.47 0 0 1 2.06 1.32c.586.587 1.04 1.32 1.36 2.2.333.88.5 1.913.5 3.1 0 1.04-.134 2-.4 2.88-.267.88-.674 1.64-1.22 2.28a5.66 5.66 0 0 1-2.02 1.52c-.8.36-1.747.54-2.84.54h-6.16v-14.28Zm16.844 9.12c0 .413.04.82.12 1.22.08.387.213.74.4 1.06.2.307.46.553.78.74.32.187.72.28 1.2.28s.88-.093 1.2-.28a2.09 2.09 0 0 0 .78-.74c.2-.32.34-.673.42-1.06a6.208 6.208 0 0 0 0-2.44c-.08-.4-.22-.753-.42-1.06a2.09 2.09 0 0 0-.78-.74c-.32-.2-.72-.3-1.2-.3s-.88.1-1.2.3c-.32.187-.58.433-.78.74a3.24 3.24 0 0 0-.4 1.06c-.08.4-.12.807-.12 1.22Zm-2.84 0c0-.827.127-1.573.38-2.24a4.721 4.721 0 0 1 2.76-2.82c.653-.267 1.387-.4 2.2-.4.813 0 1.547.133 2.2.4.667.253 1.233.62 1.7 1.1.467.467.827 1.04 1.08 1.72.253.667.38 1.413.38 2.24 0 .827-.127 1.573-.38 2.24a4.95 4.95 0 0 1-1.08 1.72 4.749 4.749 0 0 1-1.7 1.08c-.653.253-1.387.38-2.2.38-.813 0-1.547-.127-2.2-.38a4.79 4.79 0 0 1-1.68-1.08 4.95 4.95 0 0 1-1.08-1.72c-.253-.667-.38-1.413-.38-2.24Zm12.346-5.18h2.7v1.44h.06c.36-.6.827-1.033 1.4-1.3.574-.28 1.16-.42 1.76-.42.76 0 1.38.107 1.86.32.494.2.88.487 1.16.86.28.36.474.807.58 1.34.12.52.18 1.1.18 1.74V176h-2.84v-5.84c0-.853-.133-1.487-.4-1.9-.266-.427-.74-.64-1.42-.64-.773 0-1.333.233-1.68.7-.346.453-.52 1.207-.52 2.26V176h-2.84v-10.34Zm11.536 3.18c.04-.667.207-1.22.5-1.66.293-.44.667-.793 1.12-1.06.453-.267.96-.453 1.52-.56a8.375 8.375 0 0 1 1.72-.18c.52 0 1.047.04 1.58.12.533.067 1.02.207 1.46.42.44.213.8.513 1.08.9.28.373.42.873.42 1.5v5.38c0 .467.027.913.08 1.34.053.427.147.747.28.96h-2.88a6.68 6.68 0 0 1-.14-.48 6.57 6.57 0 0 1-.06-.52 3.7 3.7 0 0 1-1.6.98 6.41 6.41 0 0 1-1.88.28c-.493 0-.953-.06-1.38-.18-.427-.12-.8-.307-1.12-.56a2.7 2.7 0 0 1-.76-.96c-.173-.387-.26-.847-.26-1.38 0-.587.1-1.067.3-1.44a2.7 2.7 0 0 1 .8-.92 3.553 3.553 0 0 1 1.12-.5c.427-.12.853-.213 1.28-.28.427-.067.847-.12 1.26-.16.413-.04.78-.1 1.1-.18.32-.08.573-.193.76-.34.187-.16.273-.387.26-.68 0-.307-.053-.547-.16-.72a.936.936 0 0 0-.4-.42 1.303 1.303 0 0 0-.58-.2 3.805 3.805 0 0 0-.7-.06c-.56 0-1 .12-1.32.36-.32.24-.507.64-.56 1.2h-2.84Zm6.56 2.1c-.12.107-.273.193-.46.26-.173.053-.367.1-.58.14-.2.04-.413.073-.64.1-.227.027-.453.06-.68.1-.213.04-.427.093-.64.16-.2.067-.38.16-.54.28a1.23 1.23 0 0 0-.36.42c-.093.173-.14.393-.14.66 0 .253.047.467.14.64.093.173.22.313.38.42.16.093.347.16.56.2.213.04.433.06.66.06.56 0 .993-.093 1.3-.28.307-.187.533-.407.68-.66.147-.267.233-.533.26-.8.04-.267.06-.48.06-.64v-1.06Zm8.444-5.28h2.08v1.9h-2.08v5.12c0 .48.08.8.24.96.16.16.48.24.96.24.16 0 .314-.007.46-.02a3.79 3.79 0 0 0 .42-.06v2.2c-.24.04-.506.067-.8.08-.293.013-.58.02-.86.02-.44 0-.86-.033-1.26-.1a2.903 2.903 0 0 1-1.04-.34 1.88 1.88 0 0 1-.7-.74c-.173-.32-.26-.74-.26-1.26v-6.1h-1.72v-1.9h1.72v-3.1h2.84v3.1Zm6.152-1.6h-2.84v-2.34h2.84v2.34Zm-2.84 1.6h2.84V176h-2.84v-10.34Zm7.396 5.18c0 .413.04.82.12 1.22.08.387.213.74.4 1.06.2.307.46.553.78.74.32.187.72.28 1.2.28s.88-.093 1.2-.28a2.09 2.09 0 0 0 .78-.74c.2-.32.34-.673.42-1.06a6.208 6.208 0 0 0 0-2.44c-.08-.4-.22-.753-.42-1.06a2.09 2.09 0 0 0-.78-.74c-.32-.2-.72-.3-1.2-.3s-.88.1-1.2.3c-.32.187-.58.433-.78.74a3.24 3.24 0 0 0-.4 1.06c-.08.4-.12.807-.12 1.22Zm-2.84 0c0-.827.126-1.573.38-2.24a4.721 4.721 0 0 1 1.08-1.72 4.643 4.643 0 0 1 1.68-1.1c.653-.267 1.386-.4 2.2-.4.813 0 1.546.133 2.2.4a4.63 4.63 0 0 1 1.7 1.1c.466.467.826 1.04 1.08 1.72.253.667.38 1.413.38 2.24 0 .827-.127 1.573-.38 2.24a4.98 4.98 0 0 1-1.08 1.72 4.758 4.758 0 0 1-1.7 1.08c-.654.253-1.387.38-2.2.38-.814 0-1.547-.127-2.2-.38a4.772 4.772 0 0 1-1.68-1.08 4.95 4.95 0 0 1-1.08-1.72c-.254-.667-.38-1.413-.38-2.24Zm12.346-5.18h2.7v1.44h.06c.36-.6.827-1.033 1.4-1.3.574-.28 1.16-.42 1.76-.42.76 0 1.38.107 1.86.32.494.2.88.487 1.16.86.28.36.474.807.58 1.34.12.52.18 1.1.18 1.74V176h-2.84v-5.84c0-.853-.133-1.487-.4-1.9-.266-.427-.74-.64-1.42-.64-.773 0-1.333.233-1.68.7-.346.453-.52 1.207-.52 2.26V176h-2.84v-10.34Zm13.856 6.98c0 .307.06.573.18.8.133.213.3.393.5.54.2.133.426.233.68.3a3.348 3.348 0 0 0 1.44.04c.226-.053.426-.127.6-.22.186-.107.34-.24.46-.4.12-.173.18-.387.18-.64 0-.427-.287-.747-.86-.96-.56-.213-1.347-.427-2.36-.64-.414-.093-.82-.2-1.22-.32a4.663 4.663 0 0 1-1.04-.5 2.555 2.555 0 0 1-.74-.78c-.187-.32-.28-.707-.28-1.16 0-.667.126-1.213.38-1.64.266-.427.613-.76 1.04-1a4.207 4.207 0 0 1 1.44-.52 8.315 8.315 0 0 1 1.64-.16c.56 0 1.1.053 1.62.16a4.334 4.334 0 0 1 1.42.54c.413.253.753.593 1.02 1.02.28.413.446.94.5 1.58h-2.7c-.04-.547-.247-.913-.62-1.1-.374-.2-.814-.3-1.32-.3-.16 0-.334.013-.52.04-.187.013-.36.053-.52.12a1.026 1.026 0 0 0-.38.3c-.107.12-.16.287-.16.5 0 .253.093.46.28.62.186.16.426.293.72.4.306.093.653.18 1.04.26.386.08.78.167 1.18.26.413.093.813.207 1.2.34.4.133.753.313 1.06.54.306.213.553.487.74.82.186.32.28.72.28 1.2 0 .68-.14 1.253-.42 1.72-.267.453-.62.82-1.06 1.1-.44.28-.947.473-1.52.58a8.19 8.19 0 0 1-1.72.18c-.6 0-1.187-.06-1.76-.18a4.75 4.75 0 0 1-1.54-.6 3.607 3.607 0 0 1-1.1-1.1c-.28-.467-.434-1.047-.46-1.74h2.7ZM1055.38 137h-17.04V82.52h-21.12V69.68c2.96.08 5.8-.12 8.52-.6 2.8-.56 5.28-1.48 7.44-2.76 2.24-1.36 4.12-3.12 5.64-5.28 1.52-2.16 2.52-4.84 3-8.04h13.56v84Zm44.36-43.56c-2.24 0-4.24.44-6 1.32-1.68.8-3.08 1.92-4.2 3.36s-1.96 3.12-2.52 5.04c-.56 1.84-.84 3.8-.84 5.88 0 1.92.28 3.84.84 5.76.64 1.84 1.52 3.52 2.64 5.04 1.2 1.44 2.64 2.6 4.32 3.48 1.68.88 3.6 1.32 5.76 1.32 2.08 0 3.88-.44 5.4-1.32 1.6-.88 2.96-2.04 4.08-3.48s1.96-3.08 2.52-4.92c.56-1.84.84-3.72.84-5.64 0-2-.28-3.92-.84-5.76-.48-1.92-1.24-3.6-2.28-5.04-1.04-1.52-2.4-2.72-4.08-3.6-1.6-.96-3.48-1.44-5.64-1.44Zm12.24-18.84c-.56-2.8-1.84-5.24-3.84-7.32-2-2.08-4.48-3.12-7.44-3.12-3.04 0-5.6.92-7.68 2.76-2 1.76-3.6 3.96-4.8 6.6-1.2 2.56-2.08 5.32-2.64 8.28-.56 2.96-.88 5.6-.96 7.92l.24.24c2.32-3.36 5.04-5.76 8.16-7.2 3.12-1.44 6.72-2.16 10.8-2.16 3.6 0 7.12.8 10.56 2.4 3.44 1.52 6.36 3.6 8.76 6.24 2.24 2.56 3.88 5.48 4.92 8.76 1.04 3.28 1.56 6.6 1.56 9.96 0 4.32-.72 8.36-2.16 12.12-1.36 3.68-3.36 6.92-6 9.72-2.56 2.72-5.64 4.88-9.24 6.48-3.6 1.52-7.6 2.28-12 2.28-6.32 0-11.56-1.24-15.72-3.72-4.16-2.56-7.48-5.88-9.96-9.96-2.48-4.08-4.2-8.68-5.16-13.8-.96-5.2-1.44-10.48-1.44-15.84 0-5.2.6-10.4 1.8-15.6 1.2-5.2 3.12-9.88 5.76-14.04 2.64-4.24 6.04-7.68 10.2-10.32 4.16-2.64 9.24-3.96 15.24-3.96 3.6 0 6.96.52 10.08 1.56s5.88 2.56 8.28 4.56c2.4 1.92 4.36 4.32 5.88 7.2 1.52 2.88 2.52 6.2 3 9.96h-16.2Zm93.68 40.56c0 1.28.04 2.76.12 4.44.08 1.68.36 3.28.84 4.8a9.372 9.372 0 0 0 2.28 3.72c1.04 1.04 2.52 1.56 4.44 1.56 1.84 0 3.28-.52 4.32-1.56a8.798 8.798 0 0 0 2.4-3.72c.56-1.52.88-3.08.96-4.68.16-1.68.24-3.16.24-4.44 0-1.2-.08-2.6-.24-4.2-.08-1.68-.36-3.24-.84-4.68-.48-1.52-1.24-2.8-2.28-3.84-.96-1.12-2.32-1.68-4.08-1.68-1.92 0-3.44.48-4.56 1.44-1.04.96-1.84 2.16-2.4 3.6-.56 1.44-.92 3-1.08 4.68-.08 1.68-.12 3.2-.12 4.56Zm-12.24-.12c0-3.28.4-6.32 1.2-9.12.8-2.8 2.04-5.24 3.72-7.32 1.68-2.08 3.8-3.72 6.36-4.92 2.56-1.2 5.6-1.8 9.12-1.8 3.76 0 6.88.64 9.36 1.92 2.48 1.2 4.48 2.88 6 5.04 1.6 2.08 2.72 4.56 3.36 7.44.64 2.88.96 5.96.96 9.24 0 3.28-.4 6.32-1.2 9.12-.8 2.8-2.04 5.24-3.72 7.32-1.6 2.08-3.68 3.72-6.24 4.92-2.56 1.12-5.6 1.68-9.12 1.68-3.68 0-6.8-.6-9.36-1.8-2.48-1.2-4.52-2.84-6.12-4.92-1.52-2.16-2.64-4.68-3.36-7.56-.64-2.88-.96-5.96-.96-9.24Zm9.24-64.68h10.2l-49.44 89.16h-10.44l49.68-89.16Zm-58.92 24.96c0 1.28.04 2.72.12 4.32.08 1.6.36 3.12.84 4.56a8.52 8.52 0 0 0 2.28 3.48c1.04.96 2.52 1.44 4.44 1.44 1.84 0 3.28-.48 4.32-1.44a8.042 8.042 0 0 0 2.4-3.48c.56-1.44.88-2.92.96-4.44.16-1.6.24-3.04.24-4.32 0-1.2-.08-2.64-.24-4.32-.08-1.76-.36-3.44-.84-5.04s-1.24-2.96-2.28-4.08c-.96-1.12-2.32-1.68-4.08-1.68-1.92 0-3.44.52-4.56 1.56-1.04 1.04-1.84 2.32-2.4 3.84-.56 1.52-.92 3.16-1.08 4.92-.08 1.76-.12 3.32-.12 4.68Zm-12.24-.24c0-3.28.4-6.36 1.2-9.24.8-2.88 2.04-5.4 3.72-7.56 1.68-2.16 3.8-3.84 6.36-5.04 2.56-1.28 5.6-1.92 9.12-1.92 3.76 0 6.88.64 9.36 1.92 2.48 1.28 4.48 3.04 6 5.28 1.6 2.16 2.72 4.72 3.36 7.68.64 2.96.96 6.08.96 9.36 0 3.28-.4 6.32-1.2 9.12-.8 2.72-2.04 5.08-3.72 7.08-1.6 2-3.68 3.56-6.24 4.68-2.56 1.12-5.6 1.68-9.12 1.68-3.68 0-6.8-.56-9.36-1.68-2.48-1.2-4.52-2.8-6.12-4.8-1.52-2.08-2.64-4.52-3.36-7.32-.64-2.88-.96-5.96-.96-9.24Zm-41.37 87.36-5.24-8.72h3.52l3.34 5.64 3.32-5.64h3.5l-5.3 8.8V168h-3.14v-5.56Zm9.43.4c0 .413.04.82.12 1.22.08.387.21.74.4 1.06.2.307.46.553.78.74.32.187.72.28 1.2.28s.88-.093 1.2-.28c.33-.187.59-.433.78-.74.2-.32.34-.673.42-1.06a6.208 6.208 0 0 0 0-2.44c-.08-.4-.22-.753-.42-1.06a2.135 2.135 0 0 0-.78-.74c-.32-.2-.72-.3-1.2-.3s-.88.1-1.2.3c-.32.187-.58.433-.78.74-.19.307-.32.66-.4 1.06-.08.4-.12.807-.12 1.22Zm-2.84 0c0-.827.13-1.573.38-2.24.25-.68.61-1.253 1.08-1.72.47-.48 1.03-.847 1.68-1.1.65-.267 1.39-.4 2.2-.4.81 0 1.55.133 2.2.4.67.253 1.23.62 1.7 1.1.47.467.83 1.04 1.08 1.72.25.667.38 1.413.38 2.24 0 .827-.13 1.573-.38 2.24-.25.667-.61 1.24-1.08 1.72-.47.467-1.03.827-1.7 1.08-.65.253-1.39.38-2.2.38-.81 0-1.55-.127-2.2-.38a4.845 4.845 0 0 1-1.68-1.08 4.864 4.864 0 0 1-1.08-1.72c-.25-.667-.38-1.413-.38-2.24Zm22.05 5.16h-2.7v-1.44h-.06c-.36.6-.83 1.033-1.4 1.3-.58.267-1.16.4-1.76.4-.76 0-1.39-.1-1.88-.3-.48-.2-.86-.48-1.14-.84a3.52 3.52 0 0 1-.6-1.34 8.739 8.739 0 0 1-.16-1.76v-6.36h2.84v5.84c0 .853.13 1.493.4 1.92.26.413.74.62 1.42.62.77 0 1.33-.227 1.68-.68.34-.467.52-1.227.52-2.28v-5.42h2.84V168Zm5.41-11.64h-4.28v-2.64h11.7v2.64h-4.28V168h-3.14v-11.64Zm16.43 11.64h-2.7v-1.44h-.06c-.36.6-.82 1.033-1.4 1.3-.57.267-1.16.4-1.76.4-.76 0-1.38-.1-1.88-.3-.48-.2-.86-.48-1.14-.84a3.52 3.52 0 0 1-.6-1.34c-.1-.533-.16-1.12-.16-1.76v-6.36h2.84v5.84c0 .853.14 1.493.4 1.92.27.413.74.62 1.42.62.78 0 1.34-.227 1.68-.68.35-.467.52-1.227.52-2.28v-5.42h2.84V168Zm9.54-5.16c0-.44-.05-.86-.14-1.26-.09-.4-.24-.753-.44-1.06-.2-.307-.45-.547-.76-.72-.29-.187-.65-.28-1.08-.28-.41 0-.77.093-1.08.28-.31.173-.56.413-.76.72-.2.307-.35.66-.44 1.06a5.63 5.63 0 0 0 0 2.5c.09.4.24.753.44 1.06.2.307.45.553.76.74.31.173.67.26 1.08.26.43 0 .79-.087 1.08-.26.31-.187.56-.433.76-.74.2-.307.35-.66.44-1.06.09-.4.14-.813.14-1.24Zm-7.58-9.12h2.84v5.2h.04c.35-.533.81-.92 1.4-1.16.6-.253 1.22-.38 1.86-.38.52 0 1.03.107 1.54.32.51.213.96.54 1.36.98.41.44.75 1.007 1 1.7.25.68.38 1.493.38 2.44 0 .947-.13 1.767-.38 2.46-.25.68-.59 1.24-1 1.68-.4.44-.85.767-1.36.98-.51.213-1.02.32-1.54.32-.76 0-1.44-.12-2.04-.36-.6-.24-1.05-.647-1.36-1.22h-.04V168h-2.7v-14.28Zm18.99 8c-.14-.72-.38-1.267-.72-1.64-.34-.373-.85-.56-1.54-.56-.46 0-.84.08-1.14.24-.3.147-.54.333-.72.56-.18.227-.3.467-.38.72-.07.253-.11.48-.12.68h4.62Zm-4.62 1.8c.04.92.27 1.587.7 2 .42.413 1.04.62 1.84.62.57 0 1.06-.14 1.48-.42.41-.293.66-.6.76-.92h2.5c-.4 1.24-1.02 2.127-1.84 2.66-.83.533-1.83.8-3 .8-.82 0-1.55-.127-2.2-.38a4.6 4.6 0 0 1-1.66-1.12 4.964 4.964 0 0 1-1.06-1.72c-.24-.667-.36-1.4-.36-2.2 0-.773.12-1.493.38-2.16.25-.667.61-1.24 1.08-1.72.46-.493 1.02-.88 1.66-1.16.65-.28 1.37-.42 2.16-.42.88 0 1.64.173 2.3.52.65.333 1.18.787 1.6 1.36.42.573.73 1.227.92 1.96.18.733.25 1.5.2 2.3h-7.46Zm215.94-47.72c0 1.28.03 2.76.07 4.44.05 1.68.21 3.28.49 4.8.28 1.44.72 2.68 1.32 3.72.6 1.04 1.46 1.56 2.57 1.56 1.06 0 1.9-.52 2.5-1.56.65-1.04 1.11-2.28 1.39-3.72.32-1.52.51-3.08.55-4.68.1-1.68.14-3.16.14-4.44 0-1.2-.04-2.6-.14-4.2-.04-1.68-.2-3.24-.48-4.68-.28-1.52-.72-2.8-1.32-3.84-.56-1.12-1.35-1.68-2.36-1.68-1.12 0-2 .48-2.64 1.44-.61.96-1.07 2.16-1.39 3.6-.33 1.44-.54 3-.63 4.68-.04 1.68-.07 3.2-.07 4.56Zm-7.08-.12c0-3.28.23-6.32.69-9.12.47-2.8 1.18-5.24 2.16-7.32.97-2.08 2.2-3.72 3.68-4.92 1.48-1.2 3.24-1.8 5.28-1.8 2.17 0 3.98.64 5.41 1.92 1.44 1.2 2.6 2.88 3.48 5.04.92 2.08 1.57 4.56 1.94 7.44.37 2.88.56 5.96.56 9.24 0 3.28-.23 6.32-.7 9.12-.46 2.8-1.18 5.24-2.15 7.32-.93 2.08-2.13 3.72-3.61 4.92-1.48 1.12-3.24 1.68-5.28 1.68-2.13 0-3.94-.6-5.42-1.8-1.43-1.2-2.62-2.84-3.54-4.92-.88-2.16-1.53-4.68-1.95-7.56-.37-2.88-.55-5.96-.55-9.24Zm5.35-64.68h5.9l-28.62 89.16h-6.04L1371.15 51Zm-34.11 24.96c0 1.28.03 2.72.07 4.32.05 1.6.21 3.12.49 4.56.28 1.36.72 2.52 1.32 3.48.6.96 1.46 1.44 2.57 1.44 1.06 0 1.9-.48 2.5-1.44.65-.96 1.11-2.12 1.39-3.48.32-1.44.51-2.92.55-4.44.1-1.6.14-3.04.14-4.32 0-1.2-.04-2.64-.14-4.32-.04-1.76-.21-3.44-.48-5.04-.28-1.6-.72-2.96-1.32-4.08-.56-1.12-1.35-1.68-2.36-1.68-1.12 0-2 .52-2.64 1.56-.61 1.04-1.07 2.32-1.39 3.84a30.56 30.56 0 0 0-.63 4.92c-.04 1.76-.07 3.32-.07 4.68Zm-7.08-.24c0-3.28.23-6.36.69-9.24.46-2.88 1.18-5.4 2.15-7.56.98-2.16 2.2-3.84 3.69-5.04 1.48-1.28 3.24-1.92 5.28-1.92 2.17 0 3.98.64 5.41 1.92 1.44 1.28 2.6 3.04 3.48 5.28.92 2.16 1.57 4.72 1.94 7.68.37 2.96.56 6.08.56 9.36 0 3.28-.24 6.32-.7 9.12-.46 2.72-1.18 5.08-2.15 7.08-.93 2-2.13 3.56-3.61 4.68-1.49 1.12-3.24 1.68-5.28 1.68-2.13 0-3.94-.56-5.42-1.68-1.44-1.2-2.62-2.8-3.54-4.8-.88-2.08-1.53-4.52-1.95-7.32-.37-2.88-.55-5.96-.55-9.24Zm-31.1 19.56c0 2.4.05 5.321.14 8.761.09 3.36.37 6.64.84 9.84.51 3.12 1.29 5.8 2.36 8.04 1.06 2.24 2.59 3.36 4.58 3.36 2.04 0 3.59-1.12 4.66-3.36 1.11-2.24 1.89-4.92 2.36-8.04.51-3.2.81-6.48.9-9.84.09-3.44.14-6.36.14-8.76 0-1.44-.02-3.16-.07-5.16 0-2.08-.09-4.2-.28-6.36-.14-2.16-.37-4.28-.69-6.36-.28-2.16-.72-4.08-1.32-5.76-.6-1.68-1.37-3.04-2.29-4.08-.93-1.04-2.07-1.56-3.41-1.56-1.34 0-2.48.52-3.4 1.56-.88 1.04-1.62 2.4-2.22 4.08-.56 1.68-1 3.6-1.32 5.76-.33 2.08-.56 4.2-.7 6.36-.14 2.16-.23 4.28-.28 6.36v5.16Zm-9.86 0c0-8.16.46-15 1.39-20.52.97-5.6 2.27-10.08 3.89-13.44 1.62-3.36 3.5-5.76 5.63-7.2 2.17-1.44 4.46-2.16 6.87-2.16 2.46 0 4.75.72 6.88 2.16 2.17 1.44 4.07 3.84 5.69 7.2 1.67 3.36 2.97 7.84 3.89 13.44.98 5.52 1.46 12.36 1.46 20.52 0 8.401-.48 15.441-1.46 21.121-.92 5.6-2.22 10.08-3.89 13.44-1.62 3.36-3.52 5.76-5.69 7.2-2.13 1.44-4.42 2.16-6.88 2.16-2.41 0-4.7-.72-6.87-2.16-2.13-1.44-4.01-3.84-5.63-7.2-1.62-3.36-2.92-7.84-3.89-13.44-.93-5.68-1.39-12.72-1.39-21.12Zm81.08 64.88h2.84v5.38h.06c.36-.6.82-1.033 1.38-1.3.56-.28 1.11-.42 1.64-.42.76 0 1.38.107 1.86.32.49.2.88.487 1.16.86.28.36.47.807.58 1.34.12.52.18 1.1.18 1.74v6.36h-2.84v-5.84c0-.853-.13-1.487-.4-1.9-.27-.427-.74-.64-1.42-.64-.77 0-1.33.233-1.68.7-.35.453-.52 1.207-.52 2.26v5.42h-2.84v-14.28Zm-4.24 7.58c-.19-1.186-.89-1.78-2.1-1.78-.46 0-.84.107-1.14.32a2.4 2.4 0 0 0-.76.8 3.4 3.4 0 0 0-.4 1.08 5.607 5.607 0 0 0 0 2.3c.08.387.2.74.38 1.06.18.307.43.56.74.76.3.2.68.3 1.12.3.68 0 1.2-.186 1.56-.56.37-.386.6-.9.7-1.54h2.74c-.19 1.374-.72 2.42-1.6 3.14-.88.72-2.01 1.08-3.38 1.08-.78 0-1.49-.126-2.14-.38a4.815 4.815 0 0 1-2.7-2.76c-.26-.653-.38-1.366-.38-2.14 0-.8.11-1.54.34-2.22.24-.693.58-1.286 1.04-1.78.45-.506 1-.9 1.66-1.18.65-.28 1.4-.42 2.24-.42.61 0 1.2.08 1.76.24.57.16 1.08.407 1.52.74.45.32.82.727 1.1 1.22.28.48.44 1.054.48 1.72h-2.78Zm-16.55 1.54c0 .414.04.82.12 1.22.08.387.21.74.4 1.06.2.307.46.554.78.74.32.187.72.28 1.2.28s.88-.093 1.2-.28c.33-.186.59-.433.78-.74.2-.32.34-.673.42-1.06a6.2 6.2 0 0 0 0-2.44c-.08-.4-.22-.753-.42-1.06a2.143 2.143 0 0 0-.78-.74c-.32-.2-.72-.3-1.2-.3s-.88.1-1.2.3c-.32.187-.58.434-.78.74-.19.307-.32.66-.4 1.06-.08.4-.12.807-.12 1.22Zm-2.84 0c0-.826.13-1.573.38-2.24.25-.68.61-1.253 1.08-1.72.47-.48 1.03-.846 1.68-1.1.65-.266 1.39-.4 2.2-.4.81 0 1.55.134 2.2.4.67.254 1.23.62 1.7 1.1.47.467.83 1.04 1.08 1.72.25.667.38 1.414.38 2.24 0 .827-.13 1.574-.38 2.24-.25.667-.61 1.24-1.08 1.72-.47.467-1.03.827-1.7 1.08-.65.254-1.39.38-2.2.38-.81 0-1.55-.126-2.2-.38a4.845 4.845 0 0 1-1.68-1.08 4.864 4.864 0 0 1-1.08-1.72c-.25-.666-.38-1.413-.38-2.24Zm-4.37-.04c0-.427-.04-.833-.12-1.22-.08-.4-.22-.747-.42-1.04a2.098 2.098 0 0 0-.74-.74c-.3-.187-.69-.28-1.16-.28-.46 0-.86.093-1.18.28-.32.187-.58.433-.78.74-.18.307-.32.66-.42 1.06a6.01 6.01 0 0 0-.12 1.22c0 .4.05.8.14 1.2.1.4.24.76.44 1.08.22.307.48.56.78.76.32.187.7.28 1.14.28.47 0 .86-.093 1.16-.28.32-.187.58-.433.76-.74.19-.32.32-.68.4-1.08.08-.4.12-.813.12-1.24Zm.04 3.88h-.04c-.33.56-.77.967-1.32 1.22-.53.24-1.14.36-1.82.36-.77 0-1.45-.147-2.04-.44a4.434 4.434 0 0 1-1.46-1.22 6.04 6.04 0 0 1-.86-1.78 7.95 7.95 0 0 1-.28-2.08c0-.693.1-1.36.28-2 .2-.653.49-1.227.86-1.72.39-.493.87-.887 1.44-1.18.58-.307 1.24-.46 2-.46.62 0 1.2.133 1.74.4.56.253 1 .633 1.32 1.14h.04v-5.2h2.84v14.28h-2.7v-1.32Zm-14.6-9.02h2.7v1.92h.04c.13-.32.31-.613.54-.88.23-.28.49-.513.78-.7.29-.2.61-.353.94-.46.33-.106.68-.16 1.04-.16.19 0 .39.034.62.1v2.64a4.002 4.002 0 0 0-.48-.06c-.19-.026-.37-.04-.54-.04-.52 0-.96.087-1.32.26a2.37 2.37 0 0 0-.88.72c-.21.294-.37.64-.46 1.04-.09.4-.14.834-.14 1.3v4.66h-2.84V164.1Zm-1.95 10.342h-2.7v-1.44h-.06c-.36.6-.83 1.033-1.4 1.3-.58.266-1.16.4-1.76.4-.76 0-1.39-.1-1.88-.3-.48-.2-.86-.48-1.14-.84-.28-.374-.48-.82-.6-1.34a8.746 8.746 0 0 1-.16-1.76v-6.36h2.84v5.84c0 .853.13 1.493.4 1.92.26.413.74.62 1.42.62.77 0 1.33-.227 1.68-.68.34-.467.52-1.227.52-2.28v-5.42h2.84v10.34Zm-27.35-14.282h4.42l3.34 9.82h.04l3.16-9.82h4.42v14.28h-2.94v-10.12h-.04l-3.5 10.12h-2.42l-3.5-10.02h-.04v10.02h-2.94v-14.28Z" fill="#131313"/></svg>