<svg width="365" height="432" viewBox="0 0 365 432" fill="none" xmlns="http://www.w3.org/2000/svg"><path stroke="#000" stroke-dasharray="8 8" d="M.5.5h364v431H.5z"/><path fill="#fff" d="M0 0h365v336H0z"/><path fill="#FF458D" fill-opacity=".8" d="M0 0h365v336H0z"/><path d="M99.665 138.54c0 2.88 1.023 5.088 3.071 6.624 2.048 1.472 4.448 2.208 7.2 2.208 2.88 0 5.28-.736 7.2-2.208 1.92-1.536 2.88-3.744 2.88-6.624 0-.896-.128-1.856-.384-2.88-.256-1.088-.768-2.112-1.536-3.072-.704-.96-1.728-1.76-3.072-2.4-1.28-.64-2.976-.96-5.088-.96-1.344 0-2.656.224-3.936.672a9.987 9.987 0 0 0-3.264 1.728 8.5 8.5 0 0 0-2.304 2.88c-.511 1.152-.767 2.496-.767 4.032Zm-12.385-1.248c0-3.008.672-5.664 2.016-7.968 1.344-2.304 3.072-4.224 5.184-5.76 2.176-1.536 4.608-2.688 7.296-3.456a29.566 29.566 0 0 1 8.16-1.152c4.16 0 7.68.64 10.56 1.92 2.88 1.28 5.184 2.848 6.912 4.704 1.792 1.792 3.072 3.744 3.841 5.856.767 2.048 1.151 3.904 1.151 5.568 0 3.328-.832 6.24-2.496 8.736-1.6 2.496-4.032 4.288-7.296 5.376v.192c4.032.896 7.136 2.816 9.312 5.76 2.177 2.88 3.265 6.432 3.265 10.656 0 3.584-.736 6.688-2.208 9.312-1.409 2.624-3.297 4.8-5.665 6.528-2.368 1.728-5.056 3.04-8.064 3.936a34.413 34.413 0 0 1-9.216 1.248c-3.264 0-6.432-.416-9.504-1.248-3.008-.768-5.728-2.016-8.16-3.744-2.367-1.728-4.287-3.904-5.76-6.528-1.407-2.624-2.112-5.76-2.112-9.408 0-4.288 1.089-7.872 3.264-10.752 2.24-2.88 5.376-4.8 9.408-5.76v-.192c-3.264-.896-5.728-2.592-7.392-5.088-1.663-2.496-2.495-5.408-2.495-8.736Zm10.849 29.856c0 1.728.32 3.296.96 4.704.64 1.408 1.471 2.624 2.495 3.648 1.088.96 2.368 1.728 3.84 2.304 1.472.512 3.008.768 4.608.768 1.664 0 3.168-.256 4.512-.768 1.408-.576 2.624-1.344 3.648-2.304a10.305 10.305 0 0 0 2.496-3.648c.576-1.408.864-2.944.864-4.608 0-1.6-.32-3.04-.96-4.32a9.587 9.587 0 0 0-2.496-3.456c-1.024-.96-2.24-1.696-3.648-2.208-1.344-.512-2.816-.768-4.416-.768-3.328 0-6.144.928-8.448 2.784-2.303 1.792-3.456 4.416-3.456 7.872Zm66.399-29.76h-.288l-17.376 23.328h17.664v-23.328Zm0 34.56h-28.416v-12.48l29.184-39.168h12.192v40.416h8.928v11.232h-8.928V187.5h-12.96v-15.552Zm88-1.92c0 1.024.032 2.208.096 3.552a15.08 15.08 0 0 0 .672 3.84 7.497 7.497 0 0 0 1.824 2.976c.832.832 2.016 1.248 3.552 1.248 1.472 0 2.624-.416 3.456-1.248a7.039 7.039 0 0 0 1.92-2.976c.448-1.216.704-2.464.768-3.744.128-1.344.192-2.528.192-3.552 0-.96-.064-2.08-.192-3.36-.064-1.344-.288-2.592-.672-3.744-.384-1.216-.992-2.24-1.824-3.072-.768-.896-1.856-1.344-3.264-1.344-1.536 0-2.752.384-3.648 1.152-.832.768-1.472 1.728-1.92 2.88a13.923 13.923 0 0 0-.864 3.744 77.34 77.34 0 0 0-.096 3.648Zm-9.792-.096c0-2.624.32-5.056.96-7.296.64-2.24 1.632-4.192 2.976-5.856 1.344-1.664 3.04-2.976 5.088-3.936s4.48-1.44 7.296-1.44c3.008 0 5.504.512 7.488 1.536 1.984.96 3.584 2.304 4.8 4.032 1.28 1.664 2.176 3.648 2.688 5.952s.768 4.768.768 7.392c0 2.624-.32 5.056-.96 7.296-.64 2.24-1.632 4.192-2.976 5.856-1.28 1.664-2.944 2.976-4.992 3.936-2.048.896-4.48 1.344-7.296 1.344-2.944 0-5.44-.48-7.488-1.44-1.984-.96-3.616-2.272-4.896-3.936-1.216-1.728-2.112-3.744-2.688-6.048-.512-2.304-.768-4.768-.768-7.392Zm7.392-51.744h8.16l-39.552 71.328h-8.352l39.744-71.328Zm-47.136 19.968c0 1.024.032 2.176.096 3.456.064 1.28.288 2.496.672 3.648a6.815 6.815 0 0 0 1.824 2.784c.832.768 2.016 1.152 3.552 1.152 1.472 0 2.624-.384 3.456-1.152a6.434 6.434 0 0 0 1.92-2.784c.448-1.152.704-2.336.768-3.552.128-1.28.192-2.432.192-3.456 0-.96-.064-2.112-.192-3.456a16.602 16.602 0 0 0-.672-4.032c-.384-1.28-.992-2.368-1.824-3.264-.768-.896-1.856-1.344-3.264-1.344-1.536 0-2.752.416-3.648 1.248-.832.832-1.472 1.856-1.92 3.072a15.361 15.361 0 0 0-.864 3.936 83.49 83.49 0 0 0-.096 3.744Zm-9.792-.192c0-2.624.32-5.088.96-7.392.64-2.304 1.632-4.32 2.976-6.048 1.344-1.728 3.04-3.072 5.088-4.032 2.048-1.024 4.48-1.536 7.296-1.536 3.008 0 5.504.512 7.488 1.536 1.984 1.024 3.584 2.432 4.8 4.224 1.28 1.728 2.176 3.776 2.688 6.144.512 2.368.768 4.864.768 7.488 0 2.624-.32 5.056-.96 7.296-.64 2.176-1.632 4.064-2.976 5.664-1.28 1.6-2.944 2.848-4.992 3.744-2.048.896-4.48 1.344-7.296 1.344-2.944 0-5.44-.448-7.488-1.344-1.984-.96-3.616-2.24-4.896-3.84-1.216-1.664-2.112-3.616-2.688-5.856-.512-2.304-.768-4.768-.768-7.392Zm-85.848 72.744c0 .384.07.709.208.976.139.267.32.485.544.656.235.16.507.283.816.368.31.075.63.112.96.112.224 0 .464-.016.72-.048.256-.043.496-.117.72-.224.224-.107.411-.251.56-.432.15-.192.224-.432.224-.72 0-.309-.101-.56-.304-.752a2.254 2.254 0 0 0-.768-.48 7.718 7.718 0 0 0-1.088-.336 30.756 30.756 0 0 1-1.232-.32 12.357 12.357 0 0 1-1.248-.384 4.497 4.497 0 0 1-1.088-.608 2.941 2.941 0 0 1-.784-.912c-.192-.373-.288-.821-.288-1.344 0-.587.123-1.093.368-1.52.256-.437.587-.8.992-1.088a4.302 4.302 0 0 1 1.376-.64 5.84 5.84 0 0 1 1.536-.208c.598 0 1.168.069 1.712.208a4.16 4.16 0 0 1 1.472.64c.427.299.763.683 1.008 1.152.256.459.384 1.019.384 1.68h-2.432c-.021-.341-.096-.624-.224-.848a1.348 1.348 0 0 0-.48-.528 2.048 2.048 0 0 0-.704-.272 4.184 4.184 0 0 0-.848-.08c-.202 0-.405.021-.608.064a1.723 1.723 0 0 0-.56.224c-.16.107-.293.24-.4.4a1.08 1.08 0 0 0-.16.608c0 .224.043.405.128.544.086.139.251.267.496.384.256.117.603.235 1.04.352.448.117 1.03.267 1.744.448a9.2 9.2 0 0 1 .88.24c.384.107.763.283 1.136.528.374.245.694.576.96.992.278.405.416.928.416 1.568 0 .523-.101 1.008-.304 1.456a3.187 3.187 0 0 1-.912 1.168c-.394.32-.89.571-1.488.752-.586.181-1.269.272-2.048.272-.629 0-1.242-.08-1.84-.24a4.583 4.583 0 0 1-1.568-.72 3.637 3.637 0 0 1-1.072-1.264c-.266-.512-.394-1.12-.384-1.824h2.432Zm16.039 3.792h-2.16v-1.152h-.048c-.288.48-.661.827-1.12 1.04-.459.213-.928.32-1.408.32-.608 0-1.109-.08-1.504-.24a2.195 2.195 0 0 1-.912-.672 2.82 2.82 0 0 1-.48-1.072 7.22 7.22 0 0 1-.128-1.408v-5.088h2.272v4.672c0 .683.107 1.195.32 1.536.213.331.592.496 1.136.496.619 0 1.067-.181 1.344-.544.277-.373.416-.981.416-1.824v-4.336h2.272v8.272Zm5.74-1.488c.374 0 .683-.075.928-.224.256-.149.459-.341.608-.576.16-.245.272-.528.336-.848.064-.32.096-.645.096-.976a4.26 4.26 0 0 0-.112-.976 2.393 2.393 0 0 0-.336-.848 1.788 1.788 0 0 0-.624-.608c-.245-.16-.549-.24-.912-.24-.373 0-.688.08-.944.24a1.898 1.898 0 0 0-.608.592 2.6 2.6 0 0 0-.32.848 5.05 5.05 0 0 0 0 1.968c.075.32.187.603.336.848.16.235.368.427.624.576.256.149.566.224.928.224Zm-4.176-6.784h2.16v1.056h.032c.278-.448.63-.773 1.056-.976a3.236 3.236 0 0 1 1.408-.304c.651 0 1.211.123 1.68.368.47.245.859.571 1.168.976.31.405.539.88.688 1.424.15.533.224 1.093.224 1.68a5.66 5.66 0 0 1-.224 1.6 3.977 3.977 0 0 1-.688 1.36 3.26 3.26 0 0 1-1.136.944c-.448.235-.976.352-1.584.352-.512 0-.986-.101-1.424-.304a2.768 2.768 0 0 1-1.056-.928h-.032v3.92h-2.272v-11.168Zm13.798 6.784c.373 0 .682-.075.928-.224.256-.149.458-.341.608-.576.16-.245.272-.528.336-.848.064-.32.096-.645.096-.976 0-.331-.038-.656-.112-.976a2.393 2.393 0 0 0-.336-.848 1.788 1.788 0 0 0-.624-.608c-.246-.16-.55-.24-.912-.24-.374 0-.688.08-.944.24a1.888 1.888 0 0 0-.608.592c-.15.245-.256.528-.32.848a5.05 5.05 0 0 0 0 1.968c.074.32.186.603.336.848.16.235.368.427.624.576.256.149.565.224.928.224Zm-4.176-6.784h2.16v1.056h.032c.277-.448.629-.773 1.056-.976a3.233 3.233 0 0 1 1.408-.304c.65 0 1.21.123 1.68.368.469.245.858.571 1.168.976.309.405.538.88.688 1.424.149.533.224 1.093.224 1.68 0 .555-.075 1.088-.224 1.6-.15.512-.379.965-.688 1.36a3.278 3.278 0 0 1-1.136.944c-.448.235-.976.352-1.584.352-.512 0-.987-.101-1.424-.304a2.754 2.754 0 0 1-1.056-.928h-.032v3.92h-2.272v-11.168Zm11.637 4.144c0 .331.032.656.096.976.064.309.17.592.32.848.16.245.368.443.624.592.256.149.576.224.96.224s.704-.075.96-.224c.266-.149.474-.347.624-.592a2.57 2.57 0 0 0 .336-.848 4.962 4.962 0 0 0 0-1.952 2.393 2.393 0 0 0-.336-.848 1.677 1.677 0 0 0-.624-.592c-.256-.16-.576-.24-.96-.24s-.704.08-.96.24a1.843 1.843 0 0 0-.624.592c-.15.245-.256.528-.32.848-.064.32-.096.645-.096.976Zm-2.272 0c0-.661.101-1.259.304-1.792.202-.544.49-1.003.864-1.376a3.726 3.726 0 0 1 1.344-.88c.522-.213 1.109-.32 1.76-.32.65 0 1.237.107 1.76.32.533.203.986.496 1.36.88.373.373.661.832.864 1.376.202.533.304 1.131.304 1.792s-.102 1.259-.304 1.792a3.983 3.983 0 0 1-.864 1.376 3.824 3.824 0 0 1-1.36.864c-.523.203-1.11.304-1.76.304-.651 0-1.238-.101-1.76-.304a3.838 3.838 0 0 1-1.344-.864 3.954 3.954 0 0 1-.864-1.376c-.203-.533-.304-1.131-.304-1.792Zm9.877-4.144h2.16v1.536h.032c.107-.256.251-.491.432-.704.181-.224.389-.411.624-.56.235-.16.485-.283.752-.368.267-.085.544-.128.832-.128.149 0 .315.027.496.08v2.112a3.282 3.282 0 0 0-.384-.048 3.098 3.098 0 0 0-.432-.032c-.416 0-.768.069-1.056.208a1.869 1.869 0 0 0-.704.576 2.279 2.279 0 0 0-.368.832c-.075.32-.112.667-.112 1.04v3.728h-2.272v-8.272Zm8.939 0h1.664v1.52h-1.664v4.096c0 .384.064.64.192.768s.384.192.768.192a3.395 3.395 0 0 0 .704-.064v1.76a5.492 5.492 0 0 1-.64.064c-.235.011-.464.016-.688.016-.352 0-.688-.027-1.008-.08a2.31 2.31 0 0 1-.832-.272 1.495 1.495 0 0 1-.56-.592c-.139-.256-.208-.592-.208-1.008v-4.88h-1.376v-1.52h1.376v-2.48h2.272v2.48Zm8.153 3.248c-.107-.576-.299-1.013-.576-1.312-.267-.299-.678-.448-1.232-.448-.363 0-.667.064-.912.192a1.736 1.736 0 0 0-.576.448 1.86 1.86 0 0 0-.304.576 2.83 2.83 0 0 0-.096.544h3.696Zm-3.696 1.44c.032.736.218 1.269.56 1.6.341.331.832.496 1.472.496.458 0 .853-.112 1.184-.336.33-.235.533-.48.608-.736h2c-.32.992-.811 1.701-1.472 2.128-.662.427-1.462.64-2.4.64-.651 0-1.238-.101-1.76-.304a3.733 3.733 0 0 1-1.328-.896 4.085 4.085 0 0 1-.848-1.376 5.161 5.161 0 0 1-.288-1.76c0-.619.101-1.195.304-1.728.202-.533.49-.992.864-1.376a4.022 4.022 0 0 1 1.328-.928 4.337 4.337 0 0 1 1.728-.336c.704 0 1.317.139 1.84.416.522.267.949.629 1.28 1.088.341.459.586.981.736 1.568.149.587.202 1.2.16 1.84h-5.968Zm7.155-4.688h2.16v1.536h.032c.107-.256.251-.491.432-.704.182-.224.39-.411.624-.56a2.9 2.9 0 0 1 .752-.368c.267-.085.544-.128.832-.128.15 0 .315.027.496.08v2.112a3.227 3.227 0 0 0-.384-.048 3.098 3.098 0 0 0-.432-.032c-.416 0-.768.069-1.056.208a1.877 1.877 0 0 0-.704.576c-.17.235-.293.512-.368.832-.074.32-.112.667-.112 1.04v3.728h-2.272v-8.272Zm13.104 6.16h2.24c.363 0 .715-.059 1.056-.176.341-.117.645-.309.912-.576.267-.277.48-.635.64-1.072.16-.437.24-.971.24-1.6 0-.576-.059-1.093-.176-1.552a3.035 3.035 0 0 0-.544-1.2 2.38 2.38 0 0 0-1.024-.752c-.416-.181-.933-.272-1.552-.272h-1.792v7.2Zm-2.512-9.312h4.928c.736 0 1.419.117 2.048.352.64.235 1.189.587 1.648 1.056.469.469.832 1.056 1.088 1.76.267.704.4 1.531.4 2.48 0 .832-.107 1.6-.32 2.304a5.003 5.003 0 0 1-.976 1.824 4.527 4.527 0 0 1-1.616 1.216c-.64.288-1.397.432-2.272.432h-4.928v-11.424Zm13.476 7.296c0 .331.032.656.096.976.064.309.17.592.32.848.16.245.368.443.624.592.256.149.576.224.96.224s.704-.075.96-.224c.266-.149.474-.347.624-.592a2.57 2.57 0 0 0 .336-.848 4.962 4.962 0 0 0 0-1.952 2.393 2.393 0 0 0-.336-.848 1.677 1.677 0 0 0-.624-.592c-.256-.16-.576-.24-.96-.24s-.704.08-.96.24a1.843 1.843 0 0 0-.624.592c-.15.245-.256.528-.32.848-.064.32-.096.645-.096.976Zm-2.272 0c0-.661.101-1.259.304-1.792.202-.544.49-1.003.864-1.376a3.726 3.726 0 0 1 1.344-.88c.522-.213 1.109-.32 1.76-.32.65 0 1.237.107 1.76.32.533.203.986.496 1.36.88.373.373.661.832.864 1.376.202.533.304 1.131.304 1.792s-.102 1.259-.304 1.792a3.983 3.983 0 0 1-.864 1.376 3.824 3.824 0 0 1-1.36.864c-.523.203-1.11.304-1.76.304-.651 0-1.238-.101-1.76-.304a3.838 3.838 0 0 1-1.344-.864 3.954 3.954 0 0 1-.864-1.376c-.203-.533-.304-1.131-.304-1.792Zm9.877-4.144h2.16v1.152h.048c.288-.48.661-.827 1.12-1.04a3.173 3.173 0 0 1 1.408-.336c.608 0 1.104.085 1.488.256.394.16.704.389.928.688.224.288.378.645.464 1.072.096.416.144.88.144 1.392v5.088h-2.272v-4.672c0-.683-.107-1.189-.32-1.52-.214-.341-.592-.512-1.136-.512-.619 0-1.067.187-1.344.56-.278.363-.416.965-.416 1.808v4.336h-2.272v-8.272Zm9.228 2.544c.032-.533.165-.976.4-1.328a2.72 2.72 0 0 1 .896-.848 3.771 3.771 0 0 1 1.216-.448 6.7 6.7 0 0 1 1.376-.144c.416 0 .837.032 1.264.096.427.053.816.165 1.168.336s.64.411.864.72c.224.299.336.699.336 1.2v4.304c0 .373.021.731.064 1.072.043.341.117.597.224.768h-2.304a5.052 5.052 0 0 1-.112-.384 5.886 5.886 0 0 1-.048-.416 2.96 2.96 0 0 1-1.28.784 5.15 5.15 0 0 1-1.504.224 4.06 4.06 0 0 1-1.104-.144 2.526 2.526 0 0 1-.896-.448 2.164 2.164 0 0 1-.608-.768c-.139-.309-.208-.677-.208-1.104 0-.469.08-.853.24-1.152.171-.309.384-.555.64-.736.267-.181.565-.315.896-.4a8.726 8.726 0 0 1 1.024-.224c.341-.053.677-.096 1.008-.128.331-.032.624-.08.88-.144.256-.064.459-.155.608-.272.149-.128.219-.309.208-.544 0-.245-.043-.437-.128-.576a.755.755 0 0 0-.32-.336 1.045 1.045 0 0 0-.464-.16 3.044 3.044 0 0 0-.56-.048c-.448 0-.8.096-1.056.288-.256.192-.405.512-.448.96h-2.272Zm5.248 1.68a1.111 1.111 0 0 1-.368.208 6.342 6.342 0 0 1-.976.192 9.262 9.262 0 0 0-.544.08 4.56 4.56 0 0 0-.512.128c-.16.053-.304.128-.432.224a.986.986 0 0 0-.288.336 1.105 1.105 0 0 0-.112.528c0 .203.037.373.112.512a.92.92 0 0 0 .304.336c.128.075.277.128.448.16.171.032.347.048.528.048.448 0 .795-.075 1.04-.224.245-.149.427-.325.544-.528.117-.213.187-.427.208-.64.032-.213.048-.384.048-.512v-.848Zm6.756-4.224h1.664v1.52h-1.664v4.096c0 .384.064.64.192.768s.384.192.768.192a3.395 3.395 0 0 0 .704-.064v1.76a5.492 5.492 0 0 1-.64.064c-.235.011-.464.016-.688.016-.352 0-.688-.027-1.008-.08a2.31 2.31 0 0 1-.832-.272 1.495 1.495 0 0 1-.56-.592c-.139-.256-.208-.592-.208-1.008v-4.88h-1.376v-1.52h1.376v-2.48h2.272v2.48Zm4.921-1.28h-2.272v-1.872h2.272v1.872Zm-2.272 1.28h2.272v8.272h-2.272v-8.272Zm5.917 4.144c0 .331.032.656.096.976.064.309.17.592.32.848.16.245.368.443.624.592.256.149.576.224.96.224s.704-.075.96-.224c.266-.149.474-.347.624-.592a2.57 2.57 0 0 0 .336-.848 4.962 4.962 0 0 0 0-1.952 2.393 2.393 0 0 0-.336-.848 1.677 1.677 0 0 0-.624-.592c-.256-.16-.576-.24-.96-.24s-.704.08-.96.24a1.843 1.843 0 0 0-.624.592c-.15.245-.256.528-.32.848-.064.32-.096.645-.096.976Zm-2.272 0c0-.661.101-1.259.304-1.792.202-.544.49-1.003.864-1.376a3.726 3.726 0 0 1 1.344-.88c.522-.213 1.109-.32 1.76-.32.65 0 1.237.107 1.76.32.533.203.986.496 1.36.88.373.373.661.832.864 1.376.202.533.304 1.131.304 1.792s-.102 1.259-.304 1.792a3.983 3.983 0 0 1-.864 1.376 3.824 3.824 0 0 1-1.36.864c-.523.203-1.11.304-1.76.304-.651 0-1.238-.101-1.76-.304a3.838 3.838 0 0 1-1.344-.864 3.954 3.954 0 0 1-.864-1.376c-.203-.533-.304-1.131-.304-1.792Zm9.877-4.144h2.16v1.152h.048c.288-.48.661-.827 1.12-1.04a3.176 3.176 0 0 1 1.408-.336c.608 0 1.104.085 1.488.256.395.16.704.389.928.688.224.288.379.645.464 1.072.096.416.144.88.144 1.392v5.088h-2.272v-4.672c0-.683-.107-1.189-.32-1.52-.213-.341-.592-.512-1.136-.512-.619 0-1.067.187-1.344.56-.277.363-.416.965-.416 1.808v4.336h-2.272v-8.272Zm11.084 5.584c0 .245.048.459.144.64.107.171.24.315.4.432.16.107.342.187.544.24a2.715 2.715 0 0 0 1.152.032c.182-.043.342-.101.48-.176a1.18 1.18 0 0 0 .368-.32.878.878 0 0 0 .144-.512c0-.341-.229-.597-.688-.768-.448-.171-1.077-.341-1.888-.512-.33-.075-.656-.16-.976-.256a3.796 3.796 0 0 1-.832-.4 2.08 2.08 0 0 1-.592-.624c-.149-.256-.224-.565-.224-.928 0-.533.102-.971.304-1.312.214-.341.491-.608.832-.8a3.384 3.384 0 0 1 1.152-.416 6.702 6.702 0 0 1 2.608 0c.427.085.806.229 1.136.432.331.203.603.475.816.816.224.331.358.752.4 1.264h-2.16c-.032-.437-.197-.731-.496-.88-.298-.16-.65-.24-1.056-.24-.128 0-.266.011-.416.032a1.34 1.34 0 0 0-.416.096.823.823 0 0 0-.304.24c-.085.096-.128.229-.128.4 0 .203.075.368.224.496.15.128.342.235.576.32.246.075.523.144.832.208.31.064.624.133.944.208.331.075.651.165.96.272.32.107.603.251.848.432.246.171.443.389.592.656.15.256.224.576.224.96 0 .544-.112 1.003-.336 1.376a2.57 2.57 0 0 1-.848.88 3.39 3.39 0 0 1-1.216.464 6.857 6.857 0 0 1-2.784 0 3.817 3.817 0 0 1-1.232-.48 2.886 2.886 0 0 1-.88-.88c-.224-.373-.346-.837-.368-1.392h2.16Z" fill="#131313"/><path fill="#FF1941" d="M0 336h365v64H0z"/><path d="M115.216 376.5h-3.408v-10.896h-4.224v-2.568a8.47 8.47 0 0 0 1.704-.12 4.705 4.705 0 0 0 1.488-.552 3.738 3.738 0 0 0 1.128-1.056c.304-.432.504-.968.6-1.608h2.712v16.8Zm10.552-8.712c-.448 0-.848.088-1.2.264-.336.16-.616.384-.84.672a2.984 2.984 0 0 0-.504 1.008 4.097 4.097 0 0 0 0 2.328c.128.368.304.704.528 1.008.24.288.528.52.864.696.336.176.72.264 1.152.264.416 0 .776-.088 1.08-.264.32-.176.592-.408.816-.696.224-.288.392-.616.504-.984a3.935 3.935 0 0 0 0-2.28 2.905 2.905 0 0 0-.456-1.008 2.219 2.219 0 0 0-.816-.72c-.32-.192-.696-.288-1.128-.288Zm2.448-3.768a2.89 2.89 0 0 0-.768-1.464 1.981 1.981 0 0 0-1.488-.624c-.608 0-1.12.184-1.536.552-.4.352-.72.792-.96 1.32a6.911 6.911 0 0 0-.528 1.656c-.112.592-.176 1.12-.192 1.584l.048.048c.464-.672 1.008-1.152 1.632-1.44.624-.288 1.344-.432 2.16-.432.72 0 1.424.16 2.112.48.688.304 1.272.72 1.752 1.248.448.512.776 1.096.984 1.752.208.656.312 1.32.312 1.992a6.72 6.72 0 0 1-.432 2.424 5.665 5.665 0 0 1-1.2 1.944 5.664 5.664 0 0 1-1.848 1.296c-.72.304-1.52.456-2.4.456-1.264 0-2.312-.248-3.144-.744a5.93 5.93 0 0 1-1.992-1.992 8.157 8.157 0 0 1-1.032-2.76 17.413 17.413 0 0 1-.288-3.168c0-1.04.12-2.08.36-3.12a8.951 8.951 0 0 1 1.152-2.808 6.446 6.446 0 0 1 2.04-2.064c.832-.528 1.848-.792 3.048-.792.72 0 1.392.104 2.016.312a5.057 5.057 0 0 1 1.656.912c.48.384.872.864 1.176 1.44.304.576.504 1.24.6 1.992h-3.24Zm20.416 8.112c0 .256.008.552.024.888.016.336.072.656.168.96.096.288.248.536.456.744.208.208.504.312.888.312.368 0 .656-.104.864-.312a1.76 1.76 0 0 0 .48-.744c.112-.304.176-.616.192-.936a9.5 9.5 0 0 0 .048-.888c0-.24-.016-.52-.048-.84a3.47 3.47 0 0 0-.168-.936 1.856 1.856 0 0 0-.456-.768c-.192-.224-.464-.336-.816-.336-.384 0-.688.096-.912.288a1.899 1.899 0 0 0-.48.72 3.48 3.48 0 0 0-.216.936c-.016.336-.024.64-.024.912Zm-2.448-.024c0-.656.08-1.264.24-1.824.16-.56.408-1.048.744-1.464.336-.416.76-.744 1.272-.984s1.12-.36 1.824-.36c.752 0 1.376.128 1.872.384.496.24.896.576 1.2 1.008.32.416.544.912.672 1.488s.192 1.192.192 1.848c0 .656-.08 1.264-.24 1.824a4.086 4.086 0 0 1-.744 1.464c-.32.416-.736.744-1.248.984-.512.224-1.12.336-1.824.336-.736 0-1.36-.12-1.872-.36a3.368 3.368 0 0 1-1.224-.984 4.493 4.493 0 0 1-.672-1.512 8.506 8.506 0 0 1-.192-1.848Zm1.848-12.936h2.04l-9.888 17.832h-2.088l9.936-17.832Zm-11.784 4.992c0 .256.008.544.024.864.016.32.072.624.168.912.096.272.248.504.456.696.208.192.504.288.888.288.368 0 .656-.096.864-.288.224-.192.384-.424.48-.696.112-.288.176-.584.192-.888.032-.32.048-.608.048-.864 0-.24-.016-.528-.048-.864a4.15 4.15 0 0 0-.168-1.008 2.04 2.04 0 0 0-.456-.816c-.192-.224-.464-.336-.816-.336-.384 0-.688.104-.912.312a2.09 2.09 0 0 0-.48.768 3.84 3.84 0 0 0-.216.984c-.016.352-.024.664-.024.936Zm-2.448-.048c0-.656.08-1.272.24-1.848.16-.576.408-1.08.744-1.512.336-.432.76-.768 1.272-1.008.512-.256 1.12-.384 1.824-.384.752 0 1.376.128 1.872.384.496.256.896.608 1.2 1.056.32.432.544.944.672 1.536a8.84 8.84 0 0 1 .192 1.872c0 .656-.08 1.264-.24 1.824a3.868 3.868 0 0 1-.744 1.416c-.32.4-.736.712-1.248.936-.512.224-1.12.336-1.824.336-.736 0-1.36-.112-1.872-.336a3.482 3.482 0 0 1-1.224-.96 4.244 4.244 0 0 1-.672-1.464 8.506 8.506 0 0 1-.192-1.848Zm36.353 5.712-6.288-10.464h4.224l4.008 6.768 3.984-6.768h4.2l-6.36 10.56v6.576h-3.768v-6.672Zm11.32.48c0 .496.048.984.144 1.464.096.464.256.888.48 1.272.24.368.552.664.936.888.384.224.864.336 1.44.336s1.056-.112 1.44-.336c.4-.224.712-.52.936-.888a3.85 3.85 0 0 0 .504-1.272c.096-.48.144-.968.144-1.464s-.048-.984-.144-1.464a3.593 3.593 0 0 0-.504-1.272 2.501 2.501 0 0 0-.936-.888c-.384-.24-.864-.36-1.44-.36s-1.056.12-1.44.36c-.384.224-.696.52-.936.888a3.893 3.893 0 0 0-.48 1.272c-.096.48-.144.968-.144 1.464Zm-3.408 0c0-.992.152-1.888.456-2.688.304-.816.736-1.504 1.296-2.064a5.59 5.59 0 0 1 2.016-1.32c.784-.32 1.664-.48 2.64-.48.976 0 1.856.16 2.64.48.8.304 1.48.744 2.04 1.32.56.56.992 1.248 1.296 2.064.304.8.456 1.696.456 2.688 0 .992-.152 1.888-.456 2.688a5.955 5.955 0 0 1-1.296 2.064 5.71 5.71 0 0 1-2.04 1.296c-.784.304-1.664.456-2.64.456-.976 0-1.856-.152-2.64-.456a5.752 5.752 0 0 1-2.016-1.296 5.955 5.955 0 0 1-1.296-2.064c-.304-.8-.456-1.696-.456-2.688Zm26.456 6.192h-3.24v-1.728h-.072c-.432.72-.992 1.24-1.68 1.56-.688.32-1.392.48-2.112.48-.912 0-1.664-.12-2.256-.36-.576-.24-1.032-.576-1.368-1.008-.336-.448-.576-.984-.72-1.608a10.788 10.788 0 0 1-.192-2.112v-7.632h3.408v7.008c0 1.024.16 1.792.48 2.304.32.496.888.744 1.704.744.928 0 1.6-.272 2.016-.816.416-.56.624-1.472.624-2.736v-6.504h3.408V376.5Zm6.499-13.968h-5.136v-3.168h14.04v3.168h-5.136V376.5h-3.768v-13.968Zm19.716 13.968h-3.24v-1.728h-.072c-.432.72-.992 1.24-1.68 1.56-.688.32-1.392.48-2.112.48-.912 0-1.664-.12-2.256-.36-.576-.24-1.032-.576-1.368-1.008-.336-.448-.576-.984-.72-1.608a10.788 10.788 0 0 1-.192-2.112v-7.632h3.408v7.008c0 1.024.16 1.792.48 2.304.32.496.888.744 1.704.744.928 0 1.6-.272 2.016-.816.416-.56.624-1.472.624-2.736v-6.504h3.408V376.5Zm11.443-6.192c0-.528-.056-1.032-.168-1.512a3.95 3.95 0 0 0-.528-1.272 2.615 2.615 0 0 0-.912-.864c-.352-.224-.784-.336-1.296-.336-.496 0-.928.112-1.296.336a2.615 2.615 0 0 0-.912.864 3.95 3.95 0 0 0-.528 1.272c-.112.48-.168.984-.168 1.512 0 .512.056 1.008.168 1.488.112.48.288.904.528 1.272.24.368.544.664.912.888.368.208.8.312 1.296.312.512 0 .944-.104 1.296-.312.368-.224.672-.52.912-.888a3.95 3.95 0 0 0 .528-1.272c.112-.48.168-.976.168-1.488Zm-9.096-10.944h3.408v6.24h.048a3.574 3.574 0 0 1 1.68-1.392 5.684 5.684 0 0 1 2.232-.456c.624 0 1.24.128 1.848.384a4.618 4.618 0 0 1 1.632 1.176c.496.528.896 1.208 1.2 2.04.304.816.456 1.792.456 2.928s-.152 2.12-.456 2.952c-.304.816-.704 1.488-1.2 2.016-.48.528-1.024.92-1.632 1.176a4.724 4.724 0 0 1-1.848.384c-.912 0-1.728-.144-2.448-.432a3.107 3.107 0 0 1-1.632-1.464h-.048v1.584h-3.24v-17.136Zm22.784 9.6c-.16-.864-.448-1.52-.864-1.968-.4-.448-1.016-.672-1.848-.672-.544 0-1 .096-1.368.288-.352.176-.64.4-.864.672-.208.272-.36.56-.456.864a4.4 4.4 0 0 0-.144.816h5.544Zm-5.544 2.16c.048 1.104.328 1.904.84 2.4s1.248.744 2.208.744c.688 0 1.28-.168 1.776-.504.496-.352.8-.72.912-1.104h3c-.48 1.488-1.216 2.552-2.208 3.192-.992.64-2.192.96-3.6.96-.976 0-1.856-.152-2.64-.456a5.62 5.62 0 0 1-1.992-1.344 6.146 6.146 0 0 1-1.272-2.064c-.288-.8-.432-1.68-.432-2.64 0-.928.152-1.792.456-2.592.304-.8.736-1.488 1.296-2.064a6.045 6.045 0 0 1 1.992-1.392c.784-.336 1.648-.504 2.592-.504 1.056 0 1.976.208 2.76.624a5.29 5.29 0 0 1 1.92 1.632c.512.688.88 1.472 1.104 2.352.224.88.304 1.8.24 2.76h-8.952Zm-92.169 46.693c0 .115.005.248.014.398.009.151.042.295.098.431.056.13.145.241.266.334.121.094.294.14.518.14.215 0 .383-.046.504-.14a.794.794 0 0 0 .28-.334c.065-.136.103-.276.112-.42.019-.151.028-.283.028-.398a2.9 2.9 0 0 0-.028-.377 1.23 1.23 0 0 0-.098-.42.822.822 0 0 0-.266-.345c-.112-.101-.271-.151-.476-.151-.224 0-.401.043-.532.129a.877.877 0 0 0-.28.323c-.065.13-.107.27-.126.421-.009.15-.014.287-.014.409Zm-1.428-.011c0-.294.047-.567.14-.819.093-.251.238-.47.434-.657a2.08 2.08 0 0 1 .742-.441 3.133 3.133 0 0 1 1.064-.162c.439 0 .803.058 1.092.172.289.108.523.259.7.453.187.187.317.409.392.668.075.258.112.535.112.829 0 .295-.047.567-.14.819-.093.251-.238.47-.434.657a1.943 1.943 0 0 1-.728.442c-.299.1-.653.15-1.064.15-.429 0-.793-.053-1.092-.161a1.964 1.964 0 0 1-.714-.442 1.838 1.838 0 0 1-.392-.678 2.968 2.968 0 0 1-.112-.83Zm1.078-5.806h1.19l-5.768 8.004h-1.218l5.796-8.004Zm-6.874 2.241c0 .114.005.244.014.387.009.144.042.28.098.41a.783.783 0 0 0 .266.312c.121.086.294.129.518.129.215 0 .383-.043.504-.129a.747.747 0 0 0 .28-.312c.065-.13.103-.262.112-.399.019-.143.028-.273.028-.388 0-.107-.009-.237-.028-.387a1.473 1.473 0 0 0-.098-.453.891.891 0 0 0-.266-.366c-.112-.101-.271-.151-.476-.151-.224 0-.401.047-.532.14a.938.938 0 0 0-.28.345 1.404 1.404 0 0 0-.126.441 7.524 7.524 0 0 0-.014.421Zm-1.428-.022c0-.294.047-.571.14-.829a1.8 1.8 0 0 1 .434-.679c.196-.194.443-.345.742-.452a2.959 2.959 0 0 1 1.064-.173c.439 0 .803.058 1.092.173.289.114.523.272.7.473.187.194.317.424.392.69.075.266.112.546.112.84 0 .295-.047.567-.14.819a1.643 1.643 0 0 1-.434.635c-.187.18-.429.32-.728.42a3.333 3.333 0 0 1-1.064.151c-.429 0-.793-.05-1.092-.151a2.043 2.043 0 0 1-.714-.43 1.75 1.75 0 0 1-.392-.658 2.96 2.96 0 0 1-.112-.829Zm-6.688 1.756c0 .215.01.477.028.786.019.302.075.596.168.883.103.28.262.521.476.722.215.201.523.302.924.302.411 0 .724-.101.938-.302a1.66 1.66 0 0 0 .476-.722c.103-.287.164-.581.182-.883.019-.309.028-.571.028-.786 0-.13-.004-.284-.014-.464 0-.186-.018-.377-.056-.57a2.976 2.976 0 0 0-.14-.571 1.444 1.444 0 0 0-.266-.517 1.37 1.37 0 0 0-.462-.367 1.525 1.525 0 0 0-.686-.14c-.27 0-.499.047-.686.14a1.43 1.43 0 0 0-.448.367c-.112.15-.2.323-.266.517a3.052 3.052 0 0 0-.14.571 6.349 6.349 0 0 0-.056.57v.464Zm-1.988 0c0-.733.094-1.347.28-1.842.196-.503.458-.905.784-1.207a2.877 2.877 0 0 1 1.134-.646 4.892 4.892 0 0 1 1.386-.194c.495 0 .957.065 1.386.194.439.129.822.345 1.148.646.336.302.598.704.784 1.207.196.495.294 1.109.294 1.842 0 .754-.098 1.386-.294 1.895-.186.503-.448.905-.784 1.207a2.844 2.844 0 0 1-1.148.646c-.429.13-.891.194-1.386.194-.485 0-.947-.064-1.386-.194a2.865 2.865 0 0 1-1.134-.646c-.326-.302-.588-.704-.784-1.207-.186-.509-.28-1.141-.28-1.895Zm76.559-3.889h1.988v2.898h.042c.252-.324.574-.557.966-.701a3.2 3.2 0 0 1 1.148-.226c.532 0 .966.058 1.302.173.345.107.616.262.812.463.196.194.331.434.406.721.084.281.126.593.126.938v3.425h-1.988v-3.145c0-.46-.094-.801-.28-1.024-.187-.229-.518-.344-.994-.344-.542 0-.934.125-1.176.377-.243.244-.364.65-.364 1.217v2.919h-1.988v-7.691Zm-3.253 4.084c-.13-.639-.62-.959-1.47-.959-.317 0-.583.058-.798.173a1.54 1.54 0 0 0-.532.43c-.13.173-.224.367-.28.582a2.357 2.357 0 0 0 0 1.239c.056.208.145.398.266.571.131.165.304.301.518.409.215.108.476.162.784.162.476 0 .84-.101 1.092-.302a1.34 1.34 0 0 0 .49-.829h1.918c-.13.739-.504 1.303-1.12 1.691-.616.388-1.404.582-2.366.582-.541 0-1.04-.069-1.498-.205a3.6 3.6 0 0 1-1.148-.593 2.725 2.725 0 0 1-.742-.894 2.528 2.528 0 0 1-.266-1.152c0-.431.08-.83.238-1.196a2.67 2.67 0 0 1 .728-.959 3.393 3.393 0 0 1 1.162-.635c.458-.151.98-.226 1.568-.226.43 0 .84.043 1.232.129.402.086.756.219 1.064.398.318.173.574.392.77.658.196.258.308.567.336.926h-1.946Zm-11.861.829c0 .223.028.442.084.657.056.209.15.399.28.571.14.166.322.298.546.399.224.1.504.151.84.151.336 0 .616-.051.84-.151.234-.101.416-.233.546-.399.14-.172.238-.362.294-.571a2.596 2.596 0 0 0 0-1.314 1.434 1.434 0 0 0-.294-.571 1.355 1.355 0 0 0-.546-.398c-.224-.108-.504-.162-.84-.162-.336 0-.616.054-.84.162a1.51 1.51 0 0 0-.546.398c-.13.166-.224.356-.28.571a2.608 2.608 0 0 0-.084.657Zm-1.988 0c0-.445.089-.847.266-1.206a2.59 2.59 0 0 1 .756-.927 3.478 3.478 0 0 1 1.176-.592 5.122 5.122 0 0 1 1.54-.215c.57 0 1.083.071 1.54.215a3.45 3.45 0 0 1 1.19.592c.327.252.579.561.756.927.178.359.266.761.266 1.206 0 .446-.088.848-.266 1.207a2.679 2.679 0 0 1-.756.926 3.564 3.564 0 0 1-1.19.582 5.39 5.39 0 0 1-1.54.205 5.4 5.4 0 0 1-1.54-.205 3.596 3.596 0 0 1-1.176-.582 2.702 2.702 0 0 1-.756-.926 2.692 2.692 0 0 1-.266-1.207Zm-3.337-.023c0-.229-.028-.448-.084-.657a1.34 1.34 0 0 0-.294-.56 1.403 1.403 0 0 0-.518-.398c-.215-.101-.485-.151-.812-.151-.327 0-.602.05-.826.151a1.51 1.51 0 0 0-.546.398 1.7 1.7 0 0 0-.294.571 2.517 2.517 0 0 0-.084.657c0 .216.033.431.098.646.065.216.168.41.308.582.149.165.331.302.546.41.224.1.49.15.798.15.327 0 .597-.05.812-.15.224-.101.401-.234.532-.399a1.62 1.62 0 0 0 .28-.582c.056-.215.084-.438.084-.668Zm.028 2.09h-.028a1.97 1.97 0 0 1-.924.657c-.373.13-.798.194-1.274.194-.541 0-1.017-.079-1.428-.237a2.982 2.982 0 0 1-1.022-.657c-.261-.28-.462-.6-.602-.959a3.24 3.24 0 0 1-.196-1.12c0-.373.065-.732.196-1.077a2.76 2.76 0 0 1 .602-.926 2.973 2.973 0 0 1 1.008-.636c.401-.165.868-.248 1.4-.248.429 0 .835.072 1.218.216.392.136.7.341.924.614h.028v-2.801h1.988v7.691h-1.89v-.711Zm-10.501-4.857h1.89v1.035h.028c.093-.173.219-.331.378-.474.158-.151.34-.277.546-.377a3.005 3.005 0 0 1 1.386-.334c.13 0 .275.018.434.053v1.422a3.637 3.637 0 0 0-.336-.032 3.568 3.568 0 0 0-.378-.022c-.364 0-.672.047-.924.141a1.608 1.608 0 0 0-.616.387c-.15.158-.257.345-.322.56a2.385 2.385 0 0 0-.098.701v2.51h-1.988v-5.57Zm-1.65 5.567h-1.89v-.775h-.042a2.12 2.12 0 0 1-.98.7 3.644 3.644 0 0 1-1.232.215c-.532 0-.97-.054-1.316-.161-.336-.108-.602-.259-.798-.453a1.723 1.723 0 0 1-.42-.722 3.79 3.79 0 0 1-.112-.947v-3.426h1.988v3.145c0 .46.094.805.28 1.035.187.222.518.333.994.333.542 0 .934-.122 1.176-.366.243-.251.364-.66.364-1.228v-2.919h1.988v5.569Zm-19.421-7.69h3.094l2.338 5.289h.028l2.212-5.289h3.094v7.691h-2.058v-5.45h-.028l-2.45 5.45h-1.694l-2.45-5.397h-.028v5.397h-2.058v-7.691Z" fill="#131313"/></svg>