<svg xmlns="http://www.w3.org/2000/svg" width="410" height="555" fill="none" viewBox="0 0 410 555"><path fill="#E6F0DF" stroke="#071C00" stroke-width=".826" d="M367.427 73.213c5.718 9.904 4.205 23.458-2.609 39.012-6.807 15.536-18.859 32.963-34.034 50.524-30.346 35.119-73.111 70.695-111.126 92.643-38.021 21.951-63.998 26.061-83.336 19.761-19.346-6.303-32.18-23.065-43.814-43.216s-19.733-39.646-15.519-59.552c4.213-19.897 20.761-40.339 58.782-62.29 38.015-21.948 90.207-41.195 135.794-49.917 22.795-4.36 43.914-6.085 60.772-4.212 16.878 1.876 29.371 7.343 35.09 17.247Z"/><rect width="285.888" height="207.072" x="350.709" y="415.323" fill="#E63D00" stroke="#071C00" stroke-width=".826" rx="103.536" transform="rotate(151.375 350.709 415.323)"/></svg>