<svg width="350" height="508" fill="none" xmlns="http://www.w3.org/2000/svg"><g clip-path="url(#clip0_3577_968)"><path d="M332.427 22.213c10.934 18.938 14.355 37.58 5.684 60.585-8.688 23.047-29.523 50.498-67.211 86.98-9.285 8.989-19.677 16.899-31.381 22.313-36.583 16.921-76.761 23.41-110.471 21.013-16.855-1.199-32.08-4.618-44.424-10.054-12.346-5.437-21.786-12.88-27.116-22.113-11.634-20.151-19.734-39.646-15.519-59.552 4.213-19.897 20.761-40.339 58.782-62.29C138.786 37.147 190.978 17.9 236.565 9.178c22.795-4.36 43.914-6.085 60.772-4.212 16.878 1.876 29.371 7.343 35.09 17.247z" fill="#E6F0DF" stroke="#071C00" stroke-width=".826"/><mask id="mask0_3577_968" style="mask-type:alpha" maskUnits="userSpaceOnUse" x="40" y="3" width="304" height="211"><path d="M332.427 22.213c10.934 18.938 14.355 37.58 5.684 60.585-8.688 23.047-29.523 50.498-67.211 86.98-9.285 8.989-19.677 16.899-31.381 22.313-36.583 16.921-76.761 23.41-110.471 21.013-16.855-1.199-32.08-4.618-44.424-10.054-12.346-5.437-21.786-12.88-27.116-22.113-11.634-20.151-19.734-39.646-15.519-59.552 4.213-19.897 20.761-40.339 58.782-62.29C138.786 37.147 190.978 17.9 236.565 9.178c22.795-4.36 43.914-6.085 60.772-4.212 16.878 1.876 29.371 7.343 35.09 17.247z" fill="#E6F0DF" stroke="#071C00" stroke-width=".826"/></mask><g mask="url(#mask0_3577_968)"><path d="M103.28 167.111l-6.655-81.848 20.371-1.657c7.033-.572 12.998-.02 17.894 1.658 5.008 1.545 9.12 4.08 12.336 7.602 3.216 3.522 5.647 7.902 7.293 13.138 1.758 5.106 2.903 10.933 3.436 17.48.581 7.155.165 13.291-1.25 18.411-1.414 5.119-3.509 9.378-6.284 12.778-2.785 3.278-6.063 5.741-9.835 7.39a36.774 36.774 0 01-11.842 2.977l-25.464 2.071zM66.117 63.576l10.56 129.866 56.02-4.556c9.943-.808 18.419-3.145 25.428-7.011 7.121-3.996 12.87-9.102 17.247-15.317 4.498-6.224 7.634-13.436 9.409-21.637 1.774-8.2 2.277-17.029 1.508-26.487-.878-10.792-3.158-20.066-6.84-27.822-3.561-7.767-8.226-14.1-13.995-19.002-5.648-4.911-12.218-8.405-19.71-10.481-7.371-2.086-15.24-2.789-23.607-2.108l-56.02 4.555zm154.473 70.927a56.578 56.578 0 01.189-11.184c.432-3.697 1.383-7.008 2.854-9.935 1.592-2.937 3.774-5.373 6.546-7.307 2.762-2.055 6.326-3.261 10.691-3.616 4.366-.355 8.077.259 11.135 1.841 3.17 1.451 5.717 3.502 7.641 6.153 2.046 2.641 3.58 5.751 4.603 9.33a56.587 56.587 0 011.994 11.006 56.654 56.654 0 01-.189 11.184c-.442 3.575-1.454 6.892-3.036 9.95-1.471 2.927-3.653 5.362-6.546 7.307-2.772 1.934-6.341 3.078-10.706 3.433-4.366.355-8.072-.198-11.121-1.659-3.048-1.461-5.595-3.512-7.64-6.153-1.934-2.772-3.408-5.886-4.422-9.344a56.586 56.586 0 01-1.993-11.006zm-25.828 2.1c.611 7.518 2.315 14.215 5.112 20.09 2.797 5.876 6.495 10.824 11.094 14.844 4.589 3.899 9.948 6.758 16.077 8.579 6.129 1.821 12.892 2.431 20.288 1.829 7.397-.601 13.972-2.295 19.727-5.083 5.875-2.796 10.762-6.489 14.661-11.078 3.889-4.711 6.739-10.191 8.55-16.441 1.811-6.25 2.411-13.134 1.8-20.652-.612-7.518-2.316-14.215-5.113-20.09-2.806-5.997-6.504-10.945-11.093-14.844-4.599-4.02-10.024-6.936-16.274-8.747-6.139-1.942-12.907-2.612-20.303-2.01-7.397.601-13.967 2.356-19.712 5.264C213.822 91.051 209 94.8 205.111 99.51c-3.899 4.589-6.749 10.07-8.55 16.441-1.81 6.25-2.41 13.134-1.799 20.652zM323.13 64.098l-1.731-21.28-25.827 2.1 1.73 21.28 25.828-2.1zM298.485 80.75l7.647 94.035 25.827-2.1-7.646-94.035-25.828 2.1zm38.89-3.162l7.646 94.035 25.828-2.1-4.008-49.291c-.779-9.58.24-16.559 3.057-20.938 2.808-4.5 7.728-7.036 14.761-7.608 6.184-.503 10.646 1.087 13.387 4.77 2.731 3.562 4.412 9.223 5.043 16.983l4.318 53.111 25.828-2.1-4.703-57.84c-.473-5.82-1.448-11.05-2.924-15.69-1.364-4.772-3.453-8.691-6.265-11.758-2.823-3.188-6.551-5.51-11.186-6.963-4.523-1.585-10.24-2.097-17.151-1.535-5.457.444-10.689 2.15-15.696 5.121-5.017 2.85-8.94 7.135-11.77 12.858l-.546.044-1.065-13.095-24.554 1.996zm150.217 60.105c-4.001.325-7.405-.252-10.211-1.733a21.182 21.182 0 01-7.08-6.015c-1.793-2.54-3.187-5.417-4.18-8.632a57.957 57.957 0 01-1.738-10.111c-.286-3.517-.193-6.881.278-10.093.582-3.343 1.624-6.296 3.124-8.859 1.612-2.694 3.632-4.872 6.06-6.534 2.549-1.672 5.643-2.656 9.281-2.952 4.244-.345 7.824.157 10.741 1.506 2.917 1.35 5.333 3.29 7.248 5.82 1.914 2.529 3.378 5.522 4.392 8.98 1.003 3.336 1.663 6.944 1.978 10.824a33.341 33.341 0 01-.656 9.94c-.603 3.101-1.714 5.937-3.336 8.51-1.622 2.573-3.768 4.701-6.439 6.383-2.67 1.682-5.824 2.67-9.462 2.966zm47.879 12.402l-7.158-88.033-24.555 1.997 1.021 12.55-.364.03c-3.596-5.2-7.853-8.76-12.769-10.68-4.795-1.929-10.285-2.642-16.469-2.14-6.548.533-12.265 2.28-17.15 5.24-4.765 2.95-8.667 6.747-11.707 11.388-3.05 4.52-5.253 9.704-6.609 15.55-1.244 5.716-1.619 11.606-1.126 17.669.522 6.426 1.748 12.491 3.676 18.193 2.04 5.57 4.874 10.405 8.503 14.504 3.619 3.978 8.079 7.033 13.378 9.166 5.29 2.011 11.452 2.73 18.485 2.158 5.699-.463 11.001-2.054 15.906-4.772 5.017-2.849 8.718-6.873 11.103-12.071l.363-.03 1.006 12.369c.664 6.659-.525 12.309-3.565 16.951-2.919 4.631-8.016 7.242-15.291 7.834-4.608.375-8.749-.265-12.423-1.919-3.665-1.533-6.3-4.675-7.907-9.427l-25.646 2.085c.797 5.306 2.622 9.735 5.474 13.287 2.983 3.663 6.514 6.549 10.591 8.659 4.199 2.1 8.707 3.503 13.525 4.21 4.949.818 9.727 1.04 14.335.665 10.792-.877 19.283-3.032 25.472-6.465 6.19-3.433 10.81-7.409 13.861-11.929 3.06-4.399 4.877-9.063 5.453-13.992.697-4.939.893-9.288.587-13.047z" fill="#071C00"/></g><path d="M283.2 394.386c2.881 4.991 3.931 9.295 3.474 13.095-.458 3.796-2.427 7.151-5.709 10.236-6.588 6.191-18.361 11.194-33.337 16.337-6.487 2.228-13.564 4.479-21.06 6.863-27.038 8.6-59.519 18.93-89.353 36.154-38.02 21.951-63.998 26.062-83.335 19.762-19.346-6.303-32.18-23.065-43.814-43.216-5.742-9.945-5.845-21.929-1.53-35.049 4.318-13.122 13.045-27.34 24.893-41.694 23.696-28.708 59.812-57.884 97.836-79.837 18.943-10.936 36.425-12.835 52.36-8.931 15.95 3.907 30.389 13.636 43.209 26.021 23.363 22.57 41.264 53.87 53.074 74.521 1.156 2.021 2.253 3.94 3.292 5.738z" fill="#E6F0DF" stroke="#071C00" stroke-width=".826"/><mask id="mask1_3577_968" style="mask-type:alpha" maskUnits="userSpaceOnUse" x="5" y="285" width="283" height="215"><path d="M283.201 394.386c2.881 4.991 3.931 9.295 3.473 13.095-.457 3.796-2.426 7.151-5.708 10.236-6.588 6.191-18.361 11.194-33.337 16.337-6.487 2.228-13.564 4.479-21.06 6.863-27.039 8.6-59.52 18.93-89.353 36.154-38.02 21.951-63.998 26.062-83.335 19.762-19.346-6.303-32.18-23.065-43.814-43.216-5.742-9.945-5.845-21.929-1.53-35.049 4.318-13.122 13.045-27.34 24.893-41.694 23.696-28.708 59.812-57.884 97.836-79.837 18.943-10.936 36.425-12.835 52.36-8.931 15.95 3.907 30.389 13.636 43.209 26.021 23.363 22.57 41.264 53.87 53.074 74.521 1.156 2.021 2.253 3.94 3.292 5.738z" fill="#E6F0DF" stroke="#071C00" stroke-width=".826"/></mask><g mask="url(#mask1_3577_968)"><path d="M-161.163 402.791l-6.656-81.849 20.372-1.656c7.032-.572 12.997-.02 17.894 1.657 5.008 1.546 9.12 4.08 12.336 7.602 3.215 3.523 5.646 7.902 7.293 13.139 1.758 5.105 2.903 10.932 3.435 17.48.582 7.154.166 13.291-1.249 18.41-1.415 5.12-3.51 9.379-6.285 12.778-2.785 3.278-6.063 5.742-9.835 7.391a36.768 36.768 0 01-11.841 2.977l-25.464 2.071zm-37.164-103.536l10.56 129.866 56.021-4.555c9.943-.808 18.419-3.145 25.428-7.011 7.12-3.996 12.87-9.102 17.246-15.317 4.499-6.224 7.635-13.437 9.41-21.637 1.774-8.2 2.276-17.029 1.507-26.487-.877-10.792-3.157-20.066-6.84-27.823-3.56-7.766-8.225-14.1-13.994-19.001-5.648-4.912-12.218-8.405-19.711-10.481-7.371-2.086-15.239-2.789-23.606-2.109l-56.021 4.555zm154.473 70.928a56.616 56.616 0 01.19-11.184c.431-3.697 1.383-7.009 2.853-9.936 1.592-2.937 3.775-5.372 6.547-7.306 2.762-2.056 6.326-3.261 10.69-3.616 4.366-.355 8.078.259 11.136 1.841 3.17 1.451 5.716 3.502 7.64 6.153 2.046 2.641 3.58 5.751 4.604 9.329A56.634 56.634 0 011.8 366.471a56.615 56.615 0 01-.19 11.183c-.441 3.576-1.453 6.893-3.035 9.951-1.471 2.927-3.653 5.362-6.547 7.306-2.772 1.935-6.34 3.079-10.706 3.434-4.365.355-8.072-.198-11.12-1.659s-5.595-3.512-7.64-6.153c-1.935-2.772-3.409-5.887-4.422-9.344a56.622 56.622 0 01-1.994-11.006zm-25.827 2.1c.611 7.518 2.315 14.214 5.112 20.09 2.797 5.875 6.495 10.823 11.094 14.843 4.589 3.899 9.948 6.759 16.077 8.58 6.129 1.821 12.891 2.43 20.288 1.829 7.397-.602 13.972-2.296 19.726-5.083 5.876-2.797 10.763-6.49 14.662-11.079 3.889-4.71 6.739-10.19 8.55-16.44 1.81-6.251 2.41-13.135 1.8-20.653-.612-7.518-2.316-14.214-5.113-20.09-2.807-5.997-6.505-10.944-11.094-14.843-4.599-4.02-10.023-6.936-16.273-8.747-6.14-1.942-12.907-2.612-20.304-2.011-7.396.602-13.967 2.357-19.711 5.265-5.754 2.787-10.576 6.536-14.465 11.246-3.899 4.589-6.749 10.069-8.55 16.441-1.81 6.25-2.41 13.134-1.8 20.652zm128.367-72.505l-1.73-21.28-25.828 2.1 1.73 21.28 25.828-2.1zm-24.644 16.651l7.646 94.035 25.828-2.1-7.646-94.035-25.828 2.1zm38.89-3.162l7.645 94.034 25.828-2.1-4.008-49.291c-.779-9.579.241-16.558 3.058-20.937 2.808-4.5 7.728-7.037 14.761-7.608 6.184-.503 10.646 1.087 13.387 4.77 2.731 3.562 4.411 9.223 5.042 16.983l4.319 53.111 25.828-2.101-4.703-57.839c-.474-5.82-1.448-11.051-2.924-15.691-1.364-4.771-3.453-8.69-6.266-11.757-2.822-3.188-6.551-5.51-11.185-6.964-4.523-1.585-10.24-2.096-17.152-1.534-5.456.443-10.688 2.15-15.695 5.121-5.017 2.849-8.941 7.135-11.77 12.858l-.546.044-1.065-13.096-24.555 1.997zm150.217 60.105c-4.002.325-7.405-.252-10.211-1.733a21.154 21.154 0 01-7.08-6.016c-1.794-2.539-3.187-5.416-4.181-8.631a58.044 58.044 0 01-1.737-10.112c-.286-3.516-.194-6.88.277-10.092.583-3.343 1.624-6.296 3.125-8.859 1.612-2.694 3.632-4.873 6.06-6.535 2.549-1.672 5.643-2.656 9.28-2.951 4.244-.346 7.825.157 10.742 1.506 2.917 1.35 5.333 3.289 7.247 5.819 1.915 2.53 3.379 5.523 4.392 8.98 1.004 3.336 1.663 6.944 1.979 10.825a33.31 33.31 0 01-.657 9.94c-.602 3.1-1.714 5.937-3.336 8.51-1.621 2.573-3.767 4.7-6.438 6.382-2.67 1.682-5.825 2.671-9.462 2.967zm47.879 12.401l-7.159-88.032-24.554 1.997 1.02 12.55-.363.029c-3.597-5.2-7.853-8.76-12.769-10.679-4.796-1.929-10.285-2.642-16.469-2.14-6.548.533-12.265 2.279-17.151 5.24-4.764 2.95-8.666 6.746-11.707 11.388-3.05 4.52-5.253 9.703-6.608 15.55-1.244 5.716-1.62 11.605-1.127 17.668.523 6.427 1.748 12.491 3.677 18.193 2.04 5.571 4.874 10.406 8.503 14.505 3.619 3.978 8.078 7.033 13.378 9.165 5.29 2.011 11.451 2.731 18.484 2.159 5.699-.463 11.002-2.054 15.907-4.772 5.017-2.849 8.718-6.873 11.102-12.071l.364-.03 1.006 12.368c.663 6.66-.525 12.31-3.565 16.951-2.919 4.632-8.016 7.243-15.292 7.835-4.608.374-8.749-.265-12.423-1.919-3.664-1.533-6.3-4.676-7.907-9.427l-25.645 2.085c.797 5.306 2.622 9.735 5.474 13.286 2.983 3.664 6.513 6.55 10.591 8.66 4.198 2.1 8.707 3.503 13.524 4.21 4.949.818 9.728 1.04 14.335.665 10.792-.878 19.283-3.033 25.473-6.466 6.19-3.432 10.81-7.409 13.86-11.929 3.06-4.398 4.878-9.062 5.454-13.992.697-4.939.892-9.288.587-13.047z" fill="#071C00"/></g><circle cx="129" cy="254" r="39.587" fill="#E6F0DF" stroke="#071C00" stroke-width=".826"/></g><defs><clipPath id="clip0_3577_968"><path fill="#fff" d="M0 0h350v508H0z"/></clipPath></defs></svg>