<svg width="386" height="459" fill="none" xmlns="http://www.w3.org/2000/svg"><g clip-path="url(#clip0_3577_977)"><path d="M215.584 294.462c-2.627-2.627-2.573-7.179-1.059-11.921 1.503-4.708 4.391-9.41 7.129-12.148 5.416-5.415 14.224-5.393 19.674.057 5.45 5.45 5.472 14.258.057 19.674-2.715 2.714-7.826 5.174-12.974 6.252-2.567.538-5.119.726-7.363.441-2.245-.285-4.148-1.039-5.464-2.355z" fill="#E6F0DF" stroke="#071C00" stroke-width=".826"/><path d="M310.744 417.879c-4.539 10.535-16.409 17.416-33.111 21.213-16.682 3.792-38.073 4.48-61.462 2.728-46.776-3.505-101.447-16.761-142.225-34.329-40.785-17.571-59.853-36.085-66.48-55.463-6.631-19.384-.862-39.763 8.373-61.2 9.235-21.436 20.083-39.628 38.725-48.124 18.636-8.494 45.189-7.354 85.973 10.217 40.779 17.568 87.966 48.194 122.644 79.782 17.339 15.794 31.532 31.812 40.236 46.541 8.713 14.746 11.866 28.099 7.327 38.635z" fill="#E6F0DF" stroke="#071C00" stroke-width=".826"/><mask id="mask0_3577_977" style="mask-type:alpha" maskUnits="userSpaceOnUse" x="4" y="237" width="310" height="207"><path d="M310.205 417.647c-4.424 10.269-16.052 17.088-32.702 20.873-16.603 3.774-37.928 4.465-61.288 2.715-46.714-3.5-101.321-16.741-142.037-34.283-40.73-17.547-59.61-35.971-66.158-55.113-6.553-19.16-.871-39.356 8.358-60.779 9.23-21.422 20.004-39.424 38.43-47.822 18.409-8.391 44.767-7.326 85.497 10.222 40.717 17.541 87.849 48.131 122.481 79.677 17.318 15.774 31.464 31.747 40.125 46.405 8.687 14.701 11.718 27.835 7.294 38.105z" fill="#FCFFFF" stroke="#000" stroke-width="2"/></mask><g mask="url(#mask0_3577_977)"><path d="M-16.246 361.358l-27.72-.96c-.4 8.02.819 15.001 3.656 20.943 2.838 5.941 6.744 10.885 11.72 14.831 5.098 3.95 10.96 6.892 17.589 8.826 6.745 2.059 13.705 3.213 20.878 3.462 8.876.307 16.693-.457 23.452-2.292 6.88-1.831 12.633-4.493 17.258-7.984 4.75-3.609 8.37-7.927 10.856-12.954 2.487-5.026 3.834-10.518 4.04-16.476.253-7.295-1.121-13.307-4.122-18.037-2.876-4.847-6.393-8.742-10.551-11.686-4.159-2.944-8.406-5.1-12.74-6.467-4.21-1.485-7.522-2.513-9.936-3.083a2801.988 2801.988 0 01-19.703-5.795c-4.938-1.51-8.843-2.985-11.715-4.423-2.75-1.435-4.584-2.959-5.502-4.573-.918-1.614-1.333-3.698-1.244-6.251.097-2.797.785-5.086 2.064-6.868a16.302 16.302 0 014.717-4.401 19.527 19.527 0 016.471-2.332 33.532 33.532 0 016.956-.49c3.526.122 6.737.538 9.634 1.247 3.019.713 5.658 1.839 7.918 3.378 2.26 1.539 4.013 3.609 5.262 6.208 1.37 2.604 2.11 5.856 2.219 9.755l27.72.96c.262-7.538-.976-13.972-3.713-19.301-2.61-5.447-6.29-9.956-11.035-13.529-4.745-3.573-10.254-6.198-16.526-7.876-6.146-1.796-12.623-2.811-19.432-3.047-5.836-.202-11.7.386-17.59 1.764-5.89 1.379-11.203 3.629-15.937 6.752-4.734 3.123-8.646 7.126-11.737 12.01-2.965 4.766-4.563 10.493-4.795 17.18-.206 5.958.711 11.102 2.753 15.434 2.167 4.213 5.025 7.782 8.576 10.704 3.55 2.923 7.604 5.377 12.161 7.36a137.593 137.593 0 0014.074 4.87 341.886 341.886 0 0013.917 4.134c4.582 1.254 8.672 2.674 12.269 4.26 3.597 1.585 6.451 3.51 8.564 5.774 2.235 2.269 3.29 5.166 3.168 8.692-.113 3.282-1.06 5.989-2.837 8.118-1.774 2.008-3.959 3.576-6.554 4.703-2.595 1.128-5.36 1.884-8.295 2.269-2.93.264-5.673.352-8.226.263-3.77-.13-7.402-.682-10.898-1.656-3.493-1.094-6.545-2.6-9.156-4.516-2.486-2.034-4.467-4.598-5.942-7.693-1.475-3.094-2.137-6.83-1.986-11.207zm152.846-8.765l-42.129-1.459c.185-1.82.621-3.874 1.31-6.163.809-2.285 2.04-4.434 3.692-6.446 1.774-2.008 4.021-3.634 6.742-4.879 2.847-1.362 6.338-1.972 10.472-1.828 6.322.219 10.944 2.083 13.866 5.593 3.043 3.513 5.059 8.574 6.047 15.182zm-42.697 14.954l68.026 2.357c.739-7.278.373-14.291-1.097-21.037-1.471-6.746-4.061-12.8-7.77-18.163-3.588-5.359-8.309-9.661-14.161-12.907-5.848-3.368-12.784-5.19-20.809-5.468-7.173-.249-13.783.8-19.83 3.147-5.924 2.351-11.091 5.703-15.503 10.054-4.407 4.229-7.87 9.344-10.391 15.343-2.521 5.999-3.903 12.525-4.148 19.577-.252 7.295.61 14.02 2.588 20.175 2.1 6.159 5.14 11.499 9.123 16.019 3.982 4.52 8.91 8.099 14.783 10.737 5.878 2.517 12.525 3.903 19.942 4.16 10.699.371 19.902-1.745 27.609-6.347 7.706-4.602 13.579-12.494 17.618-23.675l-22.797-.79c-.952 2.889-3.359 5.605-7.22 8.15-3.858 2.422-8.401 3.543-13.629 3.362-7.295-.253-12.823-2.331-16.583-6.235-3.76-3.904-5.677-10.057-5.751-18.459zm100.467-5.284l-35.64 48.431 28.998 1.005 20.726-29.045 18.667 30.409 29.545 1.024-33.096-51.36 32.532-43.062-28.633-.991-17.266 24.052-15.744-25.196-29.545-1.023 29.456 45.756z" fill="#071C00"/></g><rect x="-.29" y=".503" width="241.926" height="287.387" rx="111.161" transform="matrix(.26507 .96423 -.96754 .2527 337.133 -11.344)" fill="#E6F0DF" stroke="#071C00" stroke-width=".826"/><mask id="mask1_3577_977" style="mask-type:alpha" maskUnits="userSpaceOnUse" x="83" y="12" width="293" height="259"><rect x="-.702" y="1.217" width="240.753" height="286.214" rx="110.574" transform="matrix(.26507 .96423 -.96754 .2527 337.521 -10.413)" fill="#FCFFFF" stroke="#000" stroke-width="2"/></mask><g mask="url(#mask1_3577_977)"><path d="M10.657 11.516l-58.443 116.452 83.184 39.663 10.804-21.529-57.322-27.332 47.638-94.923-25.86-12.33zM123.82 146.323l-38.05-18.142c.928-1.579 2.186-3.27 3.771-5.074 1.696-1.752 3.722-3.212 6.077-4.38 2.465-1.115 5.205-1.695 8.222-1.739 3.18-.1 6.637.74 10.371 2.52 5.71 2.722 9.174 6.261 10.391 10.614 1.328 4.406 1.067 9.806-.782 16.201zm-45.417-3.463l61.441 29.295c3.713-6.315 6.302-12.828 7.766-19.542 1.463-6.713 1.612-13.245.444-19.596-1.058-6.299-3.595-12.09-7.611-17.374-3.963-5.393-9.567-9.817-16.815-13.273-6.479-3.089-12.982-4.775-19.509-5.057-6.417-.23-12.556.75-18.419 2.941-5.808 2.082-11.12 5.344-15.934 9.785-4.815 4.442-8.805 9.816-11.97 16.123-3.274 6.524-5.287 12.975-6.039 19.354-.642 6.432-.078 12.495 1.69 18.189 1.77 5.695 4.8 10.912 9.089 15.653 4.344 4.631 9.865 8.544 16.564 11.738 9.663 4.607 18.99 6.36 27.982 5.257 8.991-1.103 17.671-5.925 26.041-14.467l-20.59-9.817c-2.079 2.243-5.42 3.749-10.025 4.518-4.55.66-9.186-.136-13.908-2.387-6.589-3.142-10.794-7.235-12.617-12.282-1.822-5.046-1.016-11.399 2.42-19.058zm90.038 2.909l-34.543 68.827 23.391 11.153 34.542-68.827 16.142 7.697 7.776-15.495-16.142-7.697 2.537-5.056c1.746-3.479 3.633-5.611 5.66-6.397 2.192-.841 4.88-.503 8.064 1.016a79.212 79.212 0 018.32 4.573l8.677-17.288a2175.477 2175.477 0 00-5.931-3.233 66.128 66.128 0 00-6.096-3.31c-9.554-4.556-17.892-5.567-25.015-3.034-7.123 2.533-12.567 7.55-16.332 15.053l-3.274 6.524-14.002-6.676-7.776 15.494 14.002 6.676zm80.583 19.221l12.687-25.28-23.39-11.153-12.687 25.28-14.166-6.754-7.776 15.494 14.166 6.754-24.966 49.745c-2.128 4.241-3.133 8.006-3.015 11.297.118 3.29 1.03 6.218 2.737 8.783 1.816 2.618 4.207 4.903 7.174 6.857 3.021 2.114 6.344 4.035 9.968 5.763 2.306 1.1 4.694 2.171 7.164 3.214 2.471 1.044 4.776 1.873 6.917 2.49l9.003-17.941a36.612 36.612 0 01-3.704-1.16 46.206 46.206 0 01-3.871-1.644c-3.953-1.885-6.261-3.794-6.924-5.727-.663-1.933-.012-4.856 1.952-8.771l20.955-41.753 17.131 8.168 7.776-15.494-17.131-8.168z" fill="#071C00"/></g></g><defs><clipPath id="clip0_3577_977"><path fill="#fff" d="M0 0h386v459H0z"/></clipPath></defs></svg>