<svg width="412" height="597" fill="none" xmlns="http://www.w3.org/2000/svg"><path d="M360.427 73.213c10.934 18.938 14.355 37.581 5.684 60.585-8.688 23.047-29.523 50.498-67.211 86.98-9.285 8.989-19.677 16.899-31.381 22.313-36.583 16.921-76.761 23.41-110.471 21.013-16.855-1.199-32.08-4.618-44.424-10.054-12.346-5.437-21.786-12.88-27.116-22.113-11.634-20.151-19.734-39.646-15.519-59.552 4.213-19.897 20.761-40.339 58.782-62.29 38.015-21.948 90.207-41.195 135.794-49.917 22.795-4.36 43.914-6.085 60.772-4.212 16.878 1.876 29.371 7.343 35.09 17.247z" fill="#E6F0DF" stroke="#071C00" stroke-width=".826"/><mask id="mask0_3883_1101" style="mask-type:alpha" maskUnits="userSpaceOnUse" x="68" y="54" width="304" height="211"><path d="M360.427 73.213c10.934 18.938 14.355 37.581 5.684 60.585-8.688 23.047-29.523 50.498-67.211 86.98-9.285 8.989-19.677 16.899-31.381 22.313-36.583 16.921-76.761 23.41-110.471 21.013-16.855-1.199-32.08-4.618-44.424-10.054-12.346-5.437-21.786-12.88-27.116-22.113-11.634-20.151-19.734-39.646-15.519-59.552 4.213-19.897 20.761-40.339 58.782-62.29 38.015-21.948 90.207-41.195 135.794-49.917 22.795-4.36 43.914-6.085 60.772-4.212 16.878 1.876 29.371 7.343 35.09 17.247z" fill="#E6F0DF" stroke="#071C00" stroke-width=".826"/></mask><path d="M311.2 445.386c2.881 4.991 3.931 9.295 3.474 13.095-.458 3.796-2.427 7.151-5.709 10.236-6.588 6.191-18.361 11.194-33.337 16.337-6.487 2.228-13.564 4.479-21.06 6.863-27.038 8.6-59.519 18.93-89.353 36.154-38.02 21.951-63.998 26.062-83.335 19.762-19.346-6.303-32.18-23.065-43.814-43.216-5.742-9.945-5.845-21.929-1.53-35.049 4.318-13.122 13.045-27.34 24.893-41.694 23.696-28.708 59.812-57.884 97.836-79.837 18.943-10.936 36.425-12.835 52.36-8.931 15.95 3.907 30.389 13.636 43.209 26.021 23.363 22.57 41.264 53.87 53.074 74.521 1.156 2.021 2.253 3.94 3.292 5.738z" fill="#E6F0DF" stroke="#071C00" stroke-width=".826"/><mask id="mask1_3883_1101" style="mask-type:alpha" maskUnits="userSpaceOnUse" x="33" y="336" width="283" height="215"><path d="M311.201 445.386c2.881 4.991 3.931 9.295 3.473 13.095-.457 3.796-2.426 7.151-5.708 10.236-6.588 6.191-18.361 11.194-33.337 16.337-6.487 2.228-13.564 4.479-21.06 6.863-27.039 8.6-59.52 18.93-89.353 36.154-38.02 21.951-63.998 26.062-83.335 19.762-19.346-6.303-32.18-23.065-43.814-43.216-5.742-9.945-5.845-21.929-1.53-35.049 4.318-13.122 13.045-27.34 24.893-41.694 23.696-28.708 59.812-57.884 97.836-79.837 18.943-10.936 36.425-12.835 52.36-8.931 15.95 3.907 30.389 13.636 43.209 26.021 23.363 22.57 41.264 53.87 53.074 74.521 1.156 2.021 2.253 3.94 3.292 5.738z" fill="#E6F0DF" stroke="#071C00" stroke-width=".826"/></mask><circle cx="157" cy="305" r="39.587" fill="#E63D00" stroke="#071C00" stroke-width=".826"/></svg>