<svg xmlns="http://www.w3.org/2000/svg" width="420" height="508" fill="none" viewBox="0 0 420 508"><path fill="#E63D00" stroke="#071C00" stroke-width=".826" d="M233.584 306.462c-2.627-2.627-2.573-7.179-1.059-11.921 1.503-4.708 4.391-9.41 7.129-12.148 5.416-5.415 14.224-5.393 19.674.057s5.472 14.258.057 19.674c-2.715 2.714-7.826 5.174-12.974 6.252-2.567.538-5.119.726-7.363.441s-4.148-1.039-5.464-2.355Z"/><path fill="#E6F0DF" stroke="#071C00" stroke-width=".826" d="M328.744 429.879c-4.539 10.535-16.409 17.416-33.111 21.213-16.682 3.792-38.073 4.48-61.462 2.728-46.776-3.505-101.447-16.761-142.225-34.329-40.785-17.571-59.853-36.085-66.48-55.463-6.632-19.384-.862-39.763 8.373-61.2 9.235-21.436 20.083-39.628 38.725-48.124 18.636-8.494 45.189-7.354 85.973 10.217 40.779 17.568 87.966 48.194 122.644 79.782 17.339 15.794 31.532 31.812 40.236 46.541 8.713 14.746 11.866 28.099 7.327 38.635Z"/><rect width="241.926" height="287.387" x="-.29" y=".503" fill="#E6F0DF" stroke="#071C00" stroke-width=".826" rx="111.161" transform="matrix(.26507 .96423 -.96754 .2527 355.133 .656)"/></svg>