<svg width="420" height="508" viewBox="0 0 420 508" fill="none" xmlns="http://www.w3.org/2000/svg"><path d="M233.584 306.462c-2.627-2.627-2.573-7.179-1.059-11.921 1.503-4.708 4.391-9.41 7.129-12.148 5.416-5.415 14.224-5.393 19.674.057 5.45 5.45 5.472 14.258.057 19.674-2.715 2.714-7.826 5.174-12.974 6.252-2.567.538-5.119.726-7.363.441-2.245-.285-4.148-1.039-5.464-2.355Z" fill="#E63D00" stroke="#071C00" stroke-width=".826"/><path d="M328.744 429.879c-4.539 10.535-16.409 17.416-33.111 21.213-16.682 3.792-38.073 4.48-61.462 2.728-46.776-3.505-101.447-16.761-142.225-34.329-40.785-17.571-59.853-36.085-66.48-55.463-6.632-19.384-.862-39.763 8.373-61.2 9.235-21.436 20.083-39.628 38.725-48.124 18.636-8.494 45.189-7.354 85.973 10.217 40.779 17.568 87.966 48.194 122.644 79.782 17.339 15.794 31.532 31.812 40.236 46.541 8.713 14.746 11.866 28.099 7.327 38.635Z" fill="#E6F0DF" stroke="#071C00" stroke-width=".826"/><mask id="mask0_3883_1103" style="mask-type:alpha" maskUnits="userSpaceOnUse" x="22" y="249" width="310" height="207"><path d="M328.205 429.647c-4.424 10.269-16.052 17.088-32.702 20.873-16.603 3.774-37.928 4.465-61.288 2.715-46.714-3.5-101.321-16.741-142.037-34.283-40.73-17.547-59.61-35.971-66.158-55.113-6.553-19.16-.871-39.356 8.358-60.779 9.23-21.422 20.004-39.424 38.43-47.822 18.409-8.391 44.767-7.326 85.497 10.222 40.717 17.541 87.849 48.131 122.481 79.677 17.318 15.774 31.464 31.747 40.125 46.405 8.687 14.701 11.718 27.835 7.294 38.105Z" fill="#FCFFFF" stroke="#000" stroke-width="2"/></mask><rect x="-.29" y=".503" width="241.926" height="287.387" rx="111.161" transform="matrix(.26507 .96423 -.96754 .2527 355.133 .656)" fill="#E6F0DF" stroke="#071C00" stroke-width=".826"/><mask id="mask1_3883_1103" style="mask-type:alpha" maskUnits="userSpaceOnUse" x="101" y="24" width="293" height="259"><rect x="-.702" y="1.217" width="240.753" height="286.214" rx="110.574" transform="matrix(.26507 .96423 -.96754 .2527 355.521 1.587)" fill="#FCFFFF" stroke="#000" stroke-width="2"/></mask></svg>