<svg width="410" height="555" viewBox="0 0 410 555" fill="none" xmlns="http://www.w3.org/2000/svg"><path d="M367.427 73.213c5.718 9.904 4.205 23.458-2.609 39.012-6.807 15.536-18.859 32.963-34.034 50.524-30.346 35.119-73.111 70.695-111.126 92.643-38.021 21.951-63.998 26.061-83.336 19.761-19.346-6.303-32.18-23.065-43.814-43.216s-19.733-39.646-15.519-59.552c4.213-19.897 20.761-40.339 58.782-62.29 38.015-21.948 90.207-41.195 135.794-49.917 22.795-4.36 43.914-6.085 60.772-4.212 16.878 1.876 29.371 7.343 35.09 17.247Z" fill="#E6F0DF" stroke="#071C00" stroke-width=".826"/><mask id="mask0_3883_1099" style="mask-type:alpha" maskUnits="userSpaceOnUse" x="75" y="54" width="297" height="225"><path d="M366.919 73.506c5.574 9.655 4.154 22.979-2.639 38.483-6.773 15.461-18.785 32.838-33.94 50.376-30.305 35.072-73.019 70.605-110.975 92.519-37.969 21.921-63.761 25.934-82.861 19.711-19.121-6.229-31.861-22.813-43.488-42.951-11.627-20.139-19.619-39.463-15.453-59.137 4.161-19.653 20.533-39.983 58.501-61.904 37.956-21.914 90.085-41.139 135.612-49.848 22.766-4.356 43.82-6.07 60.596-4.205 16.824 1.869 29.072 7.301 34.647 16.956Z" fill="#FCFFFF" stroke="#000" stroke-width="2"/></mask><rect x="350.709" y="415.323" width="285.888" height="207.072" rx="103.536" transform="rotate(151.375 350.709 415.323)" fill="#E63D00" stroke="#071C00" stroke-width=".826"/><mask id="mask1_3883_1099" style="mask-type:alpha" maskUnits="userSpaceOnUse" x="37" y="272" width="278" height="246"><rect x="349.913" y="417.089" width="284.714" height="205.898" rx="102.949" transform="rotate(151.375 349.913 417.089)" fill="#FCFFFF" stroke="#000" stroke-width="2"/></mask></svg>