<svg width="1772" height="341" viewBox="0 0 1772 341" fill="none" xmlns="http://www.w3.org/2000/svg"><mask id="mask0_2434_1970" style="mask-type:alpha" maskUnits="userSpaceOnUse" x="0" y="0" width="1772" height="341"><path fill="#E63D00" d="M0 0h1772v341H0z"/></mask><g mask="url(#mask0_2434_1970)"><path fill="#B1B1FF" stroke="#0E0E0E" stroke-width="3" d="M-10-97.641h829.009v234.467H-10z"/><rect x="27.166" y="136.777" width="352.712" height="352.712" rx="66.991" transform="rotate(-45 27.166 136.777)" fill="#0E0E0E"/><path fill="#B1B1FF" stroke="#0E0E0E" stroke-width="3" d="M-10 136.828h293.084v517.317H-10zm293.084 0h212.137v357.283H283.084zM819.01-186.961h558.255v681.072H819.01z"/><path fill="#B1B1FF" stroke="#0E0E0E" stroke-width="3" d="M1377.26 147.992h404.735V494.11H1377.26z"/><rect x="330.536" y="159.16" width="312.623" height="312.623" rx="156.312" fill="#0E0E0E"/><path fill="#E63D00" stroke="#0E0E0E" stroke-width="3" d="M1377.26-354.438h404.735v502.43H1377.26z"/><path fill="#9A8800" stroke="#0E0E0E" stroke-width="3" d="M495.222 136.828H819.01v357.283H495.222z"/><path d="m1596.83-106.703.16-.077.16-.076.16-.073.16-.072.16-.071.17-.069.17-.067.16-.065.17-.064.18-.062.17-.06.17-.058.18-.056.17-.055.18-.053.18-.051.18-.049.18-.047.19-.045.18-.043.19-.041.18-.039.19-.038.19-.035.19-.033.19-.031.2-.029.19-.026.19-.025.2-.023.19-.02.2-.018.2-.016.2-.014.2-.011.2-.009.2-.007.2-.005.21-.003h.2l.21.003.2.004.21.007.2.009.21.012.21.014.21.016.2.019.21.021.21.024.21.026.21.029.22.031.21.034.21.036.21.038.21.041.22.044.21.046.21.049.21.051.22.054.21.056.21.059.22.061.21.064.21.067.22.069.21.072.21.074.22.077.21.08.21.082.21.085.21.087.22.09.21.093.21.095.21.098.21.101.21.103.21.106.2.108.21.111.21.114.2.117.21.119.21.121.2.124.2.127.21.13.2.132.2.134.2.138.2.14.2.142.19.145.2.148.19.15.2.153.19.155.19.158.19.161.19.163.19.165.19.168.18.171.19.173.18.176.18.178.18.18.18.183.18.186.17.188.17.19.18.193.17.195.17.198.16.2.17.202.16.205.16.207.16.21.16.21.16.215.15.216.15.218.15.22.15.224.15.225.14.227.14.23.14.231.14.234.14.236.13.238.13.24.13.242.12.243.13.247.12.248.12.25.12.251.11.254.11.256.11.258.11.259.1.261.1.263.1.265.1.267.09.268.09.27.09.271.09.273.08.275.08.277.08.278.07.28.08.28.06.283.07.284.06.285.06.287.06.288.05.29.06.29.04.292.05.293.04.294.04.296.04.297.03.297.03.3.02.3.03.3.02.302.01.303.02.304.01.304.01.306v.921l-.01.308-.01.31-.01.31-.02.31-.02.31-.02.312-.03.312-.03.313-.03.312-.04.314-.04.313-.04.314-.05.314-.05.315-.05.314-.06.315-.06.315-.07.315-.06.315-.08.315-.07.315-.08.315-.08.314-.09.315-.09.314-.09.315-.1.314-.1.313-.1.314-.11.312-.11.313-.11.312-.12.311-.12.311-.13.31-.13.31-.13.31-.14.308-.14.308-.14.307-.15.306-.15.305-.15.304-.16.303-.16.303-.16.301-.17.3-.17.3-.18.297-.18.297-.18.296-.19.294-.19.293-.19.292-.19.29-.2.289-.21.287-.21.286-.21.284-.21.283-.22.281-.22.28-.22.277-.23.276-.23.274-.24.273-.23.27-.24.269-.25.266-.25.265-.25.262-.25.26-.26.26-.26.255-.27.255-.26.251-.27.25-.28.247-.28.245-.28.243-.28.24-.29.238-.29.235-.29.233-.29.23-.3.227-.3.225-.31.222-.31.22-.31.217-.31.214-.32.21-.32.21-.32.205-.32.202-.33.2-.33.196-.33.194-.34.19-.34.188-.34.184-.34.18-.35.179-.35.174-.35.172-.35.168-.36.165-.36.161-.36.158-.36.155-.37.151-.36.148-.37.144-.38.14-.37.138-.38.133-.38.13-.38.126-.38.123-.39.119-.38.115-.39.111-.39.108-.39.103-.4.1-.4.096-.39.092-.4.089-.4.084-.41.08-.4.076-.41.073-.4.068-.41.064-.41.06-.42.056-.41.052-.41.048-.42.044-.42.039-.41.035-.42.031-.42.027-.42.022-.43.019-.42.014-.42.01-.43.004-.42.001-.43-.003-.43-.008-.42-.012-.43-.017-.43-.02-.43-.026-.43-.03-.43-.034-.43-.04-.43-.042-.43-.048-.44-.052-.43-.057-.43-.061-.43-.066-.43-.07-.44-.075-.43-.08-.43-.084-.43-.088-.43-.093-.44-.098-.43-.102-.43-.107-.43-.111-.43-.116-.43-.12-.43-.126-.42-.13-.43-.134-.43-.138-.43-.144-.42-.148-.43-.153-.42-.157-.42-.162-.42-.166-.43-.171-.41-.176-.42-.18-.42-.184-.42-.19-.41-.193-.42-.199-.41-.203-.41-.207-.41-.212-.41-.216-.4-.221-.41-.226-.4-.23-.4-.234-.4-.239-.4-.243-.39-.248-.39-.252-.4-.257-.39-.26-.38-.266-.39-.27-.38-.274-.38-.278-.38-.283-.38-.287-.37-.291-.37-.296-.37-.3-.37-.304-.36-.308-.36-.312-.36-.317-.36-.32-.35-.325-.35-.33-.34-.332-.35-.337-.34-.341-.34-.345-.33-.35-.34-.352-.32-.357-.33-.36-.32-.365-.32-.369-.32-.372-.31-.376-.31-.38-.3-.383-.31-.387-.29-.391-.3-.394-.29-.398-.29-.402-.28-.405-.28-.409-.28-.412-.27-.415-.27-.42-.26-.421-.26-.426-.26-.428-.25-.432-.25-.436-.24-.438-.24-.442-.24-.444-.23-.448-.23-.45-.22-.454-.22-.457-.21-.459-.21-.462-.21-.465-.2-.468-.19-.47-.2-.474-.18-.476-.18-.478-.18-.48-.17-.484-.17-.486-.17-.489-.15-.49-.16-.493-.15-.495-.14-.498-.14-.5-.13-.501-.13-.504-.12-.506-.12-.507-.12-.51-.11-.512-.1-.513-.1-.515-.09-.517-.09-.518-.08-.52-.08-.522-.07-.524-.07-.524-.06-.526-.05-.528-.05-.529-.05-.53-.04-.53-.03-.533-.03-.534-.02-.534-.02-.536-.01-.536-.01-.537v-1.077l.01-.539.02-.541.02-.54.03-.542.03-.541.04-.542.04-.543.05-.543.05-.543.06-.543.07-.543.07-.543.08-.544.08-.543.09-.543.1-.543.1-.543.11-.543.11-.542.12-.542.12-.541.13-.541.13-.54.15-.54.14-.538.15-.538.16-.538.17-.536.17-.535.17-.535.18-.533.19-.532.19-.531.2-.53.21-.529.21-.527.21-.525.22-.525.23-.522.23-.521.24-.52.24-.517.25-.516.26-.514.26-.512.27-.51.27-.508.28-.506.28-.504.29-.502.29-.499.3-.497.31-.495.31-.492.32-.49.32-.487.33-.484.33-.482.34-.479.34-.476.35-.474.35-.47.36-.468.37-.464.37-.462.37-.458.38-.455.39-.452.39-.448.39-.445.41-.442.4-.438.41-.435.42-.431.42-.427.43-.424.43-.42.43-.416.44-.412.45-.409.45-.404.45-.4.46-.396.46-.393.47-.387.48-.384.47-.379.49-.375.48-.371.49-.366.5-.362.5-.357.5-.353.51-.347.51-.344.52-.338.52-.334.52-.329.53-.324.54-.319.53-.314.54-.309.55-.304.55-.299.55-.293.55-.289.56-.283.56-.278.57-.273.57-.267.57-.262.58-.256.58-.251.58-.246.59-.24.59-.234.59-.228.6-.223.6-.217.6-.212.6-.205.61-.2.61-.194.61-.188.62-.182.61-.176.62-.17.63-.164.62-.158.63-.152.63-.146.63-.14.64-.133.63-.127.64-.121.64-.115.64-.108.65-.102.64-.096.65-.089.65-.083.65-.077.66-.07.65-.064.65-.057.66-.05.66-.044.66-.038.66-.031.66-.024.66-.018.67-.011.66-.004.66.002.67.009.67.016.66.022.67.029.67.036.67.042.66.049.67.056.67.063.67.07.67.076.67.083.67.09.67.097.67.104.66.11.67.117.67.124.67.131.66.138.67.144.66.152.67.158.66.165.66.172.66.178.66.186.66.192.66.199.65.206.66.213.65.22.65.226.65.233.65.24.65.247.64.253.64.26.65.267.63.273.64.281.63.286.64.294.63.3.62.307.63.314.62.32.62.326.62.334.61.339.61.347.61.352.61.36.6.365.6.372.6.379.59.385.59.391.59.397.58.404.58.41.57.417.58.422.56.429.57.435.56.441.56.447.55.453.55.459.54.465.54.471.54.476.53.483.53.489.52.494.52.5.51.506.51.511.51.517.5.523.49.528.49.534.49.539.47.544.48.55.47.556.46.56.46.566.46.57.45.576.44.581.44.587.43.591.42.596.42.6.42.606.41.61.4.615.4.62.39.624.39.629.38.634.37.638.37.642.36.646.35.651.35.655.34.659.34.663.33.667.32.671.31.675.31.679.31.683.29.686.29.69.29.694.27.697.27.7.26.704.26.707.25.71.24.714.23.717.23.719.22.723.21.726.21.728.19.731.19.734.19.737.17.739.17.741.16.744.16.746.14.749.14.75.13.753.13.755.11.757.11.759.1.76.1.762.08.764.08.766.07.767.06.768.06.77.04.77.04.773.03.773.03.775.01.775.01.776v.778l-.01.777-.02.779-.02.779-.03.78-.05.78-.04.78-.06.78-.06.78-.08.781-.08.78-.09.782-.09.78-.11.78-.11.78-.12.78-.13.779-.14.778-.14.778-.16.777-.16.776-.17.776-.18.774-.18.773-.2.773-.2.77-.21.77-.22.768-.22.767-.24.765-.24.764-.25.762-.26.76-.26.758-.28.756-.28.754-.29.752-.3.75-.3.748-.32.745-.32.743-.33.74-.34.737-.34.735-.35.732-.37.73-.36.726-.38.723-.39.72-.39.717-.4.713-.4.71-.42.707-.42.704-.43.7-.44.696-.44.692-.46.688-.46.685-.46.68-.48.677-.48.673-.49.668-.5.664-.5.66-.51.654-.52.65-.53.647-.53.641-.54.637-.54.631-.56.627-.56.622-.56.617-.58.611-.58.607-.59.601-.59.596-.6.59-.61.585-.61.58-.62.574-.63.568-.63.562-.64.557-.64.55-.66.545-.65.539-.67.532-.67.527-.67.52-.68.514-.69.507-.69.502-.7.494-.71.488-.71.482-.71.474-.72.469-.73.46-.73.455-.74.448-.74.44-.75.434-.75.426-.76.42-.76.412-.77.404-.77.398-.78.39-.78.383-.78.375-.79.368-.8.36-.8.352-.8.345-.81.337-.81.33-.82.321-.82.314-.82.306-.83.297-.83.29-.83.282-.84.274-.84.265-.85.257-.85.25-.85.24-.85.233-.86.224-.86.216-.87.208-.86.199-.87.19-.88.182-.87.174-.88.165-.88.156-.88.148-.88.138-.89.13-.89.122-.89.113-.89.104-.9.095-.89.087-.9.077-.9.069-.9.06-.9.05-.9.042-.91.033-.9.023-.91.015-.91.006-.9-.003-.91-.012-.91-.022-.91-.03-.91-.04-.91-.048-.91-.058-.91-.067-.92-.076-.91-.085-.91-.094-.91-.104-.91-.113-.91-.121-.91-.131-.91-.14-.9-.15-.91-.158-.91-.168-.9-.176-.91-.186-.9-.196-.9-.204-.9-.213-.9-.223-.9-.232-.89-.24-.9-.25-.89-.26-.89-.267-.89-.278-.89-.286-.88-.295-.88-.305-.88-.313-.88-.323-.87-.331-.87-.34-.87-.35-.87-.358-.86-.367-.86-.376-.85-.385-.86-.394-.85-.402-.84-.412-.85-.42-.84-.429-.83-.437-.83-.447-.83-.454-.83-.464-.82-.472-.81-.48-.81-.49-.81-.497-.8-.506-.8-.514-.79-.523-.79-.53-.79-.54-.77-.547-.78-.556-.77-.563-.76-.572-.76-.58-.75-.588-.75-.596-.74-.604-.74-.611-.73-.62-.73-.627-.72-.635-.71-.642-.71-.65-.7-.658-.69-.665-.69-.672-.68-.68-.68-.688-.67-.694-.66-.702-.66-.709-.65-.716-.64-.723-.64-.73-.63-.736-.62-.744-.62-.75-.6-.757-.6-.764-.6-.77-.58-.776-.58-.784-.57-.79-.57-.795-.55-.802-.55-.808-.54-.814-.53-.82-.52-.826-.52-.832-.51-.837-.5-.843-.49-.85-.48-.854-.48-.86-.47-.865-.45-.87-.45-.876-.44-.88-.44-.887-.42-.89-.42-.896-.4-.9-.4-.906-.39-.91-.38-.914-.37-.919-.36-.923-.35-.927-.34-.932-.34-.935-.32-.94-.32-.944-.3-.947-.3-.951-.28-.955-.28-.958-.27-.962-.26-.965-.25-.969-.23-.971-.23-.975-.22-.978-.21-.98-.2-.984-.19-.986-.18-.988-.17-.991-.16-.994-.15-.996-.14-.998-.13-1-.12-1.002-.11-1.004-.1-1.006-.09-1.008-.08-1.009-.07-1.01-.06-1.013-.04-1.013-.04-1.015-.03-1.016-.02-1.017v-2.036l.01-1.019.03-1.019.03-1.021.05-1.02.05-1.021.07-1.021.07-1.021.09-1.021.1-1.021.1-1.021.12-1.02.13-1.02.14-1.019.15-1.019.16-1.018.17-1.017.18-1.016.19-1.015.2-1.014.21-1.012.23-1.011.23-1.01.24-1.008.26-1.006.26-1.004.27-1.003.29-1 .29-.998.31-.996.32-.994.32-.991.34-.989.35-.986.35-.983.37-.98.38-.978.39-.974.4-.971.41-.968.41-.964.43-.961.44-.957.45-.954.46-.95.47-.946.48-.941.48-.938.5-.934.51-.929.52-.924.53-.921.54-.915.54-.911.56-.906.57-.901.57-.896.59-.891.59-.886.61-.881.61-.875.62-.869.64-.864.64-.858.65-.853.66-.846.67-.841.68-.834.68-.828.7-.822.7-.816.72-.809.72-.803.73-.796.74-.789.75-.782.75-.776.77-.768.77-.761.78-.755.79-.746.8-.74.81-.732.81-.725.82-.717.83-.709.84-.701.84-.694.86-.686.86-.678.86-.669.88-.661.88-.654.89-.644.9-.637.9-.628.91-.619.92-.611.92-.601.93-.594.94-.584.95-.575.95-.567.95-.557.97-.548.97-.539.97-.529.98-.52.99-.511 1-.501 1-.492 1-.482 1.01-.473 1.02-.463 1.02-.452 1.02-.443 1.04-.434 1.03-.423 1.05-.413 1.04-.403 1.05-.393 1.06-.382 1.06-.373 1.07-.362 1.07-.352 1.07-.341 1.08-.331 1.08-.32 1.09-.31 1.08-.299 1.1-.289 1.1-.278 1.1-.267 1.1-.257 1.11-.245 1.11-.235 1.11-.224 1.12-.213 1.12-.202 1.12-.191 1.13-.18 1.12-.168 1.13-.158 1.14-.147 1.13-.135 1.14-.124 1.14-.113 1.14-.102 1.14-.091 1.14-.079 1.15-.068 1.15-.056 1.15-.046 1.14-.033 1.16-.023 1.15-.011 1.15.001 1.15.012 1.16.023 1.15.035 1.15.046 1.16.058 1.15.069 1.16.081 1.15.093 1.16.104 1.15.115 1.16.127 1.15.139 1.15.15 1.15.162 1.15.173 1.15.185 1.15.196 1.15.208 1.15.219 1.14.231 1.14.243 1.14.254 1.14.265 1.14.277 1.13.288 1.14.3 1.13.312 1.13.322 1.12.334 1.12.346 1.12.357 1.12.368 1.11.38 1.12.39 1.1.403 1.11.413 1.1.425 1.09.435 1.1.447 1.09.459 1.08.469 1.08.48 1.08.491 1.07.503 1.07.513 1.06.524 1.06.535 1.06.546 1.05.557 1.04.568 1.04.578 1.03.589 1.03.599 1.02.61 1.02.621 1.01.631 1.01.642 1 .652.99.662.99.673.98.682.98.693.97.703.96.713.95.724.95.733.94.742.94.753.93.763.92.772.91.781.91.792.89.8.89.81.89.82.87.829.87.838.86.847.85.856.84.865.84.874.82.882.82.892.81.9.8.909.79.917.79.925.77.934.77.942.75.951.75.958.74.967.73.974.71.982.71.99.7.997.69 1.005.68 1.013.67 1.019.66 1.027.65 1.034.64 1.042.63 1.048.62 1.055.61 1.062.6 1.068.59 1.075.57 1.082.57 1.088.56 1.094.54 1.1.54 1.107.52 1.112.51 1.118.5 1.124.49 1.13.48 1.135.47 1.14.46 1.146.44 1.151.44 1.156.42 1.161.41 1.166.4 1.171.39 1.175.37 1.18.37 1.184.35 1.189.34 1.193.33 1.196.31 1.201.31 1.205.29 1.208.28 1.212.27 1.215.25 1.219.25 1.222.23 1.225.22 1.228.2 1.231.2 1.234.18 1.236.17 1.239.15 1.241.15 1.244.13 1.245.12 1.248.11 1.25.09 1.251.08 1.253.07 1.254.06 1.256.04 1.257.03 1.259.02 1.259v1.26l-.01 1.261-.02 1.262-.03 1.262-.05 1.262-.06 1.263-.07 1.263-.08 1.263-.1 1.262-.11 1.263-.12 1.262-.14 1.261-.15 1.261-.16 1.26-.18 1.26-.19 1.258-.2 1.257-.21 1.255-.23 1.255-.24 1.252-.25 1.251-.26 1.25-.28 1.247-.29 1.245-.31 1.243-.31 1.24-.33 1.24-.35 1.235-.35 1.233-.37 1.23-.38 1.227-.39 1.224-.41 1.22-.41 1.218-.44 1.214-.44 1.21-.45 1.207-.47 1.203-.48 1.199-.5 1.195-.5 1.19-.52 1.186-.53 1.182-.54 1.177-.56 1.172-.57 1.168-.58 1.162-.59 1.157-.6 1.152-.62 1.147-.62 1.141-.64 1.136-.65 1.13-.67 1.123-.67 1.118-.69 1.112-.7 1.106-.71 1.1-.72 1.092-.73 1.087-.75 1.08-.75 1.072-.77 1.066-.78 1.06-.79 1.05-.8 1.045-.81 1.038-.82 1.03-.84 1.021-.84 1.014-.86 1.007-.86.998-.88.99-.89.983-.89.974-.91.966-.92.957-.93.948-.94.94-.94.931-.96.922-.97.913-.98.904-.99.895-.99.885-1.01.876-1.02.867-1.02.856-1.04.848-1.04.837-1.06.827-1.06.817-1.07.808-1.08.797-1.09.786-1.09.777-1.11.766-1.11.755-1.13.745-1.13.734-1.13.723-1.15.712-1.15.7-1.17.69-1.17.68-1.17.668-1.19.656-1.19.645-1.2.633-1.2.622-1.22.61-1.22.599-1.22.586-1.23.575-1.24.563-1.25.551-1.25.539-1.26.526-1.26.515-1.27.502-1.28.49-1.28.477-1.29.465-1.29.453-1.3.44-1.3.427-1.31.414-1.31.402-1.32.389-1.32.376-1.33.363-1.33.35-1.33.337-1.34.324-1.35.311-1.34.298-1.36.284-1.35.272-1.36.258-1.36.244-1.36.231-1.37.218-1.37.204-1.37.191-1.38.178-1.38.163-1.38.15-1.38.137-1.39.123-1.38.109-1.39.096-1.39.081-1.4.068-1.39.054-1.39.04-1.4.027-1.4.013-1.39-.001-1.4-.015-1.4-.029-1.4-.043-1.4-.056-1.4-.07-1.4-.085-1.4-.099-1.4-.112-1.4-.127-1.4-.14-1.39-.154-1.4-.168-1.4-.182-1.39-.197-1.4-.21-1.39-.223-1.39-.238-1.39-.252-1.38-.266-1.39-.28-1.38-.293-1.38-.307-1.38-.321-1.37-.335-1.38-.35-1.37-.362-1.36-.376-1.37-.39-1.36-.404-1.35-.418-1.36-.431-1.35-.445-1.34-.459-1.35-.472-1.33-.485-1.34-.5-1.33-.512-1.32-.526-1.32-.54-1.32-.553-1.31-.566-1.3-.58-1.3-.592-1.3-.606-1.28-.62-1.29-.631-1.28-.645-1.27-.659-1.26-.67-1.26-.685-1.25-.697-1.25-.71-1.24-.722-1.23-.735-1.23-.747-1.22-.76-1.21-.773-1.21-.785-1.2-.798-1.19-.81-1.18-.821-1.17-.834-1.17-.846-1.16-.858-1.15-.87-1.14-.882-1.14-.894-1.12-.905-1.12-.917-1.11-.929-1.1-.94-1.09-.95-1.08-.963-1.07-.974-1.06-.985-1.06-.996-1.04-1.006-1.03-1.018-1.03-1.028-1.01-1.04-1.01-1.05-.99-1.06-.98-1.07-.98-1.08-.96-1.092-.95-1.1-.94-1.112-.93-1.12-.92-1.131-.91-1.14-.9-1.15-.89-1.16-.87-1.168-.86-1.178-.86-1.187-.84-1.197-.83-1.204-.81-1.214-.81-1.223-.79-1.23-.78-1.24-.77-1.248-.76-1.256-.74-1.265-.73-1.272-.72-1.28-.71-1.288-.69-1.295-.68-1.303-.67-1.31-.65-1.318-.64-1.325-.63-1.331-.62-1.339-.6-1.345-.59-1.352-.57-1.358-.57-1.365-.54-1.371-.54-1.377-.52-1.383-.51-1.389-.49-1.395-.48-1.4-.46-1.405-.45-1.41-.44-1.417-.42-1.42-.41-1.426-.4-1.431-.38-1.435-.36-1.44-.36-1.444-.33-1.448-.32-1.452-.31-1.456-.3-1.46-.27-1.463-.27-1.466-.25-1.47-.23-1.474-.22-1.476-.2-1.479-.19-1.482-.18-1.484-.16-1.487-.14-1.489-.13-1.491-.12-1.493-.1-1.495-.08-1.497-.07-1.498-.05-1.5-.04-1.5-.03-1.503v-3.006l.03-1.504.03-1.505.06-1.505.06-1.506.09-1.505.1-1.505.11-1.505.13-1.504.14-1.504.16-1.503.18-1.503.19-1.501.21-1.5.22-1.498.23-1.498.26-1.495.26-1.494.28-1.492.3-1.489.32-1.488.32-1.484.35-1.483.36-1.479.37-1.477.39-1.474.4-1.47.42-1.468.44-1.463.44-1.461.47-1.456.48-1.452.49-1.448.51-1.445.53-1.439.53-1.435.56-1.431.57-1.425.58-1.421.6-1.415.61-1.411.63-1.404.64-1.399.66-1.394.67-1.387.68-1.382.7-1.375.71-1.369.73-1.363.74-1.356.76-1.349.77-1.343.78-1.335.8-1.328.81-1.321.83-1.314.84-1.305.85-1.298.87-1.291.88-1.282.89-1.274.91-1.266.92-1.257.93-1.249.94-1.24.96-1.231.98-1.223.98-1.213 1-1.204 1.01-1.195 1.02-1.185 1.04-1.175 1.04-1.166 1.06-1.156 1.08-1.146 1.08-1.136 1.1-1.126 1.1-1.115 1.12-1.105 1.14-1.094 1.14-1.083 1.15-1.073 1.17-1.061 1.18-1.051 1.19-1.039 1.2-1.028 1.21-1.016 1.22-1.005 1.23-.994 1.24-.981 1.26-.97 1.26-.957 1.27-.946 1.29-.933 1.29-.921 1.31-.909 1.31-.896 1.32-.883 1.34-.871 1.34-.858 1.35-.844 1.36-.832 1.37-.819 1.38-.805 1.39-.793 1.4-.778 1.4-.766 1.41-.751 1.43-.738 1.43-.724 1.43-.711 1.45-.696 1.45-.683 1.46-.668 1.47-.654 1.48-.64 1.48-.625 1.49-.611 1.49-.597 1.51-.582 1.51-.567 1.51-.553 1.53-.537 1.52-.523 1.54-.508 1.54-.493 1.54-.478 1.56-.463 1.55-.448 1.56-.432 1.57-.417 1.57-.402 1.58-.386 1.58-.371 1.59-.356 1.59-.339 1.59-.324 1.6-.309 1.6-.293 1.61-.277 1.61-.261 1.61-.245 1.61-.23 1.62-.214 1.62-.197 1.63-.182 1.63-.165 1.62-.15 1.64-.133 1.63-.118 1.63-.101" stroke="#0E0E0E" stroke-width="3" stroke-linecap="round"/><path fill-rule="evenodd" clip-rule="evenodd" d="M675.778 229.21c-8.088-14.009-28.308-14.009-36.396 0l-87.35 151.295c-8.088 14.008 2.022 31.519 18.198 31.519h174.7c16.176 0 26.286-17.511 18.198-31.519l-87.35-151.295Zm-18.916 165.224c29.346 0 53.135-23.79 53.135-53.135 0-29.346-23.789-53.135-53.135-53.135-29.345 0-53.134 23.789-53.134 53.135 0 29.345 23.789 53.135 53.134 53.135Z" fill="#0E0E0E"/><path d="m1255.94 327.633 16.27-16.273c4.43-4.427 4.43-11.605 0-16.033l-82.58-82.58c-4.43-4.427-11.6-4.427-16.03 0l-16.27 16.272c-4.43 4.428-4.43 11.606 0 16.033l82.58 82.581c4.42 4.427 11.6 4.427 16.03 0Zm-108.16 55.597 22.23-5.956c6.05-1.62 9.64-7.837 8.01-13.885l-30.22-112.807c-1.62-6.048-7.84-9.637-13.89-8.016l-22.23 5.956c-6.04 1.621-9.63 7.837-8.01 13.885l30.22 112.807c1.63 6.048 7.84 9.637 13.89 8.016Zm-121.49-5.937 22.23 5.956c6.04 1.621 12.26-1.968 13.88-8.016l30.23-112.807c1.62-6.048-1.97-12.264-8.02-13.885l-22.23-5.956c-6.05-1.62-12.26 1.969-13.88 8.017l-30.23 112.806c-1.62 6.048 1.97 12.265 8.02 13.885Zm-102.231-65.894 16.272 16.272c4.428 4.427 11.606 4.427 16.033 0l82.576-82.58c4.43-4.428 4.43-11.606 0-16.033l-16.27-16.272c-4.43-4.428-11.6-4.428-16.03 0l-82.581 82.58c-4.428 4.427-4.428 11.605 0 16.033Zm-55.573-108.184 5.956 22.229c1.62 6.048 7.837 9.637 13.885 8.016l112.803-30.226c6.05-1.621 9.64-7.837 8.02-13.885l-5.96-22.229c-1.62-6.047-7.833-9.637-13.881-8.016L876.502 189.33c-6.048 1.621-9.637 7.837-8.016 13.885Zm5.936-121.484-5.957 22.228c-1.62 6.048 1.969 12.265 8.017 13.885l112.807 30.227c6.048 1.62 12.261-1.969 13.881-8.017l5.96-22.228c1.62-6.048-1.97-12.264-8.02-13.885L888.306 73.715c-6.047-1.621-12.264 1.968-13.884 8.016Zm65.897-102.227L924.047-4.223c-4.428 4.427-4.428 11.605 0 16.032l82.583 82.58c4.42 4.428 11.6 4.428 16.03 0l16.27-16.272c4.43-4.427 4.43-11.605 0-16.033l-82.578-82.58c-4.427-4.427-11.606-4.427-16.033 0Zm108.181-55.59-22.23 5.957c-6.05 1.62-9.64 7.837-8.02 13.884l30.23 112.807c1.62 6.048 7.84 9.637 13.88 8.017l22.23-5.957c6.05-1.62 9.64-7.837 8.02-13.885l-30.23-112.806c-1.62-6.048-7.84-9.637-13.88-8.017Zm121.46 5.949-22.23-5.956c-6.04-1.62-12.26 1.968-13.88 8.016L1103.62 44.73c-1.62 6.048 1.97 12.264 8.02 13.885l22.23 5.956c6.05 1.62 12.26-1.968 13.88-8.016l30.23-112.807c1.62-6.048-1.97-12.264-8.02-13.885Zm102.25 65.895-16.27-16.273c-4.43-4.427-11.61-4.427-16.04 0l-82.58 82.58c-4.43 4.428-4.43 11.606 0 16.033l16.27 16.273c4.43 4.427 11.61 4.427 16.04 0l82.58-82.58c4.43-4.428 4.43-11.606 0-16.033Zm55.57 108.179-5.95-22.228c-1.62-6.048-7.84-9.638-13.89-8.017l-112.8 30.227c-6.05 1.62-9.64 7.837-8.02 13.884l5.95 22.229c1.63 6.048 7.84 9.637 13.89 8.016l112.81-30.226c6.04-1.621 9.63-7.837 8.01-13.885Zm-5.95 121.484 5.96-22.228c1.62-6.048-1.97-12.265-8.02-13.885l-112.8-30.227c-6.05-1.62-12.27 1.969-13.89 8.017l-5.95 22.228c-1.62 6.048 1.96 12.265 8.01 13.885l112.81 30.227c6.05 1.62 12.26-1.969 13.88-8.017Z" fill="#0E0E0E"/><path fill-rule="evenodd" clip-rule="evenodd" d="M1503.07 403.824c45.33 44.529 118.18 43.881 162.71-1.448 36-36.656 42.47-91.306 19.66-134.425l-101.74 53.796 51.98-102.679c-43.52-22.043-98.05-14.605-134.06 22.051-44.53 45.33-43.88 118.175 1.45 162.705Z" fill="#0E0E0E"/><path d="M234.817 622.707a5.379 5.379 0 0 1-5.379 5.402h-28.69a5.38 5.38 0 0 1-5.379-5.357l-.208-49.805a7.173 7.173 0 0 0-3.586-6.181L37.984 478.09a5.38 5.38 0 0 1-2.339-2.746l-8.074-21.226c-1.211-3.185.806-6.68 4.17-7.223l22.42-3.62a5.375 5.375 0 0 1 3.547.651l131.839 76.118c2.397 1.384 5.391-.353 5.38-3.121l-1.321-316.16a5.381 5.381 0 0 1 1.209-3.421l14.337-17.595c2.153-2.642 6.188-2.642 8.341 0l14.353 17.615a5.38 5.38 0 0 1 1.209 3.376l1.762 421.969Z" fill="#0E0E0E"/></g></svg>