<svg width="314" height="459" fill="none" xmlns="http://www.w3.org/2000/svg"><g clip-path="url(#clip0_3577_967)"><rect x="313.709" y="352.323" width="285.888" height="207.072" rx="103.536" transform="rotate(151.375 313.709 352.323)" fill="#E6F0DF" stroke="#071C00" stroke-width=".826"/><mask id="mask0_3577_967" style="mask-type:alpha" maskUnits="userSpaceOnUse" x="0" y="207" width="278" height="246"><rect x="312.913" y="352.089" width="284.714" height="205.898" rx="102.949" transform="rotate(151.375 312.913 352.089)" fill="#FCFFFF" stroke="#000" stroke-width="2"/></mask><g mask="url(#mask0_3577_967)"><path d="M34.789 397.45l-24.022 13.869c3.91 7.015 8.64 12.29 14.195 15.827 5.553 3.536 11.485 5.66 17.796 6.371 6.416.651 12.947.041 19.594-1.83 6.812-1.826 13.327-4.533 19.543-8.122 7.69-4.441 13.917-9.229 18.677-14.366 4.866-5.197 8.336-10.502 10.409-15.913 2.118-5.578 2.901-11.157 2.348-16.738-.553-5.58-2.32-10.952-5.301-16.115-3.649-6.321-8-10.693-13.05-13.115-5.007-2.588-10.053-4.029-15.14-4.324-5.086-.294-9.83.127-14.231 1.263-4.357.97-7.71 1.853-10.061 2.648a2771.396 2771.396 0 01-19.78 5.521c-4.99 1.335-9.083 2.153-12.28 2.454-3.093.24-5.456-.082-7.09-.965-1.633-.883-3.089-2.431-4.366-4.643-1.4-2.423-2.028-4.729-1.887-6.918a16.29 16.29 0 011.67-6.232 19.542 19.542 0 014.254-5.406 33.544 33.544 0 015.64-4.099c3.056-1.764 6-3.113 8.832-4.046 2.938-.994 5.773-1.437 8.505-1.328 2.732.108 5.316.934 7.752 2.478 2.542 1.482 4.892 3.849 7.049 7.098l24.021-13.868c-3.771-6.533-8.229-11.334-13.373-14.405-5.1-3.236-10.608-5.113-16.526-5.63-5.917-.517-11.98.174-18.189 2.073-6.164 1.733-12.196 4.302-18.096 7.708-5.057 2.92-9.72 6.525-13.985 10.814-4.267 4.29-7.58 9.012-9.942 14.169-2.361 5.156-3.56 10.624-3.594 16.403.01 5.614 1.688 11.318 5.034 17.112 2.98 5.163 6.483 9.04 10.509 11.633 4.07 2.426 8.384 3.939 12.944 4.537 4.56.599 9.298.532 14.214-.199a137.625 137.625 0 0014.517-3.324 342.633 342.633 0 0013.993-3.865c4.551-1.363 8.772-2.325 12.663-2.886 3.89-.56 7.332-.44 10.323.362 3.097.741 5.527 2.639 7.291 5.694 1.642 2.845 2.274 5.641 1.894 8.389-.441 2.643-1.464 5.13-3.068 7.461-1.604 2.33-3.55 4.437-5.834 6.318-2.347 1.776-4.626 3.303-6.838 4.58-3.266 1.886-6.64 3.342-10.121 4.368-3.542.921-6.928 1.261-10.159 1.019-3.186-.409-6.224-1.534-9.114-3.377-2.89-1.844-5.43-4.662-7.62-8.455zm123.42-87.481l-36.507 21.077c-.807-1.642-1.525-3.615-2.154-5.921-.523-2.367-.617-4.841-.282-7.423.441-2.643 1.486-5.213 3.135-7.71 1.693-2.663 4.331-5.029 7.913-7.097 5.479-3.163 10.387-4.03 14.724-2.601 4.442 1.369 8.833 4.594 13.171 9.675zm-28.295 35.3l58.948-34.034c-3.228-6.564-7.253-12.318-12.073-17.261-4.821-4.943-10.225-8.707-16.212-11.291-5.881-2.645-12.164-3.794-18.847-3.447-6.744.241-13.593 2.369-20.547 6.384-6.216 3.589-11.267 7.98-15.152 13.173-3.779 5.132-6.388 10.712-7.825 16.739-1.497 5.922-1.726 12.095-.687 18.519 1.04 6.423 3.324 12.69 6.852 18.801 3.649 6.322 7.943 11.569 12.881 15.742 5.043 4.112 10.451 7.03 16.223 8.755 5.772 1.725 11.847 2.151 18.227 1.277 6.318-.979 12.69-3.323 19.117-7.034 9.272-5.353 15.957-12.022 20.056-20.008 4.099-7.985 4.901-17.79 2.404-29.413l-19.754 11.405c.722 2.955.119 6.534-1.809 10.737-1.988 4.098-5.248 7.455-9.778 10.071-6.322 3.65-12.111 4.815-17.368 3.495-5.257-1.319-10.143-5.523-14.656-12.61zm80.837-56.786l-4.577 59.958 25.128-14.508 2.196-35.614 31.94 15.906 25.602-14.782-55.277-26.033 4.786-53.756-24.812 14.325-1.906 29.547-26.699-13.032-25.602 14.782 49.221 23.207z" fill="#071C00"/></g><path d="M300.427 23.213c5.718 9.904 4.205 23.457-2.609 39.011-6.807 15.537-18.859 32.964-34.034 50.525-30.346 35.119-73.111 70.695-111.126 92.643-38.021 21.951-63.998 26.061-83.336 19.761-19.346-6.303-32.18-23.065-43.814-43.216S5.774 142.291 9.99 122.385c4.213-19.897 20.761-40.339 58.782-62.29 38.015-21.948 90.207-41.195 135.794-49.917 22.795-4.36 43.914-6.085 60.772-4.212 16.878 1.876 29.371 7.343 35.09 17.247z" fill="#E6F0DF" stroke="#071C00" stroke-width=".826"/><mask id="mask1_3577_967" style="mask-type:alpha" maskUnits="userSpaceOnUse" x="8" y="4" width="297" height="225"><path d="M299.919 23.506c5.574 9.655 4.154 22.979-2.639 38.483-6.773 15.46-18.785 32.838-33.94 50.376-30.305 35.072-73.019 70.605-110.975 92.519-37.969 21.921-63.76 25.934-82.861 19.711-19.121-6.229-31.86-22.813-43.488-42.951-11.627-20.139-19.618-39.463-15.453-59.137 4.161-19.653 20.533-39.983 58.501-61.904C107.02 38.69 159.15 19.464 204.676 10.755c22.766-4.356 43.82-6.07 60.596-4.205 16.824 1.869 29.072 7.301 34.647 16.956z" fill="#FCFFFF" stroke="#000" stroke-width="2"/></mask><g mask="url(#mask1_3577_967)"><path d="M26.198 45.428l10.56 129.866 91.852-7.469-1.952-24.009-63.296 5.147-8.608-105.857-28.556 2.322zm167.025 59.653l-42.016 3.417c-.026-1.829.17-3.92.589-6.273.54-2.363 1.515-4.64 2.923-6.829 1.53-2.2 3.575-4.074 6.134-5.625 2.671-1.682 6.067-2.69 10.19-3.026 6.305-.512 11.112.806 14.419 3.954 3.429 3.14 6.016 7.933 7.761 14.382zm-40.684 19.786l67.843-5.516c-.107-7.315-1.28-14.238-3.52-20.769-2.24-6.531-5.512-12.246-9.816-17.144-4.183-4.909-9.369-8.637-15.557-11.185-6.198-2.67-13.298-3.68-21.301-3.029-7.154.582-13.598 2.388-19.333 5.417-5.613 3.02-10.359 6.946-14.239 11.777-3.889 4.71-6.739 10.19-8.549 16.441-1.811 6.25-2.431 12.892-1.859 19.925.592 7.275 2.225 13.855 4.901 19.741 2.797 5.875 6.434 10.828 10.912 14.858 4.477 4.03 9.785 7.016 15.924 8.958 6.129 1.821 12.892 2.43 20.289 1.829 10.67-.868 19.567-4.032 26.691-9.494 7.123-5.462 12.045-13.979 14.766-25.551l-22.735 1.848c-.613 2.98-2.69 5.956-6.232 8.929-3.552 2.852-7.935 4.49-13.149 4.914-7.275.592-13.006-.834-17.192-4.278-4.185-3.443-6.8-9.333-7.844-17.671zm78.595-42.642l6.242 76.756 25.827-2.1-6.241-76.756 17.825-1.45-1.405-17.278-17.825 1.449-.458-5.638c-.316-3.88.19-6.668 1.517-8.363 1.438-1.825 3.915-2.881 7.432-3.167a79.628 79.628 0 019.502-.224l-1.567-19.28c-2.193.057-4.446.118-6.76.184a66.202 66.202 0 00-6.941.198c-10.549.858-18.214 4.166-22.994 9.926-4.781 5.759-6.83 12.822-6.15 21.189l.591 7.275-15.46 1.257 1.405 17.28 15.46-1.258zm78.99-23.816l-2.292-28.192-25.828 2.1 2.292 28.192-15.642 1.272 1.405 17.28 15.642-1.273 4.511 55.475c.385 4.729 1.484 8.485 3.296 11.267 1.813 2.782 4.118 4.852 6.914 6.212 2.917 1.349 6.153 2.124 9.709 2.323 3.687.31 7.531.303 11.533-.023 2.546-.207 5.148-.479 7.806-.817 2.658-.339 5.063-.778 7.216-1.32l-1.627-20.007a36.094 36.094 0 01-3.775.856c-1.324.23-2.713.404-4.168.522-4.366.355-7.335-.136-8.908-1.472-1.574-1.337-2.538-4.188-2.893-8.553l-3.786-46.563 18.916-1.538-1.405-17.28-18.916 1.539z" fill="#071C00"/></g></g><defs><clipPath id="clip0_3577_967"><path fill="#fff" d="M0 0h314v459H0z"/></clipPath></defs></svg>