<svg width="1792" height="441" viewBox="0 0 1792 441" fill="none" xmlns="http://www.w3.org/2000/svg"><g clip-path="url(#clip0_389_319)"><path fill="#fff" d="M0 0h1792v441H0z"/><path fill="#EBB800" d="M0-8h1792v449H0z"/><path fill-rule="evenodd" clip-rule="evenodd" d="m1474.34-301.304-70.79 40.873 142.47 246.772 70.55-40.728-142.23-246.917Z" fill="#E63D00"/><path d="m1111.83 660.23 687.67-397.024-91.47-158.796m-596.2 555.82-687.663 397.02-91.885-159.147M1111.83 660.23 604.587-219.378m0 0L-83.525 177.904 7.457 335.489m597.13-554.867L1292.7-616.66l90.82 157.678m90.82 157.678-70.79 40.873 142.47 246.772 70.55-40.728m-142.23-246.917 142.23 246.917m-142.23-246.917-90.82-157.678m233.05 404.595 91.46 158.797m-324.51-563.392-222.57 128.504 326.11 564.85 220.97-129.962M98.439 493.075 170 451.758l141.958 245.878-71.562 41.317M98.439 493.075l141.958 245.878M98.439 493.075 7.457 335.489m232.94 403.464 91.885 159.15m0 0 222.736-128.597-324.825-562.614L7.457 335.489M784.099 92.852c-70.726 40.834-94.885 131.398-53.96 202.281 40.924 70.883 131.434 95.243 202.16 54.409 70.731-40.833 94.881-131.397 53.961-202.281-40.925-70.883-131.435-95.242-202.161-54.409Z" stroke="#FCFFFF" stroke-width="5"/><path d="M452.926 594.437c19.694-42.191 19.188-92.95-5.823-136.271-25.012-43.322-68.717-69.139-115.103-73.18M1384.64 56.513c-46.39-4.04-90.09-29.857-115.11-73.18-25.01-43.321-25.51-94.079-5.82-136.27m523.72 395.795c-11.01 6.352-14.63 20.675-8.1 31.991" stroke="#FCFFFF" stroke-width="5"/><ellipse cx="858.196" cy="221.196" rx="23.49" ry="22.799" transform="rotate(150 858.196 221.196)" fill="#FCFFFF" stroke="#FCFFFF" stroke-width="5"/><path d="M377.563 306.485a2.5 2.5 0 0 0-2.187-2.778l-22.342-2.662a2.499 2.499 0 1 0-.591 4.964l19.859 2.367-2.366 19.86a2.5 2.5 0 1 0 4.964.591l2.663-22.342Zm-488.321-152.35a2.5 2.5 0 0 0-4.435 2.309l4.435-2.309Zm484.292 150.09c-94.513 74.386-187.829 89.788-271.221 60.406-83.536-29.432-157.612-103.976-213.071-210.496l-4.435 2.309c55.805 107.183 130.698 182.904 215.845 212.903 85.29 30.05 180.37 14.051 275.975-61.193l-3.093-3.929Zm214.228-156.276a2.5 2.5 0 0 0 2.359 2.633l22.466 1.235a2.5 2.5 0 1 0 .275-4.992l-19.97-1.098 1.097-19.97a2.5 2.5 0 1 0-4.992-.274l-1.235 22.466ZM1836.5-135.084a2.5 2.5 0 0 0 3.49-.576 2.495 2.495 0 0 0-.57-3.488l-2.92 4.064ZM591.926 149.948C1070.32-278.598 1547.22-342.448 1836.5-135.084l2.92-4.064c-292.11-209.387-771.7-143.835-1250.83 285.372l3.336 3.724Zm483.734 156.29a2.498 2.498 0 0 1 3.4-.966l19.65 10.959a2.5 2.5 0 0 1 .97 3.401 2.501 2.501 0 0 1-3.4.965l-17.47-9.74-9.74 17.467a2.502 2.502 0 0 1-4.37-2.435l10.96-19.651Zm777.51 128.101a2.5 2.5 0 0 1 2.71 4.199l-2.71-4.199Zm-772.92-127.566c24.68 86.933 63.41 152.429 112.96 198.3 49.54 45.858 110.02 72.219 178.43 80.696 136.94 16.968 305.72-37.72 481.53-151.43l2.71 4.199c-176.25 113.998-346.24 169.369-484.85 152.193-69.36-8.594-130.84-35.355-181.21-81.989-50.37-46.621-89.5-112.987-114.38-200.603l4.81-1.366Z" fill="#FCFFFF"/></g><defs><clipPath id="clip0_389_319"><path fill="#fff" d="M0 0h1792v441H0z"/></clipPath></defs></svg>