<svg role="img" viewBox="0 0 1383.98 165.538" fill="none" xmlns="http://www.w3.org/2000/svg">
<title>The Cortado</title>
<path d="M650.75 0C663.012 0 673.945 2.14242 683.548 6.42676C693.15 10.711 701.276 16.62 707.924 24.1543C714.572 31.6888 719.669 40.5533 723.215 50.7471C725.575 57.4331 727.148 64.5121 727.938 71.9834V3.76465H813.256C820.347 3.76465 826.7 4.94592 832.313 7.30957C838.075 9.52556 842.951 12.6284 846.939 16.6172C848.683 18.2984 850.241 20.0992 851.617 22.0166V3.76465H981.256V33.0156H933.832V161.989H899.04V33.0156H857.194C858.777 37.501 859.571 42.3016 859.571 47.4199C859.571 56.7273 857.577 64.7793 853.588 71.5752C849.747 78.3709 843.394 83.5413 834.53 87.0869V87.5303C838.814 88.7121 842.36 90.5589 845.167 93.0703C847.974 95.4341 850.264 98.315 852.037 101.713C853.81 104.963 855.065 108.583 855.804 112.572C856.69 116.561 857.282 120.549 857.577 124.538C857.725 127.05 857.873 130.005 858.021 133.402C858.168 136.8 858.389 140.273 858.685 143.818C859.128 147.364 859.719 150.762 860.458 154.012C861.344 157.114 862.6 159.773 864.225 161.989H829.433C827.512 156.966 826.331 150.983 825.888 144.04C825.444 137.096 824.779 130.447 823.893 124.095C822.711 115.822 820.199 109.765 816.358 105.924C812.517 102.083 806.238 100.162 797.521 100.162H762.729V161.989H727.938V94.8584C727.148 102.199 725.575 109.212 723.215 115.898C719.669 125.797 714.572 134.439 707.924 141.826C701.276 149.213 693.151 155.049 683.548 159.333C673.945 163.47 663.012 165.538 650.75 165.538C638.636 165.538 627.703 163.47 617.952 159.333C608.349 155.049 600.224 149.213 593.576 141.826C586.928 134.439 581.831 125.797 578.285 115.898C577.154 112.694 576.204 109.414 575.434 106.06C574.3 113.987 572.205 121.256 569.146 127.865C565.452 135.843 560.577 142.639 554.52 148.253C548.462 153.867 541.371 158.152 533.245 161.106C525.12 164.061 516.182 165.538 506.432 165.538C494.317 165.538 483.384 163.47 473.634 159.333C464.031 155.049 455.905 149.213 449.257 141.826C442.609 134.439 437.511 125.797 433.966 115.898C430.42 105.853 428.647 95.068 428.647 83.5449C428.647 71.7261 430.42 60.7931 433.966 50.7471C437.512 40.5533 442.609 31.6888 449.257 24.1543C455.905 16.6198 464.031 10.7111 473.634 6.42676C483.384 2.14242 494.317 0 506.432 0C515.148 4.38912e-05 523.347 1.25612 531.029 3.76758C538.859 6.27909 545.803 9.97238 551.86 14.8477C558.065 19.5751 563.163 25.484 567.151 32.5752C571.14 39.6665 573.651 47.7925 574.686 56.9521H541.002C540.411 52.9633 539.081 49.3439 537.013 46.0938C534.944 42.6959 532.359 39.741 529.257 37.2295C526.154 34.718 522.608 32.7974 518.619 31.4678C514.778 29.9905 510.716 29.252 506.432 29.252C498.602 29.252 491.953 30.8028 486.486 33.9053C481.02 36.86 476.588 40.9231 473.19 46.0938C469.793 51.1167 467.281 56.8786 465.656 63.3789C464.179 69.8792 463.439 76.6014 463.439 83.5449C463.439 90.1929 464.179 96.6934 465.656 103.046C467.281 109.251 469.793 114.865 473.19 119.888C476.588 124.911 481.02 128.974 486.486 132.076C491.953 135.031 498.602 136.508 506.432 136.508C517.068 136.508 525.342 133.258 531.251 126.758C537.308 120.258 541.001 111.689 542.331 101.052H574.428C573.454 95.4189 572.967 89.5834 572.967 83.5449C572.967 71.726 574.739 60.7931 578.285 50.7471C581.831 40.5533 586.928 31.6888 593.576 24.1543C600.224 16.62 608.35 10.711 617.952 6.42676C627.703 2.14242 638.636 7.28632e-06 650.75 0ZM1306.2 0C1318.46 3.41316e-05 1329.39 2.14245 1338.99 6.42676C1348.6 10.711 1356.72 16.62 1363.37 24.1543C1370.02 31.6888 1375.12 40.5533 1378.66 50.7471C1382.21 60.7931 1383.98 71.726 1383.98 83.5449C1383.98 95.0681 1382.21 105.853 1378.66 115.898C1375.12 125.797 1370.02 134.439 1363.37 141.826C1356.72 149.213 1348.6 155.049 1338.99 159.333C1329.39 163.47 1318.46 165.538 1306.2 165.538C1294.08 165.538 1283.15 163.47 1273.4 159.333C1263.8 155.049 1255.67 149.213 1249.02 141.826C1242.37 134.439 1237.28 125.797 1233.73 115.898C1231.94 110.816 1230.6 105.545 1229.71 100.084C1228.98 104.872 1227.94 109.478 1226.6 113.901C1223.65 123.652 1219.14 132.073 1213.09 139.164C1207.18 146.255 1199.72 151.869 1190.7 156.006C1181.84 159.995 1171.35 161.989 1159.24 161.989H1061.15L1049.19 126.755H990.018L977.607 161.989H942.594L1002.43 3.76465H1038.11L1090.98 145.16V3.76465H1159.24C1169.43 3.76468 1178.89 5.38948 1187.6 8.63965C1196.47 11.8898 1204.07 16.7653 1210.43 23.2656C1216.93 29.766 1221.95 37.8911 1225.5 47.6416C1227.54 53.0342 1229.01 58.947 1229.93 65.3789C1230.81 60.3089 1232.08 55.4316 1233.73 50.7471C1237.28 40.5534 1242.37 31.6888 1249.02 24.1543C1255.67 16.6198 1263.8 10.7111 1273.4 6.42676C1283.15 2.14242 1294.08 0 1306.2 0ZM162.74 3.76465V64.4834H226.784V3.76465H261.576V161.989H226.784V93.7354H162.74V161.989H127.948V33.0156H82.2158V161.989H47.4238V33.0156H0V3.76465H162.74ZM388.378 33.0156H304.832V66.9209H381.508V93.957H304.832V132.737H390.15V161.989H270.04V3.76465H388.378V33.0156ZM650.75 29.252C642.92 29.252 636.272 30.8028 630.806 33.9053C625.339 36.86 620.907 40.923 617.509 46.0938C614.111 51.1167 611.6 56.8787 609.975 63.3789C608.497 69.8792 607.759 76.6014 607.759 83.5449C607.759 90.1929 608.497 96.6934 609.975 103.046C611.6 109.251 614.111 114.865 617.509 119.888C620.907 124.911 625.339 128.974 630.806 132.076C636.272 135.031 642.92 136.508 650.75 136.508C658.58 136.508 665.228 135.031 670.694 132.076C676.161 128.974 680.593 124.911 683.991 119.888C687.389 114.865 689.826 109.251 691.304 103.046C692.929 96.6934 693.741 90.1929 693.741 83.5449C693.741 76.6014 692.929 69.8792 691.304 63.3789C689.826 56.8787 687.389 51.1167 683.991 46.0938C680.593 40.923 676.161 36.86 670.694 33.9053C665.228 30.8029 658.58 29.252 650.75 29.252ZM1306.2 29.252C1298.37 29.252 1291.72 30.8029 1286.25 33.9053C1280.79 36.86 1276.35 40.923 1272.96 46.0938C1269.56 51.1167 1267.05 56.8786 1265.42 63.3789C1263.94 69.8792 1263.21 76.6014 1263.21 83.5449C1263.21 90.1929 1263.94 96.6934 1265.42 103.046C1267.05 109.251 1269.56 114.865 1272.96 119.888C1276.35 124.911 1280.79 128.974 1286.25 132.076C1291.72 135.031 1298.37 136.508 1306.2 136.508C1314.03 136.508 1320.67 135.031 1326.14 132.076C1331.61 128.974 1336.04 124.911 1339.44 119.888C1342.83 114.865 1345.27 109.251 1346.75 103.046C1348.38 96.6934 1349.19 90.1929 1349.19 83.5449C1349.19 76.6015 1348.38 69.8792 1346.75 63.3789C1345.27 56.8785 1342.83 51.1168 1339.44 46.0938C1336.04 40.923 1331.61 36.86 1326.14 33.9053C1320.67 30.8029 1314.03 29.252 1306.2 29.252ZM1125.77 132.737H1156.8C1161.82 132.737 1166.7 131.925 1171.42 130.3C1176.15 128.675 1180.36 126.016 1184.06 122.322C1187.75 118.481 1190.7 113.532 1192.92 107.475C1195.14 101.417 1196.24 94.0308 1196.24 85.3145C1196.24 77.3369 1195.43 70.1719 1193.81 63.8193C1192.33 57.319 1189.82 51.7781 1186.27 47.1982C1182.73 42.6184 1178 39.147 1172.09 36.7832C1166.33 34.2718 1159.16 33.0157 1150.59 33.0156H1125.77V132.737ZM999.104 100.827H1040.1L1020.16 42.7666H1019.71L999.104 100.827ZM762.729 75.3428H800.846C808.823 75.3428 814.807 73.5691 818.796 70.0234C822.785 66.4778 824.779 60.7159 824.779 52.7383C824.779 45.0562 822.785 39.516 818.796 36.1182C814.807 32.5726 808.823 30.7998 800.846 30.7998H762.729V75.3428Z" fill="currentColor"/>
</svg>
